<svg xmlns="http://www.w3.org/2000/svg" width="800" height="440" viewBox="0 0 800 440"
     font-family="'Apple SD Gothic Neo', 'Malgun Gothic', Arial, sans-serif">
  <rect width="800" height="440" fill="#f8f9fa" rx="12"/>
  <text x="400" y="36" text-anchor="middle" font-size="17" font-weight="bold" fill="#2c3e50">코스피 5500 회복 — 커뮤니티 반응</text>
  <text x="400" y="54" text-anchor="middle" font-size="11" fill="#7f8c8d">네이버 증권 · 에펨코리아 · 클리앙 | 2026-03-24 17:00 KST</text>
  <rect x="490" y="66" width="12" height="12" fill="#27ae60" rx="2"/>
  <text x="506" y="77" font-size="11" fill="#2c3e50">긍정</text>
  <rect x="548" y="66" width="12" height="12" fill="#e74c3c" rx="2"/>
  <text x="564" y="77" font-size="11" fill="#2c3e50">부정</text>
  <rect x="606" y="66" width="12" height="12" fill="#95a5a6" rx="2"/>
  <text x="622" y="77" font-size="11" fill="#2c3e50">중립</text>

  <text x="60" y="100" font-size="13" font-weight="bold" fill="#2c3e50">네이버 증권 — 긍정 350건 / 부정 180건 / 중립 170건</text>
  <rect x="60" y="110" width="340" height="28" fill="#27ae60" rx="3"/>
  <rect x="400" y="110" width="175" height="28" fill="#e74c3c" rx="3"/>
  <rect x="575" y="110" width="165" height="28" fill="#95a5a6" rx="3"/>
  <text x="60" y="152" text-anchor="start" font-size="11" fill="#27ae60">긍정 50%</text>
  <text x="400" y="152" text-anchor="middle" font-size="11" fill="#e74c3c">부정 26%</text>
  <text x="740" y="152" text-anchor="end" font-size="11" fill="#7f8c8d">중립 24%</text>
  <text x="60" y="168" font-size="11" fill="#555">💬 "광반도체 먼저 담은 사람들 대박, 이게 AI 다음 섹터 맞다"</text>

  <text x="60" y="220" font-size="13" font-weight="bold" fill="#2c3e50">에펨코리아 — 긍정 200건 / 부정 100건 / 중립 100건</text>
  <rect x="60" y="230" width="340" height="28" fill="#27ae60" rx="3"/>
  <rect x="400" y="230" width="170" height="28" fill="#e74c3c" rx="3"/>
  <rect x="570" y="230" width="170" height="28" fill="#95a5a6" rx="3"/>
  <text x="60" y="272" text-anchor="start" font-size="11" fill="#27ae60">긍정 50%</text>
  <text x="400" y="272" text-anchor="middle" font-size="11" fill="#e74c3c">부정 25%</text>
  <text x="740" y="272" text-anchor="end" font-size="11" fill="#7f8c8d">중립 25%</text>
  <text x="60" y="288" font-size="11" fill="#555">💬 "방산·2차전지 계속 담을 것, 중동 불안 끝날 때까지"</text>

  <text x="60" y="340" font-size="13" font-weight="bold" fill="#2c3e50">클리앙 — 긍정 150건 / 부정 80건 / 중립 70건</text>
  <rect x="60" y="350" width="340" height="28" fill="#27ae60" rx="3"/>
  <rect x="400" y="350" width="181" height="28" fill="#e74c3c" rx="3"/>
  <rect x="581" y="350" width="159" height="28" fill="#95a5a6" rx="3"/>
  <text x="60" y="392" text-anchor="start" font-size="11" fill="#27ae60">긍정 50%</text>
  <text x="400" y="392" text-anchor="middle" font-size="11" fill="#e74c3c">부정 27%</text>
  <text x="740" y="392" text-anchor="end" font-size="11" fill="#7f8c8d">중립 23%</text>
  <text x="60" y="408" font-size="11" fill="#555">💬 "트럼프 발언 한마디에 오르내리는 시장, 얼마나 더 지속될지"</text>

  <text x="400" y="426" text-anchor="middle" font-size="10" fill="#bdc3c7">* 수치는 집계된 공감/반응 신호 기반 추산 | paperWanderer</text>
</svg>