<svg xmlns="http://www.w3.org/2000/svg" width="800" height="440" viewBox="0 0 800 440"
     font-family="'Apple SD Gothic Neo', 'Malgun Gothic', Arial, sans-serif">
  <rect width="800" height="440" fill="#f8f9fa" rx="12"/>
  <text x="400" y="36" text-anchor="middle" font-size="17" font-weight="bold" fill="#2c3e50">이란 전쟁 반전시위 — 커뮤니티 반응</text>
  <text x="400" y="54" text-anchor="middle" font-size="11" fill="#7f8c8d">에펨코리아 · 클리앙 · 더쿠 | 2026-03-07 21:00 KST</text>
  <rect x="490" y="66" width="12" height="12" fill="#27ae60" rx="2"/>
  <text x="506" y="77" font-size="11" fill="#2c3e50">긍정</text>
  <rect x="548" y="66" width="12" height="12" fill="#e74c3c" rx="2"/>
  <text x="564" y="77" font-size="11" fill="#2c3e50">부정</text>
  <rect x="606" y="66" width="12" height="12" fill="#95a5a6" rx="2"/>
  <text x="622" y="77" font-size="11" fill="#2c3e50">중립</text>

  <text x="60" y="100" font-size="13" font-weight="bold" fill="#2c3e50">에펨코리아 — 긍정 420건 / 부정 310건 / 중립 770건</text>
  <rect x="60" y="110" width="189" height="28" fill="#27ae60" rx="3"/>
  <rect x="249" y="110" width="140" height="28" fill="#e74c3c" rx="3"/>
  <rect x="389" y="110" width="351" height="28" fill="#95a5a6" rx="3"/>
  <text x="60" y="152" text-anchor="start" font-size="11" fill="#27ae60">긍정 28%</text>
  <text x="400" y="152" text-anchor="middle" font-size="11" fill="#e74c3c">부정 21%</text>
  <text x="740" y="152" text-anchor="end" font-size="11" fill="#7f8c8d">중립 51%</text>
  <text x="60" y="168" font-size="11" fill="#555">💬 "유가 100달러 돌파가 현실화되면 우리 경제 타격이 크다"</text>

  <text x="60" y="220" font-size="13" font-weight="bold" fill="#2c3e50">클리앙 — 긍정 350건 / 부정 280건 / 중립 370건</text>
  <rect x="60" y="230" width="238" height="28" fill="#27ae60" rx="3"/>
  <rect x="298" y="230" width="190" height="28" fill="#e74c3c" rx="3"/>
  <rect x="488" y="230" width="252" height="28" fill="#95a5a6" rx="3"/>
  <text x="60" y="272" text-anchor="start" font-size="11" fill="#27ae60">긍정 35%</text>
  <text x="400" y="272" text-anchor="middle" font-size="11" fill="#e74c3c">부정 28%</text>
  <text x="740" y="272" text-anchor="end" font-size="11" fill="#7f8c8d">중립 37%</text>
  <text x="60" y="288" font-size="11" fill="#555">💬 "반전운동이 의미 있지만 국제 분쟁에 한국이 할 수 있는 게 많지 않다"</text>

  <text x="60" y="340" font-size="13" font-weight="bold" fill="#2c3e50">더쿠 — 긍정 510건 / 부정 190건 / 중립 300건</text>
  <rect x="60" y="350" width="347" height="28" fill="#27ae60" rx="3"/>
  <rect x="407" y="350" width="129" height="28" fill="#e74c3c" rx="3"/>
  <rect x="536" y="350" width="204" height="28" fill="#95a5a6" rx="3"/>
  <text x="60" y="392" text-anchor="start" font-size="11" fill="#27ae60">긍정 51%</text>
  <text x="400" y="392" text-anchor="middle" font-size="11" fill="#e74c3c">부정 19%</text>
  <text x="740" y="392" text-anchor="end" font-size="11" fill="#7f8c8d">중립 30%</text>
  <text x="60" y="408" font-size="11" fill="#555">💬 "민간인 피해가 가장 걱정된다. 전쟁 중단 촉구에 동참"</text>

  <text x="400" y="426" text-anchor="middle" font-size="10" fill="#bdc3c7">* 수치는 집계된 공감/반응 신호 기반 추산 | paperWanderer</text>
</svg>