<svg xmlns="http://www.w3.org/2000/svg" width="800" height="440" viewBox="0 0 800 440"
     font-family="'Apple SD Gothic Neo', 'Malgun Gothic', Arial, sans-serif">
  <rect width="800" height="440" fill="#f8f9fa" rx="12"/>
  <text x="400" y="36" text-anchor="middle" font-size="17" font-weight="bold" fill="#2c3e50">삼성·SK하이닉스 1분기 70조 — 커뮤니티 반응</text>
  <text x="400" y="54" text-anchor="middle" font-size="11" fill="#7f8c8d">에펨코리아 · 클리앙 · 네이버뉴스 | 2026-03-22 KST</text>
  <rect x="490" y="66" width="12" height="12" fill="#27ae60" rx="2"/>
  <text x="506" y="77" font-size="11" fill="#2c3e50">긍정</text>
  <rect x="548" y="66" width="12" height="12" fill="#e74c3c" rx="2"/>
  <text x="564" y="77" font-size="11" fill="#2c3e50">부정</text>
  <rect x="606" y="66" width="12" height="12" fill="#95a5a6" rx="2"/>
  <text x="622" y="77" font-size="11" fill="#2c3e50">중립</text>

  <text x="60" y="100" font-size="13" font-weight="bold" fill="#2c3e50">에펨코리아 — 긍정 250건 / 부정 30건 / 중립 70건</text>
  <rect x="60" y="110" width="476" height="28" fill="#27ae60" rx="3"/>
  <rect x="536" y="110" width="57" height="28" fill="#e74c3c" rx="3"/>
  <rect x="593" y="110" width="147" height="28" fill="#95a5a6" rx="3"/>
  <text x="60" y="152" text-anchor="start" font-size="11" fill="#27ae60">긍정 70%</text>
  <text x="400" y="152" text-anchor="middle" font-size="11" fill="#e74c3c">부정 8%</text>
  <text x="740" y="152" text-anchor="end" font-size="11" fill="#7f8c8d">중립 22%</text>
  <text x="60" y="168" font-size="11" fill="#555">💬 "1분기 합산 70조면 반도체 슈퍼사이클 찐으로 왔다"</text>

  <text x="60" y="220" font-size="13" font-weight="bold" fill="#2c3e50">클리앙 — 긍정 150건 / 부정 25건 / 중립 65건</text>
  <rect x="60" y="230" width="432" height="28" fill="#27ae60" rx="3"/>
  <rect x="492" y="230" width="72" height="28" fill="#e74c3c" rx="3"/>
  <rect x="564" y="230" width="176" height="28" fill="#95a5a6" rx="3"/>
  <text x="60" y="272" text-anchor="start" font-size="11" fill="#27ae60">긍정 64%</text>
  <text x="400" y="272" text-anchor="middle" font-size="11" fill="#e74c3c">부정 11%</text>
  <text x="740" y="272" text-anchor="end" font-size="11" fill="#7f8c8d">중립 25%</text>
  <text x="60" y="288" font-size="11" fill="#555">💬 "SK하이닉스 HBM 독점 구조 유지되는 동안은 실적 꺾이기 어렵다"</text>

  <text x="60" y="340" font-size="13" font-weight="bold" fill="#2c3e50">네이버뉴스 — 긍정 200건 / 부정 20건 / 중립 60건</text>
  <rect x="60" y="350" width="487" height="28" fill="#27ae60" rx="3"/>
  <rect x="547" y="350" width="49" height="28" fill="#e74c3c" rx="3"/>
  <rect x="596" y="350" width="144" height="28" fill="#95a5a6" rx="3"/>
  <text x="60" y="392" text-anchor="start" font-size="11" fill="#27ae60">긍정 72%</text>
  <text x="400" y="392" text-anchor="middle" font-size="11" fill="#e74c3c">부정 7%</text>
  <text x="740" y="392" text-anchor="end" font-size="11" fill="#7f8c8d">중립 21%</text>
  <text x="60" y="408" font-size="11" fill="#555">💬 "주가는 왜 떨어지는지, 실적과 주가 따로 노는 거 이해 안 됨"</text>

  <text x="400" y="426" text-anchor="middle" font-size="10" fill="#bdc3c7">* 수치는 집계된 공감/반응 신호 기반 추산 | paperWanderer</text>
</svg>