<svg xmlns="http://www.w3.org/2000/svg" width="800" height="440" viewBox="0 0 800 440"
     font-family="'Apple SD Gothic Neo', 'Malgun Gothic', Arial, sans-serif">
  <rect width="800" height="440" fill="#f8f9fa" rx="12"/>
  <text x="400" y="36" text-anchor="middle" font-size="17" font-weight="bold" fill="#2c3e50">서울 집값 심리 하락 전환 — 커뮤니티 반응</text>
  <text x="400" y="54" text-anchor="middle" font-size="11" fill="#7f8c8d">네이버뉴스 · 부동산 커뮤니티 · 클리앙 | 2026-03-24 18:00 KST</text>
  <rect x="490" y="66" width="12" height="12" fill="#27ae60" rx="2"/>
  <text x="506" y="77" font-size="11" fill="#2c3e50">긍정</text>
  <rect x="548" y="66" width="12" height="12" fill="#e74c3c" rx="2"/>
  <text x="564" y="77" font-size="11" fill="#2c3e50">부정</text>
  <rect x="606" y="66" width="12" height="12" fill="#95a5a6" rx="2"/>
  <text x="622" y="77" font-size="11" fill="#2c3e50">중립</text>

  <text x="60" y="100" font-size="13" font-weight="bold" fill="#2c3e50">네이버뉴스 댓글 — 긍정 420건 / 부정 280건 / 중립 150건</text>
  <rect x="60" y="110" width="336" height="28" fill="#27ae60" rx="3"/>
  <rect x="396" y="110" width="224" height="28" fill="#e74c3c" rx="3"/>
  <rect x="620" y="110" width="120" height="28" fill="#95a5a6" rx="3"/>
  <text x="60" y="152" text-anchor="start" font-size="11" fill="#27ae60">긍정 49%</text>
  <text x="400" y="152" text-anchor="middle" font-size="11" fill="#e74c3c">부정 33%</text>
  <text x="740" y="152" text-anchor="end" font-size="11" fill="#7f8c8d">중립 18%</text>
  <text x="60" y="168" font-size="11" fill="#555">💬 "드디어 집값 하락 시작이냐, 조금만 더 내려주면 살 수 있겠다"</text>

  <text x="60" y="220" font-size="13" font-weight="bold" fill="#2c3e50">부동산 커뮤니티 — 긍정 200건 / 부정 150건 / 중립 100건</text>
  <rect x="60" y="230" width="302" height="28" fill="#27ae60" rx="3"/>
  <rect x="362" y="230" width="227" height="28" fill="#e74c3c" rx="3"/>
  <rect x="589" y="230" width="151" height="28" fill="#95a5a6" rx="3"/>
  <text x="60" y="272" text-anchor="start" font-size="11" fill="#27ae60">긍정 44%</text>
  <text x="400" y="272" text-anchor="middle" font-size="11" fill="#e74c3c">부정 33%</text>
  <text x="740" y="272" text-anchor="end" font-size="11" fill="#7f8c8d">중립 23%</text>
  <text x="60" y="288" font-size="11" fill="#555">💬 "서울 아파트는 절대 안 떨어진다, 심리일 뿐"</text>

  <text x="60" y="340" font-size="13" font-weight="bold" fill="#2c3e50">클리앙 — 긍정 150건 / 부정 120건 / 중립 110건</text>
  <rect x="60" y="350" width="268" height="28" fill="#27ae60" rx="3"/>
  <rect x="328" y="350" width="215" height="28" fill="#e74c3c" rx="3"/>
  <rect x="543" y="350" width="197" height="28" fill="#95a5a6" rx="3"/>
  <text x="60" y="392" text-anchor="start" font-size="11" fill="#27ae60">긍정 39%</text>
  <text x="400" y="392" text-anchor="middle" font-size="11" fill="#e74c3c">부정 32%</text>
  <text x="740" y="392" text-anchor="end" font-size="11" fill="#7f8c8d">중립 29%</text>
  <text x="60" y="408" font-size="11" fill="#555">💬 "13개월 만에 하락 전환, 매수 타이밍 고민 중"</text>

  <text x="400" y="426" text-anchor="middle" font-size="10" fill="#bdc3c7">* 수치는 집계된 공감/반응 신호 기반 추산 | paperWanderer</text>
</svg>