<svg xmlns="http://www.w3.org/2000/svg" width="800" height="440" viewBox="0 0 800 440"
     font-family="'Apple SD Gothic Neo', 'Malgun Gothic', Arial, sans-serif">
  <rect width="800" height="440" fill="#f8f9fa" rx="12"/>
  <text x="400" y="36" text-anchor="middle" font-size="17" font-weight="bold" fill="#2c3e50">지수 칸 시리즈 어워드 수상 — 커뮤니티 반응</text>
  <text x="400" y="54" text-anchor="middle" font-size="11" fill="#7f8c8d">더쿠 · 에펨코리아 · 트위터 | 2026-03-11 KST</text>
  <rect x="490" y="66" width="12" height="12" fill="#27ae60" rx="2"/>
  <text x="506" y="77" font-size="11" fill="#2c3e50">긍정</text>
  <rect x="548" y="66" width="12" height="12" fill="#e74c3c" rx="2"/>
  <text x="564" y="77" font-size="11" fill="#2c3e50">부정</text>
  <rect x="606" y="66" width="12" height="12" fill="#95a5a6" rx="2"/>
  <text x="622" y="77" font-size="11" fill="#2c3e50">중립</text>

  <text x="60" y="100" font-size="13" font-weight="bold" fill="#2c3e50">더쿠 — 긍정 389건 / 부정 52건 / 중립 93건</text>
  <rect x="60" y="110" width="495" height="28" fill="#27ae60" rx="3"/>
  <rect x="555" y="110" width="66" height="28" fill="#e74c3c" rx="3"/>
  <rect x="621" y="110" width="119" height="28" fill="#95a5a6" rx="3"/>
  <text x="60" y="152" text-anchor="start" font-size="11" fill="#27ae60">긍정 73%</text>
  <text x="400" y="152" text-anchor="middle" font-size="11" fill="#e74c3c">부정 10%</text>
  <text x="740" y="152" text-anchor="end" font-size="11" fill="#7f8c8d">중립 17%</text>

  <text x="60" y="220" font-size="13" font-weight="bold" fill="#2c3e50">에펨코리아 — 긍정 187건 / 부정 37건 / 중립 54건</text>
  <rect x="60" y="230" width="457" height="28" fill="#27ae60" rx="3"/>
  <rect x="517" y="230" width="91" height="28" fill="#e74c3c" rx="3"/>
  <rect x="608" y="230" width="132" height="28" fill="#95a5a6" rx="3"/>
  <text x="60" y="272" text-anchor="start" font-size="11" fill="#27ae60">긍정 67%</text>
  <text x="400" y="272" text-anchor="middle" font-size="11" fill="#e74c3c">부정 13%</text>
  <text x="740" y="272" text-anchor="end" font-size="11" fill="#7f8c8d">중립 20%</text>

  <text x="60" y="340" font-size="13" font-weight="bold" fill="#2c3e50">트위터 — 긍정 134건 / 부정 28건 / 중립 38건</text>
  <rect x="60" y="350" width="456" height="28" fill="#27ae60" rx="3"/>
  <rect x="516" y="350" width="95" height="28" fill="#e74c3c" rx="3"/>
  <rect x="611" y="350" width="129" height="28" fill="#95a5a6" rx="3"/>
  <text x="60" y="392" text-anchor="start" font-size="11" fill="#27ae60">긍정 67%</text>
  <text x="400" y="392" text-anchor="middle" font-size="11" fill="#e74c3c">부정 14%</text>
  <text x="740" y="392" text-anchor="end" font-size="11" fill="#7f8c8d">중립 19%</text>

  <text x="400" y="426" text-anchor="middle" font-size="10" fill="#bdc3c7">* 수치는 집계된 공감/반응 신호 기반 추산 | paperWanderer</text>
</svg>