<svg xmlns="http://www.w3.org/2000/svg" width="800" height="440" viewBox="0 0 800 440"
     font-family="'Apple SD Gothic Neo', 'Malgun Gothic', Arial, sans-serif">
  <rect width="800" height="440" fill="#f8f9fa" rx="12"/>
  <text x="400" y="36" text-anchor="middle" font-size="17" font-weight="bold" fill="#2c3e50">강북 모텔 살인 피의자 검거 — 커뮤니티 반응</text>
  <text x="400" y="54" text-anchor="middle" font-size="11" fill="#7f8c8d">에펨코리아 · 더쿠 · 클리앙 | 2026-03-11 KST</text>
  <rect x="490" y="66" width="12" height="12" fill="#27ae60" rx="2"/>
  <text x="506" y="77" font-size="11" fill="#2c3e50">긍정</text>
  <rect x="548" y="66" width="12" height="12" fill="#e74c3c" rx="2"/>
  <text x="564" y="77" font-size="11" fill="#2c3e50">부정</text>
  <rect x="606" y="66" width="12" height="12" fill="#95a5a6" rx="2"/>
  <text x="622" y="77" font-size="11" fill="#2c3e50">중립</text>

  <text x="60" y="100" font-size="13" font-weight="bold" fill="#2c3e50">에펨코리아 — 긍정 267건 / 부정 21건 / 중립 113건</text>
  <rect x="60" y="110" width="453" height="28" fill="#27ae60" rx="3"/>
  <rect x="513" y="110" width="36" height="28" fill="#e74c3c" rx="3"/>
  <rect x="549" y="110" width="191" height="28" fill="#95a5a6" rx="3"/>
  <text x="60" y="152" text-anchor="start" font-size="11" fill="#27ae60">긍정 67%</text>
  <text x="400" y="152" text-anchor="middle" font-size="11" fill="#e74c3c">부정 5%</text>
  <text x="740" y="152" text-anchor="end" font-size="11" fill="#7f8c8d">중립 28%</text>

  <text x="60" y="220" font-size="13" font-weight="bold" fill="#2c3e50">더쿠 — 긍정 145건 / 부정 13건 / 중립 64건</text>
  <rect x="60" y="230" width="444" height="28" fill="#27ae60" rx="3"/>
  <rect x="504" y="230" width="40" height="28" fill="#e74c3c" rx="3"/>
  <rect x="544" y="230" width="196" height="28" fill="#95a5a6" rx="3"/>
  <text x="60" y="272" text-anchor="start" font-size="11" fill="#27ae60">긍정 65%</text>
  <text x="400" y="272" text-anchor="middle" font-size="11" fill="#e74c3c">부정 6%</text>
  <text x="740" y="272" text-anchor="end" font-size="11" fill="#7f8c8d">중립 29%</text>

  <text x="60" y="340" font-size="13" font-weight="bold" fill="#2c3e50">클리앙 — 긍정 78건 / 부정 9건 / 중립 32건</text>
  <rect x="60" y="350" width="446" height="28" fill="#27ae60" rx="3"/>
  <rect x="506" y="350" width="51" height="28" fill="#e74c3c" rx="3"/>
  <rect x="557" y="350" width="183" height="28" fill="#95a5a6" rx="3"/>
  <text x="60" y="392" text-anchor="start" font-size="11" fill="#27ae60">긍정 66%</text>
  <text x="400" y="392" text-anchor="middle" font-size="11" fill="#e74c3c">부정 8%</text>
  <text x="740" y="392" text-anchor="end" font-size="11" fill="#7f8c8d">중립 26%</text>

  <text x="400" y="426" text-anchor="middle" font-size="10" fill="#bdc3c7">* 수치는 집계된 공감/반응 신호 기반 추산 | paperWanderer</text>
</svg>