<svg xmlns="http://www.w3.org/2000/svg" width="800" height="440" viewBox="0 0 800 440"
     font-family="'Apple SD Gothic Neo', 'Malgun Gothic', Arial, sans-serif">
  <rect width="800" height="440" fill="#f8f9fa" rx="12"/>
  <text x="400" y="36" text-anchor="middle" font-size="17" font-weight="bold" fill="#2c3e50">총선 위성정당 출범 — 커뮤니티 반응</text>
  <text x="400" y="54" text-anchor="middle" font-size="11" fill="#7f8c8d">에펨코리아 · 더쿠 · 네이버뉴스 | 2026-03-23 KST</text>
  <rect x="490" y="66" width="12" height="12" fill="#27ae60" rx="2"/>
  <text x="506" y="77" font-size="11" fill="#2c3e50">긍정</text>
  <rect x="548" y="66" width="12" height="12" fill="#e74c3c" rx="2"/>
  <text x="564" y="77" font-size="11" fill="#2c3e50">부정</text>
  <rect x="606" y="66" width="12" height="12" fill="#95a5a6" rx="2"/>
  <text x="622" y="77" font-size="11" fill="#2c3e50">중립</text>

  <text x="60" y="100" font-size="13" font-weight="bold" fill="#2c3e50">에펨코리아 — 긍정 55건 / 부정 220건 / 중립 405건</text>
  <rect x="60" y="110" width="55" height="28" fill="#27ae60" rx="3"/>
  <rect x="115" y="110" width="220" height="28" fill="#e74c3c" rx="3"/>
  <rect x="335" y="110" width="405" height="28" fill="#95a5a6" rx="3"/>
  <text x="60" y="152" text-anchor="start" font-size="11" fill="#27ae60">긍정 8%</text>
  <text x="400" y="152" text-anchor="middle" font-size="11" fill="#e74c3c">부정 32%</text>
  <text x="740" y="152" text-anchor="end" font-size="11" fill="#7f8c8d">중립 60%</text>
  <text x="60" y="168" font-size="11" fill="#555">💬 "위성정당 또 꼼수 쓰는 거잖아 진짜 질린다"</text>

  <text x="60" y="220" font-size="13" font-weight="bold" fill="#2c3e50">더쿠 — 긍정 70건 / 부정 195건 / 중립 415건</text>
  <rect x="60" y="230" width="70" height="28" fill="#27ae60" rx="3"/>
  <rect x="130" y="230" width="195" height="28" fill="#e74c3c" rx="3"/>
  <rect x="325" y="230" width="415" height="28" fill="#95a5a6" rx="3"/>
  <text x="60" y="272" text-anchor="start" font-size="11" fill="#27ae60">긍정 10%</text>
  <text x="400" y="272" text-anchor="middle" font-size="11" fill="#e74c3c">부정 29%</text>
  <text x="740" y="272" text-anchor="end" font-size="11" fill="#7f8c8d">중립 61%</text>
  <text x="60" y="288" font-size="11" fill="#555">💬 "야당도 여당도 위성정당 없애겠다고 했는데 왜 또 만드는 거냐"</text>

  <text x="60" y="340" font-size="13" font-weight="bold" fill="#2c3e50">네이버뉴스 — 긍정 60건 / 부정 210건 / 중립 410건</text>
  <rect x="60" y="350" width="60" height="28" fill="#27ae60" rx="3"/>
  <rect x="120" y="350" width="210" height="28" fill="#e74c3c" rx="3"/>
  <rect x="330" y="350" width="410" height="28" fill="#95a5a6" rx="3"/>
  <text x="60" y="392" text-anchor="start" font-size="11" fill="#27ae60">긍정 9%</text>
  <text x="400" y="392" text-anchor="middle" font-size="11" fill="#e74c3c">부정 31%</text>
  <text x="740" y="392" text-anchor="end" font-size="11" fill="#7f8c8d">중립 60%</text>
  <text x="60" y="408" font-size="11" fill="#555">💬 "이준석 화성 출마 관심 가는 건 사실. 위성정당은 반대"</text>

  <text x="400" y="426" text-anchor="middle" font-size="10" fill="#bdc3c7">* 수치는 집계된 공감/반응 신호 기반 추산 | paperWanderer</text>
</svg>