<svg xmlns="http://www.w3.org/2000/svg" width="800" height="440" viewBox="0 0 800 440"
     font-family="'Apple SD Gothic Neo', 'Malgun Gothic', Arial, sans-serif">
  <rect width="800" height="440" fill="#f8f9fa" rx="12"/>
  <text x="400" y="36" text-anchor="middle" font-size="17" font-weight="bold" fill="#2c3e50">반도체 장비 동향 — 커뮤니티 반응</text>
  <text x="400" y="54" text-anchor="middle" font-size="11" fill="#7f8c8d">루리웹 · 테크 커뮤니티 | 2026-03-25 20:00 KST</text>
  <rect x="490" y="66" width="12" height="12" fill="#27ae60" rx="2"/>
  <text x="506" y="77" font-size="11" fill="#2c3e50">긍정</text>
  <rect x="548" y="66" width="12" height="12" fill="#e74c3c" rx="2"/>
  <text x="564" y="77" font-size="11" fill="#2c3e50">부정</text>
  <rect x="606" y="66" width="12" height="12" fill="#95a5a6" rx="2"/>
  <text x="622" y="77" font-size="11" fill="#2c3e50">중립</text>

  <text x="60" y="100" font-size="13" font-weight="bold" fill="#2c3e50">루리웹 — 긍정 88건 / 부정 18건 / 중립 24건</text>
  <rect x="60" y="110" width="460" height="28" fill="#27ae60" rx="3"/>
  <rect x="520" y="110" width="94" height="28" fill="#e74c3c" rx="3"/>
  <rect x="614" y="110" width="126" height="28" fill="#95a5a6" rx="3"/>
  <text x="60" y="152" text-anchor="start" font-size="11" fill="#27ae60">긍정 68%</text>
  <text x="400" y="152" text-anchor="middle" font-size="11" fill="#e74c3c">부정 14%</text>
  <text x="740" y="152" text-anchor="end" font-size="11" fill="#7f8c8d">중립 18%</text>
  <text x="60" y="168" font-size="11" fill="#555">💬 "SK하이닉스 독주 체제 더 강화되겠네"</text>

  <text x="60" y="220" font-size="13" font-weight="bold" fill="#2c3e50">테크 커뮤니티 — 삼성 대응 주목</text>
  <rect x="60" y="230" width="408" height="28" fill="#27ae60" rx="3"/>
  <rect x="468" y="230" width="136" height="28" fill="#e74c3c" rx="3"/>
  <rect x="604" y="230" width="136" height="28" fill="#95a5a6" rx="3"/>
  <text x="60" y="272" text-anchor="start" font-size="11" fill="#27ae60">긍정 60%</text>
  <text x="400" y="272" text-anchor="middle" font-size="11" fill="#e74c3c">부정 20%</text>
  <text x="740" y="272" text-anchor="end" font-size="11" fill="#7f8c8d">중립 20%</text>
  <text x="60" y="288" font-size="11" fill="#555">💬 "삼성이 어떻게 대응할지 궁금하다"</text>

  <text x="60" y="340" font-size="13" font-weight="bold" fill="#2c3e50">주식 투자자 커뮤니티 — 장기 긍정</text>
  <rect x="60" y="350" width="476" height="28" fill="#27ae60" rx="3"/>
  <rect x="536" y="350" width="68" height="28" fill="#e74c3c" rx="3"/>
  <rect x="604" y="350" width="136" height="28" fill="#95a5a6" rx="3"/>
  <text x="60" y="392" text-anchor="start" font-size="11" fill="#27ae60">긍정 70%</text>
  <text x="400" y="392" text-anchor="middle" font-size="11" fill="#e74c3c">부정 10%</text>
  <text x="740" y="392" text-anchor="end" font-size="11" fill="#7f8c8d">중립 20%</text>
  <text x="60" y="408" font-size="11" fill="#555">💬 "EUV 장비 선점이 곧 반도체 패권"</text>

  <text x="400" y="426" text-anchor="middle" font-size="10" fill="#bdc3c7">* 수치는 집계된 공감/반응 신호 기반 추산 | paperWanderer</text>
</svg>