<svg xmlns="http://www.w3.org/2000/svg" width="800" height="440" viewBox="0 0 800 440"
     font-family="'Apple SD Gothic Neo', 'Malgun Gothic', Arial, sans-serif">
  <rect width="800" height="440" fill="#f8f9fa" rx="12"/>
  <text x="400" y="36" text-anchor="middle" font-size="17" font-weight="bold" fill="#2c3e50">한국GM 부평 스마트팩토리 — 커뮤니티 반응</text>
  <text x="400" y="54" text-anchor="middle" font-size="11" fill="#7f8c8d">보배드림 · 에펨코리아 · 트위터/X | 2026-03-26 22:00 KST</text>
  <rect x="490" y="66" width="12" height="12" fill="#27ae60" rx="2"/>
  <text x="506" y="77" font-size="11" fill="#2c3e50">긍정</text>
  <rect x="548" y="66" width="12" height="12" fill="#e74c3c" rx="2"/>
  <text x="564" y="77" font-size="11" fill="#2c3e50">부정</text>
  <rect x="606" y="66" width="12" height="12" fill="#95a5a6" rx="2"/>
  <text x="622" y="77" font-size="11" fill="#2c3e50">중립</text>

  <text x="60" y="100" font-size="13" font-weight="bold" fill="#2c3e50">보배드림 — 긍정 30건 / 부정 80건 / 중립 90건</text>
  <rect x="60" y="110" width="102" height="28" fill="#27ae60" rx="3"/>
  <rect x="162" y="110" width="272" height="28" fill="#e74c3c" rx="3"/>
  <rect x="434" y="110" width="306" height="28" fill="#95a5a6" rx="3"/>
  <text x="60" y="152" text-anchor="start" font-size="11" fill="#27ae60">긍정 15%</text>
  <text x="400" y="152" text-anchor="middle" font-size="11" fill="#e74c3c">부정 40%</text>
  <text x="740" y="152" text-anchor="end" font-size="11" fill="#7f8c8d">중립 45%</text>
  <text x="60" y="168" font-size="11" fill="#555">💬 "부평 2공장 폐쇄로 거기서 일하던 친구들 다 짤렸는데"</text>

  <text x="60" y="220" font-size="13" font-weight="bold" fill="#2c3e50">에펨코리아 — 긍정 32건 / 부정 60건 / 중립 108건</text>
  <rect x="60" y="230" width="109" height="28" fill="#27ae60" rx="3"/>
  <rect x="169" y="230" width="204" height="28" fill="#e74c3c" rx="3"/>
  <rect x="373" y="230" width="367" height="28" fill="#95a5a6" rx="3"/>
  <text x="60" y="272" text-anchor="start" font-size="11" fill="#27ae60">긍정 16%</text>
  <text x="400" y="272" text-anchor="middle" font-size="11" fill="#e74c3c">부정 30%</text>
  <text x="740" y="272" text-anchor="end" font-size="11" fill="#7f8c8d">중립 54%</text>
  <text x="60" y="288" font-size="11" fill="#555">💬 "EV 라인 도입이 진짜로 되면 그나마 미래가 있지 않겠냐"</text>

  <text x="60" y="340" font-size="13" font-weight="bold" fill="#2c3e50">트위터/X — 긍정 18건 / 부정 40건 / 중립 142건</text>
  <rect x="60" y="350" width="61" height="28" fill="#27ae60" rx="3"/>
  <rect x="121" y="350" width="136" height="28" fill="#e74c3c" rx="3"/>
  <rect x="257" y="350" width="483" height="28" fill="#95a5a6" rx="3"/>
  <text x="60" y="392" text-anchor="start" font-size="11" fill="#27ae60">긍정 9%</text>
  <text x="400" y="392" text-anchor="middle" font-size="11" fill="#e74c3c">부정 20%</text>
  <text x="740" y="392" text-anchor="end" font-size="11" fill="#7f8c8d">중립 71%</text>
  <text x="60" y="408" font-size="11" fill="#555">💬 "스마트팩토리 하면 결국 사람 더 줄이겠다는 거잖냐"</text>

  <text x="400" y="426" text-anchor="middle" font-size="10" fill="#bdc3c7">* 수치는 집계된 공감/반응 신호 기반 추산 | paperWanderer</text>
</svg>