<svg xmlns="http://www.w3.org/2000/svg" width="800" height="440" viewBox="0 0 800 440"
     font-family="'Apple SD Gothic Neo', 'Malgun Gothic', Arial, sans-serif">
  <rect width="800" height="440" fill="#f8f9fa" rx="12"/>
  <text x="400" y="36" text-anchor="middle" font-size="17" font-weight="bold" fill="#2c3e50">비상경제점검회의 — 커뮤니티 반응</text>
  <text x="400" y="54" text-anchor="middle" font-size="11" fill="#7f8c8d">에펨코리아 · 네이버뉴스 · 트위터/X | 2026-03-26 22:00 KST</text>
  <rect x="490" y="66" width="12" height="12" fill="#27ae60" rx="2"/>
  <text x="506" y="77" font-size="11" fill="#2c3e50">긍정</text>
  <rect x="548" y="66" width="12" height="12" fill="#e74c3c" rx="2"/>
  <text x="564" y="77" font-size="11" fill="#2c3e50">부정</text>
  <rect x="606" y="66" width="12" height="12" fill="#95a5a6" rx="2"/>
  <text x="622" y="77" font-size="11" fill="#2c3e50">중립</text>

  <text x="60" y="100" font-size="13" font-weight="bold" fill="#2c3e50">에펨코리아 — 긍정 200건 / 부정 80건 / 중립 120건</text>
  <rect x="60" y="110" width="340" height="28" fill="#27ae60" rx="3"/>
  <rect x="400" y="110" width="136" height="28" fill="#e74c3c" rx="3"/>
  <rect x="536" y="110" width="204" height="28" fill="#95a5a6" rx="3"/>
  <text x="60" y="152" text-anchor="start" font-size="11" fill="#27ae60">긍정 50%</text>
  <text x="400" y="152" text-anchor="middle" font-size="11" fill="#e74c3c">부정 20%</text>
  <text x="740" y="152" text-anchor="end" font-size="11" fill="#7f8c8d">중립 30%</text>
  <text x="60" y="168" font-size="11" fill="#555">💬 "전기요금 동결은 지금 당장 필요한 조치다"</text>

  <text x="60" y="220" font-size="13" font-weight="bold" fill="#2c3e50">네이버뉴스 — 긍정 180건 / 부정 60건 / 중립 110건</text>
  <rect x="60" y="230" width="350" height="28" fill="#27ae60" rx="3"/>
  <rect x="410" y="230" width="117" height="28" fill="#e74c3c" rx="3"/>
  <rect x="527" y="230" width="213" height="28" fill="#95a5a6" rx="3"/>
  <text x="60" y="272" text-anchor="start" font-size="11" fill="#27ae60">긍정 51%</text>
  <text x="400" y="272" text-anchor="middle" font-size="11" fill="#e74c3c">부정 17%</text>
  <text x="740" y="272" text-anchor="end" font-size="11" fill="#7f8c8d">중립 32%</text>
  <text x="60" y="288" font-size="11" fill="#555">💬 "석유 최고가격제 2차가 효과가 있을지 모르겠다, 유가는 계속 오르는데"</text>

  <text x="60" y="340" font-size="13" font-weight="bold" fill="#2c3e50">트위터/X — 긍정 140건 / 부정 40건 / 중립 130건</text>
  <rect x="60" y="350" width="307" height="28" fill="#27ae60" rx="3"/>
  <rect x="367" y="350" width="88" height="28" fill="#e74c3c" rx="3"/>
  <rect x="455" y="350" width="285" height="28" fill="#95a5a6" rx="3"/>
  <text x="60" y="392" text-anchor="start" font-size="11" fill="#27ae60">긍정 45%</text>
  <text x="400" y="392" text-anchor="middle" font-size="11" fill="#e74c3c">부정 13%</text>
  <text x="740" y="392" text-anchor="end" font-size="11" fill="#7f8c8d">중립 42%</text>
  <text x="60" y="408" font-size="11" fill="#555">💬 "비상경제본부 신설, 이게 속도감 있게 가동되길 바란다"</text>

  <text x="400" y="426" text-anchor="middle" font-size="10" fill="#bdc3c7">* 수치는 집계된 공감/반응 신호 기반 추산 | paperWanderer</text>
</svg>