<svg xmlns="http://www.w3.org/2000/svg" width="800" height="440" viewBox="0 0 800 440"
     font-family="'Apple SD Gothic Neo', 'Malgun Gothic', Arial, sans-serif">
  <rect width="800" height="440" fill="#f8f9fa" rx="12"/>
  <text x="400" y="36" text-anchor="middle" font-size="17" font-weight="bold" fill="#2c3e50">N잡러 부업 급증 — 커뮤니티 반응</text>
  <text x="400" y="54" text-anchor="middle" font-size="11" fill="#7f8c8d">FM코리아 · 블라인드 · 경향신문 댓글 | 2026-03-10 KST</text>
  <rect x="490" y="66" width="12" height="12" fill="#27ae60" rx="2"/>
  <text x="506" y="77" font-size="11" fill="#2c3e50">긍정</text>
  <rect x="548" y="66" width="12" height="12" fill="#e74c3c" rx="2"/>
  <text x="564" y="77" font-size="11" fill="#2c3e50">부정</text>
  <rect x="606" y="66" width="12" height="12" fill="#95a5a6" rx="2"/>
  <text x="622" y="77" font-size="11" fill="#2c3e50">중립</text>

  <text x="60" y="100" font-size="13" font-weight="bold" fill="#2c3e50">FM코리아·블라인드 — 공감 40% / 구조비판 45% / 중립 15%</text>
  <rect x="60" y="110" width="272" height="28" fill="#27ae60" rx="3"/>
  <rect x="332" y="110" width="306" height="28" fill="#e74c3c" rx="3"/>
  <rect x="638" y="110" width="102" height="28" fill="#95a5a6" rx="3"/>
  <text x="60" y="152" text-anchor="start" font-size="11" fill="#27ae60">긍정 40%</text>
  <text x="400" y="152" text-anchor="middle" font-size="11" fill="#e74c3c">부정 45%</text>
  <text x="740" y="152" text-anchor="end" font-size="11" fill="#7f8c8d">중립 15%</text>
  <text x="60" y="168" font-size="11" fill="#555">💬 "월급은 안 오르는데 물가만 오르니까 어쩔 수 없잖아"</text>

  <text x="60" y="220" font-size="13" font-weight="bold" fill="#2c3e50">블라인드(직장인) — 긍정 약 65% / 부정 약 25% / 중립 약 10%</text>
  <rect x="60" y="230" width="442" height="28" fill="#27ae60" rx="3"/>
  <rect x="502" y="230" width="170" height="28" fill="#e74c3c" rx="3"/>
  <rect x="672" y="230" width="68" height="28" fill="#95a5a6" rx="3"/>
  <text x="60" y="272" text-anchor="start" font-size="11" fill="#27ae60">긍정 65%</text>
  <text x="400" y="272" text-anchor="middle" font-size="11" fill="#e74c3c">부정 25%</text>
  <text x="740" y="272" text-anchor="end" font-size="11" fill="#7f8c8d">중립 10%</text>
  <text x="60" y="288" font-size="11" fill="#555">💬 "N잡 안 하면 저축은커녕 생활 유지가 안 됨"</text>

  <text x="60" y="340" font-size="13" font-weight="bold" fill="#2c3e50">경향신문 댓글 — 긍정 약 25% / 구조비판 약 60% / 중립 약 15%</text>
  <rect x="60" y="350" width="170" height="28" fill="#27ae60" rx="3"/>
  <rect x="230" y="350" width="408" height="28" fill="#e74c3c" rx="3"/>
  <rect x="638" y="350" width="102" height="28" fill="#95a5a6" rx="3"/>
  <text x="60" y="392" text-anchor="start" font-size="11" fill="#27ae60">긍정 25%</text>
  <text x="400" y="392" text-anchor="middle" font-size="11" fill="#e74c3c">부정 60%</text>
  <text x="740" y="392" text-anchor="end" font-size="11" fill="#7f8c8d">중립 15%</text>
  <text x="60" y="408" font-size="11" fill="#555">💬 "N잡러 전성시대가 아니라 저임금 구조의 민낯"</text>

  <text x="400" y="426" text-anchor="middle" font-size="10" fill="#bdc3c7">* 수치는 집계된 공감/반응 신호 기반 추산 | paperWanderer</text>
</svg>