<svg xmlns="http://www.w3.org/2000/svg" width="800" height="440" viewBox="0 0 800 440"
     font-family="'Apple SD Gothic Neo', 'Malgun Gothic', Arial, sans-serif">
  <rect width="800" height="440" fill="#f8f9fa" rx="12"/>
  <text x="400" y="36" text-anchor="middle" font-size="17" font-weight="bold" fill="#2c3e50">ITZY 유나 솔로 'Ice Cream' — 커뮤니티 반응</text>
  <text x="400" y="54" text-anchor="middle" font-size="11" fill="#7f8c8d">더쿠 · 네이버뉴스 · X(트위터) | 2026-03-23 KST</text>
  <rect x="490" y="66" width="12" height="12" fill="#27ae60" rx="2"/>
  <text x="506" y="77" font-size="11" fill="#2c3e50">긍정</text>
  <rect x="548" y="66" width="12" height="12" fill="#e74c3c" rx="2"/>
  <text x="564" y="77" font-size="11" fill="#2c3e50">부정</text>
  <rect x="606" y="66" width="12" height="12" fill="#95a5a6" rx="2"/>
  <text x="622" y="77" font-size="11" fill="#2c3e50">중립</text>

  <text x="60" y="100" font-size="13" font-weight="bold" fill="#2c3e50">더쿠 — 긍정 120건 / 부정 35건 / 중립 54건 (댓글 209)</text>
  <rect x="60" y="110" width="390" height="28" fill="#27ae60" rx="3"/>
  <rect x="450" y="110" width="114" height="28" fill="#e74c3c" rx="3"/>
  <rect x="564" y="110" width="176" height="28" fill="#95a5a6" rx="3"/>
  <text x="60" y="152" text-anchor="start" font-size="11" fill="#27ae60">긍정 57%</text>
  <text x="400" y="152" text-anchor="middle" font-size="11" fill="#e74c3c">부정 17%</text>
  <text x="740" y="152" text-anchor="end" font-size="11" fill="#7f8c8d">중립 26%</text>
  <text x="60" y="168" font-size="11" fill="#555">💬 "유나 비주얼 진짜 레전드.. 곡도 너무 좋다 중독됨"</text>

  <text x="60" y="220" font-size="13" font-weight="bold" fill="#2c3e50">네이버뉴스 — 긍정 85건 / 부정 30건 / 중립 55건</text>
  <rect x="60" y="230" width="340" height="28" fill="#27ae60" rx="3"/>
  <rect x="400" y="230" width="120" height="28" fill="#e74c3c" rx="3"/>
  <rect x="520" y="230" width="220" height="28" fill="#95a5a6" rx="3"/>
  <text x="60" y="272" text-anchor="start" font-size="11" fill="#27ae60">긍정 50%</text>
  <text x="400" y="272" text-anchor="middle" font-size="11" fill="#e74c3c">부정 18%</text>
  <text x="740" y="272" text-anchor="end" font-size="11" fill="#7f8c8d">중립 32%</text>
  <text x="60" y="288" font-size="11" fill="#555">💬 "7년 기다렸는데 드디어 솔로네요. 응원합니다!"</text>

  <text x="60" y="340" font-size="13" font-weight="bold" fill="#2c3e50">X(트위터) — 긍정 180건 / 부정 40건 / 중립 60건</text>
  <rect x="60" y="350" width="437" height="28" fill="#27ae60" rx="3"/>
  <rect x="497" y="350" width="97" height="28" fill="#e74c3c" rx="3"/>
  <rect x="594" y="350" width="146" height="28" fill="#95a5a6" rx="3"/>
  <text x="60" y="392" text-anchor="start" font-size="11" fill="#27ae60">긍정 64%</text>
  <text x="400" y="392" text-anchor="middle" font-size="11" fill="#e74c3c">부정 14%</text>
  <text x="740" y="392" text-anchor="end" font-size="11" fill="#7f8c8d">중립 22%</text>
  <text x="60" y="408" font-size="11" fill="#555">💬 "yuna ice cream mv is so aesthetic!! #ITZY #유나"</text>

  <text x="400" y="426" text-anchor="middle" font-size="10" fill="#bdc3c7">* 수치는 집계된 공감/반응 신호 기반 추산 | paperWanderer</text>
</svg>