<svg xmlns="http://www.w3.org/2000/svg" width="800" height="440" viewBox="0 0 800 440"
     font-family="'Apple SD Gothic Neo', 'Malgun Gothic', Arial, sans-serif">
  <rect width="800" height="440" fill="#f8f9fa" rx="12"/>
  <text x="400" y="36" text-anchor="middle" font-size="17" font-weight="bold" fill="#2c3e50">항공사 화물 확대 — 커뮤니티 반응</text>
  <text x="400" y="54" text-anchor="middle" font-size="11" fill="#7f8c8d">네이버 뉴스 · 물류 커뮤니티 · 클리앙 | 2026-03-24 21:00 KST</text>
  <rect x="490" y="66" width="12" height="12" fill="#27ae60" rx="2"/>
  <text x="506" y="77" font-size="11" fill="#2c3e50">긍정</text>
  <rect x="548" y="66" width="12" height="12" fill="#e74c3c" rx="2"/>
  <text x="564" y="77" font-size="11" fill="#2c3e50">부정</text>
  <rect x="606" y="66" width="12" height="12" fill="#95a5a6" rx="2"/>
  <text x="622" y="77" font-size="11" fill="#2c3e50">중립</text>

  <text x="60" y="100" font-size="13" font-weight="bold" fill="#2c3e50">네이버 뉴스 — 긍정 90건 / 부정 50건 / 중립 20건</text>
  <rect x="60" y="110" width="382" height="28" fill="#27ae60" rx="3"/>
  <rect x="442" y="110" width="212" height="28" fill="#e74c3c" rx="3"/>
  <rect x="654" y="110" width="86" height="28" fill="#95a5a6" rx="3"/>
  <text x="60" y="152" text-anchor="start" font-size="11" fill="#27ae60">긍정 56%</text>
  <text x="400" y="152" text-anchor="middle" font-size="11" fill="#e74c3c">부정 31%</text>
  <text x="740" y="152" text-anchor="end" font-size="11" fill="#7f8c8d">중립 13%</text>
  <text x="60" y="168" font-size="11" fill="#555">💬 "환율 1,500원대면 달러로 받는 화물 운임이 원화 환산 대박"</text>

  <text x="60" y="220" font-size="13" font-weight="bold" fill="#2c3e50">물류 커뮤니티 — 긍정 50건 / 부정 30건 / 중립 25건</text>
  <rect x="60" y="230" width="324" height="28" fill="#27ae60" rx="3"/>
  <rect x="384" y="230" width="194" height="28" fill="#e74c3c" rx="3"/>
  <rect x="578" y="230" width="162" height="28" fill="#95a5a6" rx="3"/>
  <text x="60" y="272" text-anchor="start" font-size="11" fill="#27ae60">긍정 48%</text>
  <text x="400" y="272" text-anchor="middle" font-size="11" fill="#e74c3c">부정 29%</text>
  <text x="740" y="272" text-anchor="end" font-size="11" fill="#7f8c8d">중립 23%</text>
  <text x="60" y="288" font-size="11" fill="#555">💬 "트럼프 관세로 수출 물량 줄면 화물도 같이 줄어드는 거 아닌가"</text>

  <text x="60" y="340" font-size="13" font-weight="bold" fill="#2c3e50">클리앙 — 긍정 35건 / 부정 20건 / 중립 15건</text>
  <rect x="60" y="350" width="340" height="28" fill="#27ae60" rx="3"/>
  <rect x="400" y="350" width="194" height="28" fill="#e74c3c" rx="3"/>
  <rect x="594" y="350" width="146" height="28" fill="#95a5a6" rx="3"/>
  <text x="60" y="392" text-anchor="start" font-size="11" fill="#27ae60">긍정 50%</text>
  <text x="400" y="392" text-anchor="middle" font-size="11" fill="#e74c3c">부정 29%</text>
  <text x="740" y="392" text-anchor="end" font-size="11" fill="#7f8c8d">중립 21%</text>
  <text x="60" y="408" font-size="11" fill="#555">💬 "대한항공 아시아나 합치고 화물은 이제 독보적 1위, 수익성 기대"</text>

  <text x="400" y="426" text-anchor="middle" font-size="10" fill="#bdc3c7">* 수치는 집계된 공감/반응 신호 기반 추산 | paperWanderer</text>
</svg>