<svg xmlns="http://www.w3.org/2000/svg" width="800" height="440" viewBox="0 0 800 440"
     font-family="'Apple SD Gothic Neo', 'Malgun Gothic', Arial, sans-serif">
  <rect width="800" height="440" fill="#f8f9fa" rx="12"/>
  <text x="400" y="36" text-anchor="middle" font-size="17" font-weight="bold" fill="#2c3e50">K-POP 3월 컴백 러시 — 커뮤니티 반응</text>
  <text x="400" y="54" text-anchor="middle" font-size="11" fill="#7f8c8d">트위터/X · 에펨코리아 · 더쿠 | 2026-03-07 21:00 KST</text>
  <rect x="490" y="66" width="12" height="12" fill="#27ae60" rx="2"/>
  <text x="506" y="77" font-size="11" fill="#2c3e50">긍정</text>
  <rect x="548" y="66" width="12" height="12" fill="#e74c3c" rx="2"/>
  <text x="564" y="77" font-size="11" fill="#2c3e50">부정</text>
  <rect x="606" y="66" width="12" height="12" fill="#95a5a6" rx="2"/>
  <text x="622" y="77" font-size="11" fill="#2c3e50">중립</text>

  <text x="60" y="100" font-size="13" font-weight="bold" fill="#2c3e50">트위터/X — 긍정 1,480건 / 부정 120건 / 중립 400건</text>
  <rect x="60" y="110" width="504" height="28" fill="#27ae60" rx="3"/>
  <rect x="564" y="110" width="41" height="28" fill="#e74c3c" rx="3"/>
  <rect x="605" y="110" width="135" height="28" fill="#95a5a6" rx="3"/>
  <text x="60" y="152" text-anchor="start" font-size="11" fill="#27ae60">긍정 74%</text>
  <text x="400" y="152" text-anchor="middle" font-size="11" fill="#e74c3c">부정 6%</text>
  <text x="740" y="152" text-anchor="end" font-size="11" fill="#7f8c8d">중립 20%</text>
  <text x="60" y="168" font-size="11" fill="#555">💬 "3월에 이렇게 많이 나오다니! 최애 컴백 기다린다"</text>

  <text x="60" y="220" font-size="13" font-weight="bold" fill="#2c3e50">에펨코리아 — 긍정 620건 / 부정 80건 / 중립 300건</text>
  <rect x="60" y="230" width="421" height="28" fill="#27ae60" rx="3"/>
  <rect x="481" y="230" width="54" height="28" fill="#e74c3c" rx="3"/>
  <rect x="535" y="230" width="205" height="28" fill="#95a5a6" rx="3"/>
  <text x="60" y="272" text-anchor="start" font-size="11" fill="#27ae60">긍정 62%</text>
  <text x="400" y="272" text-anchor="middle" font-size="11" fill="#e74c3c">부정 8%</text>
  <text x="740" y="272" text-anchor="end" font-size="11" fill="#7f8c8d">중립 30%</text>
  <text x="60" y="288" font-size="11" fill="#555">💬 "FIVE O ONE 컴백 좋고. 20주년 레전드들 돌아왔다"</text>

  <text x="60" y="340" font-size="13" font-weight="bold" fill="#2c3e50">더쿠 — 긍정 780건 / 부정 60건 / 중립 160건</text>
  <rect x="60" y="350" width="530" height="28" fill="#27ae60" rx="3"/>
  <rect x="590" y="350" width="41" height="28" fill="#e74c3c" rx="3"/>
  <rect x="631" y="350" width="109" height="28" fill="#95a5a6" rx="3"/>
  <text x="60" y="392" text-anchor="start" font-size="11" fill="#27ae60">긍정 78%</text>
  <text x="400" y="392" text-anchor="middle" font-size="11" fill="#e74c3c">부정 6%</text>
  <text x="740" y="392" text-anchor="end" font-size="11" fill="#7f8c8d">중립 16%</text>
  <text x="60" y="408" font-size="11" fill="#555">💬 "제니 팝업 다녀온 후기 올려주세요 부탁"</text>

  <text x="400" y="426" text-anchor="middle" font-size="10" fill="#bdc3c7">* 수치는 집계된 공감/반응 신호 기반 추산 | paperWanderer</text>
</svg>