<svg xmlns="http://www.w3.org/2000/svg" width="800" height="440" viewBox="0 0 800 440"
     font-family="'Apple SD Gothic Neo', 'Malgun Gothic', Arial, sans-serif">
  <rect width="800" height="440" fill="#f8f9fa" rx="12"/>
  <text x="400" y="36" text-anchor="middle" font-size="17" font-weight="bold" fill="#2c3e50">봄철 반려동물 건강 관리 — 커뮤니티 반응</text>
  <text x="400" y="54" text-anchor="middle" font-size="11" fill="#7f8c8d">반려동물커뮤니티 · SNS · 포털댓글 | 2026-03-02 KST</text>
  <rect x="490" y="66" width="12" height="12" fill="#27ae60" rx="2"/>
  <text x="506" y="77" font-size="11" fill="#2c3e50">긍정</text>
  <rect x="548" y="66" width="12" height="12" fill="#e74c3c" rx="2"/>
  <text x="564" y="77" font-size="11" fill="#2c3e50">부정</text>
  <rect x="606" y="66" width="12" height="12" fill="#95a5a6" rx="2"/>
  <text x="622" y="77" font-size="11" fill="#2c3e50">중립</text>

  <text x="60" y="100" font-size="13" font-weight="bold" fill="#2c3e50">반려동물 커뮤니티 — 긍정 78건 / 부정 10건 / 중립 12건</text>
  <rect x="60" y="110" width="530" height="28" fill="#27ae60" rx="3"/>
  <rect x="590" y="110" width="68" height="28" fill="#e74c3c" rx="3"/>
  <rect x="658" y="110" width="82" height="28" fill="#95a5a6" rx="3"/>
  <text x="60" y="152" text-anchor="start" font-size="11" fill="#27ae60">긍정 78%</text>
  <text x="400" y="152" text-anchor="middle" font-size="11" fill="#e74c3c">부정 10%</text>
  <text x="740" y="152" text-anchor="end" font-size="11" fill="#7f8c8d">중립 12%</text>
  <text x="60" y="168" font-size="11" fill="#555">💬 "봄이 되면 진드기 예방약 꼭 챙기는 게 루틴이다"</text>

  <text x="60" y="220" font-size="13" font-weight="bold" fill="#2c3e50">SNS 반응 — 긍정 82건 / 부정 6건 / 중립 12건</text>
  <rect x="60" y="230" width="558" height="28" fill="#27ae60" rx="3"/>
  <rect x="618" y="230" width="41" height="28" fill="#e74c3c" rx="3"/>
  <rect x="659" y="230" width="81" height="28" fill="#95a5a6" rx="3"/>
  <text x="60" y="272" text-anchor="start" font-size="11" fill="#27ae60">긍정 82%</text>
  <text x="400" y="272" text-anchor="middle" font-size="11" fill="#e74c3c">부정 6%</text>
  <text x="740" y="272" text-anchor="end" font-size="11" fill="#7f8c8d">중립 12%</text>
  <text x="60" y="288" font-size="11" fill="#555">💬 "털갈이 시즌에 빗질 열심히 해줘야 고양이도 편하다"</text>

  <text x="60" y="340" font-size="13" font-weight="bold" fill="#2c3e50">포털 뉴스 댓글 — 긍정 68건 / 부정 18건 / 중립 14건</text>
  <rect x="60" y="350" width="462" height="28" fill="#27ae60" rx="3"/>
  <rect x="522" y="350" width="122" height="28" fill="#e74c3c" rx="3"/>
  <rect x="644" y="350" width="96" height="28" fill="#95a5a6" rx="3"/>
  <text x="60" y="392" text-anchor="start" font-size="11" fill="#27ae60">긍정 68%</text>
  <text x="400" y="392" text-anchor="middle" font-size="11" fill="#e74c3c">부정 18%</text>
  <text x="740" y="392" text-anchor="end" font-size="11" fill="#7f8c8d">중립 14%</text>
  <text x="60" y="408" font-size="11" fill="#555">💬 "봄마다 동물병원 비용이 만만치 않다"</text>

  <text x="400" y="426" text-anchor="middle" font-size="10" fill="#bdc3c7">* 수치는 집계된 공감/반응 신호 기반 추산 | paperWanderer</text>
</svg>