<svg xmlns="http://www.w3.org/2000/svg" width="800" height="440" viewBox="0 0 800 440"
     font-family="'Apple SD Gothic Neo', 'Malgun Gothic', Arial, sans-serif">
  <rect width="800" height="440" fill="#f8f9fa" rx="12"/>
  <text x="400" y="36" text-anchor="middle" font-size="17" font-weight="bold" fill="#2c3e50">미·이란 전쟁 한국 경제 충격 — 커뮤니티 반응</text>
  <text x="400" y="54" text-anchor="middle" font-size="11" fill="#7f8c8d">에펨코리아 · 디시인사이드 · 네이버뉴스 | 2026-03-26 19:00 KST</text>
  <rect x="490" y="66" width="12" height="12" fill="#27ae60" rx="2"/>
  <text x="506" y="77" font-size="11" fill="#2c3e50">긍정</text>
  <rect x="548" y="66" width="12" height="12" fill="#e74c3c" rx="2"/>
  <text x="564" y="77" font-size="11" fill="#2c3e50">부정</text>
  <rect x="606" y="66" width="12" height="12" fill="#95a5a6" rx="2"/>
  <text x="622" y="77" font-size="11" fill="#2c3e50">중립</text>

  <text x="60" y="100" font-size="13" font-weight="bold" fill="#2c3e50">에펨코리아 — 긍정 20건 / 부정 120건 / 중립 200건</text>
  <rect x="60" y="110" width="40" height="28" fill="#27ae60" rx="3"/>
  <rect x="100" y="110" width="240" height="28" fill="#e74c3c" rx="3"/>
  <rect x="340" y="110" width="400" height="28" fill="#95a5a6" rx="3"/>
  <text x="60" y="152" text-anchor="start" font-size="11" fill="#27ae60">긍정 6%</text>
  <text x="400" y="152" text-anchor="middle" font-size="11" fill="#e74c3c">부정 35%</text>
  <text x="740" y="152" text-anchor="end" font-size="11" fill="#7f8c8d">중립 59%</text>
  <text x="60" y="168" font-size="11" fill="#555">💬 "전쟁 한 달도 안 돼서 이 정도면 장기화되면 진짜 큰일"</text>

  <text x="60" y="220" font-size="13" font-weight="bold" fill="#2c3e50">디시인사이드 — 긍정 15건 / 부정 85건 / 중립 60건</text>
  <rect x="60" y="230" width="64" height="28" fill="#27ae60" rx="3"/>
  <rect x="124" y="230" width="361" height="28" fill="#e74c3c" rx="3"/>
  <rect x="485" y="230" width="255" height="28" fill="#95a5a6" rx="3"/>
  <text x="60" y="272" text-anchor="start" font-size="11" fill="#27ae60">긍정 9%</text>
  <text x="400" y="272" text-anchor="middle" font-size="11" fill="#e74c3c">부정 53%</text>
  <text x="740" y="272" text-anchor="end" font-size="11" fill="#7f8c8d">중립 38%</text>
  <text x="60" y="288" font-size="11" fill="#555">💬 "코스피 5,400선 무너지면 진짜 위험 신호 아닌가"</text>

  <text x="60" y="340" font-size="13" font-weight="bold" fill="#2c3e50">네이버뉴스 댓글 — 긍정 25건 / 부정 95건 / 중립 80건</text>
  <rect x="60" y="350" width="85" height="28" fill="#27ae60" rx="3"/>
  <rect x="145" y="350" width="323" height="28" fill="#e74c3c" rx="3"/>
  <rect x="468" y="350" width="272" height="28" fill="#95a5a6" rx="3"/>
  <text x="60" y="392" text-anchor="start" font-size="11" fill="#27ae60">긍정 12%</text>
  <text x="400" y="392" text-anchor="middle" font-size="11" fill="#e74c3c">부정 48%</text>
  <text x="740" y="392" text-anchor="end" font-size="11" fill="#7f8c8d">중립 40%</text>
  <text x="60" y="408" font-size="11" fill="#555">💬 "환율 1,500원에 기름값 폭등…체감 물가 너무 심하다"</text>

  <text x="400" y="426" text-anchor="middle" font-size="10" fill="#bdc3c7">* 수치는 집계된 공감/반응 신호 기반 추산 | paperWanderer</text>
</svg>