<svg xmlns="http://www.w3.org/2000/svg" width="800" height="440" viewBox="0 0 800 440"
     font-family="'Apple SD Gothic Neo', 'Malgun Gothic', Arial, sans-serif">
  <rect width="800" height="440" fill="#f8f9fa" rx="12"/>
  <text x="400" y="36" text-anchor="middle" font-size="17" font-weight="bold" fill="#2c3e50">미중 무역 협상 — 커뮤니티 반응</text>
  <text x="400" y="54" text-anchor="middle" font-size="11" fill="#7f8c8d">네이버 뉴스 댓글 · 경제 커뮤니티 · 클리앙 | 2026-03-16 20:00 KST</text>
  <rect x="490" y="66" width="12" height="12" fill="#27ae60" rx="2"/>
  <text x="506" y="77" font-size="11" fill="#2c3e50">긍정</text>
  <rect x="548" y="66" width="12" height="12" fill="#e74c3c" rx="2"/>
  <text x="564" y="77" font-size="11" fill="#2c3e50">부정</text>
  <rect x="606" y="66" width="12" height="12" fill="#95a5a6" rx="2"/>
  <text x="622" y="77" font-size="11" fill="#2c3e50">중립</text>

  <text x="60" y="100" font-size="13" font-weight="bold" fill="#2c3e50">네이버 뉴스 댓글 — 긍정 110건 / 부정 200건 / 중립 230건</text>
  <rect x="60" y="110" width="138" height="28" fill="#27ae60" rx="3"/>
  <rect x="198" y="110" width="250" height="28" fill="#e74c3c" rx="3"/>
  <rect x="448" y="110" width="292" height="28" fill="#95a5a6" rx="3"/>
  <text x="60" y="152" text-anchor="start" font-size="11" fill="#27ae60">긍정 20%</text>
  <text x="400" y="152" text-anchor="middle" font-size="11" fill="#e74c3c">부정 37%</text>
  <text x="740" y="152" text-anchor="end" font-size="11" fill="#7f8c8d">중립 43%</text>
  <text x="60" y="168" font-size="11" fill="#555">💬 "미중이 싸울 때마다 한국이 새우 등 터지는 신세다"</text>

  <text x="60" y="220" font-size="13" font-weight="bold" fill="#2c3e50">경제 커뮤니티 — 긍정 40건 / 부정 80건 / 중립 180건</text>
  <rect x="60" y="230" width="91" height="28" fill="#27ae60" rx="3"/>
  <rect x="151" y="230" width="182" height="28" fill="#e74c3c" rx="3"/>
  <rect x="333" y="230" width="407" height="28" fill="#95a5a6" rx="3"/>
  <text x="60" y="272" text-anchor="start" font-size="11" fill="#27ae60">긍정 13%</text>
  <text x="400" y="272" text-anchor="middle" font-size="11" fill="#e74c3c">부정 27%</text>
  <text x="740" y="272" text-anchor="end" font-size="11" fill="#7f8c8d">중립 60%</text>
  <text x="60" y="288" font-size="11" fill="#555">💬 "협상이 잘 되면 반도체 수출 숨통 트일 텐데"</text>

  <text x="60" y="340" font-size="13" font-weight="bold" fill="#2c3e50">클리앙 — 긍정 30건 / 부정 40건 / 중립 90건</text>
  <rect x="60" y="350" width="122" height="28" fill="#27ae60" rx="3"/>
  <rect x="182" y="350" width="163" height="28" fill="#e74c3c" rx="3"/>
  <rect x="345" y="350" width="395" height="28" fill="#95a5a6" rx="3"/>
  <text x="60" y="392" text-anchor="start" font-size="11" fill="#27ae60">긍정 18%</text>
  <text x="400" y="392" text-anchor="middle" font-size="11" fill="#e74c3c">부정 24%</text>
  <text x="740" y="392" text-anchor="end" font-size="11" fill="#7f8c8d">중립 58%</text>
  <text x="60" y="408" font-size="11" fill="#555">💬 "관세 전쟁은 장기전이다 한국도 다변화 전략 서둘러야"</text>

  <text x="400" y="426" text-anchor="middle" font-size="10" fill="#bdc3c7">* 수치는 집계된 공감/반응 신호 기반 추산 | paperWanderer</text>
</svg>