<svg xmlns="http://www.w3.org/2000/svg" width="800" height="440" viewBox="0 0 800 440"
     font-family="'Apple SD Gothic Neo', 'Malgun Gothic', Arial, sans-serif">
  <rect width="800" height="440" fill="#f8f9fa" rx="12"/>
  <text x="400" y="36" text-anchor="middle" font-size="17" font-weight="bold" fill="#2c3e50">서울 아파트 공시가격 18% 급등 — 커뮤니티 반응</text>
  <text x="400" y="54" text-anchor="middle" font-size="11" fill="#7f8c8d">에펨코리아 · 디시인사이드 · 네이버 뉴스 | 2026-03-06 KST</text>
  <rect x="490" y="66" width="12" height="12" fill="#27ae60" rx="2"/>
  <text x="506" y="77" font-size="11" fill="#2c3e50">긍정</text>
  <rect x="548" y="66" width="12" height="12" fill="#e74c3c" rx="2"/>
  <text x="564" y="77" font-size="11" fill="#2c3e50">부정</text>
  <rect x="606" y="66" width="12" height="12" fill="#95a5a6" rx="2"/>
  <text x="622" y="77" font-size="11" fill="#2c3e50">중립</text>

  <text x="60" y="100" font-size="13" font-weight="bold" fill="#2c3e50">에펨코리아 — 긍정 9건 / 부정 124건 / 중립 28건</text>
  <rect x="60" y="110" width="38" height="28" fill="#27ae60" rx="3"/>
  <rect x="98" y="110" width="524" height="28" fill="#e74c3c" rx="3"/>
  <rect x="622" y="110" width="118" height="28" fill="#95a5a6" rx="3"/>
  <text x="60" y="152" text-anchor="start" font-size="11" fill="#27ae60">긍정 6%</text>
  <text x="400" y="152" text-anchor="middle" font-size="11" fill="#e74c3c">부정 77%</text>
  <text x="740" y="152" text-anchor="end" font-size="11" fill="#7f8c8d">중립 17%</text>
  <text x="60" y="168" font-size="11" fill="#555">💬 "집값 오른 거 공시가에 반영하면 세금 폭탄이지 뭐"</text>

  <text x="60" y="220" font-size="13" font-weight="bold" fill="#2c3e50">디시인사이드 — 긍정 11건 / 부정 98건 / 중립 19건</text>
  <rect x="60" y="230" width="58" height="28" fill="#27ae60" rx="3"/>
  <rect x="118" y="230" width="521" height="28" fill="#e74c3c" rx="3"/>
  <rect x="639" y="230" width="101" height="28" fill="#95a5a6" rx="3"/>
  <text x="60" y="272" text-anchor="start" font-size="11" fill="#27ae60">긍정 9%</text>
  <text x="400" y="272" text-anchor="middle" font-size="11" fill="#e74c3c">부정 77%</text>
  <text x="740" y="272" text-anchor="end" font-size="11" fill="#7f8c8d">중립 14%</text>
  <text x="60" y="288" font-size="11" fill="#555">💬 "강남은 올라도 세금 내고 버티는데 서민들만 죽어남"</text>

  <text x="60" y="340" font-size="13" font-weight="bold" fill="#2c3e50">네이버 뉴스 — 긍정 14건 / 부정 187건 / 중립 42건</text>
  <rect x="60" y="350" width="39" height="28" fill="#27ae60" rx="3"/>
  <rect x="99" y="350" width="523" height="28" fill="#e74c3c" rx="3"/>
  <rect x="622" y="350" width="118" height="28" fill="#95a5a6" rx="3"/>
  <text x="60" y="392" text-anchor="start" font-size="11" fill="#27ae60">긍정 6%</text>
  <text x="400" y="392" text-anchor="middle" font-size="11" fill="#e74c3c">부정 77%</text>
  <text x="740" y="392" text-anchor="end" font-size="11" fill="#7f8c8d">중립 17%</text>
  <text x="60" y="408" font-size="11" fill="#555">💬 "실제 거래도 안 되는데 공시가는 왜 이렇게 올리냐"</text>

  <text x="400" y="426" text-anchor="middle" font-size="10" fill="#bdc3c7">* 수치는 집계된 공감/반응 신호 기반 추산 | paperWanderer</text>
</svg>