<svg xmlns="http://www.w3.org/2000/svg" width="800" height="440" viewBox="0 0 800 440"
     font-family="'Apple SD Gothic Neo', 'Malgun Gothic', Arial, sans-serif">
  <rect width="800" height="440" fill="#f8f9fa" rx="12"/>
  <text x="400" y="36" text-anchor="middle" font-size="17" font-weight="bold" fill="#2c3e50">KBO 3월 17일 시범경기 — 커뮤니티 반응</text>
  <text x="400" y="54" text-anchor="middle" font-size="11" fill="#7f8c8d">에펨코리아 · 야구갤러리 · MLB파크 | 2026-03-17 KST</text>
  <rect x="490" y="66" width="12" height="12" fill="#27ae60" rx="2"/>
  <text x="506" y="77" font-size="11" fill="#2c3e50">긍정</text>
  <rect x="548" y="66" width="12" height="12" fill="#e74c3c" rx="2"/>
  <text x="564" y="77" font-size="11" fill="#2c3e50">부정</text>
  <rect x="606" y="66" width="12" height="12" fill="#95a5a6" rx="2"/>
  <text x="622" y="77" font-size="11" fill="#2c3e50">중립</text>

  <text x="60" y="100" font-size="13" font-weight="bold" fill="#2c3e50">에펨코리아 — 긍정 180건 / 부정 36건 / 중립 84건</text>
  <rect x="60" y="110" width="408" height="28" fill="#27ae60" rx="3"/>
  <rect x="468" y="110" width="82" height="28" fill="#e74c3c" rx="3"/>
  <rect x="550" y="110" width="190" height="28" fill="#95a5a6" rx="3"/>
  <text x="60" y="152" text-anchor="start" font-size="11" fill="#27ae60">긍정 60%</text>
  <text x="400" y="152" text-anchor="middle" font-size="11" fill="#e74c3c">부정 12%</text>
  <text x="740" y="152" text-anchor="end" font-size="11" fill="#7f8c8d">중립 28%</text>
  <text x="60" y="168" font-size="11" fill="#555">💬 "시범경기 봤는데 올해 LG 진짜 강하다"</text>

  <text x="60" y="220" font-size="13" font-weight="bold" fill="#2c3e50">야구갤러리 — 긍정 160건 / 부정 32건 / 중립 58건</text>
  <rect x="60" y="230" width="435" height="28" fill="#27ae60" rx="3"/>
  <rect x="495" y="230" width="87" height="28" fill="#e74c3c" rx="3"/>
  <rect x="582" y="230" width="158" height="28" fill="#95a5a6" rx="3"/>
  <text x="60" y="272" text-anchor="start" font-size="11" fill="#27ae60">긍정 64%</text>
  <text x="400" y="272" text-anchor="middle" font-size="11" fill="#e74c3c">부정 13%</text>
  <text x="740" y="272" text-anchor="end" font-size="11" fill="#7f8c8d">중립 23%</text>
  <text x="60" y="288" font-size="11" fill="#555">💬 "삼성 외국인 투수 구위 장난 아니던데"</text>

  <text x="60" y="340" font-size="13" font-weight="bold" fill="#2c3e50">MLB파크 — 긍정 110건 / 부정 22건 / 중립 68건</text>
  <rect x="60" y="350" width="374" height="28" fill="#27ae60" rx="3"/>
  <rect x="434" y="350" width="75" height="28" fill="#e74c3c" rx="3"/>
  <rect x="509" y="350" width="231" height="28" fill="#95a5a6" rx="3"/>
  <text x="60" y="392" text-anchor="start" font-size="11" fill="#27ae60">긍정 55%</text>
  <text x="400" y="392" text-anchor="middle" font-size="11" fill="#e74c3c">부정 11%</text>
  <text x="740" y="392" text-anchor="end" font-size="11" fill="#7f8c8d">중립 34%</text>
  <text x="60" y="408" font-size="11" fill="#555">💬 "시범경기 결과는 의미 없다, 실전 가봐야 안다"</text>

  <text x="400" y="426" text-anchor="middle" font-size="10" fill="#bdc3c7">* 수치는 집계된 공감/반응 신호 기반 추산 | paperWanderer</text>
</svg>