<svg xmlns="http://www.w3.org/2000/svg" width="800" height="440" viewBox="0 0 800 440"
     font-family="'Apple SD Gothic Neo', 'Malgun Gothic', Arial, sans-serif">
  <rect width="800" height="440" fill="#f8f9fa" rx="12"/>
  <text x="400" y="36" text-anchor="middle" font-size="17" font-weight="bold" fill="#2c3e50">F&amp;F 테일러메이드 — 커뮤니티 반응</text>
  <text x="400" y="54" text-anchor="middle" font-size="11" fill="#7f8c8d">네이버 금융 · 증권 커뮤니티 · 클리앙 | 2026-03-24 21:00 KST</text>
  <rect x="490" y="66" width="12" height="12" fill="#27ae60" rx="2"/>
  <text x="506" y="77" font-size="11" fill="#2c3e50">긍정</text>
  <rect x="548" y="66" width="12" height="12" fill="#e74c3c" rx="2"/>
  <text x="564" y="77" font-size="11" fill="#2c3e50">부정</text>
  <rect x="606" y="66" width="12" height="12" fill="#95a5a6" rx="2"/>
  <text x="622" y="77" font-size="11" fill="#2c3e50">중립</text>

  <text x="60" y="100" font-size="13" font-weight="bold" fill="#2c3e50">네이버 금융 — 긍정 90건 / 부정 60건 / 중립 40건</text>
  <rect x="60" y="110" width="322" height="28" fill="#27ae60" rx="3"/>
  <rect x="382" y="110" width="215" height="28" fill="#e74c3c" rx="3"/>
  <rect x="597" y="110" width="143" height="28" fill="#95a5a6" rx="3"/>
  <text x="60" y="152" text-anchor="start" font-size="11" fill="#27ae60">긍정 47%</text>
  <text x="400" y="152" text-anchor="middle" font-size="11" fill="#e74c3c">부정 32%</text>
  <text x="740" y="152" text-anchor="end" font-size="11" fill="#7f8c8d">중립 21%</text>
  <text x="60" y="168" font-size="11" fill="#555">💬 "테일러메이드 4~5조 사는 건 무리, 지분 매각해 1조 챙기는 게 현명"</text>

  <text x="60" y="220" font-size="13" font-weight="bold" fill="#2c3e50">증권 커뮤니티 — 긍정 70건 / 부정 40건 / 중립 30건</text>
  <rect x="60" y="230" width="340" height="28" fill="#27ae60" rx="3"/>
  <rect x="400" y="230" width="194" height="28" fill="#e74c3c" rx="3"/>
  <rect x="594" y="230" width="146" height="28" fill="#95a5a6" rx="3"/>
  <text x="60" y="272" text-anchor="start" font-size="11" fill="#27ae60">긍정 50%</text>
  <text x="400" y="272" text-anchor="middle" font-size="11" fill="#e74c3c">부정 29%</text>
  <text x="740" y="272" text-anchor="end" font-size="11" fill="#7f8c8d">중립 21%</text>
  <text x="60" y="288" font-size="11" fill="#555">💬 "인수 못 하면 성장 스토리 사라지는 것, 주가엔 악재"</text>

  <text x="60" y="340" font-size="13" font-weight="bold" fill="#2c3e50">클리앙 — 긍정 30건 / 부정 20건 / 중립 20건</text>
  <rect x="60" y="350" width="291" height="28" fill="#27ae60" rx="3"/>
  <rect x="351" y="350" width="194" height="28" fill="#e74c3c" rx="3"/>
  <rect x="545" y="350" width="195" height="28" fill="#95a5a6" rx="3"/>
  <text x="60" y="392" text-anchor="start" font-size="11" fill="#27ae60">긍정 43%</text>
  <text x="400" y="392" text-anchor="middle" font-size="11" fill="#e74c3c">부정 29%</text>
  <text x="740" y="392" text-anchor="end" font-size="11" fill="#7f8c8d">중립 28%</text>
  <text x="60" y="408" font-size="11" fill="#555">💬 "MLB 중국 잘 되고 있으니 지금은 기존 브랜드 강화가 맞다"</text>

  <text x="400" y="426" text-anchor="middle" font-size="10" fill="#bdc3c7">* 수치는 집계된 공감/반응 신호 기반 추산 | paperWanderer</text>
</svg>