<svg xmlns="http://www.w3.org/2000/svg" width="800" height="440" viewBox="0 0 800 440"
     font-family="'Apple SD Gothic Neo', 'Malgun Gothic', Arial, sans-serif">
  <rect width="800" height="440" fill="#f8f9fa" rx="12"/>
  <text x="400" y="36" text-anchor="middle" font-size="17" font-weight="bold" fill="#2c3e50">케이팝 데몬 헌터스 시즌2 발표 — 커뮤니티 반응</text>
  <text x="400" y="54" text-anchor="middle" font-size="11" fill="#7f8c8d">클리앙 · 더쿠(theqoo) · 루리웹 | 2026-03-13 KST</text>
  <rect x="490" y="66" width="12" height="12" fill="#27ae60" rx="2"/>
  <text x="506" y="77" font-size="11" fill="#2c3e50">긍정</text>
  <rect x="548" y="66" width="12" height="12" fill="#e74c3c" rx="2"/>
  <text x="564" y="77" font-size="11" fill="#2c3e50">부정</text>
  <rect x="606" y="66" width="12" height="12" fill="#95a5a6" rx="2"/>
  <text x="622" y="77" font-size="11" fill="#2c3e50">중립</text>

  <text x="60" y="100" font-size="13" font-weight="bold" fill="#2c3e50">클리앙 — 긍정 300건 / 부정 120건 / 중립 260건</text>
  <rect x="60" y="110" width="300" height="28" fill="#27ae60" rx="3"/>
  <rect x="360" y="110" width="120" height="28" fill="#e74c3c" rx="3"/>
  <rect x="480" y="110" width="260" height="28" fill="#95a5a6" rx="3"/>
  <text x="60" y="152" text-anchor="start" font-size="11" fill="#27ae60">긍정 44%</text>
  <text x="400" y="152" text-anchor="middle" font-size="11" fill="#e74c3c">부정 18%</text>
  <text x="740" y="152" text-anchor="end" font-size="11" fill="#7f8c8d">중립 38%</text>
  <text x="60" y="168" font-size="11" fill="#555">💬 "한국인 디렉터 팀 빠진 게 걱정. Kim's Convenience 전철 밟을까봐"</text>

  <text x="60" y="220" font-size="13" font-weight="bold" fill="#2c3e50">더쿠(theqoo) — 긍정 380건 / 부정 80건 / 중립 220건</text>
  <rect x="60" y="230" width="380" height="28" fill="#27ae60" rx="3"/>
  <rect x="440" y="230" width="80" height="28" fill="#e74c3c" rx="3"/>
  <rect x="520" y="230" width="220" height="28" fill="#95a5a6" rx="3"/>
  <text x="60" y="272" text-anchor="start" font-size="11" fill="#27ae60">긍정 56%</text>
  <text x="400" y="272" text-anchor="middle" font-size="11" fill="#e74c3c">부정 12%</text>
  <text x="740" y="272" text-anchor="end" font-size="11" fill="#7f8c8d">중립 32%</text>
  <text x="60" y="288" font-size="11" fill="#555">💬 "케데헌2 공식 확정!! 매기 강 감독 복귀라니 너무 기대돼"</text>

  <text x="60" y="340" font-size="13" font-weight="bold" fill="#2c3e50">루리웹 — 긍정 340건 / 부정 100건 / 중립 240건</text>
  <rect x="60" y="350" width="340" height="28" fill="#27ae60" rx="3"/>
  <rect x="400" y="350" width="100" height="28" fill="#e74c3c" rx="3"/>
  <rect x="500" y="350" width="240" height="28" fill="#95a5a6" rx="3"/>
  <text x="60" y="392" text-anchor="start" font-size="11" fill="#27ae60">긍정 50%</text>
  <text x="400" y="392" text-anchor="middle" font-size="11" fill="#e74c3c">부정 15%</text>
  <text x="740" y="392" text-anchor="end" font-size="11" fill="#7f8c8d">중립 35%</text>
  <text x="60" y="408" font-size="11" fill="#555">💬 "1편 글로벌 흥행 보고 시즌2 당연한 수순. 이번엔 더 큰 예산 기대"</text>

  <text x="400" y="426" text-anchor="middle" font-size="10" fill="#bdc3c7">* 수치는 집계된 공감/반응 신호 기반 추산 | paperWanderer</text>
</svg>