<svg xmlns="http://www.w3.org/2000/svg" width="800" height="440" viewBox="0 0 800 440"
     font-family="'Apple SD Gothic Neo', 'Malgun Gothic', Arial, sans-serif">
  <rect width="800" height="440" fill="#f8f9fa" rx="12"/>
  <text x="400" y="36" text-anchor="middle" font-size="17" font-weight="bold" fill="#2c3e50">지방선거 여론조사 — 커뮤니티 반응</text>
  <text x="400" y="54" text-anchor="middle" font-size="11" fill="#7f8c8d">네이버 뉴스 · 에펨코리아 · 온라인 커뮤니티 | 2026-03-24 22:00 KST</text>
  <rect x="490" y="66" width="12" height="12" fill="#27ae60" rx="2"/>
  <text x="506" y="77" font-size="11" fill="#2c3e50">긍정</text>
  <rect x="548" y="66" width="12" height="12" fill="#e74c3c" rx="2"/>
  <text x="564" y="77" font-size="11" fill="#2c3e50">부정</text>
  <rect x="606" y="66" width="12" height="12" fill="#95a5a6" rx="2"/>
  <text x="622" y="77" font-size="11" fill="#2c3e50">중립</text>

  <text x="60" y="100" font-size="13" font-weight="bold" fill="#2c3e50">네이버 뉴스 — 긍정 360건 / 부정 175건 / 중립 155건</text>
  <rect x="60" y="110" width="350" height="28" fill="#27ae60" rx="3"/>
  <rect x="410" y="110" width="175" height="28" fill="#e74c3c" rx="3"/>
  <rect x="585" y="110" width="155" height="28" fill="#95a5a6" rx="3"/>
  <text x="60" y="152" text-anchor="start" font-size="11" fill="#27ae60">긍정 51%</text>
  <text x="400" y="152" text-anchor="middle" font-size="11" fill="#e74c3c">부정 26%</text>
  <text x="740" y="152" text-anchor="end" font-size="11" fill="#7f8c8d">중립 23%</text>
  <text x="60" y="168" font-size="11" fill="#555">💬 "이재명 지지율 70% 가까이 되는데 지방선거는 이미 끝났다"</text>

  <text x="60" y="220" font-size="13" font-weight="bold" fill="#2c3e50">에펨코리아 — 긍정 220건 / 부정 100건 / 중립 80건</text>
  <rect x="60" y="230" width="374" height="28" fill="#27ae60" rx="3"/>
  <rect x="434" y="230" width="170" height="28" fill="#e74c3c" rx="3"/>
  <rect x="604" y="230" width="136" height="28" fill="#95a5a6" rx="3"/>
  <text x="60" y="272" text-anchor="start" font-size="11" fill="#27ae60">긍정 55%</text>
  <text x="400" y="272" text-anchor="middle" font-size="11" fill="#e74c3c">부정 25%</text>
  <text x="740" y="272" text-anchor="end" font-size="11" fill="#7f8c8d">중립 20%</text>
  <text x="60" y="288" font-size="11" fill="#555">💬 "TK에서도 동률이면 국힘 텃밭이 흔들리는 것, 큰일 났다"</text>

  <text x="60" y="340" font-size="13" font-weight="bold" fill="#2c3e50">온라인 커뮤니티 — 긍정 150건 / 부정 60건 / 중립 40건</text>
  <rect x="60" y="350" width="408" height="28" fill="#27ae60" rx="3"/>
  <rect x="468" y="350" width="163" height="28" fill="#e74c3c" rx="3"/>
  <rect x="631" y="350" width="109" height="28" fill="#95a5a6" rx="3"/>
  <text x="60" y="392" text-anchor="start" font-size="11" fill="#27ae60">긍정 60%</text>
  <text x="400" y="392" text-anchor="middle" font-size="11" fill="#e74c3c">부정 24%</text>
  <text x="740" y="392" text-anchor="end" font-size="11" fill="#7f8c8d">중립 16%</text>
  <text x="60" y="408" font-size="11" fill="#555">💬 "여론조사 믿지 말자, 선거까지 두 달 남았다"</text>

  <text x="400" y="426" text-anchor="middle" font-size="10" fill="#bdc3c7">* 수치는 집계된 공감/반응 신호 기반 추산 | paperWanderer</text>
</svg>