<svg xmlns="http://www.w3.org/2000/svg" width="800" height="440" viewBox="0 0 800 440"
     font-family="'Apple SD Gothic Neo', 'Malgun Gothic', Arial, sans-serif">
  <rect width="800" height="440" fill="#f8f9fa" rx="12"/>
  <text x="400" y="36" text-anchor="middle" font-size="17" font-weight="bold" fill="#2c3e50">마이크로소프트 AI 투어 서울 — 커뮤니티 반응</text>
  <text x="400" y="54" text-anchor="middle" font-size="11" fill="#7f8c8d">트위터/X · 에펨코리아 · 링크드인 | 2026-03-26 22:00 KST</text>
  <rect x="490" y="66" width="12" height="12" fill="#27ae60" rx="2"/>
  <text x="506" y="77" font-size="11" fill="#2c3e50">긍정</text>
  <rect x="548" y="66" width="12" height="12" fill="#e74c3c" rx="2"/>
  <text x="564" y="77" font-size="11" fill="#2c3e50">부정</text>
  <rect x="606" y="66" width="12" height="12" fill="#95a5a6" rx="2"/>
  <text x="622" y="77" font-size="11" fill="#2c3e50">중립</text>

  <text x="60" y="100" font-size="13" font-weight="bold" fill="#2c3e50">트위터/X — 긍정 130건 / 부정 14건 / 중립 160건</text>
  <rect x="60" y="110" width="291" height="28" fill="#27ae60" rx="3"/>
  <rect x="351" y="110" width="31" height="28" fill="#e74c3c" rx="3"/>
  <rect x="382" y="110" width="358" height="28" fill="#95a5a6" rx="3"/>
  <text x="60" y="152" text-anchor="start" font-size="11" fill="#27ae60">긍정 43%</text>
  <text x="400" y="152" text-anchor="middle" font-size="11" fill="#e74c3c">부정 5%</text>
  <text x="740" y="152" text-anchor="end" font-size="11" fill="#7f8c8d">중립 52%</text>
  <text x="60" y="168" font-size="11" fill="#555">💬 "마이크로소프트가 한국에 AI 거점 만든다는 거 꽤 실질적인 움직임이다"</text>

  <text x="60" y="220" font-size="13" font-weight="bold" fill="#2c3e50">에펨코리아 — 긍정 100건 / 부정 10건 / 중립 100건</text>
  <rect x="60" y="230" width="324" height="28" fill="#27ae60" rx="3"/>
  <rect x="384" y="230" width="32" height="28" fill="#e74c3c" rx="3"/>
  <rect x="416" y="230" width="324" height="28" fill="#95a5a6" rx="3"/>
  <text x="60" y="272" text-anchor="start" font-size="11" fill="#27ae60">긍정 48%</text>
  <text x="400" y="272" text-anchor="middle" font-size="11" fill="#e74c3c">부정 5%</text>
  <text x="740" y="272" text-anchor="end" font-size="11" fill="#7f8c8d">중립 47%</text>
  <text x="60" y="288" font-size="11" fill="#555">💬 "말만 글로벌 AI 허브지, 실제 투자 규모가 중요하다"</text>

  <text x="60" y="340" font-size="13" font-weight="bold" fill="#2c3e50">링크드인 — 긍정 60건 / 부정 6건 / 중립 60건</text>
  <rect x="60" y="350" width="324" height="28" fill="#27ae60" rx="3"/>
  <rect x="384" y="350" width="32" height="28" fill="#e74c3c" rx="3"/>
  <rect x="416" y="350" width="324" height="28" fill="#95a5a6" rx="3"/>
  <text x="60" y="392" text-anchor="start" font-size="11" fill="#27ae60">긍정 48%</text>
  <text x="400" y="392" text-anchor="middle" font-size="11" fill="#e74c3c">부정 5%</text>
  <text x="740" y="392" text-anchor="end" font-size="11" fill="#7f8c8d">중립 47%</text>
  <text x="60" y="408" font-size="11" fill="#555">💬 "AI 에이전트 시대에 한국이 허브가 될 수 있으면 좋겠다"</text>

  <text x="400" y="426" text-anchor="middle" font-size="10" fill="#bdc3c7">* 수치는 집계된 공감/반응 신호 기반 추산 | paperWanderer</text>
</svg>