<svg xmlns="http://www.w3.org/2000/svg" width="800" height="322" viewBox="0 0 800 322"
     font-family="'Apple SD Gothic Neo', 'Malgun Gothic', Arial, sans-serif">
  <rect width="800" height="322" fill="#f8f9fa" rx="12"/>
  <text x="400" y="36" text-anchor="middle" font-size="17" font-weight="bold" fill="#2c3e50">삼성·엔비디아 HBM4E 동맹 — 커뮤니티 반응</text>
  <text x="400" y="54" text-anchor="middle" font-size="11" fill="#7f8c8d">네이버IT뉴스 · 클리앙 · 에펨코리아 | 2026-03-13 KST</text>
  <rect x="490" y="66" width="12" height="12" fill="#27ae60" rx="2"/>
  <text x="506" y="77" font-size="11" fill="#2c3e50">긍정</text>
  <rect x="548" y="66" width="12" height="12" fill="#e74c3c" rx="2"/>
  <text x="564" y="77" font-size="11" fill="#2c3e50">부정</text>
  <rect x="606" y="66" width="12" height="12" fill="#95a5a6" rx="2"/>
  <text x="622" y="77" font-size="11" fill="#2c3e50">중립</text>

  <text x="60" y="100" font-size="13" font-weight="bold" fill="#2c3e50">네이버IT뉴스 — 긍정 480건 / 부정 80건</text>
  <rect x="60" y="110" width="583" height="28" fill="#27ae60" rx="3"/>
  <rect x="643" y="110" width="97" height="28" fill="#e74c3c" rx="3"/>
  <text x="60" y="152" text-anchor="start" font-size="11" fill="#27ae60">긍정 86%</text>
  <text x="400" y="152" text-anchor="middle" font-size="11" fill="#e74c3c">부정 14%</text>
  <text x="740" y="152" text-anchor="end" font-size="11" fill="#7f8c8d">중립 0%</text>
  <text x="60" y="168" font-size="11" fill="#555">💬 "삼성이 드디어 엔비디아 공급망에 복귀하는 신호. 주가 반응 기대"</text>

  <text x="60" y="220" font-size="13" font-weight="bold" fill="#2c3e50">클리앙·에펨코리아 — 긍정 480건 / 부정 80건</text>
  <rect x="60" y="230" width="583" height="28" fill="#27ae60" rx="3"/>
  <rect x="643" y="230" width="97" height="28" fill="#e74c3c" rx="3"/>
  <text x="60" y="272" text-anchor="start" font-size="11" fill="#27ae60">긍정 86%</text>
  <text x="400" y="272" text-anchor="middle" font-size="11" fill="#e74c3c">부정 14%</text>
  <text x="740" y="272" text-anchor="end" font-size="11" fill="#7f8c8d">중립 0%</text>

  <text x="400" y="308" text-anchor="middle" font-size="10" fill="#bdc3c7">* 수치는 집계된 공감/반응 신호 기반 추산 | paperWanderer</text>
</svg>