<svg xmlns="http://www.w3.org/2000/svg" width="800" height="440" viewBox="0 0 800 440"
     font-family="'Apple SD Gothic Neo', 'Malgun Gothic', Arial, sans-serif">
  <rect width="800" height="440" fill="#f8f9fa" rx="12"/>
  <text x="400" y="36" text-anchor="middle" font-size="17" font-weight="bold" fill="#2c3e50">남양주 스토킹 살인 — 커뮤니티 반응</text>
  <text x="400" y="54" text-anchor="middle" font-size="11" fill="#7f8c8d">네이버뉴스 · 에펨코리아 · 클리앙 | 2026-03-24 16:00 KST</text>
  <rect x="490" y="66" width="12" height="12" fill="#27ae60" rx="2"/>
  <text x="506" y="77" font-size="11" fill="#2c3e50">긍정</text>
  <rect x="548" y="66" width="12" height="12" fill="#e74c3c" rx="2"/>
  <text x="564" y="77" font-size="11" fill="#2c3e50">부정</text>
  <rect x="606" y="66" width="12" height="12" fill="#95a5a6" rx="2"/>
  <text x="622" y="77" font-size="11" fill="#2c3e50">중립</text>

  <text x="60" y="100" font-size="13" font-weight="bold" fill="#2c3e50">네이버뉴스 댓글 — 긍정 900건 / 부정 60건 / 중립 140건</text>
  <rect x="60" y="110" width="556" height="28" fill="#27ae60" rx="3"/>
  <rect x="616" y="110" width="37" height="28" fill="#e74c3c" rx="3"/>
  <rect x="653" y="110" width="87" height="28" fill="#95a5a6" rx="3"/>
  <text x="60" y="152" text-anchor="start" font-size="11" fill="#27ae60">긍정 82%</text>
  <text x="400" y="152" text-anchor="middle" font-size="11" fill="#e74c3c">부정 5%</text>
  <text x="740" y="152" text-anchor="end" font-size="11" fill="#7f8c8d">중립 13%</text>
  <text x="60" y="168" font-size="11" fill="#555">💬 "6번 신고하고 스마트워치까지 눌렀는데, 경찰이 직무유기한 것"</text>

  <text x="60" y="220" font-size="13" font-weight="bold" fill="#2c3e50">에펨코리아 — 긍정 350건 / 부정 20건 / 중립 50건</text>
  <rect x="60" y="230" width="567" height="28" fill="#27ae60" rx="3"/>
  <rect x="627" y="230" width="32" height="28" fill="#e74c3c" rx="3"/>
  <rect x="659" y="230" width="81" height="28" fill="#95a5a6" rx="3"/>
  <text x="60" y="272" text-anchor="start" font-size="11" fill="#27ae60">긍정 83%</text>
  <text x="400" y="272" text-anchor="middle" font-size="11" fill="#e74c3c">부정 5%</text>
  <text x="740" y="272" text-anchor="end" font-size="11" fill="#7f8c8d">중립 12%</text>
  <text x="60" y="288" font-size="11" fill="#555">💬 "전자발찌 차고 있어도 소용없다는 걸 다시 확인. 제도 바꿔야"</text>

  <text x="60" y="340" font-size="13" font-weight="bold" fill="#2c3e50">클리앙 — 긍정 180건 / 부정 10건 / 중립 30건</text>
  <rect x="60" y="350" width="556" height="28" fill="#27ae60" rx="3"/>
  <rect x="616" y="350" width="31" height="28" fill="#e74c3c" rx="3"/>
  <rect x="647" y="350" width="93" height="28" fill="#95a5a6" rx="3"/>
  <text x="60" y="392" text-anchor="start" font-size="11" fill="#27ae60">긍정 82%</text>
  <text x="400" y="392" text-anchor="middle" font-size="11" fill="#e74c3c">부정 5%</text>
  <text x="740" y="392" text-anchor="end" font-size="11" fill="#7f8c8d">중립 13%</text>
  <text x="60" y="408" font-size="11" fill="#555">💬 "피해자가 할 수 있는 모든 걸 했는데도 막지 못했다"</text>

  <text x="400" y="426" text-anchor="middle" font-size="10" fill="#bdc3c7">* 수치는 집계된 공감/반응 신호 기반 추산 | paperWanderer</text>
</svg>