<svg xmlns="http://www.w3.org/2000/svg" width="800" height="440" viewBox="0 0 800 440"
     font-family="'Apple SD Gothic Neo', 'Malgun Gothic', Arial, sans-serif">
  <rect width="800" height="440" fill="#f8f9fa" rx="12"/>
  <text x="400" y="36" text-anchor="middle" font-size="17" font-weight="bold" fill="#2c3e50">WBC 미국 준결승 — 커뮤니티 반응</text>
  <text x="400" y="54" text-anchor="middle" font-size="11" fill="#7f8c8d">네이버 스포츠 · 야구 커뮤니티 · 보배드림 | 2026-03-16 23:00 KST</text>
  <rect x="490" y="66" width="12" height="12" fill="#27ae60" rx="2"/>
  <text x="506" y="77" font-size="11" fill="#2c3e50">긍정</text>
  <rect x="548" y="66" width="12" height="12" fill="#e74c3c" rx="2"/>
  <text x="564" y="77" font-size="11" fill="#2c3e50">부정</text>
  <rect x="606" y="66" width="12" height="12" fill="#95a5a6" rx="2"/>
  <text x="622" y="77" font-size="11" fill="#2c3e50">중립</text>

  <text x="60" y="100" font-size="13" font-weight="bold" fill="#2c3e50">네이버 스포츠 댓글 — 긍정 200건 / 부정 300건 / 중립 0건</text>
  <rect x="60" y="110" width="218" height="28" fill="#27ae60" rx="3"/>
  <rect x="278" y="110" width="462" height="28" fill="#e74c3c" rx="3"/>
  <text x="60" y="152" text-anchor="start" font-size="11" fill="#27ae60">긍정 32%</text>
  <text x="400" y="152" text-anchor="middle" font-size="11" fill="#e74c3c">부정 68%</text>
  <text x="740" y="152" text-anchor="end" font-size="11" fill="#7f8c8d">중립 0%</text>
  <text x="60" y="168" font-size="11" fill="#555">💬 "우리가 준결승에 있어야 했는데 아쉽다"</text>

  <text x="60" y="220" font-size="13" font-weight="bold" fill="#2c3e50">야구 커뮤니티 — 긍정 80건 / 부정 140건 / 중립 80건</text>
  <rect x="60" y="230" width="181" height="28" fill="#27ae60" rx="3"/>
  <rect x="241" y="230" width="316" height="28" fill="#e74c3c" rx="3"/>
  <rect x="557" y="230" width="183" height="28" fill="#95a5a6" rx="3"/>
  <text x="60" y="272" text-anchor="start" font-size="11" fill="#27ae60">긍정 27%</text>
  <text x="400" y="272" text-anchor="middle" font-size="11" fill="#e74c3c">부정 46%</text>
  <text x="740" y="272" text-anchor="end" font-size="11" fill="#7f8c8d">중립 27%</text>
  <text x="60" y="288" font-size="11" fill="#555">💬 "저 경기 퀄리티를 보면 세계 최정상 야구가 어떤 건지 알겠다"</text>

  <text x="60" y="340" font-size="13" font-weight="bold" fill="#2c3e50">보배드림 — 긍정 40건 / 부정 40건 / 중립 120건</text>
  <rect x="60" y="350" width="136" height="28" fill="#27ae60" rx="3"/>
  <rect x="196" y="350" width="136" height="28" fill="#e74c3c" rx="3"/>
  <rect x="332" y="350" width="408" height="28" fill="#95a5a6" rx="3"/>
  <text x="60" y="392" text-anchor="start" font-size="11" fill="#27ae60">긍정 20%</text>
  <text x="400" y="392" text-anchor="middle" font-size="11" fill="#e74c3c">부정 20%</text>
  <text x="740" y="392" text-anchor="end" font-size="11" fill="#7f8c8d">중립 60%</text>
  <text x="60" y="408" font-size="11" fill="#555">💬 "한국 야구 시스템 개혁이 절실하다 WBC 성적이 말해준다"</text>

  <text x="400" y="426" text-anchor="middle" font-size="10" fill="#bdc3c7">* 수치는 집계된 공감/반응 신호 기반 추산 | paperWanderer</text>
</svg>