<svg xmlns="http://www.w3.org/2000/svg" width="800" height="440" viewBox="0 0 800 440"
     font-family="'Apple SD Gothic Neo', 'Malgun Gothic', Arial, sans-serif">
  <rect width="800" height="440" fill="#f8f9fa" rx="12"/>
  <text x="400" y="36" text-anchor="middle" font-size="17" font-weight="bold" fill="#2c3e50">아이폰 에어 공개·사전예약 — 커뮤니티 반응</text>
  <text x="400" y="54" text-anchor="middle" font-size="11" fill="#7f8c8d">클리앙 · 루리웹 · ITWorld 댓글 | 2026-03-12 KST</text>
  <rect x="490" y="66" width="12" height="12" fill="#27ae60" rx="2"/>
  <text x="506" y="77" font-size="11" fill="#2c3e50">긍정</text>
  <rect x="548" y="66" width="12" height="12" fill="#e74c3c" rx="2"/>
  <text x="564" y="77" font-size="11" fill="#2c3e50">부정</text>
  <rect x="606" y="66" width="12" height="12" fill="#95a5a6" rx="2"/>
  <text x="622" y="77" font-size="11" fill="#2c3e50">중립</text>

  <text x="60" y="100" font-size="13" font-weight="bold" fill="#2c3e50">클리앙 — 긍정 120건 / 부정 35건 / 중립 45건</text>
  <rect x="60" y="110" width="408" height="28" fill="#27ae60" rx="3"/>
  <rect x="468" y="110" width="119" height="28" fill="#e74c3c" rx="3"/>
  <rect x="587" y="110" width="153" height="28" fill="#95a5a6" rx="3"/>
  <text x="60" y="152" text-anchor="start" font-size="11" fill="#27ae60">긍정 60%</text>
  <text x="400" y="152" text-anchor="middle" font-size="11" fill="#e74c3c">부정 18%</text>
  <text x="740" y="152" text-anchor="end" font-size="11" fill="#7f8c8d">중립 22%</text>
  <text x="60" y="168" font-size="11" fill="#555">💬 "5.66mm 두께... 실물로 보면 진짜 신기할 것 같다" (공감 213)</text>

  <text x="60" y="220" font-size="13" font-weight="bold" fill="#2c3e50">루리웹 — 긍정 95건 / 부정 45건 / 중립 60건</text>
  <rect x="60" y="230" width="323" height="28" fill="#27ae60" rx="3"/>
  <rect x="383" y="230" width="153" height="28" fill="#e74c3c" rx="3"/>
  <rect x="536" y="230" width="204" height="28" fill="#95a5a6" rx="3"/>
  <text x="60" y="272" text-anchor="start" font-size="11" fill="#27ae60">긍정 48%</text>
  <text x="400" y="272" text-anchor="middle" font-size="11" fill="#e74c3c">부정 22%</text>
  <text x="740" y="272" text-anchor="end" font-size="11" fill="#7f8c8d">중립 30%</text>
  <text x="60" y="288" font-size="11" fill="#555">💬 "120Hz에 A19 Pro... 아이폰17 프로 대신 이거 살 것 같다" (공감 167)</text>

  <text x="60" y="340" font-size="13" font-weight="bold" fill="#2c3e50">ITWorld 댓글 — 긍정 75건 / 부정 55건 / 중립 70건</text>
  <rect x="60" y="350" width="255" height="28" fill="#27ae60" rx="3"/>
  <rect x="315" y="350" width="187" height="28" fill="#e74c3c" rx="3"/>
  <rect x="502" y="350" width="238" height="28" fill="#95a5a6" rx="3"/>
  <text x="60" y="392" text-anchor="start" font-size="11" fill="#27ae60">긍정 38%</text>
  <text x="400" y="392" text-anchor="middle" font-size="11" fill="#e74c3c">부정 28%</text>
  <text x="740" y="392" text-anchor="end" font-size="11" fill="#7f8c8d">중립 34%</text>
  <text x="60" y="408" font-size="11" fill="#555">💬 "배터리 27시간인데 한 칩 탑재라 실제 성능이 관건" (공감 89)</text>

  <text x="400" y="426" text-anchor="middle" font-size="10" fill="#bdc3c7">* 수치는 집계된 공감/반응 신호 기반 추산 | paperWanderer</text>
</svg>