<svg xmlns="http://www.w3.org/2000/svg" width="800" height="440" viewBox="0 0 800 440"
     font-family="'Apple SD Gothic Neo', 'Malgun Gothic', Arial, sans-serif">
  <rect width="800" height="440" fill="#f8f9fa" rx="12"/>
  <text x="400" y="36" text-anchor="middle" font-size="17" font-weight="bold" fill="#2c3e50">배달앱 포장 수수료 도입 — 커뮤니티 반응</text>
  <text x="400" y="54" text-anchor="middle" font-size="11" fill="#7f8c8d">에펨코리아 · 네이버뉴스 · 트위터/X | 2026-03-26 22:00 KST</text>
  <rect x="490" y="66" width="12" height="12" fill="#27ae60" rx="2"/>
  <text x="506" y="77" font-size="11" fill="#2c3e50">긍정</text>
  <rect x="548" y="66" width="12" height="12" fill="#e74c3c" rx="2"/>
  <text x="564" y="77" font-size="11" fill="#2c3e50">부정</text>
  <rect x="606" y="66" width="12" height="12" fill="#95a5a6" rx="2"/>
  <text x="622" y="77" font-size="11" fill="#2c3e50">중립</text>

  <text x="60" y="100" font-size="13" font-weight="bold" fill="#2c3e50">에펨코리아 — 긍정 12건 / 부정 240건 / 중립 148건</text>
  <rect x="60" y="110" width="20" height="28" fill="#27ae60" rx="3"/>
  <rect x="80" y="110" width="408" height="28" fill="#e74c3c" rx="3"/>
  <rect x="488" y="110" width="252" height="28" fill="#95a5a6" rx="3"/>
  <text x="60" y="152" text-anchor="start" font-size="11" fill="#27ae60">긍정 3%</text>
  <text x="400" y="152" text-anchor="middle" font-size="11" fill="#e74c3c">부정 60%</text>
  <text x="740" y="152" text-anchor="end" font-size="11" fill="#7f8c8d">중립 37%</text>
  <text x="60" y="168" font-size="11" fill="#555">💬 "포장도 이제 수수료다. 자영업자들 어디서 숨 쉬라는 거냐"</text>

  <text x="60" y="220" font-size="13" font-weight="bold" fill="#2c3e50">네이버뉴스 — 긍정 10건 / 부정 220건 / 중립 170건</text>
  <rect x="60" y="230" width="17" height="28" fill="#27ae60" rx="3"/>
  <rect x="77" y="230" width="374" height="28" fill="#e74c3c" rx="3"/>
  <rect x="451" y="230" width="289" height="28" fill="#95a5a6" rx="3"/>
  <text x="60" y="272" text-anchor="start" font-size="11" fill="#27ae60">긍정 2%</text>
  <text x="400" y="272" text-anchor="middle" font-size="11" fill="#e74c3c">부정 55%</text>
  <text x="740" y="272" text-anchor="end" font-size="11" fill="#7f8c8d">중립 43%</text>
  <text x="60" y="288" font-size="11" fill="#555">💬 "이란전쟁에 환율도 올랐는데 수수료까지 올린다고. 다음 달 문 닫는 가게 늘어날 것"</text>

  <text x="60" y="340" font-size="13" font-weight="bold" fill="#2c3e50">트위터/X — 긍정 8건 / 부정 100건 / 중립 292건</text>
  <rect x="60" y="350" width="14" height="28" fill="#27ae60" rx="3"/>
  <rect x="74" y="350" width="170" height="28" fill="#e74c3c" rx="3"/>
  <rect x="244" y="350" width="496" height="28" fill="#95a5a6" rx="3"/>
  <text x="60" y="392" text-anchor="start" font-size="11" fill="#27ae60">긍정 2%</text>
  <text x="400" y="392" text-anchor="middle" font-size="11" fill="#e74c3c">부정 25%</text>
  <text x="740" y="392" text-anchor="end" font-size="11" fill="#7f8c8d">중립 73%</text>
  <text x="60" y="408" font-size="11" fill="#555">💬 "배달앱 다 독점 아니냐. 이건 규제가 필요하다"</text>

  <text x="400" y="426" text-anchor="middle" font-size="10" fill="#bdc3c7">* 수치는 집계된 공감/반응 신호 기반 추산 | paperWanderer</text>
</svg>