<svg xmlns="http://www.w3.org/2000/svg" width="800" height="322" viewBox="0 0 800 322"
     font-family="'Apple SD Gothic Neo', 'Malgun Gothic', Arial, sans-serif">
  <rect width="800" height="322" fill="#f8f9fa" rx="12"/>
  <text x="400" y="36" text-anchor="middle" font-size="19" font-weight="bold" fill="#2c3e50">삼성전자 1분기 실적·탈Arm — 커뮤니티 반응</text>
  <text x="400" y="54" text-anchor="middle" font-size="13" fill="#7f8c8d">DC인사이드·클리앙 | 2026-04-05 10:10 KST</text>
  <!-- 범례 -->
  <rect x="490" y="66" width="12" height="12" fill="#27ae60" rx="2"/>
  <text x="506" y="77" font-size="13" fill="#2c3e50">긍정</text>
  <rect x="548" y="66" width="12" height="12" fill="#e74c3c" rx="2"/>
  <text x="564" y="77" font-size="13" fill="#2c3e50">부정</text>
  <rect x="606" y="66" width="12" height="12" fill="#95a5a6" rx="2"/>
  <text x="622" y="77" font-size="13" fill="#2c3e50">중립</text>
  <!-- Row 1: DC인사이드 -->
  <text x="60" y="100" font-size="15" font-weight="bold" fill="#2c3e50">DC인사이드 반도체갤 — 긍정 5건 / 부정 1건 / 중립 2건</text>
  <rect x="60" y="110" width="425" height="28" fill="#27ae60" rx="3"/>
  <rect x="485" y="110" width="85" height="28" fill="#e74c3c" rx="3"/>
  <rect x="570" y="110" width="170" height="28" fill="#95a5a6" rx="3"/>
  <text x="60" y="152" text-anchor="start" font-size="13" fill="#27ae60">긍정 63%</text>
  <text x="400" y="152" text-anchor="middle" font-size="13" fill="#e74c3c">부정 13%</text>
  <text x="740" y="152" text-anchor="end" font-size="13" fill="#7f8c8d">중립 25%</text>
  <text x="60" y="168" font-size="13" fill="#555">💬 "2028년까지 메가 사이클 확정, 지금이 기회" (추천 8)</text>
  <!-- Row 2: 클리앙 -->
  <text x="60" y="220" font-size="15" font-weight="bold" fill="#2c3e50">클리앙 — 긍정 14건 / 부정 5건 / 중립 3건</text>
  <rect x="60" y="230" width="433" height="28" fill="#27ae60" rx="3"/>
  <rect x="493" y="230" width="155" height="28" fill="#e74c3c" rx="3"/>
  <rect x="648" y="230" width="92" height="28" fill="#95a5a6" rx="3"/>
  <text x="60" y="272" text-anchor="start" font-size="13" fill="#27ae60">긍정 64%</text>
  <text x="400" y="272" text-anchor="middle" font-size="13" fill="#e74c3c">부정 23%</text>
  <text x="740" y="272" text-anchor="end" font-size="13" fill="#7f8c8d">중립 14%</text>
  <text x="60" y="288" font-size="13" fill="#555">💬 "RISC-V는 소프트웨어 생태계가 ARM 대비 부족" (기술 회의론)</text>
  <!-- Footer -->
  <text x="400" y="308" text-anchor="middle" font-size="12" fill="#bdc3c7">* 수치는 집계된 공감/반응 신호 기반 | paperWanderer</text>
</svg>
