<svg xmlns="http://www.w3.org/2000/svg" width="800" height="440" viewBox="0 0 800 440"
     font-family="'Apple SD Gothic Neo', 'Malgun Gothic', Arial, sans-serif">
  <rect width="800" height="440" fill="#f8f9fa" rx="12"/>
  <text x="400" y="36" text-anchor="middle" font-size="17" font-weight="bold" fill="#2c3e50">북한 헌법 개정 적대국 — 커뮤니티 반응</text>
  <text x="400" y="54" text-anchor="middle" font-size="11" fill="#7f8c8d">네이버뉴스 · DC인사이드 · 에펨코리아 | 2026-03-24 18:00 KST</text>
  <rect x="490" y="66" width="12" height="12" fill="#27ae60" rx="2"/>
  <text x="506" y="77" font-size="11" fill="#2c3e50">긍정</text>
  <rect x="548" y="66" width="12" height="12" fill="#e74c3c" rx="2"/>
  <text x="564" y="77" font-size="11" fill="#2c3e50">부정</text>
  <rect x="606" y="66" width="12" height="12" fill="#95a5a6" rx="2"/>
  <text x="622" y="77" font-size="11" fill="#2c3e50">중립</text>

  <text x="60" y="100" font-size="13" font-weight="bold" fill="#2c3e50">네이버뉴스 댓글 — 긍정 380건 / 부정 130건 / 중립 170건</text>
  <rect x="60" y="110" width="380" height="28" fill="#27ae60" rx="3"/>
  <rect x="440" y="110" width="130" height="28" fill="#e74c3c" rx="3"/>
  <rect x="570" y="110" width="170" height="28" fill="#95a5a6" rx="3"/>
  <text x="60" y="152" text-anchor="start" font-size="11" fill="#27ae60">긍정 56%</text>
  <text x="400" y="152" text-anchor="middle" font-size="11" fill="#e74c3c">부정 19%</text>
  <text x="740" y="152" text-anchor="end" font-size="11" fill="#7f8c8d">중립 25%</text>
  <text x="60" y="168" font-size="11" fill="#555">💬 "이미 실질적 적대국이었는데 이제 공식화된 것"</text>

  <text x="60" y="220" font-size="13" font-weight="bold" fill="#2c3e50">DC인사이드 — 긍정 180건 / 부정 50건 / 중립 90건</text>
  <rect x="60" y="230" width="382" height="28" fill="#27ae60" rx="3"/>
  <rect x="442" y="230" width="106" height="28" fill="#e74c3c" rx="3"/>
  <rect x="548" y="230" width="192" height="28" fill="#95a5a6" rx="3"/>
  <text x="60" y="272" text-anchor="start" font-size="11" fill="#27ae60">긍정 56%</text>
  <text x="400" y="272" text-anchor="middle" font-size="11" fill="#e74c3c">부정 16%</text>
  <text x="740" y="272" text-anchor="end" font-size="11" fill="#7f8c8d">중립 28%</text>
  <text x="60" y="288" font-size="11" fill="#555">💬 "통일 포기 선언이나 다름없다, 우리도 적대국 지정해야"</text>

  <text x="60" y="340" font-size="13" font-weight="bold" fill="#2c3e50">에펨코리아 — 긍정 120건 / 부정 30건 / 중립 50건</text>
  <rect x="60" y="350" width="408" height="28" fill="#27ae60" rx="3"/>
  <rect x="468" y="350" width="102" height="28" fill="#e74c3c" rx="3"/>
  <rect x="570" y="350" width="170" height="28" fill="#95a5a6" rx="3"/>
  <text x="60" y="392" text-anchor="start" font-size="11" fill="#27ae60">긍정 60%</text>
  <text x="400" y="392" text-anchor="middle" font-size="11" fill="#e74c3c">부정 15%</text>
  <text x="740" y="392" text-anchor="end" font-size="11" fill="#7f8c8d">중립 25%</text>
  <text x="60" y="408" font-size="11" fill="#555">💬 "자극하지 말자, 대화 창구 열어두는 게 중요"</text>

  <text x="400" y="426" text-anchor="middle" font-size="10" fill="#bdc3c7">* 수치는 집계된 공감/반응 신호 기반 추산 | paperWanderer</text>
</svg>