<svg xmlns="http://www.w3.org/2000/svg" width="800" height="440" viewBox="0 0 800 440"
     font-family="'Apple SD Gothic Neo', 'Malgun Gothic', Arial, sans-serif">
  <rect width="800" height="440" fill="#f8f9fa" rx="12"/>
  <text x="400" y="36" text-anchor="middle" font-size="17" font-weight="bold" fill="#2c3e50">2026 봄 여행주간 — 커뮤니티 반응</text>
  <text x="400" y="54" text-anchor="middle" font-size="11" fill="#7f8c8d">에펨코리아 · 클리앙 · 여행갤러리 | 2026-03-17 KST</text>
  <rect x="490" y="66" width="12" height="12" fill="#27ae60" rx="2"/>
  <text x="506" y="77" font-size="11" fill="#2c3e50">긍정</text>
  <rect x="548" y="66" width="12" height="12" fill="#e74c3c" rx="2"/>
  <text x="564" y="77" font-size="11" fill="#2c3e50">부정</text>
  <rect x="606" y="66" width="12" height="12" fill="#95a5a6" rx="2"/>
  <text x="622" y="77" font-size="11" fill="#2c3e50">중립</text>

  <text x="60" y="100" font-size="13" font-weight="bold" fill="#2c3e50">에펨코리아 — 긍정 192건 / 부정 24건 / 중립 84건</text>
  <rect x="60" y="110" width="435" height="28" fill="#27ae60" rx="3"/>
  <rect x="495" y="110" width="54" height="28" fill="#e74c3c" rx="3"/>
  <rect x="549" y="110" width="191" height="28" fill="#95a5a6" rx="3"/>
  <text x="60" y="152" text-anchor="start" font-size="11" fill="#27ae60">긍정 64%</text>
  <text x="400" y="152" text-anchor="middle" font-size="11" fill="#e74c3c">부정 8%</text>
  <text x="740" y="152" text-anchor="end" font-size="11" fill="#7f8c8d">중립 28%</text>
  <text x="60" y="168" font-size="11" fill="#555">💬 "올해는 국내 봄꽃 여행이 답이다"</text>

  <text x="60" y="220" font-size="13" font-weight="bold" fill="#2c3e50">클리앙 — 긍정 168건 / 부정 21건 / 중립 61건</text>
  <rect x="60" y="230" width="457" height="28" fill="#27ae60" rx="3"/>
  <rect x="517" y="230" width="57" height="28" fill="#e74c3c" rx="3"/>
  <rect x="574" y="230" width="166" height="28" fill="#95a5a6" rx="3"/>
  <text x="60" y="272" text-anchor="start" font-size="11" fill="#27ae60">긍정 67%</text>
  <text x="400" y="272" text-anchor="middle" font-size="11" fill="#e74c3c">부정 8%</text>
  <text x="740" y="272" text-anchor="end" font-size="11" fill="#7f8c8d">중립 25%</text>
  <text x="60" y="288" font-size="11" fill="#555">💬 "진해 군항제 몇 년 만에 다시 가보려고 한다"</text>

  <text x="60" y="340" font-size="13" font-weight="bold" fill="#2c3e50">여행갤러리 — 긍정 120건 / 부정 15건 / 중립 65건</text>
  <rect x="60" y="350" width="408" height="28" fill="#27ae60" rx="3"/>
  <rect x="468" y="350" width="51" height="28" fill="#e74c3c" rx="3"/>
  <rect x="519" y="350" width="221" height="28" fill="#95a5a6" rx="3"/>
  <text x="60" y="392" text-anchor="start" font-size="11" fill="#27ae60">긍정 60%</text>
  <text x="400" y="392" text-anchor="middle" font-size="11" fill="#e74c3c">부정 8%</text>
  <text x="740" y="392" text-anchor="end" font-size="11" fill="#7f8c8d">중립 32%</text>
  <text x="60" y="408" font-size="11" fill="#555">💬 "어차피 인파에 치여서 봄꽃 구경도 못 한다"</text>

  <text x="400" y="426" text-anchor="middle" font-size="10" fill="#bdc3c7">* 수치는 집계된 공감/반응 신호 기반 추산 | paperWanderer</text>
</svg>