<svg xmlns="http://www.w3.org/2000/svg" width="800" height="440" viewBox="0 0 800 440"
     font-family="'Apple SD Gothic Neo', 'Malgun Gothic', Arial, sans-serif">
  <rect width="800" height="440" fill="#f8f9fa" rx="12"/>
  <text x="400" y="36" text-anchor="middle" font-size="17" font-weight="bold" fill="#2c3e50">김윤지 동계패럴림픽 금메달 — 커뮤니티 반응</text>
  <text x="400" y="54" text-anchor="middle" font-size="11" fill="#7f8c8d">에펨코리아 · 네이버뉴스 · 다음 | 2026-03-08 KST</text>
  <rect x="490" y="66" width="12" height="12" fill="#27ae60" rx="2"/>
  <text x="506" y="77" font-size="11" fill="#2c3e50">긍정</text>
  <rect x="548" y="66" width="12" height="12" fill="#e74c3c" rx="2"/>
  <text x="564" y="77" font-size="11" fill="#2c3e50">부정</text>
  <rect x="606" y="66" width="12" height="12" fill="#95a5a6" rx="2"/>
  <text x="622" y="77" font-size="11" fill="#2c3e50">중립</text>

  <text x="60" y="100" font-size="13" font-weight="bold" fill="#2c3e50">에펨코리아 — 긍정 85건 / 부정 5건 / 중립 10건</text>
  <rect x="60" y="110" width="578" height="28" fill="#27ae60" rx="3"/>
  <rect x="638" y="110" width="34" height="28" fill="#e74c3c" rx="3"/>
  <rect x="672" y="110" width="68" height="28" fill="#95a5a6" rx="3"/>
  <text x="60" y="152" text-anchor="start" font-size="11" fill="#27ae60">긍정 85%</text>
  <text x="400" y="152" text-anchor="middle" font-size="11" fill="#e74c3c">부정 5%</text>
  <text x="740" y="152" text-anchor="end" font-size="11" fill="#7f8c8d">중립 10%</text>
  <text x="60" y="168" font-size="11" fill="#555">💬 "19살 소녀가 역사를 썼다... 진짜 대단하다 ㅠㅠ"</text>

  <text x="60" y="220" font-size="13" font-weight="bold" fill="#2c3e50">네이버뉴스 — 긍정 90건 / 부정 3건 / 중립 7건</text>
  <rect x="60" y="230" width="612" height="28" fill="#27ae60" rx="3"/>
  <rect x="672" y="230" width="20" height="28" fill="#e74c3c" rx="3"/>
  <rect x="692" y="230" width="48" height="28" fill="#95a5a6" rx="3"/>
  <text x="60" y="272" text-anchor="start" font-size="11" fill="#27ae60">긍정 90%</text>
  <text x="400" y="272" text-anchor="middle" font-size="11" fill="#e74c3c">부정 3%</text>
  <text x="740" y="272" text-anchor="end" font-size="11" fill="#7f8c8d">중립 7%</text>
  <text x="60" y="288" font-size="11" fill="#555">💬 "수영 선수에서 바이애슬론까지, 팔방미인 완전체"</text>

  <text x="60" y="340" font-size="13" font-weight="bold" fill="#2c3e50">다음 — 긍정 88건 / 부정 4건 / 중립 8건</text>
  <rect x="60" y="350" width="598" height="28" fill="#27ae60" rx="3"/>
  <rect x="658" y="350" width="27" height="28" fill="#e74c3c" rx="3"/>
  <rect x="685" y="350" width="55" height="28" fill="#95a5a6" rx="3"/>
  <text x="60" y="392" text-anchor="start" font-size="11" fill="#27ae60">긍정 88%</text>
  <text x="400" y="392" text-anchor="middle" font-size="11" fill="#e74c3c">부정 4%</text>
  <text x="740" y="392" text-anchor="end" font-size="11" fill="#7f8c8d">중립 8%</text>
  <text x="60" y="408" font-size="11" fill="#555">💬 "8년 만의 금메달, 특히 여자 선수 최초라 더 감격스럽다"</text>

  <text x="400" y="426" text-anchor="middle" font-size="10" fill="#bdc3c7">* 수치는 집계된 공감/반응 신호 기반 추산 | paperWanderer</text>
</svg>