<svg xmlns="http://www.w3.org/2000/svg" width="800" height="440" viewBox="0 0 800 440"
     font-family="'Apple SD Gothic Neo', 'Malgun Gothic', Arial, sans-serif">
  <rect width="800" height="440" fill="#f8f9fa" rx="12"/>
  <text x="400" y="36" text-anchor="middle" font-size="17" font-weight="bold" fill="#2c3e50">대전 공장 화재 — 커뮤니티 반응</text>
  <text x="400" y="54" text-anchor="middle" font-size="11" fill="#7f8c8d">네이버뉴스 · MBC뉴스 · 에펨코리아 | 2026-03-24 18:00 KST</text>
  <rect x="490" y="66" width="12" height="12" fill="#27ae60" rx="2"/>
  <text x="506" y="77" font-size="11" fill="#2c3e50">긍정</text>
  <rect x="548" y="66" width="12" height="12" fill="#e74c3c" rx="2"/>
  <text x="564" y="77" font-size="11" fill="#2c3e50">부정</text>
  <rect x="606" y="66" width="12" height="12" fill="#95a5a6" rx="2"/>
  <text x="622" y="77" font-size="11" fill="#2c3e50">중립</text>

  <text x="60" y="100" font-size="13" font-weight="bold" fill="#2c3e50">네이버뉴스 댓글 — 긍정 780건 / 부정 90건 / 중립 130건</text>
  <rect x="60" y="110" width="530" height="28" fill="#27ae60" rx="3"/>
  <rect x="590" y="110" width="61" height="28" fill="#e74c3c" rx="3"/>
  <rect x="651" y="110" width="89" height="28" fill="#95a5a6" rx="3"/>
  <text x="60" y="152" text-anchor="start" font-size="11" fill="#27ae60">긍정 78%</text>
  <text x="400" y="152" text-anchor="middle" font-size="11" fill="#e74c3c">부정 9%</text>
  <text x="740" y="152" text-anchor="end" font-size="11" fill="#7f8c8d">중립 13%</text>
  <text x="60" y="168" font-size="11" fill="#555">💬 "14명이나 사망했는데 안전 불감증이 낳은 참사다"</text>

  <text x="60" y="220" font-size="13" font-weight="bold" fill="#2c3e50">MBC뉴스 댓글 — 긍정 420건 / 부정 30건 / 중립 80건</text>
  <rect x="60" y="230" width="539" height="28" fill="#27ae60" rx="3"/>
  <rect x="599" y="230" width="38" height="28" fill="#e74c3c" rx="3"/>
  <rect x="637" y="230" width="103" height="28" fill="#95a5a6" rx="3"/>
  <text x="60" y="272" text-anchor="start" font-size="11" fill="#27ae60">긍정 79%</text>
  <text x="400" y="272" text-anchor="middle" font-size="11" fill="#e74c3c">부정 6%</text>
  <text x="740" y="272" text-anchor="end" font-size="11" fill="#7f8c8d">중립 15%</text>
  <text x="60" y="288" font-size="11" fill="#555">💬 "폭언에 불법 구조물까지, 사람 목숨을 돈벌이 도구로만 봤다"</text>

  <text x="60" y="340" font-size="13" font-weight="bold" fill="#2c3e50">에펨코리아 — 긍정 350건 / 부정 20건 / 중립 50건</text>
  <rect x="60" y="350" width="567" height="28" fill="#27ae60" rx="3"/>
  <rect x="627" y="350" width="32" height="28" fill="#e74c3c" rx="3"/>
  <rect x="659" y="350" width="81" height="28" fill="#95a5a6" rx="3"/>
  <text x="60" y="392" text-anchor="start" font-size="11" fill="#27ae60">긍정 83%</text>
  <text x="400" y="392" text-anchor="middle" font-size="11" fill="#e74c3c">부정 5%</text>
  <text x="740" y="392" text-anchor="end" font-size="11" fill="#7f8c8d">중립 12%</text>
  <text x="60" y="408" font-size="11" fill="#555">💬 "샌드위치 패널 위험성 20년 전부터 알았는데 또 터졌다"</text>

  <text x="400" y="426" text-anchor="middle" font-size="10" fill="#bdc3c7">* 수치는 집계된 공감/반응 신호 기반 추산 | paperWanderer</text>
</svg>