<svg xmlns="http://www.w3.org/2000/svg" width="800" height="440" viewBox="0 0 800 440"
     font-family="'Apple SD Gothic Neo', 'Malgun Gothic', Arial, sans-serif">
  <rect width="800" height="440" fill="#f8f9fa" rx="12"/>
  <text x="400" y="36" text-anchor="middle" font-size="17" font-weight="bold" fill="#2c3e50">2026 KBO 개막 미디어데이 — 커뮤니티 반응</text>
  <text x="400" y="54" text-anchor="middle" font-size="11" fill="#7f8c8d">에펨코리아 · 네이트스포츠 · 루리웹 | 2026-03-26 22:00 KST</text>
  <rect x="490" y="66" width="12" height="12" fill="#27ae60" rx="2"/>
  <text x="506" y="77" font-size="11" fill="#2c3e50">긍정</text>
  <rect x="548" y="66" width="12" height="12" fill="#e74c3c" rx="2"/>
  <text x="564" y="77" font-size="11" fill="#2c3e50">부정</text>
  <rect x="606" y="66" width="12" height="12" fill="#95a5a6" rx="2"/>
  <text x="622" y="77" font-size="11" fill="#2c3e50">중립</text>

  <text x="60" y="100" font-size="13" font-weight="bold" fill="#2c3e50">에펨코리아 — 긍정 320건 / 부정 25건 / 중립 280건</text>
  <rect x="60" y="110" width="348" height="28" fill="#27ae60" rx="3"/>
  <rect x="408" y="110" width="27" height="28" fill="#e74c3c" rx="3"/>
  <rect x="435" y="110" width="305" height="28" fill="#95a5a6" rx="3"/>
  <text x="60" y="152" text-anchor="start" font-size="11" fill="#27ae60">긍정 51%</text>
  <text x="400" y="152" text-anchor="middle" font-size="11" fill="#e74c3c">부정 4%</text>
  <text x="740" y="152" text-anchor="end" font-size="11" fill="#7f8c8d">중립 45%</text>
  <text x="60" y="168" font-size="11" fill="#555">💬 "어뢰 배트 도입이면 이번 시즌 홈런 더 많이 나오겠다"</text>

  <text x="60" y="220" font-size="13" font-weight="bold" fill="#2c3e50">네이트스포츠 — 긍정 200건 / 부정 15건 / 중립 180건</text>
  <rect x="60" y="230" width="344" height="28" fill="#27ae60" rx="3"/>
  <rect x="404" y="230" width="26" height="28" fill="#e74c3c" rx="3"/>
  <rect x="430" y="230" width="310" height="28" fill="#95a5a6" rx="3"/>
  <text x="60" y="272" text-anchor="start" font-size="11" fill="#27ae60">긍정 51%</text>
  <text x="400" y="272" text-anchor="middle" font-size="11" fill="#e74c3c">부정 4%</text>
  <text x="740" y="272" text-anchor="end" font-size="11" fill="#7f8c8d">중립 45%</text>
  <text x="60" y="288" font-size="11" fill="#555">💬 "양현종이 순위 신경 안 쓴다고 하면 오히려 더 잘한다"</text>

  <text x="60" y="340" font-size="13" font-weight="bold" fill="#2c3e50">루리웹 — 긍정 150건 / 부정 20건 / 중립 130건</text>
  <rect x="60" y="350" width="340" height="28" fill="#27ae60" rx="3"/>
  <rect x="400" y="350" width="45" height="28" fill="#e74c3c" rx="3"/>
  <rect x="445" y="350" width="295" height="28" fill="#95a5a6" rx="3"/>
  <text x="60" y="392" text-anchor="start" font-size="11" fill="#27ae60">긍정 50%</text>
  <text x="400" y="392" text-anchor="middle" font-size="11" fill="#e74c3c">부정 7%</text>
  <text x="740" y="392" text-anchor="end" font-size="11" fill="#7f8c8d">중립 43%</text>
  <text x="60" y="408" font-size="11" fill="#555">💬 "TVING 독점인데 잘 돌아가야 할 텐데"</text>

  <text x="400" y="426" text-anchor="middle" font-size="10" fill="#bdc3c7">* 수치는 집계된 공감/반응 신호 기반 추산 | paperWanderer</text>
</svg>