<svg xmlns="http://www.w3.org/2000/svg" width="800" height="322" viewBox="0 0 800 322"
     font-family="'Apple SD Gothic Neo', 'Malgun Gothic', Arial, sans-serif">
  <rect width="800" height="322" fill="#f8f9fa" rx="12"/>

  <text x="400" y="36" text-anchor="middle" font-size="17" font-weight="bold" fill="#2c3e50">로제 iHeartRadio 2관왕 — 커뮤니티 반응</text>
  <text x="400" y="54" text-anchor="middle" font-size="11" fill="#7f8c8d">헤럴드경제·일간스포츠 · X(트위터) | 2026-03-29 KST</text>

  <rect x="490" y="66" width="12" height="12" fill="#27ae60" rx="2"/>
  <text x="506" y="77" font-size="11" fill="#2c3e50">긍정</text>
  <rect x="548" y="66" width="12" height="12" fill="#e74c3c" rx="2"/>
  <text x="564" y="77" font-size="11" fill="#2c3e50">부정</text>
  <rect x="606" y="66" width="12" height="12" fill="#95a5a6" rx="2"/>
  <text x="622" y="77" font-size="11" fill="#2c3e50">중립</text>

  <!-- [헤럴드경제·일간스포츠] bar_y=110, label_y=152, comment_y=168 -->
  <text x="60" y="100" font-size="13" font-weight="bold" fill="#2c3e50">헤럴드경제·일간스포츠 댓글 — 긍정 180건 / 부정 30건 / 중립 40건</text>
  <rect x="60"  y="110" width="490" height="28" fill="#27ae60" rx="3"/>
  <rect x="550" y="110" width="82"  height="28" fill="#e74c3c" rx="3"/>
  <rect x="632" y="110" width="108" height="28" fill="#95a5a6" rx="3"/>
  <text x="60"  y="152" text-anchor="start"  font-size="11" fill="#27ae60">긍정 72.0%</text>
  <text x="400" y="152" text-anchor="middle" font-size="11" fill="#e74c3c">부정 12.0%</text>
  <text x="740" y="152" text-anchor="end"    font-size="11" fill="#7f8c8d">중립 16.0%</text>
  <text x="60" y="168" font-size="11" fill="#555">💬 "로제 진짜 대박... APT 하나로 K팝 역사 다시 쓴 거 아님?"</text>

  <!-- [X(트위터)·인스타그램] bar_y=230, label_y=272, comment_y=288 -->
  <text x="60" y="220" font-size="13" font-weight="bold" fill="#2c3e50">X(트위터)·인스타그램 — 긍정 120건 / 부정 20건 / 중립 60건</text>
  <rect x="60"  y="230" width="408" height="28" fill="#27ae60" rx="3"/>
  <rect x="468" y="230" width="68"  height="28" fill="#e74c3c" rx="3"/>
  <rect x="536" y="230" width="204" height="28" fill="#95a5a6" rx="3"/>
  <text x="60"  y="272" text-anchor="start"  font-size="11" fill="#27ae60">긍정 60.0%</text>
  <text x="400" y="272" text-anchor="middle" font-size="11" fill="#e74c3c">부정 10.0%</text>
  <text x="740" y="272" text-anchor="end"    font-size="11" fill="#7f8c8d">중립 30.0%</text>
  <text x="60" y="288" font-size="11" fill="#555">💬 "Rosé &amp; Bruno Mars 'APT.' Best Collaboration — deserved! 🎉"</text>

  <text x="400" y="308" text-anchor="middle" font-size="10" fill="#bdc3c7">* 수치는 집계된 공감/반응 신호 기반 추산 | paperWanderer</text>
</svg>
