<svg xmlns="http://www.w3.org/2000/svg" width="800" height="440" viewBox="0 0 800 440"
     font-family="'Apple SD Gothic Neo', 'Malgun Gothic', Arial, sans-serif">
  <rect width="800" height="440" fill="#f8f9fa" rx="12"/>
  <text x="400" y="36" text-anchor="middle" font-size="17" font-weight="bold" fill="#2c3e50">생산자물가 6개월 연속 상승 — 커뮤니티 반응</text>
  <text x="400" y="54" text-anchor="middle" font-size="11" fill="#7f8c8d">네이버 뉴스 · 클리앙 · 에펨코리아 | 2026-03-24 18:00 KST</text>
  <rect x="490" y="66" width="12" height="12" fill="#27ae60" rx="2"/>
  <text x="506" y="77" font-size="11" fill="#2c3e50">긍정</text>
  <rect x="548" y="66" width="12" height="12" fill="#e74c3c" rx="2"/>
  <text x="564" y="77" font-size="11" fill="#2c3e50">부정</text>
  <rect x="606" y="66" width="12" height="12" fill="#95a5a6" rx="2"/>
  <text x="622" y="77" font-size="11" fill="#2c3e50">중립</text>

  <text x="60" y="100" font-size="13" font-weight="bold" fill="#2c3e50">네이버 뉴스 — 긍정 50건 / 부정 200건 / 중립 100건</text>
  <rect x="60" y="110" width="97" height="28" fill="#27ae60" rx="3"/>
  <rect x="157" y="110" width="389" height="28" fill="#e74c3c" rx="3"/>
  <rect x="546" y="110" width="194" height="28" fill="#95a5a6" rx="3"/>
  <text x="60" y="152" text-anchor="start" font-size="11" fill="#27ae60">긍정 14%</text>
  <text x="400" y="152" text-anchor="middle" font-size="11" fill="#e74c3c">부정 57%</text>
  <text x="740" y="152" text-anchor="end" font-size="11" fill="#7f8c8d">중립 29%</text>
  <text x="60" y="168" font-size="11" fill="#555">💬 "생산자 물가 오르면 다음 달 소비자 물가 올라간다는 거 아닌가"</text>

  <text x="60" y="220" font-size="13" font-weight="bold" fill="#2c3e50">클리앙 — 긍정 30건 / 부정 120건 / 중립 60건</text>
  <rect x="60" y="230" width="97" height="28" fill="#27ae60" rx="3"/>
  <rect x="157" y="230" width="389" height="28" fill="#e74c3c" rx="3"/>
  <rect x="546" y="230" width="194" height="28" fill="#95a5a6" rx="3"/>
  <text x="60" y="272" text-anchor="start" font-size="11" fill="#27ae60">긍정 14%</text>
  <text x="400" y="272" text-anchor="middle" font-size="11" fill="#e74c3c">부정 57%</text>
  <text x="740" y="272" text-anchor="end" font-size="11" fill="#7f8c8d">중립 29%</text>
  <text x="60" y="288" font-size="11" fill="#555">💬 "6개월 연속이면 이미 추세인데, 금리 인하는 물 건너간 것 아닌가"</text>

  <text x="60" y="340" font-size="13" font-weight="bold" fill="#2c3e50">에펨코리아 — 긍정 30건 / 부정 80건 / 중립 40건</text>
  <rect x="60" y="350" width="136" height="28" fill="#27ae60" rx="3"/>
  <rect x="196" y="350" width="363" height="28" fill="#e74c3c" rx="3"/>
  <rect x="559" y="350" width="181" height="28" fill="#95a5a6" rx="3"/>
  <text x="60" y="392" text-anchor="start" font-size="11" fill="#27ae60">긍정 20%</text>
  <text x="400" y="392" text-anchor="middle" font-size="11" fill="#e74c3c">부정 53%</text>
  <text x="740" y="392" text-anchor="end" font-size="11" fill="#7f8c8d">중립 27%</text>
  <text x="60" y="408" font-size="11" fill="#555">💬 "D램 가격도 올랐다니 삼성·하이닉스엔 좋은 소식"</text>

  <text x="400" y="426" text-anchor="middle" font-size="10" fill="#bdc3c7">* 수치는 집계된 공감/반응 신호 기반 추산 | paperWanderer</text>
</svg>