<svg xmlns="http://www.w3.org/2000/svg" width="800" height="440" viewBox="0 0 800 440"
     font-family="'Apple SD Gothic Neo', 'Malgun Gothic', Arial, sans-serif">
  <rect width="800" height="440" fill="#f8f9fa" rx="12"/>
  <text x="400" y="36" text-anchor="middle" font-size="17" font-weight="bold" fill="#2c3e50">대미투자특별법 국회 통과 — 커뮤니티 반응</text>
  <text x="400" y="54" text-anchor="middle" font-size="11" fill="#7f8c8d">에펨코리아 · 네이버뉴스 · VOA코리아 | 2026-03-12 18:00 KST</text>
  <rect x="490" y="66" width="12" height="12" fill="#27ae60" rx="2"/>
  <text x="506" y="77" font-size="11" fill="#2c3e50">긍정</text>
  <rect x="548" y="66" width="12" height="12" fill="#e74c3c" rx="2"/>
  <text x="564" y="77" font-size="11" fill="#2c3e50">부정</text>
  <rect x="606" y="66" width="12" height="12" fill="#95a5a6" rx="2"/>
  <text x="622" y="77" font-size="11" fill="#2c3e50">중립</text>

  <text x="60" y="100" font-size="13" font-weight="bold" fill="#2c3e50">에펨코리아 — 긍정 140건 / 부정 130건 / 중립 80건</text>
  <rect x="60" y="110" width="272" height="28" fill="#27ae60" rx="3"/>
  <rect x="332" y="110" width="253" height="28" fill="#e74c3c" rx="3"/>
  <rect x="585" y="110" width="155" height="28" fill="#95a5a6" rx="3"/>
  <text x="60" y="152" text-anchor="start" font-size="11" fill="#27ae60">긍정 40%</text>
  <text x="400" y="152" text-anchor="middle" font-size="11" fill="#e74c3c">부정 37%</text>
  <text x="740" y="152" text-anchor="end" font-size="11" fill="#7f8c8d">중립 23%</text>
  <text x="60" y="168" font-size="11" fill="#555">💬 "3500억 달러 투자... 여야 합의이지만 국익 훼손 없도록 관리해야"</text>

  <text x="60" y="220" font-size="13" font-weight="bold" fill="#2c3e50">네이버뉴스 — 긍정 120건 / 부정 150건 / 중립 60건</text>
  <rect x="60" y="230" width="247" height="28" fill="#27ae60" rx="3"/>
  <rect x="307" y="230" width="341" height="28" fill="#e74c3c" rx="3"/>
  <rect x="648" y="230" width="92" height="28" fill="#95a5a6" rx="3"/>
  <text x="60" y="272" text-anchor="start" font-size="11" fill="#27ae60">긍정 36%</text>
  <text x="400" y="272" text-anchor="middle" font-size="11" fill="#e74c3c">부정 50%</text>
  <text x="740" y="272" text-anchor="end" font-size="11" fill="#7f8c8d">중립 14%</text>
  <text x="60" y="288" font-size="11" fill="#555">💬 "한미전략투자공사가 제대로 관리될 수 있을지... 상업성 예외 조항이 불안"</text>

  <text x="60" y="340" font-size="13" font-weight="bold" fill="#2c3e50">VOA코리아 — 긍정 60건 / 부정 100건 / 중립 80건</text>
  <rect x="60" y="350" width="170" height="28" fill="#27ae60" rx="3"/>
  <rect x="230" y="350" width="283" height="28" fill="#e74c3c" rx="3"/>
  <rect x="513" y="350" width="227" height="28" fill="#95a5a6" rx="3"/>
  <text x="60" y="392" text-anchor="start" font-size="11" fill="#27ae60">긍정 25%</text>
  <text x="400" y="392" text-anchor="middle" font-size="11" fill="#e74c3c">부정 42%</text>
  <text x="740" y="392" text-anchor="end" font-size="11" fill="#7f8c8d">중립 33%</text>
  <text x="60" y="408" font-size="11" fill="#555">💬 "여야 226대 8 압도적 통과... 트럼프 관세 압박 대응책으로 불가피"</text>

  <text x="400" y="426" text-anchor="middle" font-size="10" fill="#bdc3c7">* 수치는 집계된 공감/반응 신호 기반 추산 | paperWanderer</text>
</svg>