<svg xmlns="http://www.w3.org/2000/svg" width="800" height="440" viewBox="0 0 800 440"
     font-family="'Apple SD Gothic Neo', 'Malgun Gothic', Arial, sans-serif">
  <rect width="800" height="440" fill="#f8f9fa" rx="12"/>
  <text x="400" y="36" text-anchor="middle" font-size="17" font-weight="bold" fill="#2c3e50">최형우 42세 KBO 역대 최고령 안타 반응</text>
  <text x="400" y="54" text-anchor="middle" font-size="11" fill="#7f8c8d">커뮤니티 반응 분석 · 2026-03-28</text>
  <rect x="490" y="66" width="12" height="12" fill="#27ae60" rx="2"/>
  <text x="506" y="77" font-size="11" fill="#2c3e50">긍정</text>
  <rect x="548" y="66" width="12" height="12" fill="#e74c3c" rx="2"/>
  <text x="564" y="77" font-size="11" fill="#2c3e50">부정</text>
  <rect x="606" y="66" width="12" height="12" fill="#95a5a6" rx="2"/>
  <text x="622" y="77" font-size="11" fill="#2c3e50">중립</text>

  <text x="60" y="100" font-size="13" font-weight="bold" fill="#2c3e50">에펨코리아</text>
  <rect x="60" y="110" width="598" height="28" fill="#27ae60" rx="3"/>
  <rect x="658" y="110" width="27" height="28" fill="#e74c3c" rx="3"/>
  <rect x="685" y="110" width="55" height="28" fill="#95a5a6" rx="3"/>
  <text x="60" y="152" text-anchor="start" font-size="11" fill="#27ae60">긍정 88%</text>
  <text x="400" y="152" text-anchor="middle" font-size="11" fill="#e74c3c">부정 4%</text>
  <text x="740" y="152" text-anchor="end" font-size="11" fill="#7f8c8d">중립 8%</text>

  <text x="60" y="220" font-size="13" font-weight="bold" fill="#2c3e50">DC 야구갤</text>
  <rect x="60" y="230" width="578" height="28" fill="#27ae60" rx="3"/>
  <rect x="638" y="230" width="41" height="28" fill="#e74c3c" rx="3"/>
  <rect x="679" y="230" width="61" height="28" fill="#95a5a6" rx="3"/>
  <text x="60" y="272" text-anchor="start" font-size="11" fill="#27ae60">긍정 85%</text>
  <text x="400" y="272" text-anchor="middle" font-size="11" fill="#e74c3c">부정 6%</text>
  <text x="740" y="272" text-anchor="end" font-size="11" fill="#7f8c8d">중립 9%</text>

  <text x="60" y="340" font-size="13" font-weight="bold" fill="#2c3e50">루리웹</text>
  <rect x="60" y="350" width="544" height="28" fill="#27ae60" rx="3"/>
  <rect x="604" y="350" width="54" height="28" fill="#e74c3c" rx="3"/>
  <rect x="658" y="350" width="82" height="28" fill="#95a5a6" rx="3"/>
  <text x="60" y="392" text-anchor="start" font-size="11" fill="#27ae60">긍정 80%</text>
  <text x="400" y="392" text-anchor="middle" font-size="11" fill="#e74c3c">부정 8%</text>
  <text x="740" y="392" text-anchor="end" font-size="11" fill="#7f8c8d">중립 12%</text>

  <text x="400" y="426" text-anchor="middle" font-size="10" fill="#bdc3c7">* 수치는 집계된 공감/반응 신호 기반 추산 | paperWanderer</text>
</svg>