<svg xmlns="http://www.w3.org/2000/svg" width="800" height="440" viewBox="0 0 800 440"
     font-family="'Apple SD Gothic Neo', 'Malgun Gothic', Arial, sans-serif">
  <rect width="800" height="440" fill="#f8f9fa" rx="12"/>
  <text x="400" y="36" text-anchor="middle" font-size="17" font-weight="bold" fill="#2c3e50">BTS 광화문 컴백쇼 — 세금·진 크레딧·인종차별 논란 반응</text>
  <text x="400" y="54" text-anchor="middle" font-size="11" fill="#7f8c8d">theqoo · 에펨코리아 · X(트위터)/해외 ARMY | 2026-03-27 KST</text>
  <rect x="490" y="66" width="12" height="12" fill="#27ae60" rx="2"/>
  <text x="506" y="77" font-size="11" fill="#2c3e50">긍정</text>
  <rect x="548" y="66" width="12" height="12" fill="#e74c3c" rx="2"/>
  <text x="564" y="77" font-size="11" fill="#2c3e50">부정</text>
  <rect x="606" y="66" width="12" height="12" fill="#95a5a6" rx="2"/>
  <text x="622" y="77" font-size="11" fill="#2c3e50">중립</text>

  <text x="60" y="100" font-size="13" font-weight="bold" fill="#2c3e50">theqoo — 긍정 10% / 부정 65% / 중립 25%</text>
  <rect x="60" y="110" width="68" height="28" fill="#27ae60" rx="3"/>
  <rect x="128" y="110" width="442" height="28" fill="#e74c3c" rx="3"/>
  <rect x="570" y="110" width="170" height="28" fill="#95a5a6" rx="3"/>
  <text x="60" y="152" text-anchor="start" font-size="11" fill="#27ae60">긍정 10%</text>
  <text x="400" y="152" text-anchor="middle" font-size="11" fill="#e74c3c">부정 65%</text>
  <text x="740" y="152" text-anchor="end" font-size="11" fill="#7f8c8d">중립 25%</text>
  <text x="60" y="168" font-size="11" fill="#555">💬 "271억 세금이 말이 돼?" / "숫자 계속 왜 바뀌냐"</text>

  <text x="60" y="220" font-size="13" font-weight="bold" fill="#2c3e50">에펨코리아 — 긍정 12% / 부정 64% / 중립 24%</text>
  <rect x="60" y="230" width="82" height="28" fill="#27ae60" rx="3"/>
  <rect x="142" y="230" width="435" height="28" fill="#e74c3c" rx="3"/>
  <rect x="577" y="230" width="163" height="28" fill="#95a5a6" rx="3"/>
  <text x="60" y="272" text-anchor="start" font-size="11" fill="#27ae60">긍정 12%</text>
  <text x="400" y="272" text-anchor="middle" font-size="11" fill="#e74c3c">부정 64%</text>
  <text x="740" y="272" text-anchor="end" font-size="11" fill="#7f8c8d">중립 24%</text>
  <text x="60" y="288" font-size="11" fill="#555">💬 "장애인 접근성 없었다" / "세 바퀴째 돌기만"</text>

  <text x="60" y="340" font-size="13" font-weight="bold" fill="#2c3e50">X(트위터)/해외 ARMY — 긍정 50% / 부정 48% / 중립 2%</text>
  <rect x="60" y="350" width="333" height="28" fill="#27ae60" rx="3"/>
  <rect x="393" y="350" width="319" height="28" fill="#e74c3c" rx="3"/>
  <rect x="712" y="350" width="28" height="28" fill="#95a5a6" rx="3"/>
  <text x="60" y="392" text-anchor="start" font-size="11" fill="#27ae60">긍정 49%</text>
  <text x="400" y="392" text-anchor="middle" font-size="11" fill="#e74c3c">부정 47%</text>
  <text x="740" y="392" text-anchor="end" font-size="11" fill="#7f8c8d">중립 4%</text>
  <text x="60" y="408" font-size="11" fill="#555">💬 "진한테 사과해라 HYBE" / "NBC Today Show 인종차별" — 100만 팔로워 캠페인</text>

  <text x="400" y="426" text-anchor="middle" font-size="10" fill="#bdc3c7">* 수치는 집계된 공감/반응 신호 기반 추산 | paperWanderer</text>
</svg>