<svg xmlns="http://www.w3.org/2000/svg" width="800" height="440" viewBox="0 0 800 440"
     font-family="'Apple SD Gothic Neo', 'Malgun Gothic', Arial, sans-serif">
  <rect width="800" height="440" fill="#f8f9fa" rx="12"/>
  <text x="400" y="36" text-anchor="middle" font-size="17" font-weight="bold" fill="#2c3e50">지방 인구 감소 청년 이탈 — 커뮤니티 반응</text>
  <text x="400" y="54" text-anchor="middle" font-size="11" fill="#7f8c8d">클리앙 · 에펨코리아 · 루리웹 | 2026-03-11 KST</text>
  <rect x="490" y="66" width="12" height="12" fill="#27ae60" rx="2"/>
  <text x="506" y="77" font-size="11" fill="#2c3e50">긍정</text>
  <rect x="548" y="66" width="12" height="12" fill="#e74c3c" rx="2"/>
  <text x="564" y="77" font-size="11" fill="#2c3e50">부정</text>
  <rect x="606" y="66" width="12" height="12" fill="#95a5a6" rx="2"/>
  <text x="622" y="77" font-size="11" fill="#2c3e50">중립</text>

  <text x="60" y="100" font-size="13" font-weight="bold" fill="#2c3e50">클리앙 — 긍정 98건 / 부정 178건 / 중립 47건</text>
  <rect x="60" y="110" width="206" height="28" fill="#27ae60" rx="3"/>
  <rect x="266" y="110" width="375" height="28" fill="#e74c3c" rx="3"/>
  <rect x="641" y="110" width="99" height="28" fill="#95a5a6" rx="3"/>
  <text x="60" y="152" text-anchor="start" font-size="11" fill="#27ae60">긍정 30%</text>
  <text x="400" y="152" text-anchor="middle" font-size="11" fill="#e74c3c">부정 55%</text>
  <text x="740" y="152" text-anchor="end" font-size="11" fill="#7f8c8d">중립 15%</text>

  <text x="60" y="220" font-size="13" font-weight="bold" fill="#2c3e50">에펨코리아 — 긍정 58건 / 부정 111건 / 중립 20건</text>
  <rect x="60" y="230" width="209" height="28" fill="#27ae60" rx="3"/>
  <rect x="269" y="230" width="399" height="28" fill="#e74c3c" rx="3"/>
  <rect x="668" y="230" width="72" height="28" fill="#95a5a6" rx="3"/>
  <text x="60" y="272" text-anchor="start" font-size="11" fill="#27ae60">긍정 31%</text>
  <text x="400" y="272" text-anchor="middle" font-size="11" fill="#e74c3c">부정 59%</text>
  <text x="740" y="272" text-anchor="end" font-size="11" fill="#7f8c8d">중립 10%</text>

  <text x="60" y="340" font-size="13" font-weight="bold" fill="#2c3e50">루리웹 — 긍정 43건 / 부정 67건 / 중립 10건</text>
  <rect x="60" y="350" width="244" height="28" fill="#27ae60" rx="3"/>
  <rect x="304" y="350" width="380" height="28" fill="#e74c3c" rx="3"/>
  <rect x="684" y="350" width="56" height="28" fill="#95a5a6" rx="3"/>
  <text x="60" y="392" text-anchor="start" font-size="11" fill="#27ae60">긍정 36%</text>
  <text x="400" y="392" text-anchor="middle" font-size="11" fill="#e74c3c">부정 56%</text>
  <text x="740" y="392" text-anchor="end" font-size="11" fill="#7f8c8d">중립 8%</text>

  <text x="400" y="426" text-anchor="middle" font-size="10" fill="#bdc3c7">* 수치는 집계된 공감/반응 신호 기반 추산 | paperWanderer</text>
</svg>