<svg xmlns="http://www.w3.org/2000/svg" width="800" height="440" viewBox="0 0 800 440"
     font-family="'Apple SD Gothic Neo', 'Malgun Gothic', Arial, sans-serif">
  <rect width="800" height="440" fill="#f8f9fa" rx="12"/>
  <text x="400" y="36" text-anchor="middle" font-size="17" font-weight="bold" fill="#2c3e50">이란-호르무즈 에너지 위기 — 커뮤니티 반응</text>
  <text x="400" y="54" text-anchor="middle" font-size="11" fill="#7f8c8d">네이버 뉴스 · 커뮤니티 · MBC 뉴스 | 2026-03-15 KST</text>
  <rect x="490" y="66" width="12" height="12" fill="#27ae60" rx="2"/>
  <text x="506" y="77" font-size="11" fill="#2c3e50">긍정</text>
  <rect x="548" y="66" width="12" height="12" fill="#e74c3c" rx="2"/>
  <text x="564" y="77" font-size="11" fill="#2c3e50">부정</text>
  <rect x="606" y="66" width="12" height="12" fill="#95a5a6" rx="2"/>
  <text x="622" y="77" font-size="11" fill="#2c3e50">중립</text>

  <text x="60" y="100" font-size="13" font-weight="bold" fill="#2c3e50">네이버 뉴스 — 긍정 10건 / 부정 75건 / 중립 15건</text>
  <rect x="60" y="110" width="68" height="28" fill="#27ae60" rx="3"/>
  <rect x="128" y="110" width="510" height="28" fill="#e74c3c" rx="3"/>
  <rect x="638" y="110" width="102" height="28" fill="#95a5a6" rx="3"/>
  <text x="60" y="152" text-anchor="start" font-size="11" fill="#27ae60">긍정 10%</text>
  <text x="400" y="152" text-anchor="middle" font-size="11" fill="#e74c3c">부정 75%</text>
  <text x="740" y="152" text-anchor="end" font-size="11" fill="#7f8c8d">중립 15%</text>
  <text x="60" y="168" font-size="11" fill="#555">💬 "주유소 가기 겁나는 수준이 됐다, 어떻게 살라고"</text>

  <text x="60" y="220" font-size="13" font-weight="bold" fill="#2c3e50">에코노믹 커뮤니티 — 긍정 8건 / 부정 80건 / 중립 12건</text>
  <rect x="60" y="230" width="54" height="28" fill="#27ae60" rx="3"/>
  <rect x="114" y="230" width="544" height="28" fill="#e74c3c" rx="3"/>
  <rect x="658" y="230" width="82" height="28" fill="#95a5a6" rx="3"/>
  <text x="60" y="272" text-anchor="start" font-size="11" fill="#27ae60">긍정 8%</text>
  <text x="400" y="272" text-anchor="middle" font-size="11" fill="#e74c3c">부정 80%</text>
  <text x="740" y="272" text-anchor="end" font-size="11" fill="#7f8c8d">중립 12%</text>
  <text x="60" y="288" font-size="11" fill="#555">💬 "전기차 타야겠다 기름값 미쳐가"</text>

  <text x="60" y="340" font-size="13" font-weight="bold" fill="#2c3e50">MBC 뉴스 댓글 — 긍정 12건 / 부정 73건 / 중립 15건</text>
  <rect x="60" y="350" width="82" height="28" fill="#27ae60" rx="3"/>
  <rect x="142" y="350" width="496" height="28" fill="#e74c3c" rx="3"/>
  <rect x="638" y="350" width="102" height="28" fill="#95a5a6" rx="3"/>
  <text x="60" y="392" text-anchor="start" font-size="11" fill="#27ae60">긍정 12%</text>
  <text x="400" y="392" text-anchor="middle" font-size="11" fill="#e74c3c">부정 73%</text>
  <text x="740" y="392" text-anchor="end" font-size="11" fill="#7f8c8d">중립 15%</text>
  <text x="60" y="408" font-size="11" fill="#555">💬 "스태그플레이션 오면 진짜 답 없다"</text>

  <text x="400" y="426" text-anchor="middle" font-size="10" fill="#bdc3c7">* 수치는 집계된 공감/반응 신호 기반 추산 | paperWanderer</text>
</svg>