<svg xmlns="http://www.w3.org/2000/svg" width="800" height="440" viewBox="0 0 800 440"
     font-family="'Apple SD Gothic Neo', 'Malgun Gothic', Arial, sans-serif">
  <rect width="800" height="440" fill="#f8f9fa" rx="12"/>
  <text x="400" y="36" text-anchor="middle" font-size="17" font-weight="bold" fill="#2c3e50">JTBC '샤이닝' 첫방 — 커뮤니티 반응</text>
  <text x="400" y="54" text-anchor="middle" font-size="11" fill="#7f8c8d">에펨코리아 · 디시인사이드 · 네이버 뉴스 | 2026-03-06 KST</text>
  <rect x="490" y="66" width="12" height="12" fill="#27ae60" rx="2"/>
  <text x="506" y="77" font-size="11" fill="#2c3e50">긍정</text>
  <rect x="548" y="66" width="12" height="12" fill="#e74c3c" rx="2"/>
  <text x="564" y="77" font-size="11" fill="#2c3e50">부정</text>
  <rect x="606" y="66" width="12" height="12" fill="#95a5a6" rx="2"/>
  <text x="622" y="77" font-size="11" fill="#2c3e50">중립</text>

  <text x="60" y="100" font-size="13" font-weight="bold" fill="#2c3e50">에펨코리아 — 긍정 112건 / 부정 31건 / 중립 68건</text>
  <rect x="60" y="110" width="361" height="28" fill="#27ae60" rx="3"/>
  <rect x="421" y="110" width="100" height="28" fill="#e74c3c" rx="3"/>
  <rect x="521" y="110" width="219" height="28" fill="#95a5a6" rx="3"/>
  <text x="60" y="152" text-anchor="start" font-size="11" fill="#27ae60">긍정 53%</text>
  <text x="400" y="152" text-anchor="middle" font-size="11" fill="#e74c3c">부정 15%</text>
  <text x="740" y="152" text-anchor="end" font-size="11" fill="#7f8c8d">중립 32%</text>
  <text x="60" y="168" font-size="11" fill="#555">💬 "박진영 오랜만에 로맨스 주연, 기대했는데 역시 잘하네"</text>

  <text x="60" y="220" font-size="13" font-weight="bold" fill="#2c3e50">디시인사이드 — 긍정 89건 / 부정 27건 / 중립 55건</text>
  <rect x="60" y="230" width="354" height="28" fill="#27ae60" rx="3"/>
  <rect x="414" y="230" width="107" height="28" fill="#e74c3c" rx="3"/>
  <rect x="521" y="230" width="219" height="28" fill="#95a5a6" rx="3"/>
  <text x="60" y="272" text-anchor="start" font-size="11" fill="#27ae60">긍정 52%</text>
  <text x="400" y="272" text-anchor="middle" font-size="11" fill="#e74c3c">부정 16%</text>
  <text x="740" y="272" text-anchor="end" font-size="11" fill="#7f8c8d">중립 32%</text>
  <text x="60" y="288" font-size="11" fill="#555">💬 "김민주 첫 주연인데 연기 잘함 기대 이상"</text>

  <text x="60" y="340" font-size="13" font-weight="bold" fill="#2c3e50">네이버 뉴스 — 긍정 178건 / 부정 42건 / 중립 93건</text>
  <rect x="60" y="350" width="386" height="28" fill="#27ae60" rx="3"/>
  <rect x="446" y="350" width="91" height="28" fill="#e74c3c" rx="3"/>
  <rect x="537" y="350" width="203" height="28" fill="#95a5a6" rx="3"/>
  <text x="60" y="392" text-anchor="start" font-size="11" fill="#27ae60">긍정 57%</text>
  <text x="400" y="392" text-anchor="middle" font-size="11" fill="#e74c3c">부정 13%</text>
  <text x="740" y="392" text-anchor="end" font-size="11" fill="#7f8c8d">중립 30%</text>
  <text x="60" y="408" font-size="11" fill="#555">💬 "첫사랑 재회물 클리셰지만 박진영·김민주 케미 덕에 볼 만함"</text>

  <text x="400" y="426" text-anchor="middle" font-size="10" fill="#bdc3c7">* 수치는 집계된 공감/반응 신호 기반 추산 | paperWanderer</text>
</svg>