<svg xmlns="http://www.w3.org/2000/svg" width="800" height="440" viewBox="0 0 800 440"
     font-family="'Apple SD Gothic Neo', 'Malgun Gothic', Arial, sans-serif">
  <rect width="800" height="440" fill="#f8f9fa" rx="12"/>
  <text x="400" y="36" text-anchor="middle" font-size="17" font-weight="bold" fill="#2c3e50">호르무즈 파병 논쟁 — 커뮤니티 반응</text>
  <text x="400" y="54" text-anchor="middle" font-size="11" fill="#7f8c8d">에펨코리아 · 디시인사이드 · 네이버뉴스 | 2026-03-26 20:00 KST</text>
  <rect x="490" y="66" width="12" height="12" fill="#27ae60" rx="2"/>
  <text x="506" y="77" font-size="11" fill="#2c3e50">긍정</text>
  <rect x="548" y="66" width="12" height="12" fill="#e74c3c" rx="2"/>
  <text x="564" y="77" font-size="11" fill="#2c3e50">부정</text>
  <rect x="606" y="66" width="12" height="12" fill="#95a5a6" rx="2"/>
  <text x="622" y="77" font-size="11" fill="#2c3e50">중립</text>

  <text x="60" y="100" font-size="13" font-weight="bold" fill="#2c3e50">에펨코리아 — 긍정 30건 / 부정 90건 / 중립 120건</text>
  <rect x="60" y="110" width="85" height="28" fill="#27ae60" rx="3"/>
  <rect x="145" y="110" width="255" height="28" fill="#e74c3c" rx="3"/>
  <rect x="400" y="110" width="340" height="28" fill="#95a5a6" rx="3"/>
  <text x="60" y="152" text-anchor="start" font-size="11" fill="#27ae60">긍정 12%</text>
  <text x="400" y="152" text-anchor="middle" font-size="11" fill="#e74c3c">부정 38%</text>
  <text x="740" y="152" text-anchor="end" font-size="11" fill="#7f8c8d">중립 50%</text>
  <text x="60" y="168" font-size="11" fill="#555">💬 "침략 전쟁에 왜 우리가 나서야 하냐"</text>

  <text x="60" y="220" font-size="13" font-weight="bold" fill="#2c3e50">디시인사이드 — 긍정 25건 / 부정 75건 / 중립 100건</text>
  <rect x="60" y="230" width="85" height="28" fill="#27ae60" rx="3"/>
  <rect x="145" y="230" width="255" height="28" fill="#e74c3c" rx="3"/>
  <rect x="400" y="230" width="340" height="28" fill="#95a5a6" rx="3"/>
  <text x="60" y="272" text-anchor="start" font-size="11" fill="#27ae60">긍정 12%</text>
  <text x="400" y="272" text-anchor="middle" font-size="11" fill="#e74c3c">부정 38%</text>
  <text x="740" y="272" text-anchor="end" font-size="11" fill="#7f8c8d">중립 50%</text>
  <text x="60" y="288" font-size="11" fill="#555">💬 "이란이 비적대국으로 분류했다는데 그거 활용하면 안 되냐"</text>

  <text x="60" y="340" font-size="13" font-weight="bold" fill="#2c3e50">네이버뉴스 — 긍정 20건 / 부정 80건 / 중립 100건</text>
  <rect x="60" y="350" width="68" height="28" fill="#27ae60" rx="3"/>
  <rect x="128" y="350" width="272" height="28" fill="#e74c3c" rx="3"/>
  <rect x="400" y="350" width="340" height="28" fill="#95a5a6" rx="3"/>
  <text x="60" y="392" text-anchor="start" font-size="11" fill="#27ae60">긍정 10%</text>
  <text x="400" y="392" text-anchor="middle" font-size="11" fill="#e74c3c">부정 40%</text>
  <text x="740" y="392" text-anchor="end" font-size="11" fill="#7f8c8d">중립 50%</text>
  <text x="60" y="408" font-size="11" fill="#555">💬 "파병 대신 국산 무기 공급 협상이 더 현실적이다"</text>

  <text x="400" y="426" text-anchor="middle" font-size="10" fill="#bdc3c7">* 수치는 집계된 공감/반응 신호 기반 추산 | paperWanderer</text>
</svg>