<svg xmlns="http://www.w3.org/2000/svg" width="800" height="440" viewBox="0 0 800 440"
     font-family="'Apple SD Gothic Neo', 'Malgun Gothic', Arial, sans-serif">
  <rect width="800" height="440" fill="#f8f9fa" rx="12"/>
  <text x="400" y="36" text-anchor="middle" font-size="17" font-weight="bold" fill="#2c3e50">홍명보호 월드컵 평가전 — 커뮤니티 반응</text>
  <text x="400" y="54" text-anchor="middle" font-size="11" fill="#7f8c8d">에펨코리아 · 보배드림 · 네이버스포츠 | 2026-03-22 KST</text>
  <rect x="490" y="66" width="12" height="12" fill="#27ae60" rx="2"/>
  <text x="506" y="77" font-size="11" fill="#2c3e50">긍정</text>
  <rect x="548" y="66" width="12" height="12" fill="#e74c3c" rx="2"/>
  <text x="564" y="77" font-size="11" fill="#2c3e50">부정</text>
  <rect x="606" y="66" width="12" height="12" fill="#95a5a6" rx="2"/>
  <text x="622" y="77" font-size="11" fill="#2c3e50">중립</text>

  <text x="60" y="100" font-size="13" font-weight="bold" fill="#2c3e50">에펨코리아 — 긍정 100건 / 부정 80건 / 중립 120건</text>
  <rect x="60" y="110" width="227" height="28" fill="#27ae60" rx="3"/>
  <rect x="287" y="110" width="181" height="28" fill="#e74c3c" rx="3"/>
  <rect x="468" y="110" width="272" height="28" fill="#95a5a6" rx="3"/>
  <text x="60" y="152" text-anchor="start" font-size="11" fill="#27ae60">긍정 33%</text>
  <text x="400" y="152" text-anchor="middle" font-size="11" fill="#e74c3c">부정 27%</text>
  <text x="740" y="152" text-anchor="end" font-size="11" fill="#7f8c8d">중립 40%</text>
  <text x="60" y="168" font-size="11" fill="#555">💬 "손흥민·김민재·이강인 풀 소집, 최강 라인업으로 가는 게 맞다"</text>

  <text x="60" y="220" font-size="13" font-weight="bold" fill="#2c3e50">보배드림 — 긍정 60건 / 부정 70건 / 중립 90건</text>
  <rect x="60" y="230" width="185" height="28" fill="#27ae60" rx="3"/>
  <rect x="245" y="230" width="215" height="28" fill="#e74c3c" rx="3"/>
  <rect x="460" y="230" width="280" height="28" fill="#95a5a6" rx="3"/>
  <text x="60" y="272" text-anchor="start" font-size="11" fill="#27ae60">긍정 27%</text>
  <text x="400" y="272" text-anchor="middle" font-size="11" fill="#e74c3c">부정 32%</text>
  <text x="740" y="272" text-anchor="end" font-size="11" fill="#7f8c8d">중립 41%</text>
  <text x="60" y="288" font-size="11" fill="#555">💬 "브라질전 악몽 이후 조현우 복귀 여부가 관건"</text>

  <text x="60" y="340" font-size="13" font-weight="bold" fill="#2c3e50">네이버스포츠 — 긍정 120건 / 부정 60건 / 중립 120건</text>
  <rect x="60" y="350" width="272" height="28" fill="#27ae60" rx="3"/>
  <rect x="332" y="350" width="136" height="28" fill="#e74c3c" rx="3"/>
  <rect x="468" y="350" width="272" height="28" fill="#95a5a6" rx="3"/>
  <text x="60" y="392" text-anchor="start" font-size="11" fill="#27ae60">긍정 40%</text>
  <text x="400" y="392" text-anchor="middle" font-size="11" fill="#e74c3c">부정 20%</text>
  <text x="740" y="392" text-anchor="end" font-size="11" fill="#7f8c8d">중립 40%</text>
  <text x="60" y="408" font-size="11" fill="#555">💬 "코트디부아르 FIFA 37위, 결과보다 내용으로 보여줘야 할 평가전"</text>

  <text x="400" y="426" text-anchor="middle" font-size="10" fill="#bdc3c7">* 수치는 집계된 공감/반응 신호 기반 추산 | paperWanderer</text>
</svg>