<svg xmlns="http://www.w3.org/2000/svg" width="800" height="440" viewBox="0 0 800 440"
     font-family="'Apple SD Gothic Neo', 'Malgun Gothic', Arial, sans-serif">
  <rect width="800" height="440" fill="#f8f9fa" rx="12"/>
  <text x="400" y="36" text-anchor="middle" font-size="17" font-weight="bold" fill="#2c3e50">강선우·김경 공천헌금 구속 — 커뮤니티 반응</text>
  <text x="400" y="54" text-anchor="middle" font-size="11" fill="#7f8c8d">SBS 뉴스 댓글 · 경향신문 댓글 · 헤럴드경제 댓글 | 2026-03-04 KST</text>
  <rect x="490" y="66" width="12" height="12" fill="#27ae60" rx="2"/>
  <text x="506" y="77" font-size="11" fill="#2c3e50">긍정</text>
  <rect x="548" y="66" width="12" height="12" fill="#e74c3c" rx="2"/>
  <text x="564" y="77" font-size="11" fill="#2c3e50">부정</text>
  <rect x="606" y="66" width="12" height="12" fill="#95a5a6" rx="2"/>
  <text x="622" y="77" font-size="11" fill="#2c3e50">중립</text>

  <text x="60" y="100" font-size="13" font-weight="bold" fill="#2c3e50">SBS 뉴스 댓글 — 긍정 50건 / 부정 280건 / 중립 70건</text>
  <rect x="60" y="110" width="85" height="28" fill="#27ae60" rx="3"/>
  <rect x="145" y="110" width="476" height="28" fill="#e74c3c" rx="3"/>
  <rect x="621" y="110" width="119" height="28" fill="#95a5a6" rx="3"/>
  <text x="60" y="152" text-anchor="start" font-size="11" fill="#27ae60">긍정 12%</text>
  <text x="400" y="152" text-anchor="middle" font-size="11" fill="#e74c3c">부정 70%</text>
  <text x="740" y="152" text-anchor="end" font-size="11" fill="#7f8c8d">중립 18%</text>
  <text x="60" y="168" font-size="11" fill="#555">💬 "4년 전 사건이 이제야 터지다니... 늦어도 너무 늦었다"</text>

  <text x="60" y="220" font-size="13" font-weight="bold" fill="#2c3e50">경향신문 댓글 — 긍정 40건 / 부정 200건 / 중립 60건</text>
  <rect x="60" y="230" width="91" height="28" fill="#27ae60" rx="3"/>
  <rect x="151" y="230" width="453" height="28" fill="#e74c3c" rx="3"/>
  <rect x="604" y="230" width="136" height="28" fill="#95a5a6" rx="3"/>
  <text x="60" y="272" text-anchor="start" font-size="11" fill="#27ae60">긍정 13%</text>
  <text x="400" y="272" text-anchor="middle" font-size="11" fill="#e74c3c">부정 67%</text>
  <text x="740" y="272" text-anchor="end" font-size="11" fill="#7f8c8d">중립 20%</text>
  <text x="60" y="288" font-size="11" fill="#555">💬 "쇼핑백에 1억... 드라마보다 더한 현실 정치"</text>

  <text x="60" y="340" font-size="13" font-weight="bold" fill="#2c3e50">헤럴드경제 댓글 — 긍정 30건 / 부정 150건 / 중립 40건</text>
  <rect x="60" y="350" width="93" height="28" fill="#27ae60" rx="3"/>
  <rect x="153" y="350" width="464" height="28" fill="#e74c3c" rx="3"/>
  <rect x="617" y="350" width="123" height="28" fill="#95a5a6" rx="3"/>
  <text x="60" y="392" text-anchor="start" font-size="11" fill="#27ae60">긍정 14%</text>
  <text x="400" y="392" text-anchor="middle" font-size="11" fill="#e74c3c">부정 68%</text>
  <text x="740" y="392" text-anchor="end" font-size="11" fill="#7f8c8d">중립 18%</text>
  <text x="60" y="408" font-size="11" fill="#555">💬 "공천 헌금 줬다는 사람도, 받았다는 사람도 결국 구속"</text>

  <text x="400" y="426" text-anchor="middle" font-size="10" fill="#bdc3c7">* 수치는 집계된 공감/반응 신호 기반 추산 | paperWanderer</text>
</svg>