<svg xmlns="http://www.w3.org/2000/svg" width="800" height="440" viewBox="0 0 800 440"
     font-family="'Apple SD Gothic Neo', 'Malgun Gothic', Arial, sans-serif">
  <rect width="800" height="440" fill="#f8f9fa" rx="12"/>
  <text x="400" y="36" text-anchor="middle" font-size="17" font-weight="bold" fill="#2c3e50">트럼프 반도체 관세 — 커뮤니티 반응</text>
  <text x="400" y="54" text-anchor="middle" font-size="11" fill="#7f8c8d">네이버뉴스 · 클리앙 · 커뮤니티 | 2026-03-05 21:00 KST</text>
  <rect x="490" y="66" width="12" height="12" fill="#27ae60" rx="2"/>
  <text x="506" y="77" font-size="11" fill="#2c3e50">긍정</text>
  <rect x="548" y="66" width="12" height="12" fill="#e74c3c" rx="2"/>
  <text x="564" y="77" font-size="11" fill="#2c3e50">부정</text>
  <rect x="606" y="66" width="12" height="12" fill="#95a5a6" rx="2"/>
  <text x="622" y="77" font-size="11" fill="#2c3e50">중립</text>

  <text x="60" y="100" font-size="13" font-weight="bold" fill="#2c3e50">네이버 뉴스 — 불안 우세</text>
  <rect x="60" y="110" width="204" height="28" fill="#27ae60" rx="3"/>
  <rect x="264" y="110" width="340" height="28" fill="#e74c3c" rx="3"/>
  <rect x="604" y="110" width="136" height="28" fill="#95a5a6" rx="3"/>
  <text x="60" y="152" text-anchor="start" font-size="11" fill="#27ae60">긍정 30%</text>
  <text x="400" y="152" text-anchor="middle" font-size="11" fill="#e74c3c">부정 50%</text>
  <text x="740" y="152" text-anchor="end" font-size="11" fill="#7f8c8d">중립 20%</text>
  <text x="60" y="168" font-size="11" fill="#555">💬 "삼성전자 20만원 깨지는 게 관세 얘기 나올 때마다 반복된다"</text>

  <text x="60" y="220" font-size="13" font-weight="bold" fill="#2c3e50">투자 커뮤니티 — 협상용 낙관론</text>
  <rect x="60" y="230" width="306" height="28" fill="#27ae60" rx="3"/>
  <rect x="366" y="230" width="238" height="28" fill="#e74c3c" rx="3"/>
  <rect x="604" y="230" width="136" height="28" fill="#95a5a6" rx="3"/>
  <text x="60" y="272" text-anchor="start" font-size="11" fill="#27ae60">긍정 45%</text>
  <text x="400" y="272" text-anchor="middle" font-size="11" fill="#e74c3c">부정 35%</text>
  <text x="740" y="272" text-anchor="end" font-size="11" fill="#7f8c8d">중립 20%</text>
  <text x="60" y="288" font-size="11" fill="#555">💬 "HBM 없으면 미국 AI 산업이 멈춘다. 양쪽이 다 피해 본다"</text>

  <text x="60" y="340" font-size="13" font-weight="bold" fill="#2c3e50">전체 종합 — 부정 소폭 우세</text>
  <rect x="60" y="350" width="252" height="28" fill="#27ae60" rx="3"/>
  <rect x="312" y="350" width="292" height="28" fill="#e74c3c" rx="3"/>
  <rect x="604" y="350" width="136" height="28" fill="#95a5a6" rx="3"/>
  <text x="60" y="392" text-anchor="start" font-size="11" fill="#27ae60">긍정 37%</text>
  <text x="400" y="392" text-anchor="middle" font-size="11" fill="#e74c3c">부정 43%</text>
  <text x="740" y="392" text-anchor="end" font-size="11" fill="#7f8c8d">중립 20%</text>
  <text x="60" y="408" font-size="11" fill="#555">💬 "트럼프는 원래 저런다는 냉소적 낙관도 상당수"</text>

  <text x="400" y="426" text-anchor="middle" font-size="10" fill="#bdc3c7">* 수치는 집계된 공감/반응 신호 기반 추산 | paperWanderer</text>
</svg>