<svg xmlns="http://www.w3.org/2000/svg" width="800" height="440" viewBox="0 0 800 440"
     font-family="'Apple SD Gothic Neo', 'Malgun Gothic', Arial, sans-serif">
  <rect width="800" height="440" fill="#f8f9fa" rx="12"/>
  <text x="400" y="36" text-anchor="middle" font-size="17" font-weight="bold" fill="#2c3e50">안중근 AI 희화화 틱톡 논란 — 커뮤니티 반응 분포</text>
  <text x="400" y="54" text-anchor="middle" font-size="11" fill="#7f8c8d">온라인 커뮤니티 종합 | 2026-03-27 KST</text>
  <rect x="490" y="66" width="12" height="12" fill="#27ae60" rx="2"/>
  <text x="506" y="77" font-size="11" fill="#2c3e50">긍정</text>
  <rect x="548" y="66" width="12" height="12" fill="#e74c3c" rx="2"/>
  <text x="564" y="77" font-size="11" fill="#2c3e50">부정</text>
  <rect x="606" y="66" width="12" height="12" fill="#95a5a6" rx="2"/>
  <text x="622" y="77" font-size="11" fill="#2c3e50">중립</text>

  <text x="60" y="100" font-size="13" font-weight="bold" fill="#2c3e50">틱톡 방귀 영상 — 긍정 12% / 부정 65% / 중립 23%</text>
  <rect x="60" y="110" width="82" height="28" fill="#27ae60" rx="3"/>
  <rect x="142" y="110" width="442" height="28" fill="#e74c3c" rx="3"/>
  <rect x="584" y="110" width="156" height="28" fill="#95a5a6" rx="3"/>
  <text x="60" y="152" text-anchor="start" font-size="11" fill="#27ae60">긍정 12%</text>
  <text x="400" y="152" text-anchor="middle" font-size="11" fill="#e74c3c">부정 65%</text>
  <text x="740" y="152" text-anchor="end" font-size="11" fill="#7f8c8d">중립 23%</text>
  <text x="60" y="168" font-size="11" fill="#555">💬 "독립운동가 AI 희화화는 명백한 역사 훼손" — 강한 분노 반응</text>

  <text x="60" y="220" font-size="13" font-weight="bold" fill="#2c3e50">독립유공자 모욕 방지법 — 긍정 58% / 부정 15% / 중립 27%</text>
  <rect x="60" y="230" width="394" height="28" fill="#27ae60" rx="3"/>
  <rect x="454" y="230" width="102" height="28" fill="#e74c3c" rx="3"/>
  <rect x="556" y="230" width="184" height="28" fill="#95a5a6" rx="3"/>
  <text x="60" y="272" text-anchor="start" font-size="11" fill="#27ae60">긍정 58%</text>
  <text x="400" y="272" text-anchor="middle" font-size="11" fill="#e74c3c">부정 15%</text>
  <text x="740" y="272" text-anchor="end" font-size="11" fill="#7f8c8d">중립 27%</text>
  <text x="60" y="288" font-size="11" fill="#555">💬 "입법 찬성 — 플랫폼 책임 강화도 필요"</text>

  <text x="60" y="340" font-size="13" font-weight="bold" fill="#2c3e50">플랫폼 책임론 — 긍정 12% / 부정 50% / 중립 38%</text>
  <rect x="60" y="350" width="82" height="28" fill="#27ae60" rx="3"/>
  <rect x="142" y="350" width="340" height="28" fill="#e74c3c" rx="3"/>
  <rect x="482" y="350" width="258" height="28" fill="#95a5a6" rx="3"/>
  <text x="60" y="392" text-anchor="start" font-size="11" fill="#27ae60">긍정 12%</text>
  <text x="400" y="392" text-anchor="middle" font-size="11" fill="#e74c3c">부정 50%</text>
  <text x="740" y="392" text-anchor="end" font-size="11" fill="#7f8c8d">중립 38%</text>
  <text x="60" y="408" font-size="11" fill="#555">💬 "틱톡 심사 기준 있는 거냐 — 강한 비판"</text>

  <text x="400" y="426" text-anchor="middle" font-size="10" fill="#bdc3c7">* 수치는 집계된 공감/반응 신호 기반 추산 | paperWanderer</text>
</svg>