<svg xmlns="http://www.w3.org/2000/svg" width="800" height="322" viewBox="0 0 800 322"
     font-family="'Apple SD Gothic Neo', 'Malgun Gothic', Arial, sans-serif">
  <rect width="800" height="322" fill="#f8f9fa" rx="12"/>
  <text x="400" y="36" text-anchor="middle" font-size="17" font-weight="bold" fill="#2c3e50">구글 터보퀀트 쇼크 — 커뮤니티 반응 분석</text>
  <text x="400" y="54" text-anchor="middle" font-size="11" fill="#7f8c8d">DCInside 반도체 갤러리 · 전문가 반응 | 2026-03-27 KST</text>
  <rect x="490" y="66" width="12" height="12" fill="#27ae60" rx="2"/>
  <text x="506" y="77" font-size="11" fill="#2c3e50">긍정</text>
  <rect x="548" y="66" width="12" height="12" fill="#e74c3c" rx="2"/>
  <text x="564" y="77" font-size="11" fill="#2c3e50">부정</text>
  <rect x="606" y="66" width="12" height="12" fill="#95a5a6" rx="2"/>
  <text x="622" y="77" font-size="11" fill="#2c3e50">중립</text>

  <text x="60" y="100" font-size="13" font-weight="bold" fill="#2c3e50">DCInside 반도체 갤러리 — 긍정 43% / 부정 33% / 중립 24%</text>
  <rect x="60" y="110" width="292" height="28" fill="#27ae60" rx="3"/>
  <rect x="352" y="110" width="224" height="28" fill="#e74c3c" rx="3"/>
  <rect x="576" y="110" width="164" height="28" fill="#95a5a6" rx="3"/>
  <text x="60" y="152" text-anchor="start" font-size="11" fill="#27ae60">긍정 43%</text>
  <text x="400" y="152" text-anchor="middle" font-size="11" fill="#e74c3c">부정 33%</text>
  <text x="740" y="152" text-anchor="end" font-size="11" fill="#7f8c8d">중립 24%</text>
  <text x="60" y="168" font-size="11" fill="#555">💬 "TurboQuant 오히려 호재일 수도 — 딥시크 이후 AI 시장 더 커진 것처럼"</text>

  <text x="60" y="220" font-size="13" font-weight="bold" fill="#2c3e50">전문가 반응 (MBC / 증권사) — 긍정 60% / 부정 25% / 중립 15%</text>
  <rect x="60" y="230" width="408" height="28" fill="#27ae60" rx="3"/>
  <rect x="468" y="230" width="170" height="28" fill="#e74c3c" rx="3"/>
  <rect x="638" y="230" width="102" height="28" fill="#95a5a6" rx="3"/>
  <text x="60" y="272" text-anchor="start" font-size="11" fill="#27ae60">긍정 60%</text>
  <text x="400" y="272" text-anchor="middle" font-size="11" fill="#e74c3c">부정 25%</text>
  <text x="740" y="272" text-anchor="end" font-size="11" fill="#7f8c8d">중립 15%</text>
  <text x="60" y="288" font-size="11" fill="#555">💬 "AI 에이전트는 챗봇 대비 1만 배 더 많은 토큰 소비 — 효율화가 수요 감소 아니다"</text>

  <text x="400" y="308" text-anchor="middle" font-size="10" fill="#bdc3c7">* 수치는 집계된 공감/반응 신호 기반 추산 | paperWanderer</text>
</svg>