<svg xmlns="http://www.w3.org/2000/svg" width="800" height="440" viewBox="0 0 800 440"
     font-family="'Apple SD Gothic Neo', 'Malgun Gothic', Arial, sans-serif">
  <rect width="800" height="440" fill="#f8f9fa" rx="12"/>
  <text x="400" y="36" text-anchor="middle" font-size="17" font-weight="bold" fill="#2c3e50">코스피 7% 폭락 — 커뮤니티 반응</text>
  <text x="400" y="54" text-anchor="middle" font-size="11" fill="#7f8c8d">클리앙 · MBC 뉴스 댓글 · 오마이뉴스 댓글 | 2026-03-04 KST</text>
  <rect x="490" y="66" width="12" height="12" fill="#27ae60" rx="2"/>
  <text x="506" y="77" font-size="11" fill="#2c3e50">긍정</text>
  <rect x="548" y="66" width="12" height="12" fill="#e74c3c" rx="2"/>
  <text x="564" y="77" font-size="11" fill="#2c3e50">부정</text>
  <rect x="606" y="66" width="12" height="12" fill="#95a5a6" rx="2"/>
  <text x="622" y="77" font-size="11" fill="#2c3e50">중립</text>

  <text x="60" y="100" font-size="13" font-weight="bold" fill="#2c3e50">클리앙 — 긍정 60건 / 부정 180건 / 중립 40건</text>
  <rect x="60" y="110" width="146" height="28" fill="#27ae60" rx="3"/>
  <rect x="206" y="110" width="437" height="28" fill="#e74c3c" rx="3"/>
  <rect x="643" y="110" width="97" height="28" fill="#95a5a6" rx="3"/>
  <text x="60" y="152" text-anchor="start" font-size="11" fill="#27ae60">긍정 21%</text>
  <text x="400" y="152" text-anchor="middle" font-size="11" fill="#e74c3c">부정 64%</text>
  <text x="740" y="152" text-anchor="end" font-size="11" fill="#7f8c8d">중립 15%</text>
  <text x="60" y="168" font-size="11" fill="#555">💬 "주식앱을 지웠습니다. 이번 주식인생은 망한 걸로..."</text>

  <text x="60" y="220" font-size="13" font-weight="bold" fill="#2c3e50">MBC 뉴스 댓글 — 긍정 80건 / 부정 320건 / 중립 100건</text>
  <rect x="60" y="230" width="109" height="28" fill="#27ae60" rx="3"/>
  <rect x="169" y="230" width="435" height="28" fill="#e74c3c" rx="3"/>
  <rect x="604" y="230" width="136" height="28" fill="#95a5a6" rx="3"/>
  <text x="60" y="272" text-anchor="start" font-size="11" fill="#27ae60">긍정 16%</text>
  <text x="400" y="272" text-anchor="middle" font-size="11" fill="#e74c3c">부정 64%</text>
  <text x="740" y="272" text-anchor="end" font-size="11" fill="#7f8c8d">중립 20%</text>
  <text x="60" y="288" font-size="11" fill="#555">💬 "한국만 7% 폭락, 일본 3%... 에너지 의존도 문제 심각"</text>

  <text x="60" y="340" font-size="13" font-weight="bold" fill="#2c3e50">오마이뉴스 댓글 — 긍정 40건 / 부정 60건 / 중립 20건</text>
  <rect x="60" y="350" width="227" height="28" fill="#27ae60" rx="3"/>
  <rect x="287" y="350" width="340" height="28" fill="#e74c3c" rx="3"/>
  <rect x="627" y="350" width="113" height="28" fill="#95a5a6" rx="3"/>
  <text x="60" y="392" text-anchor="start" font-size="11" fill="#27ae60">긍정 33%</text>
  <text x="400" y="392" text-anchor="middle" font-size="11" fill="#e74c3c">부정 50%</text>
  <text x="740" y="392" text-anchor="end" font-size="11" fill="#7f8c8d">중립 17%</text>
  <text x="60" y="408" font-size="11" fill="#555">💬 "9·11 때보다 큰 낙폭... 구조적 취약성 드러나"</text>

  <text x="400" y="426" text-anchor="middle" font-size="10" fill="#bdc3c7">* 수치는 집계된 공감/반응 신호 기반 추산 | paperWanderer</text>
</svg>