<svg xmlns="http://www.w3.org/2000/svg" width="800" height="440" viewBox="0 0 800 440"
     font-family="'Apple SD Gothic Neo', 'Malgun Gothic', Arial, sans-serif">
  <rect width="800" height="440" fill="#f8f9fa" rx="12"/>
  <text x="400" y="36" text-anchor="middle" font-size="17" font-weight="bold" fill="#2c3e50">2026 새학기 학교 변화 — 커뮤니티 반응</text>
  <text x="400" y="54" text-anchor="middle" font-size="11" fill="#7f8c8d">에펨코리아 · 디시인사이드 · 네이버 뉴스 | 2026-03-06 KST</text>
  <rect x="490" y="66" width="12" height="12" fill="#27ae60" rx="2"/>
  <text x="506" y="77" font-size="11" fill="#2c3e50">긍정</text>
  <rect x="548" y="66" width="12" height="12" fill="#e74c3c" rx="2"/>
  <text x="564" y="77" font-size="11" fill="#2c3e50">부정</text>
  <rect x="606" y="66" width="12" height="12" fill="#95a5a6" rx="2"/>
  <text x="622" y="77" font-size="11" fill="#2c3e50">중립</text>

  <text x="60" y="100" font-size="13" font-weight="bold" fill="#2c3e50">에펨코리아 — 긍정 34건 / 부정 79건 / 중립 52건</text>
  <rect x="60" y="110" width="140" height="28" fill="#27ae60" rx="3"/>
  <rect x="200" y="110" width="325" height="28" fill="#e74c3c" rx="3"/>
  <rect x="525" y="110" width="215" height="28" fill="#95a5a6" rx="3"/>
  <text x="60" y="152" text-anchor="start" font-size="11" fill="#27ae60">긍정 21%</text>
  <text x="400" y="152" text-anchor="middle" font-size="11" fill="#e74c3c">부정 48%</text>
  <text x="740" y="152" text-anchor="end" font-size="11" fill="#7f8c8d">중립 31%</text>
  <text x="60" y="168" font-size="11" fill="#555">💬 "스마트폰 금지는 맞는데 현장 교사가 감당하기 버겁다는 게 문제"</text>

  <text x="60" y="220" font-size="13" font-weight="bold" fill="#2c3e50">디시인사이드 — 긍정 22건 / 부정 58건 / 중립 38건</text>
  <rect x="60" y="230" width="127" height="28" fill="#27ae60" rx="3"/>
  <rect x="187" y="230" width="334" height="28" fill="#e74c3c" rx="3"/>
  <rect x="521" y="230" width="219" height="28" fill="#95a5a6" rx="3"/>
  <text x="60" y="272" text-anchor="start" font-size="11" fill="#27ae60">긍정 19%</text>
  <text x="400" y="272" text-anchor="middle" font-size="11" fill="#e74c3c">부정 49%</text>
  <text x="740" y="272" text-anchor="end" font-size="11" fill="#7f8c8d">중립 32%</text>
  <text x="60" y="288" font-size="11" fill="#555">💬 "AI 교과서에 늘봄까지, 교사가 슈퍼맨 되어야 하는 구조"</text>

  <text x="60" y="340" font-size="13" font-weight="bold" fill="#2c3e50">네이버 뉴스 — 긍정 48건 / 부정 112건 / 중립 71건</text>
  <rect x="60" y="350" width="141" height="28" fill="#27ae60" rx="3"/>
  <rect x="201" y="350" width="330" height="28" fill="#e74c3c" rx="3"/>
  <rect x="531" y="350" width="209" height="28" fill="#95a5a6" rx="3"/>
  <text x="60" y="392" text-anchor="start" font-size="11" fill="#27ae60">긍정 21%</text>
  <text x="400" y="392" text-anchor="middle" font-size="11" fill="#e74c3c">부정 49%</text>
  <text x="740" y="392" text-anchor="end" font-size="11" fill="#7f8c8d">중립 30%</text>
  <text x="60" y="408" font-size="11" fill="#555">💬 "방향은 맞는데 준비 없이 밀어붙이는 교육 정책의 전형"</text>

  <text x="400" y="426" text-anchor="middle" font-size="10" fill="#bdc3c7">* 수치는 집계된 공감/반응 신호 기반 추산 | paperWanderer</text>
</svg>