<svg xmlns="http://www.w3.org/2000/svg" width="800" height="440" viewBox="0 0 800 440"
     font-family="'Apple SD Gothic Neo', 'Malgun Gothic', Arial, sans-serif">
  <rect width="800" height="440" fill="#f8f9fa" rx="12"/>
  <text x="400" y="36" text-anchor="middle" font-size="17" font-weight="bold" fill="#2c3e50">진해군항제 2026 — 커뮤니티 반응</text>
  <text x="400" y="54" text-anchor="middle" font-size="11" fill="#7f8c8d">인스타그램 · 여행 커뮤니티 | 2026-03-25 20:30 KST</text>
  <rect x="490" y="66" width="12" height="12" fill="#27ae60" rx="2"/>
  <text x="506" y="77" font-size="11" fill="#2c3e50">긍정</text>
  <rect x="548" y="66" width="12" height="12" fill="#e74c3c" rx="2"/>
  <text x="564" y="77" font-size="11" fill="#2c3e50">부정</text>
  <rect x="606" y="66" width="12" height="12" fill="#95a5a6" rx="2"/>
  <text x="622" y="77" font-size="11" fill="#2c3e50">중립</text>

  <text x="60" y="100" font-size="13" font-weight="bold" fill="#2c3e50">인스타그램 — 긍정 420건 / 부정 38건 / 중립 122건</text>
  <rect x="60" y="110" width="492" height="28" fill="#27ae60" rx="3"/>
  <rect x="552" y="110" width="45" height="28" fill="#e74c3c" rx="3"/>
  <rect x="597" y="110" width="143" height="28" fill="#95a5a6" rx="3"/>
  <text x="60" y="152" text-anchor="start" font-size="11" fill="#27ae60">긍정 72%</text>
  <text x="400" y="152" text-anchor="middle" font-size="11" fill="#e74c3c">부정 7%</text>
  <text x="740" y="152" text-anchor="end" font-size="11" fill="#7f8c8d">중립 21%</text>
  <text x="60" y="168" font-size="11" fill="#555">💬 "드디어 진해 벚꽃 기다렸어요!"</text>

  <text x="60" y="220" font-size="13" font-weight="bold" fill="#2c3e50">여행 커뮤니티 — 방문 기대 vs 숙소 걱정</text>
  <rect x="60" y="230" width="408" height="28" fill="#27ae60" rx="3"/>
  <rect x="468" y="230" width="95" height="28" fill="#e74c3c" rx="3"/>
  <rect x="563" y="230" width="177" height="28" fill="#95a5a6" rx="3"/>
  <text x="60" y="272" text-anchor="start" font-size="11" fill="#27ae60">긍정 60%</text>
  <text x="400" y="272" text-anchor="middle" font-size="11" fill="#e74c3c">부정 14%</text>
  <text x="740" y="272" text-anchor="end" font-size="11" fill="#7f8c8d">중립 26%</text>
  <text x="60" y="288" font-size="11" fill="#555">💬 "숙소가 이미 다 찼어요... 작년에도 이랬는데"</text>

  <text x="60" y="340" font-size="13" font-weight="bold" fill="#2c3e50">SNS 여행 후기 — 기대감 높음</text>
  <rect x="60" y="350" width="544" height="28" fill="#27ae60" rx="3"/>
  <rect x="604" y="350" width="27" height="28" fill="#e74c3c" rx="3"/>
  <rect x="631" y="350" width="109" height="28" fill="#95a5a6" rx="3"/>
  <text x="60" y="392" text-anchor="start" font-size="11" fill="#27ae60">긍정 80%</text>
  <text x="400" y="392" text-anchor="middle" font-size="11" fill="#e74c3c">부정 4%</text>
  <text x="740" y="392" text-anchor="end" font-size="11" fill="#7f8c8d">중립 16%</text>
  <text x="60" y="408" font-size="11" fill="#555">💬 "올해는 절정이 주말과 딱 맞네, 꼭 가봐야겠다"</text>

  <text x="400" y="426" text-anchor="middle" font-size="10" fill="#bdc3c7">* 수치는 집계된 공감/반응 신호 기반 추산 | paperWanderer</text>
</svg>