<svg xmlns="http://www.w3.org/2000/svg" width="800" height="440" viewBox="0 0 800 440"
     font-family="'Apple SD Gothic Neo', 'Malgun Gothic', Arial, sans-serif">
  <rect width="800" height="440" fill="#f8f9fa" rx="12"/>
  <text x="400" y="36" text-anchor="middle" font-size="17" font-weight="bold" fill="#2c3e50">2026 중국 양회 개막 — 커뮤니티 반응</text>
  <text x="400" y="54" text-anchor="middle" font-size="11" fill="#7f8c8d">아주경제 댓글 · 서울신문 댓글 · KOTRA 뉴스 댓글 | 2026-03-04 KST</text>
  <rect x="490" y="66" width="12" height="12" fill="#27ae60" rx="2"/>
  <text x="506" y="77" font-size="11" fill="#2c3e50">긍정</text>
  <rect x="548" y="66" width="12" height="12" fill="#e74c3c" rx="2"/>
  <text x="564" y="77" font-size="11" fill="#2c3e50">부정</text>
  <rect x="606" y="66" width="12" height="12" fill="#95a5a6" rx="2"/>
  <text x="622" y="77" font-size="11" fill="#2c3e50">중립</text>

  <text x="60" y="100" font-size="13" font-weight="bold" fill="#2c3e50">아주경제 댓글 — 긍정 60건 / 부정 80건 / 중립 160건</text>
  <rect x="60" y="110" width="136" height="28" fill="#27ae60" rx="3"/>
  <rect x="196" y="110" width="181" height="28" fill="#e74c3c" rx="3"/>
  <rect x="377" y="110" width="363" height="28" fill="#95a5a6" rx="3"/>
  <text x="60" y="152" text-anchor="start" font-size="11" fill="#27ae60">긍정 20%</text>
  <text x="400" y="152" text-anchor="middle" font-size="11" fill="#e74c3c">부정 27%</text>
  <text x="740" y="152" text-anchor="end" font-size="11" fill="#7f8c8d">중립 53%</text>
  <text x="60" y="168" font-size="11" fill="#555">💬 "AI+ 전략 보면 중국이 진짜 미국 따라잡으려는 게 느껴진다"</text>

  <text x="60" y="220" font-size="13" font-weight="bold" fill="#2c3e50">서울신문 댓글 — 긍정 40건 / 부정 60건 / 중립 120건</text>
  <rect x="60" y="230" width="124" height="28" fill="#27ae60" rx="3"/>
  <rect x="184" y="230" width="185" height="28" fill="#e74c3c" rx="3"/>
  <rect x="369" y="230" width="371" height="28" fill="#95a5a6" rx="3"/>
  <text x="60" y="272" text-anchor="start" font-size="11" fill="#27ae60">긍정 18%</text>
  <text x="400" y="272" text-anchor="middle" font-size="11" fill="#e74c3c">부정 27%</text>
  <text x="740" y="272" text-anchor="end" font-size="11" fill="#7f8c8d">중립 55%</text>
  <text x="60" y="288" font-size="11" fill="#555">💬 "중동전쟁 화약고 속에 양회까지... 변수가 너무 많다"</text>

  <text x="60" y="340" font-size="13" font-weight="bold" fill="#2c3e50">KOTRA 뉴스 댓글 — 긍정 50건 / 부정 50건 / 중립 100건</text>
  <rect x="60" y="350" width="170" height="28" fill="#27ae60" rx="3"/>
  <rect x="230" y="350" width="170" height="28" fill="#e74c3c" rx="3"/>
  <rect x="400" y="350" width="340" height="28" fill="#95a5a6" rx="3"/>
  <text x="60" y="392" text-anchor="start" font-size="11" fill="#27ae60">긍정 25%</text>
  <text x="400" y="392" text-anchor="middle" font-size="11" fill="#e74c3c">부정 25%</text>
  <text x="740" y="392" text-anchor="end" font-size="11" fill="#7f8c8d">중립 50%</text>
  <text x="60" y="408" font-size="11" fill="#555">💬 "한국 기업, 중국 의존도 낮추면서도 기회 찾아야 할 때"</text>

  <text x="400" y="426" text-anchor="middle" font-size="10" fill="#bdc3c7">* 수치는 집계된 공감/반응 신호 기반 추산 | paperWanderer</text>
</svg>