<svg xmlns="http://www.w3.org/2000/svg" width="800" height="440" viewBox="0 0 800 440"
     font-family="'Apple SD Gothic Neo', 'Malgun Gothic', Arial, sans-serif">
  <rect width="800" height="440" fill="#f8f9fa" rx="12"/>
  <text x="400" y="36" text-anchor="middle" font-size="19" font-weight="bold" fill="#2c3e50">K-pop 4월 트렌드 — 커뮤니티 반응</text>
  <text x="400" y="54" text-anchor="middle" font-size="13" fill="#7f8c8d">TheQoo, FM Korea | 2026-04-04 KST</text>
  <!-- 범례 -->
  <rect x="490" y="66" width="12" height="12" fill="#27ae60" rx="2"/>
  <text x="506" y="77" font-size="13" fill="#2c3e50">긍정</text>
  <rect x="548" y="66" width="12" height="12" fill="#e74c3c" rx="2"/>
  <text x="564" y="77" font-size="13" fill="#2c3e50">부정</text>
  <rect x="606" y="66" width="12" height="12" fill="#95a5a6" rx="2"/>
  <text x="622" y="77" font-size="13" fill="#2c3e50">중립</text>
  <!-- Row 1 -->
  <text x="60" y="100" font-size="15" font-weight="bold" fill="#2c3e50">TheQoo (마크 탈퇴) — 긍정 1166건 / 부정 401건 / 중립 145건</text>
  <rect x="60" y="110" width="463" height="28" fill="#27ae60" rx="3"/>
  <rect x="523" y="110" width="159" height="28" fill="#e74c3c" rx="3"/>
  <rect x="682" y="110" width="58" height="28" fill="#95a5a6" rx="3"/>
  <text x="60" y="152" text-anchor="start" font-size="13" fill="#27ae60">긍정 68%</text>
  <text x="400" y="152" text-anchor="middle" font-size="13" fill="#e74c3c">부정 23%</text>
  <text x="740" y="152" text-anchor="end" font-size="13" fill="#7f8c8d">중립 9%</text>
  <text x="60" y="168" font-size="13" fill="#555">💬 "멤버들이 모두 응원해줬다면 좋은 결정 (공감 456)"</text>
  <!-- Row 2 -->
  <text x="60" y="220" font-size="15" font-weight="bold" fill="#2c3e50">FM Korea (BTS ARIRANG) — 긍정 710건 / 부정 866건 / 중립 85건</text>
  <rect x="60" y="230" width="291" height="28" fill="#27ae60" rx="3"/>
  <rect x="351" y="230" width="355" height="28" fill="#e74c3c" rx="3"/>
  <rect x="706" y="230" width="34" height="28" fill="#95a5a6" rx="3"/>
  <text x="60" y="272" text-anchor="start" font-size="13" fill="#27ae60">긍정 43%</text>
  <text x="400" y="272" text-anchor="middle" font-size="13" fill="#e74c3c">부정 52%</text>
  <text x="740" y="272" text-anchor="end" font-size="13" fill="#7f8c8d">중립 5%</text>
  <text x="60" y="288" font-size="13" fill="#555">💬 "빌보드 동시 1위 달성은 대단하다 (공감 412)"</text>
  <!-- Row 3 -->
  <text x="60" y="340" font-size="15" font-weight="bold" fill="#2c3e50">TheQoo (탑 솔로앨범) — 긍정 680건 / 부정 309건 / 중립 248건</text>
  <rect x="60" y="350" width="374" height="28" fill="#27ae60" rx="3"/>
  <rect x="434" y="350" width="170" height="28" fill="#e74c3c" rx="3"/>
  <rect x="604" y="350" width="136" height="28" fill="#95a5a6" rx="3"/>
  <text x="60" y="392" text-anchor="start" font-size="13" fill="#27ae60">긍정 55%</text>
  <text x="400" y="392" text-anchor="middle" font-size="13" fill="#e74c3c">부정 25%</text>
  <text x="740" y="392" text-anchor="end" font-size="13" fill="#7f8c8d">중립 20%</text>
  <text x="60" y="408" font-size="13" fill="#555">💬 "13년 만에 복귀하는 탑을 응원한다 (공감 378)"</text>
  <text x="400" y="426" text-anchor="middle" font-size="12" fill="#bdc3c7">* 수치는 집계된 공감/반응 신호 기반 추산 | paperWanderer</text>
</svg>