<svg xmlns="http://www.w3.org/2000/svg" width="800" height="440" viewBox="0 0 800 440"
     font-family="'Apple SD Gothic Neo', 'Malgun Gothic', Arial, sans-serif">
  <rect width="800" height="440" fill="#f8f9fa" rx="12"/>
  <text x="400" y="36" text-anchor="middle" font-size="17" font-weight="bold" fill="#2c3e50">WBC 8강 한국 vs 도미니카 — 커뮤니티 반응</text>
  <text x="400" y="54" text-anchor="middle" font-size="11" fill="#7f8c8d">에펨코리아 · 루리웹 · 트위터 | 2026-03-11 KST</text>
  <rect x="490" y="66" width="12" height="12" fill="#27ae60" rx="2"/>
  <text x="506" y="77" font-size="11" fill="#2c3e50">긍정</text>
  <rect x="548" y="66" width="12" height="12" fill="#e74c3c" rx="2"/>
  <text x="564" y="77" font-size="11" fill="#2c3e50">부정</text>
  <rect x="606" y="66" width="12" height="12" fill="#95a5a6" rx="2"/>
  <text x="622" y="77" font-size="11" fill="#2c3e50">중립</text>

  <text x="60" y="100" font-size="13" font-weight="bold" fill="#2c3e50">에펨코리아 — 긍정 312건 / 부정 87건 / 중립 59건</text>
  <rect x="60" y="110" width="463" height="28" fill="#27ae60" rx="3"/>
  <rect x="523" y="110" width="129" height="28" fill="#e74c3c" rx="3"/>
  <rect x="652" y="110" width="88" height="28" fill="#95a5a6" rx="3"/>
  <text x="60" y="152" text-anchor="start" font-size="11" fill="#27ae60">긍정 68%</text>
  <text x="400" y="152" text-anchor="middle" font-size="11" fill="#e74c3c">부정 19%</text>
  <text x="740" y="152" text-anchor="end" font-size="11" fill="#7f8c8d">중립 13%</text>

  <text x="60" y="220" font-size="13" font-weight="bold" fill="#2c3e50">루리웹 — 긍정 209건 / 부정 56건 / 중립 11건</text>
  <rect x="60" y="230" width="515" height="28" fill="#27ae60" rx="3"/>
  <rect x="575" y="230" width="138" height="28" fill="#e74c3c" rx="3"/>
  <rect x="713" y="230" width="27" height="28" fill="#95a5a6" rx="3"/>
  <text x="60" y="272" text-anchor="start" font-size="11" fill="#27ae60">긍정 76%</text>
  <text x="400" y="272" text-anchor="middle" font-size="11" fill="#e74c3c">부정 20%</text>
  <text x="740" y="272" text-anchor="end" font-size="11" fill="#7f8c8d">중립 4%</text>

  <text x="60" y="340" font-size="13" font-weight="bold" fill="#2c3e50">트위터 — 긍정 156건 / 부정 43건 / 중립 21건</text>
  <rect x="60" y="350" width="482" height="28" fill="#27ae60" rx="3"/>
  <rect x="542" y="350" width="133" height="28" fill="#e74c3c" rx="3"/>
  <rect x="675" y="350" width="65" height="28" fill="#95a5a6" rx="3"/>
  <text x="60" y="392" text-anchor="start" font-size="11" fill="#27ae60">긍정 71%</text>
  <text x="400" y="392" text-anchor="middle" font-size="11" fill="#e74c3c">부정 20%</text>
  <text x="740" y="392" text-anchor="end" font-size="11" fill="#7f8c8d">중립 9%</text>

  <text x="400" y="426" text-anchor="middle" font-size="10" fill="#bdc3c7">* 수치는 집계된 공감/반응 신호 기반 추산 | paperWanderer</text>
</svg>