<svg xmlns="http://www.w3.org/2000/svg" width="800" height="440" viewBox="0 0 800 440"
     font-family="'Apple SD Gothic Neo', 'Malgun Gothic', Arial, sans-serif">
  <rect width="800" height="440" fill="#f8f9fa" rx="12"/>
  <text x="400" y="36" text-anchor="middle" font-size="17" font-weight="bold" fill="#2c3e50">KBO 어뢰 배트 도입 — 커뮤니티 반응</text>
  <text x="400" y="54" text-anchor="middle" font-size="11" fill="#7f8c8d">에펨코리아 · 루리웹 · 트위터/X | 2026-03-26 22:00 KST</text>
  <rect x="490" y="66" width="12" height="12" fill="#27ae60" rx="2"/>
  <text x="506" y="77" font-size="11" fill="#2c3e50">긍정</text>
  <rect x="548" y="66" width="12" height="12" fill="#e74c3c" rx="2"/>
  <text x="564" y="77" font-size="11" fill="#2c3e50">부정</text>
  <rect x="606" y="66" width="12" height="12" fill="#95a5a6" rx="2"/>
  <text x="622" y="77" font-size="11" fill="#2c3e50">중립</text>

  <text x="60" y="100" font-size="13" font-weight="bold" fill="#2c3e50">에펨코리아 — 긍정 160건 / 부정 18건 / 중립 122건</text>
  <rect x="60" y="110" width="363" height="28" fill="#27ae60" rx="3"/>
  <rect x="423" y="110" width="41" height="28" fill="#e74c3c" rx="3"/>
  <rect x="464" y="110" width="276" height="28" fill="#95a5a6" rx="3"/>
  <text x="60" y="152" text-anchor="start" font-size="11" fill="#27ae60">긍정 53%</text>
  <text x="400" y="152" text-anchor="middle" font-size="11" fill="#e74c3c">부정 6%</text>
  <text x="740" y="152" text-anchor="end" font-size="11" fill="#7f8c8d">중립 41%</text>
  <text x="60" y="168" font-size="11" fill="#555">💬 "KBO에서 어뢰 배트 쓰는 선수 기대된다. 올해 홈런 많이 나오겠네"</text>

  <text x="60" y="220" font-size="13" font-weight="bold" fill="#2c3e50">루리웹 — 긍정 120건 / 부정 12건 / 중립 118건</text>
  <rect x="60" y="230" width="326" height="28" fill="#27ae60" rx="3"/>
  <rect x="386" y="230" width="33" height="28" fill="#e74c3c" rx="3"/>
  <rect x="419" y="230" width="321" height="28" fill="#95a5a6" rx="3"/>
  <text x="60" y="272" text-anchor="start" font-size="11" fill="#27ae60">긍정 48%</text>
  <text x="400" y="272" text-anchor="middle" font-size="11" fill="#e74c3c">부정 5%</text>
  <text x="740" y="272" text-anchor="end" font-size="11" fill="#7f8c8d">중립 47%</text>
  <text x="60" y="288" font-size="11" fill="#555">💬 "일본에서는 별로였다는데 KBO에선 다를 수 있다"</text>

  <text x="60" y="340" font-size="13" font-weight="bold" fill="#2c3e50">트위터/X — 긍정 100건 / 부정 10건 / 중립 110건</text>
  <rect x="60" y="350" width="309" height="28" fill="#27ae60" rx="3"/>
  <rect x="369" y="350" width="31" height="28" fill="#e74c3c" rx="3"/>
  <rect x="400" y="350" width="340" height="28" fill="#95a5a6" rx="3"/>
  <text x="60" y="392" text-anchor="start" font-size="11" fill="#27ae60">긍정 45%</text>
  <text x="400" y="392" text-anchor="middle" font-size="11" fill="#e74c3c">부정 5%</text>
  <text x="740" y="392" text-anchor="end" font-size="11" fill="#7f8c8d">중립 50%</text>
  <text x="60" y="408" font-size="11" fill="#555">💬 "MLB에서 논란이 많았는데 KBO에선 어떻게 될지 궁금하다"</text>

  <text x="400" y="426" text-anchor="middle" font-size="10" fill="#bdc3c7">* 수치는 집계된 공감/반응 신호 기반 추산 | paperWanderer</text>
</svg>