<svg xmlns="http://www.w3.org/2000/svg" width="800" height="440" viewBox="0 0 800 440"
     font-family="'Apple SD Gothic Neo', 'Malgun Gothic', Arial, sans-serif">
  <rect width="800" height="440" fill="#f8f9fa" rx="12"/>
  <text x="400" y="36" text-anchor="middle" font-size="17" font-weight="bold" fill="#2c3e50">대전 화재 대표 폭언 녹취 — 커뮤니티 반응</text>
  <text x="400" y="54" text-anchor="middle" font-size="11" fill="#7f8c8d">에펨코리아 · 네이버뉴스 · 더쿠 | 2026-03-22 KST</text>
  <rect x="490" y="66" width="12" height="12" fill="#27ae60" rx="2"/>
  <text x="506" y="77" font-size="11" fill="#2c3e50">긍정</text>
  <rect x="548" y="66" width="12" height="12" fill="#e74c3c" rx="2"/>
  <text x="564" y="77" font-size="11" fill="#2c3e50">부정</text>
  <rect x="606" y="66" width="12" height="12" fill="#95a5a6" rx="2"/>
  <text x="622" y="77" font-size="11" fill="#2c3e50">중립</text>

  <text x="60" y="100" font-size="13" font-weight="bold" fill="#2c3e50">에펨코리아 — 긍정 5건 / 부정 280건 / 중립 30건</text>
  <rect x="60" y="110" width="11" height="28" fill="#27ae60" rx="3"/>
  <rect x="71" y="110" width="604" height="28" fill="#e74c3c" rx="3"/>
  <rect x="675" y="110" width="65" height="28" fill="#95a5a6" rx="3"/>
  <text x="60" y="152" text-anchor="start" font-size="11" fill="#27ae60">긍정 2%</text>
  <text x="400" y="152" text-anchor="middle" font-size="11" fill="#e74c3c">부정 89%</text>
  <text x="740" y="152" text-anchor="end" font-size="11" fill="#7f8c8d">중립 9%</text>
  <text x="60" y="168" font-size="11" fill="#555">💬 "늦게 나와서 죽었다고?? 이 사람 진짜 구속해야 됨"</text>

  <text x="60" y="220" font-size="13" font-weight="bold" fill="#2c3e50">네이버뉴스 — 긍정 8건 / 부정 250건 / 중립 40건</text>
  <rect x="60" y="230" width="18" height="28" fill="#27ae60" rx="3"/>
  <rect x="78" y="230" width="571" height="28" fill="#e74c3c" rx="3"/>
  <rect x="649" y="230" width="91" height="28" fill="#95a5a6" rx="3"/>
  <text x="60" y="272" text-anchor="start" font-size="11" fill="#27ae60">긍정 3%</text>
  <text x="400" y="272" text-anchor="middle" font-size="11" fill="#e74c3c">부정 84%</text>
  <text x="740" y="272" text-anchor="end" font-size="11" fill="#7f8c8d">중립 13%</text>
  <text x="60" y="288" font-size="11" fill="#555">💬 "유가족이고 XX이고, 이게 공개됐는데도 구속 안 됩니까"</text>

  <text x="60" y="340" font-size="13" font-weight="bold" fill="#2c3e50">더쿠 — 긍정 5건 / 부정 200건 / 중립 30건</text>
  <rect x="60" y="350" width="14" height="28" fill="#27ae60" rx="3"/>
  <rect x="74" y="350" width="579" height="28" fill="#e74c3c" rx="3"/>
  <rect x="653" y="350" width="87" height="28" fill="#95a5a6" rx="3"/>
  <text x="60" y="392" text-anchor="start" font-size="11" fill="#27ae60">긍정 2%</text>
  <text x="400" y="392" text-anchor="middle" font-size="11" fill="#e74c3c">부정 85%</text>
  <text x="740" y="392" text-anchor="end" font-size="11" fill="#7f8c8d">중립 13%</text>
  <text x="60" y="408" font-size="11" fill="#555">💬 "사죄 기자회견 해놓고 뒤에서는 유가족 욕하는 게 녹취로 나왔으니"</text>

  <text x="400" y="426" text-anchor="middle" font-size="10" fill="#bdc3c7">* 수치는 집계된 공감/반응 신호 기반 추산 | paperWanderer</text>
</svg>