<svg xmlns="http://www.w3.org/2000/svg" width="800" height="440" viewBox="0 0 800 440"
     font-family="'Apple SD Gothic Neo', 'Malgun Gothic', Arial, sans-serif">
  <rect width="800" height="440" fill="#f8f9fa" rx="12"/>
  <text x="400" y="36" text-anchor="middle" font-size="17" font-weight="bold" fill="#2c3e50">붉은사막 출시 — 커뮤니티 반응</text>
  <text x="400" y="54" text-anchor="middle" font-size="11" fill="#7f8c8d">게임커뮤니티 · 에펨코리아 · 스팀리뷰어 | 2026-03-02 KST</text>
  <rect x="490" y="66" width="12" height="12" fill="#27ae60" rx="2"/>
  <text x="506" y="77" font-size="11" fill="#2c3e50">긍정</text>
  <rect x="548" y="66" width="12" height="12" fill="#e74c3c" rx="2"/>
  <text x="564" y="77" font-size="11" fill="#2c3e50">부정</text>
  <rect x="606" y="66" width="12" height="12" fill="#95a5a6" rx="2"/>
  <text x="622" y="77" font-size="11" fill="#2c3e50">중립</text>

  <text x="60" y="100" font-size="13" font-weight="bold" fill="#2c3e50">게임 커뮤니티 — 긍정 68건 / 부정 12건 / 중립 20건</text>
  <rect x="60" y="110" width="462" height="28" fill="#27ae60" rx="3"/>
  <rect x="522" y="110" width="82" height="28" fill="#e74c3c" rx="3"/>
  <rect x="604" y="110" width="136" height="28" fill="#95a5a6" rx="3"/>
  <text x="60" y="152" text-anchor="start" font-size="11" fill="#27ae60">긍정 68%</text>
  <text x="400" y="152" text-anchor="middle" font-size="11" fill="#e74c3c">부정 12%</text>
  <text x="740" y="152" text-anchor="end" font-size="11" fill="#7f8c8d">중립 20%</text>
  <text x="60" y="168" font-size="11" fill="#555">💬 "한국 게임사가 드디어 AAA급 콘솔게임 도전, 응원한다"</text>

  <text x="60" y="220" font-size="13" font-weight="bold" fill="#2c3e50">에펨코리아 — 긍정 55건 / 부정 18건 / 중립 27건</text>
  <rect x="60" y="230" width="374" height="28" fill="#27ae60" rx="3"/>
  <rect x="434" y="230" width="122" height="28" fill="#e74c3c" rx="3"/>
  <rect x="556" y="230" width="184" height="28" fill="#95a5a6" rx="3"/>
  <text x="60" y="272" text-anchor="start" font-size="11" fill="#27ae60">긍정 55%</text>
  <text x="400" y="272" text-anchor="middle" font-size="11" fill="#e74c3c">부정 18%</text>
  <text x="740" y="272" text-anchor="end" font-size="11" fill="#7f8c8d">중립 27%</text>
  <text x="60" y="288" font-size="11" fill="#555">💬 "출시 전 기대작은 많이 실망시켰던 게 많아서 일단 지켜본다"</text>

  <text x="60" y="340" font-size="13" font-weight="bold" fill="#2c3e50">스팀 리뷰어 예상 — 긍정 62건 / 부정 16건 / 중립 22건</text>
  <rect x="60" y="350" width="422" height="28" fill="#27ae60" rx="3"/>
  <rect x="482" y="350" width="109" height="28" fill="#e74c3c" rx="3"/>
  <rect x="591" y="350" width="149" height="28" fill="#95a5a6" rx="3"/>
  <text x="60" y="392" text-anchor="start" font-size="11" fill="#27ae60">긍정 62%</text>
  <text x="400" y="392" text-anchor="middle" font-size="11" fill="#e74c3c">부정 16%</text>
  <text x="740" y="392" text-anchor="end" font-size="11" fill="#7f8c8d">중립 22%</text>
  <text x="60" y="408" font-size="11" fill="#555">💬 "검은사막 그래픽 수준이니 붉은사막 기대된다"</text>

  <text x="400" y="426" text-anchor="middle" font-size="10" fill="#bdc3c7">* 수치는 집계된 공감/반응 신호 기반 추산 | paperWanderer</text>
</svg>