<svg xmlns="http://www.w3.org/2000/svg" width="800" height="322" viewBox="0 0 800 322"
     font-family="'Apple SD Gothic Neo', 'Malgun Gothic', Arial, sans-serif">
  <rect width="800" height="322" fill="#f8f9fa" rx="12"/>

  <text x="400" y="36" text-anchor="middle" font-size="17" font-weight="bold" fill="#2c3e50">김부겸 대구시장 출마 — 커뮤니티 반응</text>
  <text x="400" y="54" text-anchor="middle" font-size="11" fill="#7f8c8d">경향신문 댓글 · X(트위터) | 2026-03-29 KST</text>

  <rect x="490" y="66" width="12" height="12" fill="#27ae60" rx="2"/>
  <text x="506" y="77" font-size="11" fill="#2c3e50">긍정</text>
  <rect x="548" y="66" width="12" height="12" fill="#e74c3c" rx="2"/>
  <text x="564" y="77" font-size="11" fill="#2c3e50">부정</text>
  <rect x="606" y="66" width="12" height="12" fill="#95a5a6" rx="2"/>
  <text x="622" y="77" font-size="11" fill="#2c3e50">중립</text>

  <!-- [경향신문 댓글] bar_y=110, label_y=152, comment_y=168 -->
  <text x="60" y="100" font-size="13" font-weight="bold" fill="#2c3e50">경향신문 댓글 — 긍정 120건 / 부정 80건 / 중립 50건</text>
  <rect x="60"  y="110" width="326" height="28" fill="#27ae60" rx="3"/>
  <rect x="386" y="110" width="218" height="28" fill="#e74c3c" rx="3"/>
  <rect x="604" y="110" width="136" height="28" fill="#95a5a6" rx="3"/>
  <text x="60"  y="152" text-anchor="start"  font-size="11" fill="#27ae60">긍정 48.0%</text>
  <text x="400" y="152" text-anchor="middle" font-size="11" fill="#e74c3c">부정 32.0%</text>
  <text x="740" y="152" text-anchor="end"    font-size="11" fill="#7f8c8d">중립 20.0%</text>
  <text x="60" y="168" font-size="11" fill="#555">💬 "김부겸이면 대구에서도 진짜 이길 수도 있겠는데?"</text>

  <!-- [X(트위터)·SNS] bar_y=230, label_y=272, comment_y=288 -->
  <text x="60" y="220" font-size="13" font-weight="bold" fill="#2c3e50">X(트위터)·SNS — 긍정 60건 / 부정 90건 / 중립 50건</text>
  <rect x="60"  y="230" width="204" height="28" fill="#27ae60" rx="3"/>
  <rect x="264" y="230" width="306" height="28" fill="#e74c3c" rx="3"/>
  <rect x="570" y="230" width="170" height="28" fill="#95a5a6" rx="3"/>
  <text x="60"  y="272" text-anchor="start"  font-size="11" fill="#27ae60">긍정 30.0%</text>
  <text x="400" y="272" text-anchor="middle" font-size="11" fill="#e74c3c">부정 45.0%</text>
  <text x="740" y="272" text-anchor="end"    font-size="11" fill="#7f8c8d">중립 25.0%</text>
  <text x="60" y="288" font-size="11" fill="#555">💬 "TK에서 민주당이 된다고? 진짜 지역주의 깨지는 건지 지켜봐야지"</text>

  <text x="400" y="308" text-anchor="middle" font-size="10" fill="#bdc3c7">* 수치는 집계된 공감/반응 신호 기반 추산 | paperWanderer</text>
</svg>
