<svg xmlns="http://www.w3.org/2000/svg" width="800" height="440" viewBox="0 0 800 440"
     font-family="'Apple SD Gothic Neo', 'Malgun Gothic', Arial, sans-serif">
  <rect width="800" height="440" fill="#f8f9fa" rx="12"/>
  <text x="400" y="36" text-anchor="middle" font-size="17" font-weight="bold" fill="#2c3e50">소공동 게스트하우스 화재 — 커뮤니티 반응</text>
  <text x="400" y="54" text-anchor="middle" font-size="11" fill="#7f8c8d">FM코리아 · DC인사이드 · 네이버뉴스 | 2026-03-14 KST</text>
  <rect x="490" y="66" width="12" height="12" fill="#27ae60" rx="2"/>
  <text x="506" y="77" font-size="11" fill="#2c3e50">긍정</text>
  <rect x="548" y="66" width="12" height="12" fill="#e74c3c" rx="2"/>
  <text x="564" y="77" font-size="11" fill="#2c3e50">부정</text>
  <rect x="606" y="66" width="12" height="12" fill="#95a5a6" rx="2"/>
  <text x="622" y="77" font-size="11" fill="#2c3e50">중립</text>

  <text x="60" y="100" font-size="13" font-weight="bold" fill="#2c3e50">FM코리아 — 긍정 20건 / 부정 350건 / 중립 80건</text>
  <rect x="60" y="110" width="30" height="28" fill="#27ae60" rx="3"/>
  <rect x="90" y="110" width="529" height="28" fill="#e74c3c" rx="3"/>
  <rect x="619" y="110" width="121" height="28" fill="#95a5a6" rx="3"/>
  <text x="60" y="152" text-anchor="start" font-size="11" fill="#27ae60">긍정 4%</text>
  <text x="400" y="152" text-anchor="middle" font-size="11" fill="#e74c3c">부정 78%</text>
  <text x="740" y="152" text-anchor="end" font-size="11" fill="#7f8c8d">중립 18%</text>
  <text x="60" y="168" font-size="11" fill="#555">💬 "스프링클러도 없는 건물에 외국인 관광객 45명이 자고 있었다니"</text>

  <text x="60" y="220" font-size="13" font-weight="bold" fill="#2c3e50">DC인사이드 — 긍정 15건 / 부정 280건 / 중립 55건</text>
  <rect x="60" y="230" width="29" height="28" fill="#27ae60" rx="3"/>
  <rect x="89" y="230" width="544" height="28" fill="#e74c3c" rx="3"/>
  <rect x="633" y="230" width="107" height="28" fill="#95a5a6" rx="3"/>
  <text x="60" y="272" text-anchor="start" font-size="11" fill="#27ae60">긍정 4%</text>
  <text x="400" y="272" text-anchor="middle" font-size="11" fill="#e74c3c">부정 80%</text>
  <text x="740" y="272" text-anchor="end" font-size="11" fill="#7f8c8d">중립 16%</text>
  <text x="60" y="288" font-size="11" fill="#555">💬 "제도 허점을 어떻게 이렇게 오래 방치했냐, 책임자 나와라"</text>

  <text x="60" y="340" font-size="13" font-weight="bold" fill="#2c3e50">네이버뉴스 — 긍정 30건 / 부정 520건 / 중립 150건</text>
  <rect x="60" y="350" width="29" height="28" fill="#27ae60" rx="3"/>
  <rect x="89" y="350" width="505" height="28" fill="#e74c3c" rx="3"/>
  <rect x="594" y="350" width="146" height="28" fill="#95a5a6" rx="3"/>
  <text x="60" y="392" text-anchor="start" font-size="11" fill="#27ae60">긍정 4%</text>
  <text x="400" y="392" text-anchor="middle" font-size="11" fill="#e74c3c">부정 74%</text>
  <text x="740" y="392" text-anchor="end" font-size="11" fill="#7f8c8d">중립 22%</text>
  <text x="60" y="408" font-size="11" fill="#555">💬 "안전 점검 대상에서도 빠진 건물... 제도 공백이 피해를 키웠다"</text>

  <text x="400" y="426" text-anchor="middle" font-size="10" fill="#bdc3c7">* 수치는 집계된 공감/반응 신호 기반 추산 | paperWanderer</text>
</svg>