<svg xmlns="http://www.w3.org/2000/svg" width="800" height="322" viewBox="0 0 800 322"
     font-family="'Apple SD Gothic Neo', 'Malgun Gothic', Arial, sans-serif">
  <rect width="800" height="322" fill="#f8f9fa" rx="12"/>

  <text x="400" y="36" text-anchor="middle" font-size="17" font-weight="bold" fill="#2c3e50">한국 vs 코트디부아르 0-4 — 커뮤니티 반응</text>
  <text x="400" y="54" text-anchor="middle" font-size="11" fill="#7f8c8d">FM코리아 · DC인사이드 | 2026-03-29 KST</text>

  <rect x="490" y="66" width="12" height="12" fill="#27ae60" rx="2"/>
  <text x="506" y="77" font-size="11" fill="#2c3e50">긍정</text>
  <rect x="548" y="66" width="12" height="12" fill="#e74c3c" rx="2"/>
  <text x="564" y="77" font-size="11" fill="#2c3e50">부정</text>
  <rect x="606" y="66" width="12" height="12" fill="#95a5a6" rx="2"/>
  <text x="622" y="77" font-size="11" fill="#2c3e50">중립</text>

  <!-- FM코리아 bar_y=110 -->
  <text x="60" y="100" font-size="13" font-weight="bold" fill="#2c3e50">FM코리아 — 긍정 34건 / 부정 520건 / 중립 146건</text>
  <rect x="60" y="110" width="33" height="28" fill="#27ae60" rx="3"/>
  <rect x="93" y="110" width="505" height="28" fill="#e74c3c" rx="3"/>
  <rect x="598" y="110" width="142" height="28" fill="#95a5a6" rx="3"/>
  <text x="60" y="152" text-anchor="start" font-size="11" fill="#27ae60">긍정 5%</text>
  <text x="400" y="152" text-anchor="middle" font-size="11" fill="#e74c3c">부정 74%</text>
  <text x="740" y="152" text-anchor="end" font-size="11" fill="#7f8c8d">중립 21%</text>
  <text x="60" y="168" font-size="11" fill="#555">💬 "37위한테 0-4면 그냥 사퇴해야 하는 거 아님?"</text>

  <!-- DC인사이드 bar_y=230 -->
  <text x="60" y="220" font-size="13" font-weight="bold" fill="#2c3e50">DC인사이드 — 긍정 15건 / 부정 372건 / 중립 113건</text>
  <rect x="60" y="230" width="20" height="28" fill="#27ae60" rx="3"/>
  <rect x="80" y="230" width="506" height="28" fill="#e74c3c" rx="3"/>
  <rect x="586" y="230" width="154" height="28" fill="#95a5a6" rx="3"/>
  <text x="60" y="272" text-anchor="start" font-size="11" fill="#27ae60">긍정 3%</text>
  <text x="400" y="272" text-anchor="middle" font-size="11" fill="#e74c3c">부정 74%</text>
  <text x="740" y="272" text-anchor="end" font-size="11" fill="#7f8c8d">중립 23%</text>
  <text x="60" y="288" font-size="11" fill="#555">💬 "1000번째 A매치가 이거라니 진짜 역대급 치욕"</text>

  <text x="400" y="308" text-anchor="middle" font-size="10" fill="#bdc3c7">* 수치는 집계된 공감/반응 신호 기반 추산 | paperWanderer</text>
</svg>