<svg xmlns="http://www.w3.org/2000/svg" width="800" height="440" viewBox="0 0 800 440"
     font-family="'Apple SD Gothic Neo', 'Malgun Gothic', Arial, sans-serif">
  <rect width="800" height="440" fill="#f8f9fa" rx="12"/>
  <text x="400" y="36" text-anchor="middle" font-size="17" font-weight="bold" fill="#2c3e50">밀라노 패럴림픽 한국 1일차 — 커뮤니티 반응</text>
  <text x="400" y="54" text-anchor="middle" font-size="11" fill="#7f8c8d">네이버 스포츠 · 에펨코리아 · 올림픽닷컴 | 2026-03-07 21:00 KST</text>
  <rect x="490" y="66" width="12" height="12" fill="#27ae60" rx="2"/>
  <text x="506" y="77" font-size="11" fill="#2c3e50">긍정</text>
  <rect x="548" y="66" width="12" height="12" fill="#e74c3c" rx="2"/>
  <text x="564" y="77" font-size="11" fill="#2c3e50">부정</text>
  <rect x="606" y="66" width="12" height="12" fill="#95a5a6" rx="2"/>
  <text x="622" y="77" font-size="11" fill="#2c3e50">중립</text>

  <text x="60" y="100" font-size="13" font-weight="bold" fill="#2c3e50">네이버 스포츠 — 긍정 280건 / 부정 40건 / 중립 680건</text>
  <rect x="60" y="110" width="190" height="28" fill="#27ae60" rx="3"/>
  <rect x="250" y="110" width="27" height="28" fill="#e74c3c" rx="3"/>
  <rect x="277" y="110" width="463" height="28" fill="#95a5a6" rx="3"/>
  <text x="60" y="152" text-anchor="start" font-size="11" fill="#27ae60">긍정 28%</text>
  <text x="400" y="152" text-anchor="middle" font-size="11" fill="#e74c3c">부정 4%</text>
  <text x="740" y="152" text-anchor="end" font-size="11" fill="#7f8c8d">중립 68%</text>
  <text x="60" y="168" font-size="11" fill="#555">💬 "휠체어컬링 라트비아 10-2 대승! 좋은 출발이다"</text>

  <text x="60" y="220" font-size="13" font-weight="bold" fill="#2c3e50">에펨코리아 — 긍정 190건 / 부정 30건 / 중립 780건</text>
  <rect x="60" y="230" width="129" height="28" fill="#27ae60" rx="3"/>
  <rect x="189" y="230" width="20" height="28" fill="#e74c3c" rx="3"/>
  <rect x="209" y="230" width="531" height="28" fill="#95a5a6" rx="3"/>
  <text x="60" y="272" text-anchor="start" font-size="11" fill="#27ae60">긍정 19%</text>
  <text x="400" y="272" text-anchor="middle" font-size="11" fill="#e74c3c">부정 3%</text>
  <text x="740" y="272" text-anchor="end" font-size="11" fill="#7f8c8d">중립 78%</text>
  <text x="60" y="288" font-size="11" fill="#555">💬 "최사라 선수 아쉽게 4위… 다음 경기 응원한다"</text>

  <text x="60" y="340" font-size="13" font-weight="bold" fill="#2c3e50">올림픽닷컴 독자반응 — 긍정 350건 / 부정 50건 / 중립 600건</text>
  <rect x="60" y="350" width="238" height="28" fill="#27ae60" rx="3"/>
  <rect x="298" y="350" width="34" height="28" fill="#e74c3c" rx="3"/>
  <rect x="332" y="350" width="408" height="28" fill="#95a5a6" rx="3"/>
  <text x="60" y="392" text-anchor="start" font-size="11" fill="#27ae60">긍정 35%</text>
  <text x="400" y="392" text-anchor="middle" font-size="11" fill="#e74c3c">부정 5%</text>
  <text x="740" y="392" text-anchor="end" font-size="11" fill="#7f8c8d">중립 60%</text>
  <text x="60" y="408" font-size="11" fill="#555">💬 "패럴림픽 중계 늘려줘서 좋다. 선수들 정말 대단하다"</text>

  <text x="400" y="426" text-anchor="middle" font-size="10" fill="#bdc3c7">* 수치는 집계된 공감/반응 신호 기반 추산 | paperWanderer</text>
</svg>