<svg xmlns="http://www.w3.org/2000/svg" width="800" height="440" viewBox="0 0 800 440"
     font-family="'Apple SD Gothic Neo', 'Malgun Gothic', Arial, sans-serif">
  <rect width="800" height="440" fill="#f8f9fa" rx="12"/>
  <text x="400" y="36" text-anchor="middle" font-size="17" font-weight="bold" fill="#2c3e50">KCON LA 2026 라인업 — 커뮤니티 반응</text>
  <text x="400" y="54" text-anchor="middle" font-size="11" fill="#7f8c8d">allkpop · Soompi · 케이팝 커뮤니티 | 2026-03-05 20:00 KST</text>
  <rect x="490" y="66" width="12" height="12" fill="#27ae60" rx="2"/>
  <text x="506" y="77" font-size="11" fill="#2c3e50">긍정</text>
  <rect x="548" y="66" width="12" height="12" fill="#e74c3c" rx="2"/>
  <text x="564" y="77" font-size="11" fill="#2c3e50">부정</text>
  <rect x="606" y="66" width="12" height="12" fill="#95a5a6" rx="2"/>
  <text x="622" y="77" font-size="11" fill="#2c3e50">중립</text>

  <text x="60" y="100" font-size="13" font-weight="bold" fill="#2c3e50">allkpop — 기대감 압도</text>
  <rect x="60" y="110" width="598" height="28" fill="#27ae60" rx="3"/>
  <rect x="658" y="110" width="27" height="28" fill="#e74c3c" rx="3"/>
  <rect x="685" y="110" width="55" height="28" fill="#95a5a6" rx="3"/>
  <text x="60" y="152" text-anchor="start" font-size="11" fill="#27ae60">긍정 88%</text>
  <text x="400" y="152" text-anchor="middle" font-size="11" fill="#e74c3c">부정 4%</text>
  <text x="740" y="152" text-anchor="end" font-size="11" fill="#7f8c8d">중립 8%</text>
  <text x="60" y="168" font-size="11" fill="#555">💬 "NCT 127 + TXT + ZB1 조합이면 올해 KCON 역대급이다"</text>

  <text x="60" y="220" font-size="13" font-weight="bold" fill="#2c3e50">Soompi — 긍정 우세</text>
  <rect x="60" y="230" width="578" height="28" fill="#27ae60" rx="3"/>
  <rect x="638" y="230" width="34" height="28" fill="#e74c3c" rx="3"/>
  <rect x="672" y="230" width="68" height="28" fill="#95a5a6" rx="3"/>
  <text x="60" y="272" text-anchor="start" font-size="11" fill="#27ae60">긍정 85%</text>
  <text x="400" y="272" text-anchor="middle" font-size="11" fill="#e74c3c">부정 5%</text>
  <text x="740" y="272" text-anchor="end" font-size="11" fill="#7f8c8d">중립 10%</text>
  <text x="60" y="288" font-size="11" fill="#555">💬 "ILLIT이 이렇게 일찍 KCON에 나오다니, 신인인데 이미 이 급이네"</text>

  <text x="60" y="340" font-size="13" font-weight="bold" fill="#2c3e50">전체 종합 — 긍정 압도</text>
  <rect x="60" y="350" width="591" height="28" fill="#27ae60" rx="3"/>
  <rect x="651" y="350" width="27" height="28" fill="#e74c3c" rx="3"/>
  <rect x="678" y="350" width="62" height="28" fill="#95a5a6" rx="3"/>
  <text x="60" y="392" text-anchor="start" font-size="11" fill="#27ae60">긍정 87%</text>
  <text x="400" y="392" text-anchor="middle" font-size="11" fill="#e74c3c">부정 4%</text>
  <text x="740" y="392" text-anchor="end" font-size="11" fill="#7f8c8d">중립 9%</text>
  <text x="60" y="408" font-size="11" fill="#555">💬 "ZB1 5인 체제 첫 KCON. 어떻게 무대 꾸밀지 기대된다"</text>

  <text x="400" y="426" text-anchor="middle" font-size="10" fill="#bdc3c7">* 수치는 집계된 공감/반응 신호 기반 추산 | paperWanderer</text>
</svg>