<svg xmlns="http://www.w3.org/2000/svg" width="800" height="440" viewBox="0 0 800 440"
     font-family="'Apple SD Gothic Neo', 'Malgun Gothic', Arial, sans-serif">
  <rect width="800" height="440" fill="#f8f9fa" rx="12"/>
  <text x="400" y="36" text-anchor="middle" font-size="17" font-weight="bold" fill="#2c3e50">광주전남 통합법 — 커뮤니티 반응</text>
  <text x="400" y="54" text-anchor="middle" font-size="11" fill="#7f8c8d">광주전남지역 · 타지역 커뮤니티 · 포털종합 | 2026-03-02 KST</text>
  <rect x="490" y="66" width="12" height="12" fill="#27ae60" rx="2"/>
  <text x="506" y="77" font-size="11" fill="#2c3e50">긍정</text>
  <rect x="548" y="66" width="12" height="12" fill="#e74c3c" rx="2"/>
  <text x="564" y="77" font-size="11" fill="#2c3e50">부정</text>
  <rect x="606" y="66" width="12" height="12" fill="#95a5a6" rx="2"/>
  <text x="622" y="77" font-size="11" fill="#2c3e50">중립</text>

  <text x="60" y="100" font-size="13" font-weight="bold" fill="#2c3e50">광주·전남 지역 — 긍정 80건 / 부정 5건 / 중립 15건</text>
  <rect x="60" y="110" width="544" height="28" fill="#27ae60" rx="3"/>
  <rect x="604" y="110" width="34" height="28" fill="#e74c3c" rx="3"/>
  <rect x="638" y="110" width="102" height="28" fill="#95a5a6" rx="3"/>
  <text x="60" y="152" text-anchor="start" font-size="11" fill="#27ae60">긍정 80%</text>
  <text x="400" y="152" text-anchor="middle" font-size="11" fill="#e74c3c">부정 5%</text>
  <text x="740" y="152" text-anchor="end" font-size="11" fill="#7f8c8d">중립 15%</text>
  <text x="60" y="168" font-size="11" fill="#555">💬 "광주전남이 뭉치면 수도권 쏠림 막을 수 있다"</text>

  <text x="60" y="220" font-size="13" font-weight="bold" fill="#2c3e50">타지역 커뮤니티 — 긍정 38건 / 부정 47건 / 중립 15건</text>
  <rect x="60" y="230" width="258" height="28" fill="#27ae60" rx="3"/>
  <rect x="318" y="230" width="320" height="28" fill="#e74c3c" rx="3"/>
  <rect x="638" y="230" width="102" height="28" fill="#95a5a6" rx="3"/>
  <text x="60" y="272" text-anchor="start" font-size="11" fill="#27ae60">긍정 38%</text>
  <text x="400" y="272" text-anchor="middle" font-size="11" fill="#e74c3c">부정 47%</text>
  <text x="740" y="272" text-anchor="end" font-size="11" fill="#7f8c8d">중립 15%</text>
  <text x="60" y="288" font-size="11" fill="#555">💬 "왜 광주전남만 되고 대구경북은 안 되냐, 정치적 차별"</text>

  <text x="60" y="340" font-size="13" font-weight="bold" fill="#2c3e50">포털 종합 — 긍정 55건 / 부정 28건 / 중립 17건</text>
  <rect x="60" y="350" width="374" height="28" fill="#27ae60" rx="3"/>
  <rect x="434" y="350" width="190" height="28" fill="#e74c3c" rx="3"/>
  <rect x="624" y="350" width="116" height="28" fill="#95a5a6" rx="3"/>
  <text x="60" y="392" text-anchor="start" font-size="11" fill="#27ae60">긍정 55%</text>
  <text x="400" y="392" text-anchor="middle" font-size="11" fill="#e74c3c">부정 28%</text>
  <text x="740" y="392" text-anchor="end" font-size="11" fill="#7f8c8d">중립 17%</text>
  <text x="60" y="408" font-size="11" fill="#555">💬 "인구 절벽 시대, 지방 통합 방향은 맞다"</text>

  <text x="400" y="426" text-anchor="middle" font-size="10" fill="#bdc3c7">* 수치는 집계된 공감/반응 신호 기반 추산 | paperWanderer</text>
</svg>