<svg xmlns="http://www.w3.org/2000/svg" width="800" height="440" viewBox="0 0 800 440"
     font-family="'Apple SD Gothic Neo', 'Malgun Gothic', Arial, sans-serif">
  <rect width="800" height="440" fill="#f8f9fa" rx="12"/>
  <text x="400" y="36" text-anchor="middle" font-size="17" font-weight="bold" fill="#2c3e50">서울 아파트 공시가격 폭풍전야 — 커뮤니티 반응</text>
  <text x="400" y="54" text-anchor="middle" font-size="11" fill="#7f8c8d">네이버부동산 · FM코리아 · 보배드림 | 2026-03-01 20:00 KST</text>
  <rect x="490" y="66" width="12" height="12" fill="#27ae60" rx="2"/>
  <text x="506" y="77" font-size="11" fill="#2c3e50">긍정</text>
  <rect x="548" y="66" width="12" height="12" fill="#e74c3c" rx="2"/>
  <text x="564" y="77" font-size="11" fill="#2c3e50">부정</text>
  <rect x="606" y="66" width="12" height="12" fill="#95a5a6" rx="2"/>
  <text x="622" y="77" font-size="11" fill="#2c3e50">중립</text>

  <text x="60" y="100" font-size="13" font-weight="bold" fill="#2c3e50">네이버부동산 — 긍정 18건 / 부정 95건 / 중립 37건</text>
  <rect x="60" y="110" width="82" height="28" fill="#27ae60" rx="3"/>
  <rect x="142" y="110" width="431" height="28" fill="#e74c3c" rx="3"/>
  <rect x="573" y="110" width="167" height="28" fill="#95a5a6" rx="3"/>
  <text x="60" y="152" text-anchor="start" font-size="11" fill="#27ae60">긍정 12%</text>
  <text x="400" y="152" text-anchor="middle" font-size="11" fill="#e74c3c">부정 63%</text>
  <text x="740" y="152" text-anchor="end" font-size="11" fill="#7f8c8d">중립 25%</text>
  <text x="60" y="168" font-size="11" fill="#555">💬 "서울 공시가 18% 오르면 종부세 대상 아파트 수십만 채 늘어나는 거잖아"</text>

  <text x="60" y="220" font-size="13" font-weight="bold" fill="#2c3e50">FM코리아 — 긍정 22건 / 부정 82건 / 중립 46건</text>
  <rect x="60" y="230" width="100" height="28" fill="#27ae60" rx="3"/>
  <rect x="160" y="230" width="372" height="28" fill="#e74c3c" rx="3"/>
  <rect x="532" y="230" width="208" height="28" fill="#95a5a6" rx="3"/>
  <text x="60" y="272" text-anchor="start" font-size="11" fill="#27ae60">긍정 15%</text>
  <text x="400" y="272" text-anchor="middle" font-size="11" fill="#e74c3c">부정 55%</text>
  <text x="740" y="272" text-anchor="end" font-size="11" fill="#7f8c8d">중립 30%</text>
  <text x="60" y="288" font-size="11" fill="#555">💬 "집값 올랐다고 내가 소득 오른 게 아닌데 세금만 더 내야 함"</text>

  <text x="60" y="340" font-size="13" font-weight="bold" fill="#2c3e50">보배드림 — 긍정 15건 / 부정 72건 / 중립 43건</text>
  <rect x="60" y="350" width="78" height="28" fill="#27ae60" rx="3"/>
  <rect x="138" y="350" width="377" height="28" fill="#e74c3c" rx="3"/>
  <rect x="515" y="350" width="225" height="28" fill="#95a5a6" rx="3"/>
  <text x="60" y="392" text-anchor="start" font-size="11" fill="#27ae60">긍정 11%</text>
  <text x="400" y="392" text-anchor="middle" font-size="11" fill="#e74c3c">부정 55%</text>
  <text x="740" y="392" text-anchor="end" font-size="11" fill="#7f8c8d">중립 34%</text>
  <text x="60" y="408" font-size="11" fill="#555">💬 "강남 아파트값 올라서 세금 더 내는 건 당연한 거 아님? 가진 자들의 볼멘소리"</text>

  <text x="400" y="426" text-anchor="middle" font-size="10" fill="#bdc3c7">* 수치는 집계된 공감/반응 신호 기반 추산 | paperWanderer</text>
</svg>