<svg xmlns="http://www.w3.org/2000/svg" width="800" height="440" viewBox="0 0 800 440"
     font-family="'Apple SD Gothic Neo', 'Malgun Gothic', Arial, sans-serif">
  <rect width="800" height="440" fill="#f8f9fa" rx="12"/>
  <text x="400" y="36" text-anchor="middle" font-size="17" font-weight="bold" fill="#2c3e50">대전 안전공업 화재 — 커뮤니티 반응</text>
  <text x="400" y="54" text-anchor="middle" font-size="11" fill="#7f8c8d">DC인사이드 · 에펨코리아 · 블라인드 | 2026-03-21~22 KST</text>
  <rect x="490" y="66" width="12" height="12" fill="#27ae60" rx="2"/>
  <text x="506" y="77" font-size="11" fill="#2c3e50">긍정</text>
  <rect x="548" y="66" width="12" height="12" fill="#e74c3c" rx="2"/>
  <text x="564" y="77" font-size="11" fill="#2c3e50">부정</text>
  <rect x="606" y="66" width="12" height="12" fill="#95a5a6" rx="2"/>
  <text x="622" y="77" font-size="11" fill="#2c3e50">중립</text>

  <text x="60" y="100" font-size="13" font-weight="bold" fill="#2c3e50">DC인사이드 베스트 — 조회 32,215 / 추천 581 / 댓글 761</text>
  <rect x="60" y="110" width="560" height="28" fill="#27ae60" rx="3"/>
  <rect x="620" y="110" width="104" height="28" fill="#e74c3c" rx="3"/>
  <rect x="724" y="110" width="16" height="28" fill="#95a5a6" rx="3"/>
  <text x="60" y="152" text-anchor="start" font-size="11" fill="#27ae60">긍정 82%</text>
  <text x="400" y="152" text-anchor="middle" font-size="11" fill="#e74c3c">부정 15%</text>
  <text x="740" y="152" text-anchor="end" font-size="11" fill="#7f8c8d">중립 3%</text>
  <text x="60" y="168" font-size="11" fill="#555">💬 "중대재해처벌법으로 대표 감옥 보내야 한다"</text>

  <text x="60" y="220" font-size="13" font-weight="bold" fill="#2c3e50">에펨코리아 — 속보 포텐 게시물 반응</text>
  <rect x="60" y="230" width="480" height="28" fill="#27ae60" rx="3"/>
  <rect x="540" y="230" width="140" height="28" fill="#e74c3c" rx="3"/>
  <rect x="680" y="230" width="60" height="28" fill="#95a5a6" rx="3"/>
  <text x="60" y="272" text-anchor="start" font-size="11" fill="#27ae60">긍정 71%</text>
  <text x="400" y="272" text-anchor="middle" font-size="11" fill="#e74c3c">부정 21%</text>
  <text x="740" y="272" text-anchor="end" font-size="11" fill="#7f8c8d">중립 8%</text>
  <text x="60" y="288" font-size="11" fill="#555">💬 "30번이나 화재 의심 사고가 있었는데 사측이 묵인..."</text>

  <text x="60" y="340" font-size="13" font-weight="bold" fill="#2c3e50">블라인드 — 산업안전 관련 직장인 반응</text>
  <rect x="60" y="350" width="340" height="28" fill="#27ae60" rx="3"/>
  <rect x="400" y="350" width="200" height="28" fill="#e74c3c" rx="3"/>
  <rect x="600" y="350" width="140" height="28" fill="#95a5a6" rx="3"/>
  <text x="60" y="392" text-anchor="start" font-size="11" fill="#27ae60">긍정 50%</text>
  <text x="400" y="392" text-anchor="middle" font-size="11" fill="#e74c3c">부정 29%</text>
  <text x="740" y="392" text-anchor="end" font-size="11" fill="#7f8c8d">중립 21%</text>
  <text x="60" y="408" font-size="11" fill="#555">💬 "우리 공장도 안전 점검이 형식적이라 남 일 같지 않다"</text>

  <text x="400" y="426" text-anchor="middle" font-size="10" fill="#bdc3c7">* 수치는 집계된 공감/반응 신호 기반 추산 | paperWanderer</text>
</svg>