<svg xmlns="http://www.w3.org/2000/svg" width="800" height="440" viewBox="0 0 800 440"
     font-family="'Apple SD Gothic Neo', 'Malgun Gothic', Arial, sans-serif">
  <rect width="800" height="440" fill="#f8f9fa" rx="12"/>
  <text x="400" y="36" text-anchor="middle" font-size="17" font-weight="bold" fill="#2c3e50">BTS 아리랑 컴백 예고 — 글로벌 반응</text>
  <text x="400" y="54" text-anchor="middle" font-size="11" fill="#7f8c8d">Weverse · FM코리아 · X(트위터) | 2026-03-01 22:00 KST</text>
  <rect x="490" y="66" width="12" height="12" fill="#27ae60" rx="2"/>
  <text x="506" y="77" font-size="11" fill="#2c3e50">긍정</text>
  <rect x="548" y="66" width="12" height="12" fill="#e74c3c" rx="2"/>
  <text x="564" y="77" font-size="11" fill="#2c3e50">부정</text>
  <rect x="606" y="66" width="12" height="12" fill="#95a5a6" rx="2"/>
  <text x="622" y="77" font-size="11" fill="#2c3e50">중립</text>

  <text x="60" y="100" font-size="13" font-weight="bold" fill="#2c3e50">Weverse/유튜브 — 긍정 450건 / 부정 12건 / 중립 38건</text>
  <rect x="60" y="110" width="612" height="28" fill="#27ae60" rx="3"/>
  <rect x="672" y="110" width="16" height="28" fill="#e74c3c" rx="3"/>
  <rect x="688" y="110" width="52" height="28" fill="#95a5a6" rx="3"/>
  <text x="60" y="152" text-anchor="start" font-size="11" fill="#27ae60">긍정 90%</text>
  <text x="400" y="152" text-anchor="middle" font-size="11" fill="#e74c3c">부정 2%</text>
  <text x="740" y="152" text-anchor="end" font-size="11" fill="#7f8c8d">중립 8%</text>
  <text x="60" y="168" font-size="11" fill="#555">💬 "ARIRANG이라는 제목이 삼일절에 발표된다는 게 우연이 아닌 것 같아 소름"</text>

  <text x="60" y="220" font-size="13" font-weight="bold" fill="#2c3e50">FM코리아 — 긍정 178건 / 부정 8건 / 중립 34건</text>
  <rect x="60" y="230" width="551" height="28" fill="#27ae60" rx="3"/>
  <rect x="611" y="230" width="25" height="28" fill="#e74c3c" rx="3"/>
  <rect x="636" y="230" width="104" height="28" fill="#95a5a6" rx="3"/>
  <text x="60" y="272" text-anchor="start" font-size="11" fill="#27ae60">긍정 81%</text>
  <text x="400" y="272" text-anchor="middle" font-size="11" fill="#e74c3c">부정 4%</text>
  <text x="740" y="272" text-anchor="end" font-size="11" fill="#7f8c8d">중립 15%</text>
  <text x="60" y="288" font-size="11" fill="#555">💬 "아리랑이라는 제목을 군필 후 첫 앨범에 쓴다는 거 진짜 의미심장하다"</text>

  <text x="60" y="340" font-size="13" font-weight="bold" fill="#2c3e50">X(트위터) — 긍정 2200건 / 부정 45건 / 중립 255건</text>
  <rect x="60" y="350" width="599" height="28" fill="#27ae60" rx="3"/>
  <rect x="659" y="350" width="12" height="28" fill="#e74c3c" rx="3"/>
  <rect x="671" y="350" width="69" height="28" fill="#95a5a6" rx="3"/>
  <text x="60" y="392" text-anchor="start" font-size="11" fill="#27ae60">긍정 88%</text>
  <text x="400" y="392" text-anchor="middle" font-size="11" fill="#e74c3c">부정 2%</text>
  <text x="740" y="392" text-anchor="end" font-size="11" fill="#7f8c8d">중립 10%</text>
  <text x="60" y="408" font-size="11" fill="#555">💬 "#BTScomeback #ARIRANG this title on Samiljeol hits different"</text>

  <text x="400" y="426" text-anchor="middle" font-size="10" fill="#bdc3c7">* 수치는 집계된 공감/반응 신호 기반 추산 | paperWanderer</text>
</svg>