<svg xmlns="http://www.w3.org/2000/svg" width="800" height="440" viewBox="0 0 800 440"
     font-family="'Apple SD Gothic Neo', 'Malgun Gothic', Arial, sans-serif">
  <rect width="800" height="440" fill="#f8f9fa" rx="12"/>
  <text x="400" y="36" text-anchor="middle" font-size="17" font-weight="bold" fill="#2c3e50">2026 KBO 시범경기 개막 — 커뮤니티 반응</text>
  <text x="400" y="54" text-anchor="middle" font-size="11" fill="#7f8c8d">MLB파크 · 네이버스포츠 · 에펨코리아 | 2026-03-12 21:00 KST</text>
  <rect x="490" y="66" width="12" height="12" fill="#27ae60" rx="2"/>
  <text x="506" y="77" font-size="11" fill="#2c3e50">긍정</text>
  <rect x="548" y="66" width="12" height="12" fill="#e74c3c" rx="2"/>
  <text x="564" y="77" font-size="11" fill="#2c3e50">부정</text>
  <rect x="606" y="66" width="12" height="12" fill="#95a5a6" rx="2"/>
  <text x="622" y="77" font-size="11" fill="#2c3e50">중립</text>

  <text x="60" y="100" font-size="13" font-weight="bold" fill="#2c3e50">MLB파크 — 긍정 280건 / 부정 50건 / 중립 120건</text>
  <rect x="60" y="110" width="423" height="28" fill="#27ae60" rx="3"/>
  <rect x="483" y="110" width="76" height="28" fill="#e74c3c" rx="3"/>
  <rect x="559" y="110" width="181" height="28" fill="#95a5a6" rx="3"/>
  <text x="60" y="152" text-anchor="start" font-size="11" fill="#27ae60">긍정 62%</text>
  <text x="400" y="152" text-anchor="middle" font-size="11" fill="#e74c3c">부정 11%</text>
  <text x="740" y="152" text-anchor="end" font-size="11" fill="#7f8c8d">중립 27%</text>
  <text x="60" y="168" font-size="11" fill="#555">💬 "드디어 야구 시즌이다! WBC 8강 열기 이어받아 KBO도 기대해보자"</text>

  <text x="60" y="220" font-size="13" font-weight="bold" fill="#2c3e50">네이버스포츠 — 긍정 320건 / 부정 40건 / 중립 90건</text>
  <rect x="60" y="230" width="484" height="28" fill="#27ae60" rx="3"/>
  <rect x="544" y="230" width="60" height="28" fill="#e74c3c" rx="3"/>
  <rect x="604" y="230" width="136" height="28" fill="#95a5a6" rx="3"/>
  <text x="60" y="272" text-anchor="start" font-size="11" fill="#27ae60">긍정 71%</text>
  <text x="400" y="272" text-anchor="middle" font-size="11" fill="#e74c3c">부정 9%</text>
  <text x="740" y="272" text-anchor="end" font-size="11" fill="#7f8c8d">중립 20%</text>
  <text x="60" y="288" font-size="11" fill="#555">💬 "첫날 1만8천 명 입장, 목요일인데도 이 정도면 잘 됐다"</text>

  <text x="60" y="340" font-size="13" font-weight="bold" fill="#2c3e50">에펨코리아 — 긍정 210건 / 부정 35건 / 중립 80건</text>
  <rect x="60" y="350" width="439" height="28" fill="#27ae60" rx="3"/>
  <rect x="499" y="350" width="73" height="28" fill="#e74c3c" rx="3"/>
  <rect x="572" y="350" width="168" height="28" fill="#95a5a6" rx="3"/>
  <text x="60" y="392" text-anchor="start" font-size="11" fill="#27ae60">긍정 65%</text>
  <text x="400" y="392" text-anchor="middle" font-size="11" fill="#e74c3c">부정 11%</text>
  <text x="740" y="392" text-anchor="end" font-size="11" fill="#7f8c8d">중립 24%</text>
  <text x="60" y="408" font-size="11" fill="#555">💬 "삼성이 12:3으로 한화 대파... 시범경기라도 대박이네 ㅋㅋ"</text>

  <text x="400" y="426" text-anchor="middle" font-size="10" fill="#bdc3c7">* 수치는 집계된 공감/반응 신호 기반 추산 | paperWanderer</text>
</svg>