<svg xmlns="http://www.w3.org/2000/svg" width="800" height="440" viewBox="0 0 800 440"
     font-family="'Apple SD Gothic Neo', 'Malgun Gothic', Arial, sans-serif">
  <rect width="800" height="440" fill="#f8f9fa" rx="12"/>
  <text x="400" y="36" text-anchor="middle" font-size="17" font-weight="bold" fill="#2c3e50">중동 유가 80달러대 — 커뮤니티 반응</text>
  <text x="400" y="54" text-anchor="middle" font-size="11" fill="#7f8c8d">네이버뉴스 · 클리앙 · 에펨코리아 | 2026-03-24 18:00 KST</text>
  <rect x="490" y="66" width="12" height="12" fill="#27ae60" rx="2"/>
  <text x="506" y="77" font-size="11" fill="#2c3e50">긍정</text>
  <rect x="548" y="66" width="12" height="12" fill="#e74c3c" rx="2"/>
  <text x="564" y="77" font-size="11" fill="#2c3e50">부정</text>
  <rect x="606" y="66" width="12" height="12" fill="#95a5a6" rx="2"/>
  <text x="622" y="77" font-size="11" fill="#2c3e50">중립</text>

  <text x="60" y="100" font-size="13" font-weight="bold" fill="#2c3e50">네이버뉴스 댓글 — 긍정 400건 / 부정 200건 / 중립 100건</text>
  <rect x="60" y="110" width="389" height="28" fill="#27ae60" rx="3"/>
  <rect x="449" y="110" width="194" height="28" fill="#e74c3c" rx="3"/>
  <rect x="643" y="110" width="97" height="28" fill="#95a5a6" rx="3"/>
  <text x="60" y="152" text-anchor="start" font-size="11" fill="#27ae60">긍정 57%</text>
  <text x="400" y="152" text-anchor="middle" font-size="11" fill="#e74c3c">부정 29%</text>
  <text x="740" y="152" text-anchor="end" font-size="11" fill="#7f8c8d">중립 14%</text>
  <text x="60" y="168" font-size="11" fill="#555">💬 "방산·에너지 주식 담아놨는데 잘됐다"</text>

  <text x="60" y="220" font-size="13" font-weight="bold" fill="#2c3e50">클리앙 — 긍정 280건 / 부정 160건 / 중립 100건</text>
  <rect x="60" y="230" width="353" height="28" fill="#27ae60" rx="3"/>
  <rect x="413" y="230" width="201" height="28" fill="#e74c3c" rx="3"/>
  <rect x="614" y="230" width="126" height="28" fill="#95a5a6" rx="3"/>
  <text x="60" y="272" text-anchor="start" font-size="11" fill="#27ae60">긍정 52%</text>
  <text x="400" y="272" text-anchor="middle" font-size="11" fill="#e74c3c">부정 30%</text>
  <text x="740" y="272" text-anchor="end" font-size="11" fill="#7f8c8d">중립 18%</text>
  <text x="60" y="288" font-size="11" fill="#555">💬 "기름값 또 올라가면 서민만 죽는다"</text>

  <text x="60" y="340" font-size="13" font-weight="bold" fill="#2c3e50">에펨코리아 — 긍정 200건 / 부정 80건 / 중립 80건</text>
  <rect x="60" y="350" width="378" height="28" fill="#27ae60" rx="3"/>
  <rect x="438" y="350" width="151" height="28" fill="#e74c3c" rx="3"/>
  <rect x="589" y="350" width="151" height="28" fill="#95a5a6" rx="3"/>
  <text x="60" y="392" text-anchor="start" font-size="11" fill="#27ae60">긍정 56%</text>
  <text x="400" y="392" text-anchor="middle" font-size="11" fill="#e74c3c">부정 22%</text>
  <text x="740" y="392" text-anchor="end" font-size="11" fill="#7f8c8d">중립 22%</text>
  <text x="60" y="408" font-size="11" fill="#555">💬 "중동 불안 계속되면 한국 조선·방산 수혜 계속"</text>

  <text x="400" y="426" text-anchor="middle" font-size="10" fill="#bdc3c7">* 수치는 집계된 공감/반응 신호 기반 추산 | paperWanderer</text>
</svg>