<svg xmlns="http://www.w3.org/2000/svg" width="800" height="322" viewBox="0 0 800 322"
     font-family="'Apple SD Gothic Neo', 'Malgun Gothic', Arial, sans-serif">
  <rect width="800" height="322" fill="#f8f9fa" rx="12"/>
  <text x="400" y="36" text-anchor="middle" font-size="17" font-weight="bold" fill="#2c3e50">OECD 성장률 하향 — 커뮤니티 반응 분포</text>
  <text x="400" y="54" text-anchor="middle" font-size="11" fill="#7f8c8d">에펨코리아 · 디시인사이드 | 2026-03-27 KST</text>
  <rect x="490" y="66" width="12" height="12" fill="#27ae60" rx="2"/>
  <text x="506" y="77" font-size="11" fill="#2c3e50">긍정</text>
  <rect x="548" y="66" width="12" height="12" fill="#e74c3c" rx="2"/>
  <text x="564" y="77" font-size="11" fill="#2c3e50">부정</text>
  <rect x="606" y="66" width="12" height="12" fill="#95a5a6" rx="2"/>
  <text x="622" y="77" font-size="11" fill="#2c3e50">중립</text>

  <text x="60" y="100" font-size="13" font-weight="bold" fill="#2c3e50">에펨코리아 — 긍정 15% / 부정 65% / 중립 20%</text>
  <rect x="60" y="110" width="102" height="28" fill="#27ae60" rx="3"/>
  <rect x="162" y="110" width="442" height="28" fill="#e74c3c" rx="3"/>
  <rect x="604" y="110" width="136" height="28" fill="#95a5a6" rx="3"/>
  <text x="60" y="152" text-anchor="start" font-size="11" fill="#27ae60">긍정 15%</text>
  <text x="400" y="152" text-anchor="middle" font-size="11" fill="#e74c3c">부정 65%</text>
  <text x="740" y="152" text-anchor="end" font-size="11" fill="#7f8c8d">중립 20%</text>
  <text x="60" y="168" font-size="11" fill="#555">💬 "스태그플레이션 우려, 에너지 취약 비판"</text>

  <text x="60" y="220" font-size="13" font-weight="bold" fill="#2c3e50">디시인사이드 — 긍정 15% / 부정 65% / 중립 20%</text>
  <rect x="60" y="230" width="102" height="28" fill="#27ae60" rx="3"/>
  <rect x="162" y="230" width="442" height="28" fill="#e74c3c" rx="3"/>
  <rect x="604" y="230" width="136" height="28" fill="#95a5a6" rx="3"/>
  <text x="60" y="272" text-anchor="start" font-size="11" fill="#27ae60">긍정 15%</text>
  <text x="400" y="272" text-anchor="middle" font-size="11" fill="#e74c3c">부정 65%</text>
  <text x="740" y="272" text-anchor="end" font-size="11" fill="#7f8c8d">중립 20%</text>
  <text x="60" y="288" font-size="11" fill="#555">💬 "성장률 하향 — 내수·수출 동반 부진 우려"</text>

  <text x="400" y="308" text-anchor="middle" font-size="10" fill="#bdc3c7">* 수치는 집계된 공감/반응 신호 기반 추산 | paperWanderer</text>
</svg>