<svg xmlns="http://www.w3.org/2000/svg" width="800" height="440" viewBox="0 0 800 440"
     font-family="'Apple SD Gothic Neo', 'Malgun Gothic', Arial, sans-serif">
  <rect width="800" height="440" fill="#f8f9fa" rx="12"/>
  <text x="400" y="36" text-anchor="middle" font-size="17" font-weight="bold" fill="#2c3e50">호르무즈 에너지 위기 — 커뮤니티 반응</text>
  <text x="400" y="54" text-anchor="middle" font-size="11" fill="#7f8c8d">클리앙 · 경제 커뮤니티 | 2026-03-25 20:00 KST</text>
  <rect x="490" y="66" width="12" height="12" fill="#27ae60" rx="2"/>
  <text x="506" y="77" font-size="11" fill="#2c3e50">긍정</text>
  <rect x="548" y="66" width="12" height="12" fill="#e74c3c" rx="2"/>
  <text x="564" y="77" font-size="11" fill="#2c3e50">부정</text>
  <rect x="606" y="66" width="12" height="12" fill="#95a5a6" rx="2"/>
  <text x="622" y="77" font-size="11" fill="#2c3e50">중립</text>

  <text x="60" y="100" font-size="13" font-weight="bold" fill="#2c3e50">클리앙 — 긍정 55건 / 부정 150건 / 중립 45건</text>
  <rect x="60" y="110" width="150" height="28" fill="#27ae60" rx="3"/>
  <rect x="210" y="110" width="408" height="28" fill="#e74c3c" rx="3"/>
  <rect x="618" y="110" width="122" height="28" fill="#95a5a6" rx="3"/>
  <text x="60" y="152" text-anchor="start" font-size="11" fill="#27ae60">긍정 22%</text>
  <text x="400" y="152" text-anchor="middle" font-size="11" fill="#e74c3c">부정 60%</text>
  <text x="740" y="152" text-anchor="end" font-size="11" fill="#7f8c8d">중립 18%</text>
  <text x="60" y="168" font-size="11" fill="#555">💬 "유가 100달러 돌파... 기름값 오르면 물가 다 오른다"</text>

  <text x="60" y="220" font-size="13" font-weight="bold" fill="#2c3e50">경제 커뮤니티 — 에너지 취약성 비판</text>
  <rect x="60" y="230" width="136" height="28" fill="#27ae60" rx="3"/>
  <rect x="196" y="230" width="408" height="28" fill="#e74c3c" rx="3"/>
  <rect x="604" y="230" width="136" height="28" fill="#95a5a6" rx="3"/>
  <text x="60" y="272" text-anchor="start" font-size="11" fill="#27ae60">긍정 20%</text>
  <text x="400" y="272" text-anchor="middle" font-size="11" fill="#e74c3c">부정 60%</text>
  <text x="740" y="272" text-anchor="end" font-size="11" fill="#7f8c8d">중립 20%</text>
  <text x="60" y="288" font-size="11" fill="#555">💬 "에너지 자급률이 너무 낮아 외부 충격에 너무 취약하다"</text>

  <text x="60" y="340" font-size="13" font-weight="bold" fill="#2c3e50">국제 뉴스 댓글 — 위기 심각성 인식</text>
  <rect x="60" y="350" width="170" height="28" fill="#27ae60" rx="3"/>
  <rect x="230" y="350" width="374" height="28" fill="#e74c3c" rx="3"/>
  <rect x="604" y="350" width="136" height="28" fill="#95a5a6" rx="3"/>
  <text x="60" y="392" text-anchor="start" font-size="11" fill="#27ae60">긍정 25%</text>
  <text x="400" y="392" text-anchor="middle" font-size="11" fill="#e74c3c">부정 55%</text>
  <text x="740" y="392" text-anchor="end" font-size="11" fill="#7f8c8d">중립 20%</text>
  <text x="60" y="408" font-size="11" fill="#555">💬 "재생에너지 전환이 답인데 왜 이렇게 느린지"</text>

  <text x="400" y="426" text-anchor="middle" font-size="10" fill="#bdc3c7">* 수치는 집계된 공감/반응 신호 기반 추산 | paperWanderer</text>
</svg>