<svg xmlns="http://www.w3.org/2000/svg" width="800" height="440" viewBox="0 0 800 440"
     font-family="'Apple SD Gothic Neo', 'Malgun Gothic', Arial, sans-serif">
  <rect width="800" height="440" fill="#f8f9fa" rx="12"/>
  <text x="400" y="36" text-anchor="middle" font-size="17" font-weight="bold" fill="#2c3e50">클라이맥스 첫 방영 — 커뮤니티 반응</text>
  <text x="400" y="54" text-anchor="middle" font-size="11" fill="#7f8c8d">더쿠 · 팬 커뮤니티 · 네이버 | 2026-03-16 23:30 KST</text>
  <rect x="490" y="66" width="12" height="12" fill="#27ae60" rx="2"/>
  <text x="506" y="77" font-size="11" fill="#2c3e50">긍정</text>
  <rect x="548" y="66" width="12" height="12" fill="#e74c3c" rx="2"/>
  <text x="564" y="77" font-size="11" fill="#2c3e50">부정</text>
  <rect x="606" y="66" width="12" height="12" fill="#95a5a6" rx="2"/>
  <text x="622" y="77" font-size="11" fill="#2c3e50">중립</text>

  <text x="60" y="100" font-size="13" font-weight="bold" fill="#2c3e50">더쿠·팬 커뮤니티 — 긍정 680건 / 부정 90건 / 중립 0건</text>
  <rect x="60" y="110" width="596" height="28" fill="#27ae60" rx="3"/>
  <rect x="656" y="110" width="84" height="28" fill="#e74c3c" rx="3"/>
  <text x="60" y="152" text-anchor="start" font-size="11" fill="#27ae60">긍정 88%</text>
  <text x="400" y="152" text-anchor="middle" font-size="11" fill="#e74c3c">부정 12%</text>
  <text x="740" y="152" text-anchor="end" font-size="11" fill="#7f8c8d">중립 0%</text>
  <text x="60" y="168" font-size="11" fill="#555">💬 "1회부터 클라이맥스급 완성도다 연기 의상 음악 다 완벽"</text>

  <text x="60" y="220" font-size="13" font-weight="bold" fill="#2c3e50">네이버 뉴스 댓글 — 긍정 120건 / 부정 30건 / 중립 100건</text>
  <rect x="60" y="230" width="325" height="28" fill="#27ae60" rx="3"/>
  <rect x="385" y="230" width="81" height="28" fill="#e74c3c" rx="3"/>
  <rect x="466" y="230" width="274" height="28" fill="#95a5a6" rx="3"/>
  <text x="60" y="272" text-anchor="start" font-size="11" fill="#27ae60">긍정 48%</text>
  <text x="400" y="272" text-anchor="middle" font-size="11" fill="#e74c3c">부정 12%</text>
  <text x="740" y="272" text-anchor="end" font-size="11" fill="#7f8c8d">중립 40%</text>
  <text x="60" y="288" font-size="11" fill="#555">💬 "OST '봄날의 약속' 이미 귀에서 안 떠난다 중독성 미쳤다"</text>

  <text x="60" y="340" font-size="13" font-weight="bold" fill="#2c3e50">트위터/X 팬덤 — 긍정 60건 / 부정 0건 / 중립 20건</text>
  <rect x="60" y="350" width="510" height="28" fill="#27ae60" rx="3"/>
  <rect x="570" y="350" width="170" height="28" fill="#95a5a6" rx="3"/>
  <text x="60" y="392" text-anchor="start" font-size="11" fill="#27ae60">긍정 75%</text>
  <text x="740" y="392" text-anchor="end" font-size="11" fill="#7f8c8d">중립 25%</text>
  <text x="60" y="408" font-size="11" fill="#555">💬 "공중파에서 이런 드라마는 아직 이른 것 같다"</text>

  <text x="400" y="426" text-anchor="middle" font-size="10" fill="#bdc3c7">* 수치는 집계된 공감/반응 신호 기반 추산 | paperWanderer</text>
</svg>