<svg xmlns="http://www.w3.org/2000/svg" width="800" height="440" viewBox="0 0 800 440"
     font-family="'Apple SD Gothic Neo', 'Malgun Gothic', Arial, sans-serif">
  <rect width="800" height="440" fill="#f8f9fa" rx="12"/>
  <text x="400" y="36" text-anchor="middle" font-size="17" font-weight="bold" fill="#2c3e50">3·8 여성의날 한국여성대회 — 커뮤니티 반응</text>
  <text x="400" y="54" text-anchor="middle" font-size="11" fill="#7f8c8d">트위터/X · 더쿠 · 클리앙 | 2026-03-07 20:00 KST</text>
  <rect x="490" y="66" width="12" height="12" fill="#27ae60" rx="2"/>
  <text x="506" y="77" font-size="11" fill="#2c3e50">긍정</text>
  <rect x="548" y="66" width="12" height="12" fill="#e74c3c" rx="2"/>
  <text x="564" y="77" font-size="11" fill="#2c3e50">부정</text>
  <rect x="606" y="66" width="12" height="12" fill="#95a5a6" rx="2"/>
  <text x="622" y="77" font-size="11" fill="#2c3e50">중립</text>

  <text x="60" y="100" font-size="13" font-weight="bold" fill="#2c3e50">트위터/X — 긍정 920건 / 부정 480건 / 중립 600건</text>
  <rect x="60" y="110" width="314" height="28" fill="#27ae60" rx="3"/>
  <rect x="374" y="110" width="163" height="28" fill="#e74c3c" rx="3"/>
  <rect x="537" y="110" width="203" height="28" fill="#95a5a6" rx="3"/>
  <text x="60" y="152" text-anchor="start" font-size="11" fill="#27ae60">긍정 46%</text>
  <text x="400" y="152" text-anchor="middle" font-size="11" fill="#e74c3c">부정 24%</text>
  <text x="740" y="152" text-anchor="end" font-size="11" fill="#7f8c8d">중립 30%</text>
  <text x="60" y="168" font-size="11" fill="#555">💬 "광화문 가득 찬 광경이 감동적이다. 성평등 민주주의!"</text>

  <text x="60" y="220" font-size="13" font-weight="bold" fill="#2c3e50">더쿠 — 긍정 580건 / 부정 220건 / 중립 200건</text>
  <rect x="60" y="230" width="394" height="28" fill="#27ae60" rx="3"/>
  <rect x="454" y="230" width="150" height="28" fill="#e74c3c" rx="3"/>
  <rect x="604" y="230" width="136" height="28" fill="#95a5a6" rx="3"/>
  <text x="60" y="272" text-anchor="start" font-size="11" fill="#27ae60">긍정 58%</text>
  <text x="400" y="272" text-anchor="middle" font-size="11" fill="#e74c3c">부정 22%</text>
  <text x="740" y="272" text-anchor="end" font-size="11" fill="#7f8c8d">중립 20%</text>
  <text x="60" y="288" font-size="11" fill="#555">💬 "41회를 맞는 여성대회, 지방선거 앞두고 여성 의제 부각"</text>

  <text x="60" y="340" font-size="13" font-weight="bold" fill="#2c3e50">클리앙 — 긍정 240건 / 부정 310건 / 중립 450건</text>
  <rect x="60" y="350" width="163" height="28" fill="#27ae60" rx="3"/>
  <rect x="223" y="350" width="211" height="28" fill="#e74c3c" rx="3"/>
  <rect x="434" y="350" width="306" height="28" fill="#95a5a6" rx="3"/>
  <text x="60" y="392" text-anchor="start" font-size="11" fill="#27ae60">긍정 24%</text>
  <text x="400" y="392" text-anchor="middle" font-size="11" fill="#e74c3c">부정 31%</text>
  <text x="740" y="392" text-anchor="end" font-size="11" fill="#7f8c8d">중립 45%</text>
  <text x="60" y="408" font-size="11" fill="#555">💬 "지방선거 여성 후보 비율이 여전히 너무 낮다"</text>

  <text x="400" y="426" text-anchor="middle" font-size="10" fill="#bdc3c7">* 수치는 집계된 공감/반응 신호 기반 추산 | paperWanderer</text>
</svg>