<svg xmlns="http://www.w3.org/2000/svg" width="800" height="440" viewBox="0 0 800 440"
     font-family="'Apple SD Gothic Neo', 'Malgun Gothic', Arial, sans-serif">
  <rect width="800" height="440" fill="#f8f9fa" rx="12"/>
  <text x="400" y="36" text-anchor="middle" font-size="17" font-weight="bold" fill="#2c3e50">한국은행 금리 인하 신중 — 커뮤니티 반응</text>
  <text x="400" y="54" text-anchor="middle" font-size="11" fill="#7f8c8d">네이버뉴스 · 클리앙 · 에펨코리아 | 2026-03-24 18:00 KST</text>
  <rect x="490" y="66" width="12" height="12" fill="#27ae60" rx="2"/>
  <text x="506" y="77" font-size="11" fill="#2c3e50">긍정</text>
  <rect x="548" y="66" width="12" height="12" fill="#e74c3c" rx="2"/>
  <text x="564" y="77" font-size="11" fill="#2c3e50">부정</text>
  <rect x="606" y="66" width="12" height="12" fill="#95a5a6" rx="2"/>
  <text x="622" y="77" font-size="11" fill="#2c3e50">중립</text>

  <text x="60" y="100" font-size="13" font-weight="bold" fill="#2c3e50">네이버뉴스 댓글 — 긍정 300건 / 부정 250건 / 중립 130건</text>
  <rect x="60" y="110" width="300" height="28" fill="#27ae60" rx="3"/>
  <rect x="360" y="110" width="250" height="28" fill="#e74c3c" rx="3"/>
  <rect x="610" y="110" width="130" height="28" fill="#95a5a6" rx="3"/>
  <text x="60" y="152" text-anchor="start" font-size="11" fill="#27ae60">긍정 44%</text>
  <text x="400" y="152" text-anchor="middle" font-size="11" fill="#e74c3c">부정 37%</text>
  <text x="740" y="152" text-anchor="end" font-size="11" fill="#7f8c8d">중립 19%</text>
  <text x="60" y="168" font-size="11" fill="#555">💬 "빨리 금리 내려야 경기 살아난다, 더 늦으면 손해"</text>

  <text x="60" y="220" font-size="13" font-weight="bold" fill="#2c3e50">클리앙 — 긍정 180건 / 부정 140건 / 중립 100건</text>
  <rect x="60" y="230" width="291" height="28" fill="#27ae60" rx="3"/>
  <rect x="351" y="230" width="227" height="28" fill="#e74c3c" rx="3"/>
  <rect x="578" y="230" width="162" height="28" fill="#95a5a6" rx="3"/>
  <text x="60" y="272" text-anchor="start" font-size="11" fill="#27ae60">긍정 43%</text>
  <text x="400" y="272" text-anchor="middle" font-size="11" fill="#e74c3c">부정 33%</text>
  <text x="740" y="272" text-anchor="end" font-size="11" fill="#7f8c8d">중립 24%</text>
  <text x="60" y="288" font-size="11" fill="#555">💬 "집값 또 오를까봐 못 내리는 거잖아, 가계부채 우선이다"</text>

  <text x="60" y="340" font-size="13" font-weight="bold" fill="#2c3e50">에펨코리아 — 긍정 120건 / 부정 100건 / 중립 70건</text>
  <rect x="60" y="350" width="281" height="28" fill="#27ae60" rx="3"/>
  <rect x="341" y="350" width="234" height="28" fill="#e74c3c" rx="3"/>
  <rect x="575" y="350" width="165" height="28" fill="#95a5a6" rx="3"/>
  <text x="60" y="392" text-anchor="start" font-size="11" fill="#27ae60">긍정 41%</text>
  <text x="400" y="392" text-anchor="middle" font-size="11" fill="#e74c3c">부정 34%</text>
  <text x="740" y="392" text-anchor="end" font-size="11" fill="#7f8c8d">중립 25%</text>
  <text x="60" y="408" font-size="11" fill="#555">💬 "환율도 1500원대인데 금리까지 내리면 더 올라간다"</text>

  <text x="400" y="426" text-anchor="middle" font-size="10" fill="#bdc3c7">* 수치는 집계된 공감/반응 신호 기반 추산 | paperWanderer</text>
</svg>