<svg xmlns="http://www.w3.org/2000/svg" width="800" height="440" viewBox="0 0 800 440"
     font-family="'Apple SD Gothic Neo', 'Malgun Gothic', Arial, sans-serif">
  <rect width="800" height="440" fill="#f8f9fa" rx="12"/>
  <text x="400" y="36" text-anchor="middle" font-size="17" font-weight="bold" fill="#2c3e50">강북 모텔 연쇄살인 신상공개 — 커뮤니티 반응</text>
  <text x="400" y="54" text-anchor="middle" font-size="11" fill="#7f8c8d">네이버 뉴스 · 에펨코리아 · 클리앙 | 2026-03-07 21:00 KST</text>
  <rect x="490" y="66" width="12" height="12" fill="#27ae60" rx="2"/>
  <text x="506" y="77" font-size="11" fill="#2c3e50">긍정</text>
  <rect x="548" y="66" width="12" height="12" fill="#e74c3c" rx="2"/>
  <text x="564" y="77" font-size="11" fill="#2c3e50">부정</text>
  <rect x="606" y="66" width="12" height="12" fill="#95a5a6" rx="2"/>
  <text x="622" y="77" font-size="11" fill="#2c3e50">중립</text>

  <text x="60" y="100" font-size="13" font-weight="bold" fill="#2c3e50">네이버 뉴스 댓글 — 긍정 980건 / 부정 180건 / 중립 940건</text>
  <rect x="60" y="110" width="317" height="28" fill="#27ae60" rx="3"/>
  <rect x="377" y="110" width="58" height="28" fill="#e74c3c" rx="3"/>
  <rect x="435" y="110" width="305" height="28" fill="#95a5a6" rx="3"/>
  <text x="60" y="152" text-anchor="start" font-size="11" fill="#27ae60">긍정 47%</text>
  <text x="400" y="152" text-anchor="middle" font-size="11" fill="#e74c3c">부정 9%</text>
  <text x="740" y="152" text-anchor="end" font-size="11" fill="#7f8c8d">중립 44%</text>
  <text x="60" y="168" font-size="11" fill="#555">💬 "범죄 피의자 신상은 성별 무관하게 공개해야 한다"</text>

  <text x="60" y="220" font-size="13" font-weight="bold" fill="#2c3e50">에펨코리아 — 긍정 500건 / 부정 140건 / 중립 460건</text>
  <rect x="60" y="230" width="309" height="28" fill="#27ae60" rx="3"/>
  <rect x="369" y="230" width="86" height="28" fill="#e74c3c" rx="3"/>
  <rect x="455" y="230" width="285" height="28" fill="#95a5a6" rx="3"/>
  <text x="60" y="272" text-anchor="start" font-size="11" fill="#27ae60">긍정 45%</text>
  <text x="400" y="272" text-anchor="middle" font-size="11" fill="#e74c3c">부정 13%</text>
  <text x="740" y="272" text-anchor="end" font-size="11" fill="#7f8c8d">중립 42%</text>
  <text x="60" y="288" font-size="11" fill="#555">💬 "약물 연쇄 살인이면 신상 공개 당연한 거 아닌가"</text>

  <text x="60" y="340" font-size="13" font-weight="bold" fill="#2c3e50">클리앙 — 긍정 280건 / 부정 210건 / 중립 510건</text>
  <rect x="60" y="350" width="190" height="28" fill="#27ae60" rx="3"/>
  <rect x="250" y="350" width="143" height="28" fill="#e74c3c" rx="3"/>
  <rect x="393" y="350" width="347" height="28" fill="#95a5a6" rx="3"/>
  <text x="60" y="392" text-anchor="start" font-size="11" fill="#27ae60">긍정 28%</text>
  <text x="400" y="392" text-anchor="middle" font-size="11" fill="#e74c3c">부정 21%</text>
  <text x="740" y="392" text-anchor="end" font-size="11" fill="#7f8c8d">중립 51%</text>
  <text x="60" y="408" font-size="11" fill="#555">💬 "온라인 신상털이는 사적 제재다. 공식 발표 전에 퍼뜨리면 안 된다"</text>

  <text x="400" y="426" text-anchor="middle" font-size="10" fill="#bdc3c7">* 수치는 집계된 공감/반응 신호 기반 추산 | paperWanderer</text>
</svg>