<svg xmlns="http://www.w3.org/2000/svg" width="800" height="440" viewBox="0 0 800 440"
     font-family="'Apple SD Gothic Neo', 'Malgun Gothic', Arial, sans-serif">
  <rect width="800" height="440" fill="#f8f9fa" rx="12"/>
  <text x="400" y="36" text-anchor="middle" font-size="17" font-weight="bold" fill="#2c3e50">청약경쟁률 2년 최저 — 커뮤니티 반응</text>
  <text x="400" y="54" text-anchor="middle" font-size="11" fill="#7f8c8d">클리앙 · 에펨코리아 · 보배드림 | 2026-03-07 21:00 KST</text>
  <rect x="490" y="66" width="12" height="12" fill="#27ae60" rx="2"/>
  <text x="506" y="77" font-size="11" fill="#2c3e50">긍정</text>
  <rect x="548" y="66" width="12" height="12" fill="#e74c3c" rx="2"/>
  <text x="564" y="77" font-size="11" fill="#2c3e50">부정</text>
  <rect x="606" y="66" width="12" height="12" fill="#95a5a6" rx="2"/>
  <text x="622" y="77" font-size="11" fill="#2c3e50">중립</text>

  <text x="60" y="100" font-size="13" font-weight="bold" fill="#2c3e50">클리앙 — 긍정 180건 / 부정 310건 / 중립 230건</text>
  <rect x="60" y="110" width="170" height="28" fill="#27ae60" rx="3"/>
  <rect x="230" y="110" width="293" height="28" fill="#e74c3c" rx="3"/>
  <rect x="523" y="110" width="217" height="28" fill="#95a5a6" rx="3"/>
  <text x="60" y="152" text-anchor="start" font-size="11" fill="#27ae60">긍정 25%</text>
  <text x="400" y="152" text-anchor="middle" font-size="11" fill="#e74c3c">부정 43%</text>
  <text x="740" y="152" text-anchor="end" font-size="11" fill="#7f8c8d">중립 32%</text>
  <text x="60" y="168" font-size="11" fill="#555">💬 "유가 오르고 물가 오르는데 집 사려는 사람이 어디 있냐"</text>

  <text x="60" y="220" font-size="13" font-weight="bold" fill="#2c3e50">에펨코리아 — 긍정 130건 / 부정 270건 / 중립 280건</text>
  <rect x="60" y="230" width="130" height="28" fill="#27ae60" rx="3"/>
  <rect x="190" y="230" width="270" height="28" fill="#e74c3c" rx="3"/>
  <rect x="460" y="230" width="280" height="28" fill="#95a5a6" rx="3"/>
  <text x="60" y="272" text-anchor="start" font-size="11" fill="#27ae60">긍정 19%</text>
  <text x="400" y="272" text-anchor="middle" font-size="11" fill="#e74c3c">부정 40%</text>
  <text x="740" y="272" text-anchor="end" font-size="11" fill="#7f8c8d">중립 41%</text>
  <text x="60" y="288" font-size="11" fill="#555">💬 "대출도 막히고 분양가도 높고 진짜 집 사기 너무 어렵다"</text>

  <text x="60" y="340" font-size="13" font-weight="bold" fill="#2c3e50">보배드림 — 긍정 150건 / 부정 380건 / 중립 270건</text>
  <rect x="60" y="350" width="127" height="28" fill="#27ae60" rx="3"/>
  <rect x="187" y="350" width="322" height="28" fill="#e74c3c" rx="3"/>
  <rect x="509" y="350" width="231" height="28" fill="#95a5a6" rx="3"/>
  <text x="60" y="392" text-anchor="start" font-size="11" fill="#27ae60">긍정 19%</text>
  <text x="400" y="392" text-anchor="middle" font-size="11" fill="#e74c3c">부정 47%</text>
  <text x="740" y="392" text-anchor="end" font-size="11" fill="#7f8c8d">중립 34%</text>
  <text x="60" y="408" font-size="11" fill="#555">💬 "지방은 미달인데 강남만 줄 선다. 양극화가 극심하다"</text>

  <text x="400" y="426" text-anchor="middle" font-size="10" fill="#bdc3c7">* 수치는 집계된 공감/반응 신호 기반 추산 | paperWanderer</text>
</svg>