<svg xmlns="http://www.w3.org/2000/svg" width="800" height="440" viewBox="0 0 800 440"
     font-family="'Apple SD Gothic Neo', 'Malgun Gothic', Arial, sans-serif">
  <rect width="800" height="440" fill="#f8f9fa" rx="12"/>
  <text x="400" y="36" text-anchor="middle" font-size="17" font-weight="bold" fill="#2c3e50">6·3 지방선거 여론 — 커뮤니티 반응</text>
  <text x="400" y="54" text-anchor="middle" font-size="11" fill="#7f8c8d">FM코리아 · DC인사이드 · 네이버뉴스 | 2026-03-14 KST</text>
  <rect x="490" y="66" width="12" height="12" fill="#27ae60" rx="2"/>
  <text x="506" y="77" font-size="11" fill="#2c3e50">긍정</text>
  <rect x="548" y="66" width="12" height="12" fill="#e74c3c" rx="2"/>
  <text x="564" y="77" font-size="11" fill="#2c3e50">부정</text>
  <rect x="606" y="66" width="12" height="12" fill="#95a5a6" rx="2"/>
  <text x="622" y="77" font-size="11" fill="#2c3e50">중립</text>

  <text x="60" y="100" font-size="13" font-weight="bold" fill="#2c3e50">FM코리아 — 긍정 200건 / 부정 180건 / 중립 120건</text>
  <rect x="60" y="110" width="272" height="28" fill="#27ae60" rx="3"/>
  <rect x="332" y="110" width="245" height="28" fill="#e74c3c" rx="3"/>
  <rect x="577" y="110" width="163" height="28" fill="#95a5a6" rx="3"/>
  <text x="60" y="152" text-anchor="start" font-size="11" fill="#27ae60">긍정 40%</text>
  <text x="400" y="152" text-anchor="middle" font-size="11" fill="#e74c3c">부정 36%</text>
  <text x="740" y="152" text-anchor="end" font-size="11" fill="#7f8c8d">중립 24%</text>
  <text x="60" y="168" font-size="11" fill="#555">💬 "지방선거는 중간평가다. 민주당이 압승하면 이재명 정부에 힘이 실린다"</text>

  <text x="60" y="220" font-size="13" font-weight="bold" fill="#2c3e50">DC인사이드 — 긍정 160건 / 부정 200건 / 중립 140건</text>
  <rect x="60" y="230" width="218" height="28" fill="#27ae60" rx="3"/>
  <rect x="278" y="230" width="272" height="28" fill="#e74c3c" rx="3"/>
  <rect x="550" y="230" width="190" height="28" fill="#95a5a6" rx="3"/>
  <text x="60" y="272" text-anchor="start" font-size="11" fill="#27ae60">긍정 32%</text>
  <text x="400" y="272" text-anchor="middle" font-size="11" fill="#e74c3c">부정 40%</text>
  <text x="740" y="272" text-anchor="end" font-size="11" fill="#7f8c8d">중립 28%</text>
  <text x="60" y="288" font-size="11" fill="#555">💬 "국민의힘이 반전 카드 없으면 이번에도 쓸린다"</text>

  <text x="60" y="340" font-size="13" font-weight="bold" fill="#2c3e50">네이버뉴스 — 긍정 280건 / 부정 220건 / 중립 100건</text>
  <rect x="60" y="350" width="317" height="28" fill="#27ae60" rx="3"/>
  <rect x="377" y="350" width="249" height="28" fill="#e74c3c" rx="3"/>
  <rect x="626" y="350" width="114" height="28" fill="#95a5a6" rx="3"/>
  <text x="60" y="392" text-anchor="start" font-size="11" fill="#27ae60">긍정 47%</text>
  <text x="400" y="392" text-anchor="middle" font-size="11" fill="#e74c3c">부정 37%</text>
  <text x="740" y="392" text-anchor="end" font-size="11" fill="#7f8c8d">중립 16%</text>
  <text x="60" y="408" font-size="11" fill="#555">💬 "3년 연속 선거에서 야당은 어떻게 반전을 만들어낼 수 있을까"</text>

  <text x="400" y="426" text-anchor="middle" font-size="10" fill="#bdc3c7">* 수치는 집계된 공감/반응 신호 기반 추산 | paperWanderer</text>
</svg>