<svg xmlns="http://www.w3.org/2000/svg" width="800" height="440" viewBox="0 0 800 440"
     font-family="'Apple SD Gothic Neo', 'Malgun Gothic', Arial, sans-serif">
  <rect width="800" height="440" fill="#f8f9fa" rx="12"/>
  <text x="400" y="36" text-anchor="middle" font-size="17" font-weight="bold" fill="#2c3e50">오세훈·국민의힘 갈등 — 커뮤니티 반응</text>
  <text x="400" y="54" text-anchor="middle" font-size="11" fill="#7f8c8d">네이버 뉴스 댓글 · FM코리아 · 디시인사이드 | 2026-03-13 KST</text>
  <rect x="490" y="66" width="12" height="12" fill="#27ae60" rx="2"/>
  <text x="506" y="77" font-size="11" fill="#2c3e50">긍정</text>
  <rect x="548" y="66" width="12" height="12" fill="#e74c3c" rx="2"/>
  <text x="564" y="77" font-size="11" fill="#2c3e50">부정</text>
  <rect x="606" y="66" width="12" height="12" fill="#95a5a6" rx="2"/>
  <text x="622" y="77" font-size="11" fill="#2c3e50">중립</text>

  <text x="60" y="100" font-size="13" font-weight="bold" fill="#2c3e50">네이버 뉴스 댓글 — 긍정 260건 / 부정 210건 / 중립 210건</text>
  <rect x="60" y="110" width="260" height="28" fill="#27ae60" rx="3"/>
  <rect x="320" y="110" width="210" height="28" fill="#e74c3c" rx="3"/>
  <rect x="530" y="110" width="210" height="28" fill="#95a5a6" rx="3"/>
  <text x="60" y="152" text-anchor="start" font-size="11" fill="#27ae60">긍정 38%</text>
  <text x="400" y="152" text-anchor="middle" font-size="11" fill="#e74c3c">부정 31%</text>
  <text x="740" y="152" text-anchor="end" font-size="11" fill="#7f8c8d">중립 31%</text>
  <text x="60" y="168" font-size="11" fill="#555">💬 "오세훈이 맞는 말 하는데 지도부가 안 받아주니 답답하다"</text>

  <text x="60" y="220" font-size="13" font-weight="bold" fill="#2c3e50">FM코리아 — 긍정 280건 / 부정 240건 / 중립 160건</text>
  <rect x="60" y="230" width="280" height="28" fill="#27ae60" rx="3"/>
  <rect x="340" y="230" width="240" height="28" fill="#e74c3c" rx="3"/>
  <rect x="580" y="230" width="160" height="28" fill="#95a5a6" rx="3"/>
  <text x="60" y="272" text-anchor="start" font-size="11" fill="#27ae60">긍정 41%</text>
  <text x="400" y="272" text-anchor="middle" font-size="11" fill="#e74c3c">부정 35%</text>
  <text x="740" y="272" text-anchor="end" font-size="11" fill="#7f8c8d">중립 24%</text>
  <text x="60" y="288" font-size="11" fill="#555">💬 "절윤 없이는 지방선거 어렵다. 오세훈 말이 틀리진 않음"</text>

  <text x="60" y="340" font-size="13" font-weight="bold" fill="#2c3e50">디시인사이드 — 긍정 240건 / 부정 260건 / 중립 180건</text>
  <rect x="60" y="350" width="240" height="28" fill="#27ae60" rx="3"/>
  <rect x="300" y="350" width="260" height="28" fill="#e74c3c" rx="3"/>
  <rect x="560" y="350" width="180" height="28" fill="#95a5a6" rx="3"/>
  <text x="60" y="392" text-anchor="start" font-size="11" fill="#27ae60">긍정 35%</text>
  <text x="400" y="392" text-anchor="middle" font-size="11" fill="#e74c3c">부정 38%</text>
  <text x="740" y="392" text-anchor="end" font-size="11" fill="#7f8c8d">중립 27%</text>
  <text x="60" y="408" font-size="11" fill="#555">💬 "국민의힘 자체가 문제인데 오세훈 혼자 뭘 할 수 있겠나"</text>

  <text x="400" y="426" text-anchor="middle" font-size="10" fill="#bdc3c7">* 수치는 집계된 공감/반응 신호 기반 추산 | paperWanderer</text>
</svg>