<svg xmlns="http://www.w3.org/2000/svg" width="800" height="440" viewBox="0 0 800 440"
     font-family="'Apple SD Gothic Neo', 'Malgun Gothic', Arial, sans-serif">
  <rect width="800" height="440" fill="#f8f9fa" rx="12"/>
  <text x="400" y="36" text-anchor="middle" font-size="17" font-weight="bold" fill="#2c3e50">이재명 대통령 지지율 — 커뮤니티 반응</text>
  <text x="400" y="54" text-anchor="middle" font-size="11" fill="#7f8c8d">에펨코리아 · 더쿠 · 네이버뉴스댓글 | 2026-03-20 KST</text>
  <rect x="490" y="66" width="12" height="12" fill="#27ae60" rx="2"/>
  <text x="506" y="77" font-size="11" fill="#2c3e50">긍정</text>
  <rect x="548" y="66" width="12" height="12" fill="#e74c3c" rx="2"/>
  <text x="564" y="77" font-size="11" fill="#2c3e50">부정</text>
  <rect x="606" y="66" width="12" height="12" fill="#95a5a6" rx="2"/>
  <text x="622" y="77" font-size="11" fill="#2c3e50">중립</text>

  <text x="60" y="100" font-size="13" font-weight="bold" fill="#2c3e50">에펨코리아 — 긍정 280건 / 부정 220건 / 중립 100건</text>
  <rect x="60" y="110" width="317" height="28" fill="#27ae60" rx="3"/>
  <rect x="377" y="110" width="249" height="28" fill="#e74c3c" rx="3"/>
  <rect x="626" y="110" width="114" height="28" fill="#95a5a6" rx="3"/>
  <text x="60" y="152" text-anchor="start" font-size="11" fill="#27ae60">긍정 47%</text>
  <text x="400" y="152" text-anchor="middle" font-size="11" fill="#e74c3c">부정 37%</text>
  <text x="740" y="152" text-anchor="end" font-size="11" fill="#7f8c8d">중립 16%</text>
  <text x="60" y="168" font-size="11" fill="#555">💬 "대전 화재 사고 대응 보면서 오히려 국정 리더십이 보임"</text>

  <text x="60" y="220" font-size="13" font-weight="bold" fill="#2c3e50">더쿠 — 긍정 320건 / 부정 80건 / 중립 60건</text>
  <rect x="60" y="230" width="473" height="28" fill="#27ae60" rx="3"/>
  <rect x="533" y="230" width="118" height="28" fill="#e74c3c" rx="3"/>
  <rect x="651" y="230" width="89" height="28" fill="#95a5a6" rx="3"/>
  <text x="60" y="272" text-anchor="start" font-size="11" fill="#27ae60">긍정 70%</text>
  <text x="400" y="272" text-anchor="middle" font-size="11" fill="#e74c3c">부정 17%</text>
  <text x="740" y="272" text-anchor="end" font-size="11" fill="#7f8c8d">중립 13%</text>
  <text x="60" y="288" font-size="11" fill="#555">💬 "그알 사과도 받아냈고 지지율 최고치. 올해 가장 좋은 날인 듯"</text>

  <text x="60" y="340" font-size="13" font-weight="bold" fill="#2c3e50">네이버뉴스댓글 — 긍정 360건 / 부정 280건 / 중립 80건</text>
  <rect x="60" y="350" width="340" height="28" fill="#27ae60" rx="3"/>
  <rect x="400" y="350" width="264" height="28" fill="#e74c3c" rx="3"/>
  <rect x="664" y="350" width="76" height="28" fill="#95a5a6" rx="3"/>
  <text x="60" y="392" text-anchor="start" font-size="11" fill="#27ae60">긍정 50%</text>
  <text x="400" y="392" text-anchor="middle" font-size="11" fill="#e74c3c">부정 39%</text>
  <text x="740" y="392" text-anchor="end" font-size="11" fill="#7f8c8d">중립 11%</text>
  <text x="60" y="408" font-size="11" fill="#555">💬 "경제 위기에도 지지율이 역대 최고라는 건 야당이 신뢰를 잃었단 뜻"</text>

  <text x="400" y="426" text-anchor="middle" font-size="10" fill="#bdc3c7">* 수치는 집계된 공감/반응 신호 기반 추산 | paperWanderer</text>
</svg>