<svg xmlns="http://www.w3.org/2000/svg" width="800" height="440" viewBox="0 0 800 440"
     font-family="'Apple SD Gothic Neo', 'Malgun Gothic', Arial, sans-serif">
  <rect width="800" height="440" fill="#f8f9fa" rx="12"/>
  <text x="400" y="36" text-anchor="middle" font-size="17" font-weight="bold" fill="#2c3e50">1월 경상수지 132억달러 흑자 — 커뮤니티 반응</text>
  <text x="400" y="54" text-anchor="middle" font-size="11" fill="#7f8c8d">네이버 뉴스 · 에펨코리아 · 디시인사이드 | 2026-03-06 KST</text>
  <rect x="490" y="66" width="12" height="12" fill="#27ae60" rx="2"/>
  <text x="506" y="77" font-size="11" fill="#2c3e50">긍정</text>
  <rect x="548" y="66" width="12" height="12" fill="#e74c3c" rx="2"/>
  <text x="564" y="77" font-size="11" fill="#2c3e50">부정</text>
  <rect x="606" y="66" width="12" height="12" fill="#95a5a6" rx="2"/>
  <text x="622" y="77" font-size="11" fill="#2c3e50">중립</text>

  <text x="60" y="100" font-size="13" font-weight="bold" fill="#2c3e50">네이버 뉴스 — 긍정 74건 / 부정 23건 / 중립 41건</text>
  <rect x="60" y="110" width="365" height="28" fill="#27ae60" rx="3"/>
  <rect x="425" y="110" width="114" height="28" fill="#e74c3c" rx="3"/>
  <rect x="539" y="110" width="201" height="28" fill="#95a5a6" rx="3"/>
  <text x="60" y="152" text-anchor="start" font-size="11" fill="#27ae60">긍정 54%</text>
  <text x="400" y="152" text-anchor="middle" font-size="11" fill="#e74c3c">부정 17%</text>
  <text x="740" y="152" text-anchor="end" font-size="11" fill="#7f8c8d">중립 29%</text>
  <text x="60" y="168" font-size="11" fill="#555">💬 "반도체 덕분에 그나마 버티고 있는 거임"</text>

  <text x="60" y="220" font-size="13" font-weight="bold" fill="#2c3e50">에펨코리아 — 긍정 42건 / 부정 18건 / 중립 31건</text>
  <rect x="60" y="230" width="314" height="28" fill="#27ae60" rx="3"/>
  <rect x="374" y="230" width="135" height="28" fill="#e74c3c" rx="3"/>
  <rect x="509" y="230" width="231" height="28" fill="#95a5a6" rx="3"/>
  <text x="60" y="272" text-anchor="start" font-size="11" fill="#27ae60">긍정 46%</text>
  <text x="400" y="272" text-anchor="middle" font-size="11" fill="#e74c3c">부정 20%</text>
  <text x="740" y="272" text-anchor="end" font-size="11" fill="#7f8c8d">중립 34%</text>
  <text x="60" y="288" font-size="11" fill="#555">💬 "중동 리스크 터지면 이 흑자도 다 날아가는 거 아님?"</text>

  <text x="60" y="340" font-size="13" font-weight="bold" fill="#2c3e50">디시인사이드 — 긍정 29건 / 부정 11건 / 중립 22건</text>
  <rect x="60" y="350" width="318" height="28" fill="#27ae60" rx="3"/>
  <rect x="378" y="350" width="120" height="28" fill="#e74c3c" rx="3"/>
  <rect x="498" y="350" width="242" height="28" fill="#95a5a6" rx="3"/>
  <text x="60" y="392" text-anchor="start" font-size="11" fill="#27ae60">긍정 47%</text>
  <text x="400" y="392" text-anchor="middle" font-size="11" fill="#e74c3c">부정 18%</text>
  <text x="740" y="392" text-anchor="end" font-size="11" fill="#7f8c8d">중립 35%</text>
  <text x="60" y="408" font-size="11" fill="#555">💬 "반도체 하나에 목숨 거는 구조가 문제긴 함"</text>

  <text x="400" y="426" text-anchor="middle" font-size="10" fill="#bdc3c7">* 수치는 집계된 공감/반응 신호 기반 추산 | paperWanderer</text>
</svg>