<svg xmlns="http://www.w3.org/2000/svg" width="800" height="440" viewBox="0 0 800 440"
     font-family="'Apple SD Gothic Neo', 'Malgun Gothic', Arial, sans-serif">
  <rect width="800" height="440" fill="#f8f9fa" rx="12"/>
  <text x="400" y="36" text-anchor="middle" font-size="17" font-weight="bold" fill="#2c3e50">아이린 'Biggest Fan' + 아시아 투어 'I-WILL' — 커뮤니티 반응</text>
  <text x="400" y="54" text-anchor="middle" font-size="11" fill="#7f8c8d">theqoo · 에펨코리아 · 해외 / allkpop | 2026-03-27 KST</text>
  <rect x="490" y="66" width="12" height="12" fill="#27ae60" rx="2"/>
  <text x="506" y="77" font-size="11" fill="#2c3e50">긍정</text>
  <rect x="548" y="66" width="12" height="12" fill="#e74c3c" rx="2"/>
  <text x="564" y="77" font-size="11" fill="#2c3e50">부정</text>
  <rect x="606" y="66" width="12" height="12" fill="#95a5a6" rx="2"/>
  <text x="622" y="77" font-size="11" fill="#2c3e50">중립</text>

  <text x="60" y="100" font-size="13" font-weight="bold" fill="#2c3e50">theqoo — 긍정 74% / 부정 7% / 중립 19%</text>
  <rect x="60" y="110" width="503" height="28" fill="#27ae60" rx="3"/>
  <rect x="563" y="110" width="48" height="28" fill="#e74c3c" rx="3"/>
  <rect x="611" y="110" width="129" height="28" fill="#95a5a6" rx="3"/>
  <text x="60" y="152" text-anchor="start" font-size="11" fill="#27ae60">긍정 74%</text>
  <text x="400" y="152" text-anchor="middle" font-size="11" fill="#e74c3c">부정 7%</text>
  <text x="740" y="152" text-anchor="end" font-size="11" fill="#7f8c8d">중립 19%</text>
  <text x="60" y="168" font-size="11" fill="#555">💬 "얼굴이 레전드다" / "썸네일부터 예술" — 반응수 1,432</text>

  <text x="60" y="220" font-size="13" font-weight="bold" fill="#2c3e50">에펨코리아 — 긍정 68% / 부정 9% / 중립 23%</text>
  <rect x="60" y="230" width="462" height="28" fill="#27ae60" rx="3"/>
  <rect x="522" y="230" width="61" height="28" fill="#e74c3c" rx="3"/>
  <rect x="583" y="230" width="157" height="28" fill="#95a5a6" rx="3"/>
  <text x="60" y="272" text-anchor="start" font-size="11" fill="#27ae60">긍정 68%</text>
  <text x="400" y="272" text-anchor="middle" font-size="11" fill="#e74c3c">부정 9%</text>
  <text x="740" y="272" text-anchor="end" font-size="11" fill="#7f8c8d">중립 23%</text>
  <text x="60" y="288" font-size="11" fill="#555">💬 "솔로 존재감 확실하다" / "투어 규모 기대"</text>

  <text x="60" y="340" font-size="13" font-weight="bold" fill="#2c3e50">해외 / allkpop — 긍정 74% / 부정 5% / 중립 21%</text>
  <rect x="60" y="350" width="503" height="28" fill="#27ae60" rx="3"/>
  <rect x="563" y="350" width="34" height="28" fill="#e74c3c" rx="3"/>
  <rect x="597" y="350" width="143" height="28" fill="#95a5a6" rx="3"/>
  <text x="60" y="392" text-anchor="start" font-size="11" fill="#27ae60">긍정 74%</text>
  <text x="400" y="392" text-anchor="middle" font-size="11" fill="#e74c3c">부정 5%</text>
  <text x="740" y="392" text-anchor="end" font-size="11" fill="#7f8c8d">중립 21%</text>
  <text x="60" y="408" font-size="11" fill="#555">💬 "Glamour goddess" / "She's ICONIC" — MV 티저 화제</text>

  <text x="400" y="426" text-anchor="middle" font-size="10" fill="#bdc3c7">* 수치는 집계된 공감/반응 신호 기반 추산 | paperWanderer</text>
</svg>