<svg xmlns="http://www.w3.org/2000/svg" width="800" height="440" viewBox="0 0 800 440"
     font-family="'Apple SD Gothic Neo', 'Malgun Gothic', Arial, sans-serif">
  <rect width="800" height="440" fill="#f8f9fa" rx="12"/>
  <text x="400" y="36" text-anchor="middle" font-size="17" font-weight="bold" fill="#2c3e50">AI 음악 저작권 논란 — 커뮤니티 반응</text>
  <text x="400" y="54" text-anchor="middle" font-size="11" fill="#7f8c8d">루리웹 | 2026-03-25 19:30 KST</text>
  <rect x="490" y="66" width="12" height="12" fill="#27ae60" rx="2"/>
  <text x="506" y="77" font-size="11" fill="#2c3e50">긍정</text>
  <rect x="548" y="66" width="12" height="12" fill="#e74c3c" rx="2"/>
  <text x="564" y="77" font-size="11" fill="#2c3e50">부정</text>
  <rect x="606" y="66" width="12" height="12" fill="#95a5a6" rx="2"/>
  <text x="622" y="77" font-size="11" fill="#2c3e50">중립</text>

  <text x="60" y="100" font-size="13" font-weight="bold" fill="#2c3e50">루리웹 — 긍정 87건 / 부정 12건 / 중립 21건</text>
  <rect x="60" y="110" width="493" height="28" fill="#27ae60" rx="3"/>
  <rect x="553" y="110" width="68" height="28" fill="#e74c3c" rx="3"/>
  <rect x="621" y="110" width="119" height="28" fill="#95a5a6" rx="3"/>
  <text x="60" y="152" text-anchor="start" font-size="11" fill="#27ae60">긍정 72%</text>
  <text x="400" y="152" text-anchor="middle" font-size="11" fill="#e74c3c">부정 10%</text>
  <text x="740" y="152" text-anchor="end" font-size="11" fill="#7f8c8d">중립 18%</text>
  <text x="60" y="168" font-size="11" fill="#555">💬 "AI로 만들어서 저작권이라니... 이건 조치를 해야겠네"</text>

  <text x="60" y="220" font-size="13" font-weight="bold" fill="#2c3e50">YTN 댓글 — 부정 여론 우세 / 규제 강화 요구</text>
  <rect x="60" y="230" width="425" height="28" fill="#27ae60" rx="3"/>
  <rect x="485" y="230" width="136" height="28" fill="#e74c3c" rx="3"/>
  <rect x="621" y="230" width="119" height="28" fill="#95a5a6" rx="3"/>
  <text x="60" y="272" text-anchor="start" font-size="11" fill="#27ae60">긍정 62%</text>
  <text x="400" y="272" text-anchor="middle" font-size="11" fill="#e74c3c">부정 20%</text>
  <text x="740" y="272" text-anchor="end" font-size="11" fill="#7f8c8d">중립 18%</text>
  <text x="60" y="288" font-size="11" fill="#555">💬 "음악을 AI로 돌려서 만들면 양심이 없는 것"</text>

  <text x="60" y="340" font-size="13" font-weight="bold" fill="#2c3e50">음악 커뮤니티 — 창작자 중심 여론</text>
  <rect x="60" y="350" width="476" height="28" fill="#27ae60" rx="3"/>
  <rect x="536" y="350" width="68" height="28" fill="#e74c3c" rx="3"/>
  <rect x="604" y="350" width="136" height="28" fill="#95a5a6" rx="3"/>
  <text x="60" y="392" text-anchor="start" font-size="11" fill="#27ae60">긍정 70%</text>
  <text x="400" y="392" text-anchor="middle" font-size="11" fill="#e74c3c">부정 10%</text>
  <text x="740" y="392" text-anchor="end" font-size="11" fill="#7f8c8d">중립 20%</text>
  <text x="60" y="408" font-size="11" fill="#555">💬 "진짜 창작자 보호 위해 법 개정 서둘러야"</text>

  <text x="400" y="426" text-anchor="middle" font-size="10" fill="#bdc3c7">* 수치는 집계된 공감/반응 신호 기반 추산 | paperWanderer</text>
</svg>