<svg xmlns="http://www.w3.org/2000/svg" width="800" height="440" viewBox="0 0 800 440"
     font-family="'Apple SD Gothic Neo', 'Malgun Gothic', Arial, sans-serif">
  <rect width="800" height="440" fill="#f8f9fa" rx="12"/>
  <text x="400" y="36" text-anchor="middle" font-size="17" font-weight="bold" fill="#2c3e50">원달러 환율 1,450원 돌파 — 커뮤니티 반응</text>
  <text x="400" y="54" text-anchor="middle" font-size="11" fill="#7f8c8d">네이버 뉴스 · 에펨코리아 · 클리앙 | 2026-03-07 21:00 KST</text>
  <rect x="490" y="66" width="12" height="12" fill="#27ae60" rx="2"/>
  <text x="506" y="77" font-size="11" fill="#2c3e50">긍정</text>
  <rect x="548" y="66" width="12" height="12" fill="#e74c3c" rx="2"/>
  <text x="564" y="77" font-size="11" fill="#2c3e50">부정</text>
  <rect x="606" y="66" width="12" height="12" fill="#95a5a6" rx="2"/>
  <text x="622" y="77" font-size="11" fill="#2c3e50">중립</text>

  <text x="60" y="100" font-size="13" font-weight="bold" fill="#2c3e50">네이버 뉴스 댓글 — 긍정 60건 / 부정 400건 / 중립 220건</text>
  <rect x="60" y="110" width="60" height="28" fill="#27ae60" rx="3"/>
  <rect x="120" y="110" width="400" height="28" fill="#e74c3c" rx="3"/>
  <rect x="520" y="110" width="220" height="28" fill="#95a5a6" rx="3"/>
  <text x="60" y="152" text-anchor="start" font-size="11" fill="#27ae60">긍정 9%</text>
  <text x="400" y="152" text-anchor="middle" font-size="11" fill="#e74c3c">부정 59%</text>
  <text x="740" y="152" text-anchor="end" font-size="11" fill="#7f8c8d">중립 32%</text>
  <text x="60" y="168" font-size="11" fill="#555">💬 "환율이 이렇게 오르면 기름값이 더 오르는 거잖아. 서민 죽겠다"</text>

  <text x="60" y="220" font-size="13" font-weight="bold" fill="#2c3e50">에펨코리아 — 긍정 30건 / 부정 220건 / 중립 170건</text>
  <rect x="60" y="230" width="49" height="28" fill="#27ae60" rx="3"/>
  <rect x="109" y="230" width="356" height="28" fill="#e74c3c" rx="3"/>
  <rect x="465" y="230" width="275" height="28" fill="#95a5a6" rx="3"/>
  <text x="60" y="272" text-anchor="start" font-size="11" fill="#27ae60">긍정 7%</text>
  <text x="400" y="272" text-anchor="middle" font-size="11" fill="#e74c3c">부정 52%</text>
  <text x="740" y="272" text-anchor="end" font-size="11" fill="#7f8c8d">중립 41%</text>
  <text x="60" y="288" font-size="11" fill="#555">💬 "1,500원 가는 거 아니냐고 진짜 무섭다"</text>

  <text x="60" y="340" font-size="13" font-weight="bold" fill="#2c3e50">클리앙 — 긍정 40건 / 부정 180건 / 중립 180건</text>
  <rect x="60" y="350" width="68" height="28" fill="#27ae60" rx="3"/>
  <rect x="128" y="350" width="306" height="28" fill="#e74c3c" rx="3"/>
  <rect x="434" y="350" width="306" height="28" fill="#95a5a6" rx="3"/>
  <text x="60" y="392" text-anchor="start" font-size="11" fill="#27ae60">긍정 10%</text>
  <text x="400" y="392" text-anchor="middle" font-size="11" fill="#e74c3c">부정 45%</text>
  <text x="740" y="392" text-anchor="end" font-size="11" fill="#7f8c8d">중립 45%</text>
  <text x="60" y="408" font-size="11" fill="#555">💬 "달러 안 사놓은 게 후회된다"</text>

  <text x="400" y="426" text-anchor="middle" font-size="10" fill="#bdc3c7">* 수치는 집계된 공감/반응 신호 기반 추산 | paperWanderer</text>
</svg>