<svg xmlns="http://www.w3.org/2000/svg" width="800" height="440" viewBox="0 0 800 440"
     font-family="'Apple SD Gothic Neo', 'Malgun Gothic', Arial, sans-serif">
  <rect width="800" height="440" fill="#f8f9fa" rx="12"/>
  <text x="400" y="36" text-anchor="middle" font-size="17" font-weight="bold" fill="#2c3e50">원달러 1500원 위기 — 커뮤니티 반응</text>
  <text x="400" y="54" text-anchor="middle" font-size="11" fill="#7f8c8d">에펨코리아 · 네이버뉴스 · 합산 | 2026-03-26 22:00 KST</text>
  <rect x="490" y="66" width="12" height="12" fill="#27ae60" rx="2"/>
  <text x="506" y="77" font-size="11" fill="#2c3e50">긍정</text>
  <rect x="548" y="66" width="12" height="12" fill="#e74c3c" rx="2"/>
  <text x="564" y="77" font-size="11" fill="#2c3e50">부정</text>
  <rect x="606" y="66" width="12" height="12" fill="#95a5a6" rx="2"/>
  <text x="622" y="77" font-size="11" fill="#2c3e50">중립</text>

  <text x="60" y="100" font-size="13" font-weight="bold" fill="#2c3e50">에펨코리아 — 긍정 60건 / 부정 250건 / 중립 90건</text>
  <rect x="60" y="110" width="102" height="28" fill="#27ae60" rx="3"/>
  <rect x="162" y="110" width="425" height="28" fill="#e74c3c" rx="3"/>
  <rect x="587" y="110" width="153" height="28" fill="#95a5a6" rx="3"/>
  <text x="60" y="152" text-anchor="start" font-size="11" fill="#27ae60">긍정 15%</text>
  <text x="400" y="152" text-anchor="middle" font-size="11" fill="#e74c3c">부정 62%</text>
  <text x="740" y="152" text-anchor="end" font-size="11" fill="#7f8c8d">중립 23%</text>
  <text x="60" y="168" font-size="11" fill="#555">💬 "도대체 언제까지 이 환율이 이어지냐, 먹고살기 힘들다"</text>

  <text x="60" y="220" font-size="13" font-weight="bold" fill="#2c3e50">네이버뉴스 — 긍정 60건 / 부정 230건 / 중립 110건</text>
  <rect x="60" y="230" width="102" height="28" fill="#27ae60" rx="3"/>
  <rect x="162" y="230" width="391" height="28" fill="#e74c3c" rx="3"/>
  <rect x="553" y="230" width="187" height="28" fill="#95a5a6" rx="3"/>
  <text x="60" y="272" text-anchor="start" font-size="11" fill="#27ae60">긍정 15%</text>
  <text x="400" y="272" text-anchor="middle" font-size="11" fill="#e74c3c">부정 57%</text>
  <text x="740" y="272" text-anchor="end" font-size="11" fill="#7f8c8d">중립 28%</text>
  <text x="60" y="288" font-size="11" fill="#555">💬 "정부가 진짜 실효성 있는 환율 대책을 내놓아야 한다"</text>

  <text x="60" y="340" font-size="13" font-weight="bold" fill="#2c3e50">전체 합산 — 긍정 120건 / 부정 480건 / 중립 200건</text>
  <rect x="60" y="350" width="102" height="28" fill="#27ae60" rx="3"/>
  <rect x="162" y="350" width="408" height="28" fill="#e74c3c" rx="3"/>
  <rect x="570" y="350" width="170" height="28" fill="#95a5a6" rx="3"/>
  <text x="60" y="392" text-anchor="start" font-size="11" fill="#27ae60">긍정 15%</text>
  <text x="400" y="392" text-anchor="middle" font-size="11" fill="#e74c3c">부정 60%</text>
  <text x="740" y="392" text-anchor="end" font-size="11" fill="#7f8c8d">중립 25%</text>
  <text x="60" y="408" font-size="11" fill="#555">💬 "원두 가격이 두 배 넘게 오른 게 피부로 느껴진다"</text>

  <text x="400" y="426" text-anchor="middle" font-size="10" fill="#bdc3c7">* 수치는 집계된 공감/반응 신호 기반 추산 | paperWanderer</text>
</svg>