<svg xmlns="http://www.w3.org/2000/svg" width="800" height="440" viewBox="0 0 800 440"
     font-family="'Apple SD Gothic Neo', 'Malgun Gothic', Arial, sans-serif">
  <rect width="800" height="440" fill="#f8f9fa" rx="12"/>
  <text x="400" y="36" text-anchor="middle" font-size="17" font-weight="bold" fill="#2c3e50">왕과 사는 남자 1500만 — 커뮤니티 반응</text>
  <text x="400" y="54" text-anchor="middle" font-size="11" fill="#7f8c8d">루리웹 · 더쿠 · 네이트뉴스 | 2026-03-25 21:00 KST</text>
  <rect x="490" y="66" width="12" height="12" fill="#27ae60" rx="2"/>
  <text x="506" y="77" font-size="11" fill="#2c3e50">긍정</text>
  <rect x="548" y="66" width="12" height="12" fill="#e74c3c" rx="2"/>
  <text x="564" y="77" font-size="11" fill="#2c3e50">부정</text>
  <rect x="606" y="66" width="12" height="12" fill="#95a5a6" rx="2"/>
  <text x="622" y="77" font-size="11" fill="#2c3e50">중립</text>

  <text x="60" y="100" font-size="13" font-weight="bold" fill="#2c3e50">루리웹 — 긍정 10건 / 부정 4건 / 중립 2건</text>
  <rect x="60" y="110" width="425" height="28" fill="#27ae60" rx="3"/>
  <rect x="485" y="110" width="170" height="28" fill="#e74c3c" rx="3"/>
  <rect x="655" y="110" width="85" height="28" fill="#95a5a6" rx="3"/>
  <text x="60" y="152" text-anchor="start" font-size="11" fill="#27ae60">긍정 62%</text>
  <text x="400" y="152" text-anchor="middle" font-size="11" fill="#e74c3c">부정 25%</text>
  <text x="740" y="152" text-anchor="end" font-size="11" fill="#7f8c8d">중립 13%</text>
  <text x="60" y="168" font-size="11" fill="#555">💬 "No competitors now! 2위까지 갈 것 같다"</text>

  <text x="60" y="220" font-size="13" font-weight="bold" fill="#2c3e50">더쿠 — 긍정 46,503건 / 부정 0건 / 중립 191건</text>
  <rect x="60" y="230" width="674" height="28" fill="#27ae60" rx="3"/>
  <rect x="734" y="230" width="6" height="28" fill="#95a5a6" rx="3"/>
  <text x="60" y="272" text-anchor="start" font-size="11" fill="#27ae60">긍정 99%</text>
  <text x="740" y="272" text-anchor="end" font-size="11" fill="#7f8c8d">중립 1%</text>
  <text x="60" y="288" font-size="11" fill="#555">💬 "감독이 단종을 존중해서 만든 게 느껴진다. 묘한 여운이 남는다"</text>

  <text x="60" y="340" font-size="13" font-weight="bold" fill="#2c3e50">네이트뉴스 — 긍정 85% / 부정 5% / 중립 10% 추산</text>
  <rect x="60" y="350" width="578" height="28" fill="#27ae60" rx="3"/>
  <rect x="638" y="350" width="34" height="28" fill="#e74c3c" rx="3"/>
  <rect x="672" y="350" width="68" height="28" fill="#95a5a6" rx="3"/>
  <text x="60" y="392" text-anchor="start" font-size="11" fill="#27ae60">긍정 85%</text>
  <text x="400" y="392" text-anchor="middle" font-size="11" fill="#e74c3c">부정 5%</text>
  <text x="740" y="392" text-anchor="end" font-size="11" fill="#7f8c8d">중립 10%</text>
  <text x="60" y="408" font-size="11" fill="#555">💬 "역사가 스포인데도 이렇게 흥행할 줄 몰랐다. 사극이 이렇게 재밌다니"</text>

  <text x="400" y="426" text-anchor="middle" font-size="10" fill="#bdc3c7">* 수치는 집계된 공감/반응 신호 기반 추산 | paperWanderer</text>
</svg>