<svg xmlns="http://www.w3.org/2000/svg" width="800" height="440" viewBox="0 0 800 440"
     font-family="'Apple SD Gothic Neo', 'Malgun Gothic', Arial, sans-serif">
  <rect width="800" height="440" fill="#f8f9fa" rx="12"/>
  <text x="400" y="36" text-anchor="middle" font-size="17" font-weight="bold" fill="#2c3e50">2026 WBC 한국 17년 만에 8강 진출 — 커뮤니티 반응</text>
  <text x="400" y="54" text-anchor="middle" font-size="11" fill="#7f8c8d">에펨코리아 · 네이버 스포츠 · X(Twitter) | 2026-03-11 16:00 KST</text>
  <rect x="490" y="66" width="12" height="12" fill="#27ae60" rx="2"/>
  <text x="506" y="77" font-size="11" fill="#2c3e50">긍정</text>
  <rect x="548" y="66" width="12" height="12" fill="#e74c3c" rx="2"/>
  <text x="564" y="77" font-size="11" fill="#2c3e50">부정</text>
  <rect x="606" y="66" width="12" height="12" fill="#95a5a6" rx="2"/>
  <text x="622" y="77" font-size="11" fill="#2c3e50">중립</text>

  <text x="60" y="100" font-size="13" font-weight="bold" fill="#2c3e50">에펨코리아 — 긍정 1,250건 / 부정 85건 / 중립 165건</text>
  <rect x="60" y="110" width="567" height="28" fill="#27ae60" rx="3"/>
  <rect x="627" y="110" width="39" height="28" fill="#e74c3c" rx="3"/>
  <rect x="666" y="110" width="74" height="28" fill="#95a5a6" rx="3"/>
  <text x="60" y="152" text-anchor="start" font-size="11" fill="#27ae60">긍정 83%</text>
  <text x="400" y="152" text-anchor="middle" font-size="11" fill="#e74c3c">부정 6%</text>
  <text x="740" y="152" text-anchor="end" font-size="11" fill="#7f8c8d">중립 11%</text>
  <text x="60" y="168" font-size="11" fill="#555">💬 "문보경 진짜 미쳤다 ㄷㄷ 대회 총 11타점 혼자서 다 먹음"</text>

  <text x="60" y="220" font-size="13" font-weight="bold" fill="#2c3e50">네이버 스포츠 — 긍정 2,340건 / 부정 120건 / 중립 340건</text>
  <rect x="60" y="230" width="568" height="28" fill="#27ae60" rx="3"/>
  <rect x="628" y="230" width="29" height="28" fill="#e74c3c" rx="3"/>
  <rect x="657" y="230" width="83" height="28" fill="#95a5a6" rx="3"/>
  <text x="60" y="272" text-anchor="start" font-size="11" fill="#27ae60">긍정 84%</text>
  <text x="400" y="272" text-anchor="middle" font-size="11" fill="#e74c3c">부정 4%</text>
  <text x="740" y="272" text-anchor="end" font-size="11" fill="#7f8c8d">중립 12%</text>
  <text x="60" y="288" font-size="11" fill="#555">💬 "17년 만이다 ㅠㅠ 도쿄에서 마이애미로 기적같다"</text>

  <text x="60" y="340" font-size="13" font-weight="bold" fill="#2c3e50">X(Twitter) — 긍정 890건 / 부정 40건 / 중립 170건</text>
  <rect x="60" y="350" width="550" height="28" fill="#27ae60" rx="3"/>
  <rect x="610" y="350" width="25" height="28" fill="#e74c3c" rx="3"/>
  <rect x="635" y="350" width="105" height="28" fill="#95a5a6" rx="3"/>
  <text x="60" y="392" text-anchor="start" font-size="11" fill="#27ae60">긍정 81%</text>
  <text x="400" y="392" text-anchor="middle" font-size="11" fill="#e74c3c">부정 4%</text>
  <text x="740" y="392" text-anchor="end" font-size="11" fill="#7f8c8d">중립 15%</text>
  <text x="60" y="408" font-size="11" fill="#555">💬 "전세기 세리머니 너무 멋있다. 마이애미 가자!"</text>

  <text x="400" y="426" text-anchor="middle" font-size="10" fill="#bdc3c7">* 수치는 집계된 공감/반응 신호 기반 추산 | paperWanderer</text>
</svg>