<svg xmlns="http://www.w3.org/2000/svg" width="800" height="440" viewBox="0 0 800 440"
     font-family="'Apple SD Gothic Neo', 'Malgun Gothic', Arial, sans-serif">
  <rect width="800" height="440" fill="#f8f9fa" rx="12"/>
  <text x="400" y="36" text-anchor="middle" font-size="17" font-weight="bold" fill="#2c3e50">2026 지방선거 공천 — 커뮤니티 반응</text>
  <text x="400" y="54" text-anchor="middle" font-size="11" fill="#7f8c8d">에펨코리아 · 디시인사이드 · 네이버뉴스댓글 | 2026-03-22 KST</text>
  <rect x="490" y="66" width="12" height="12" fill="#27ae60" rx="2"/>
  <text x="506" y="77" font-size="11" fill="#2c3e50">긍정</text>
  <rect x="548" y="66" width="12" height="12" fill="#e74c3c" rx="2"/>
  <text x="564" y="77" font-size="11" fill="#2c3e50">부정</text>
  <rect x="606" y="66" width="12" height="12" fill="#95a5a6" rx="2"/>
  <text x="622" y="77" font-size="11" fill="#2c3e50">중립</text>

  <text x="60" y="100" font-size="13" font-weight="bold" fill="#2c3e50">에펨코리아 — 긍정 20건 / 부정 50건 / 중립 30건</text>
  <rect x="60" y="110" width="136" height="28" fill="#27ae60" rx="3"/>
  <rect x="196" y="110" width="340" height="28" fill="#e74c3c" rx="3"/>
  <rect x="536" y="110" width="204" height="28" fill="#95a5a6" rx="3"/>
  <text x="60" y="152" text-anchor="start" font-size="11" fill="#27ae60">긍정 20%</text>
  <text x="400" y="152" text-anchor="middle" font-size="11" fill="#e74c3c">부정 50%</text>
  <text x="740" y="152" text-anchor="end" font-size="11" fill="#7f8c8d">중립 30%</text>
  <text x="60" y="168" font-size="11" fill="#555">💬 "국민의힘 공천 탈락자들 무소속 출마하면 분열 불가피할 것"</text>

  <text x="60" y="220" font-size="13" font-weight="bold" fill="#2c3e50">디시인사이드 — 긍정 15건 / 부정 55건 / 중립 30건</text>
  <rect x="60" y="230" width="102" height="28" fill="#27ae60" rx="3"/>
  <rect x="162" y="230" width="374" height="28" fill="#e74c3c" rx="3"/>
  <rect x="536" y="230" width="204" height="28" fill="#95a5a6" rx="3"/>
  <text x="60" y="272" text-anchor="start" font-size="11" fill="#27ae60">긍정 15%</text>
  <text x="400" y="272" text-anchor="middle" font-size="11" fill="#e74c3c">부정 55%</text>
  <text x="740" y="272" text-anchor="end" font-size="11" fill="#7f8c8d">중립 30%</text>
  <text x="60" y="288" font-size="11" fill="#555">💬 "민주당은 이재명 지지율로 편하게 가고 국민의힘은 계속 내홍"</text>

  <text x="60" y="340" font-size="13" font-weight="bold" fill="#2c3e50">네이버뉴스댓글 — 긍정 25건 / 부정 45건 / 중립 30건</text>
  <rect x="60" y="350" width="170" height="28" fill="#27ae60" rx="3"/>
  <rect x="230" y="350" width="306" height="28" fill="#e74c3c" rx="3"/>
  <rect x="536" y="350" width="204" height="28" fill="#95a5a6" rx="3"/>
  <text x="60" y="392" text-anchor="start" font-size="11" fill="#27ae60">긍정 25%</text>
  <text x="400" y="392" text-anchor="middle" font-size="11" fill="#e74c3c">부정 45%</text>
  <text x="740" y="392" text-anchor="end" font-size="11" fill="#7f8c8d">중립 30%</text>
  <text x="60" y="408" font-size="11" fill="#555">💬 "공천 논란은 매번 반복되는데 국민들만 피로감"</text>

  <text x="400" y="426" text-anchor="middle" font-size="10" fill="#bdc3c7">* 수치는 집계된 공감/반응 신호 기반 추산 | paperWanderer</text>
</svg>