<svg xmlns="http://www.w3.org/2000/svg" width="800" height="440" viewBox="0 0 800 440"
     font-family="'Apple SD Gothic Neo', 'Malgun Gothic', Arial, sans-serif">
  <rect width="800" height="440" fill="#f8f9fa" rx="12"/>
  <text x="400" y="36" text-anchor="middle" font-size="17" font-weight="bold" fill="#2c3e50">SK하이닉스 ADR 상장 검토 — 커뮤니티 반응</text>
  <text x="400" y="54" text-anchor="middle" font-size="11" fill="#7f8c8d">에펨코리아 · 클리앙 · 주식갤러리 | 2026-03-17 KST</text>
  <rect x="490" y="66" width="12" height="12" fill="#27ae60" rx="2"/>
  <text x="506" y="77" font-size="11" fill="#2c3e50">긍정</text>
  <rect x="548" y="66" width="12" height="12" fill="#e74c3c" rx="2"/>
  <text x="564" y="77" font-size="11" fill="#2c3e50">부정</text>
  <rect x="606" y="66" width="12" height="12" fill="#95a5a6" rx="2"/>
  <text x="622" y="77" font-size="11" fill="#2c3e50">중립</text>

  <text x="60" y="100" font-size="13" font-weight="bold" fill="#2c3e50">에펨코리아 — 긍정 140건 / 부정 40건 / 중립 100건</text>
  <rect x="60" y="110" width="340" height="28" fill="#27ae60" rx="3"/>
  <rect x="400" y="110" width="97" height="28" fill="#e74c3c" rx="3"/>
  <rect x="497" y="110" width="243" height="28" fill="#95a5a6" rx="3"/>
  <text x="60" y="152" text-anchor="start" font-size="11" fill="#27ae60">긍정 50%</text>
  <text x="400" y="152" text-anchor="middle" font-size="11" fill="#e74c3c">부정 14%</text>
  <text x="740" y="152" text-anchor="end" font-size="11" fill="#7f8c8d">중립 36%</text>
  <text x="60" y="168" font-size="11" fill="#555">💬 "SK하이닉스 ADR 상장되면 미국 직구 투자 가능해진다"</text>

  <text x="60" y="220" font-size="13" font-weight="bold" fill="#2c3e50">클리앙 — 긍정 120건 / 부정 35건 / 중립 80건</text>
  <rect x="60" y="230" width="347" height="28" fill="#27ae60" rx="3"/>
  <rect x="407" y="230" width="101" height="28" fill="#e74c3c" rx="3"/>
  <rect x="508" y="230" width="232" height="28" fill="#95a5a6" rx="3"/>
  <text x="60" y="272" text-anchor="start" font-size="11" fill="#27ae60">긍정 51%</text>
  <text x="400" y="272" text-anchor="middle" font-size="11" fill="#e74c3c">부정 15%</text>
  <text x="740" y="272" text-anchor="end" font-size="11" fill="#7f8c8d">중립 34%</text>
  <text x="60" y="288" font-size="11" fill="#555">💬 "젠슨 황이랑 HBM4 다 맞췄다니 삼성 긴장해야 한다"</text>

  <text x="60" y="340" font-size="13" font-weight="bold" fill="#2c3e50">주식갤러리 — 긍정 80건 / 부정 25건 / 중립 73건</text>
  <rect x="60" y="350" width="305" height="28" fill="#27ae60" rx="3"/>
  <rect x="365" y="350" width="95" height="28" fill="#e74c3c" rx="3"/>
  <rect x="460" y="350" width="280" height="28" fill="#95a5a6" rx="3"/>
  <text x="60" y="392" text-anchor="start" font-size="11" fill="#27ae60">긍정 45%</text>
  <text x="400" y="392" text-anchor="middle" font-size="11" fill="#e74c3c">부정 14%</text>
  <text x="740" y="392" text-anchor="end" font-size="11" fill="#7f8c8d">중립 41%</text>
  <text x="60" y="408" font-size="11" fill="#555">💬 "ADR이 뭔지 아는 사람만 이해하는 뉴스"</text>

  <text x="400" y="426" text-anchor="middle" font-size="10" fill="#bdc3c7">* 수치는 집계된 공감/반응 신호 기반 추산 | paperWanderer</text>
</svg>