<svg xmlns="http://www.w3.org/2000/svg" width="800" height="440" viewBox="0 0 800 440"
     font-family="'Apple SD Gothic Neo', 'Malgun Gothic', Arial, sans-serif">
  <rect width="800" height="440" fill="#f8f9fa" rx="12"/>
  <text x="400" y="36" text-anchor="middle" font-size="17" font-weight="bold" fill="#2c3e50">KF-21 보라매 양산 1호기 출고 — 커뮤니티 반응</text>
  <text x="400" y="54" text-anchor="middle" font-size="11" fill="#7f8c8d">에펨코리아 · 네이버뉴스 · 루리웹 | 2026-03-26 17:00 KST</text>
  <rect x="490" y="66" width="12" height="12" fill="#27ae60" rx="2"/>
  <text x="506" y="77" font-size="11" fill="#2c3e50">긍정</text>
  <rect x="548" y="66" width="12" height="12" fill="#e74c3c" rx="2"/>
  <text x="564" y="77" font-size="11" fill="#2c3e50">부정</text>
  <rect x="606" y="66" width="12" height="12" fill="#95a5a6" rx="2"/>
  <text x="622" y="77" font-size="11" fill="#2c3e50">중립</text>

  <text x="60" y="100" font-size="13" font-weight="bold" fill="#2c3e50">에펨코리아 — 긍정 380건 / 부정 20건 / 중립 500건</text>
  <rect x="60" y="110" width="287" height="28" fill="#27ae60" rx="3"/>
  <rect x="347" y="110" width="15" height="28" fill="#e74c3c" rx="3"/>
  <rect x="362" y="110" width="378" height="28" fill="#95a5a6" rx="3"/>
  <text x="60" y="152" text-anchor="start" font-size="11" fill="#27ae60">긍정 42%</text>
  <text x="400" y="152" text-anchor="middle" font-size="11" fill="#e74c3c">부정 2%</text>
  <text x="740" y="152" text-anchor="end" font-size="11" fill="#7f8c8d">중립 56%</text>
  <text x="60" y="168" font-size="11" fill="#555">💬 "비행 시험 1,601번… 얼마나 공들인 거야, 진짜 뭉클"</text>

  <text x="60" y="220" font-size="13" font-weight="bold" fill="#2c3e50">네이버뉴스 댓글 — 긍정 500건 / 부정 15건 / 중립 200건</text>
  <rect x="60" y="230" width="476" height="28" fill="#27ae60" rx="3"/>
  <rect x="536" y="230" width="14" height="28" fill="#e74c3c" rx="3"/>
  <rect x="550" y="230" width="190" height="28" fill="#95a5a6" rx="3"/>
  <text x="60" y="272" text-anchor="start" font-size="11" fill="#27ae60">긍정 70%</text>
  <text x="400" y="272" text-anchor="middle" font-size="11" fill="#e74c3c">부정 2%</text>
  <text x="740" y="272" text-anchor="end" font-size="11" fill="#7f8c8d">중립 28%</text>
  <text x="60" y="288" font-size="11" fill="#555">💬 "25년 기다렸다… 이제 하늘도 우리 것"</text>

  <text x="60" y="340" font-size="13" font-weight="bold" fill="#2c3e50">루리웹 — 긍정 300건 / 부정 10건 / 중립 200건</text>
  <rect x="60" y="350" width="400" height="28" fill="#27ae60" rx="3"/>
  <rect x="460" y="350" width="13" height="28" fill="#e74c3c" rx="3"/>
  <rect x="473" y="350" width="267" height="28" fill="#95a5a6" rx="3"/>
  <text x="60" y="392" text-anchor="start" font-size="11" fill="#27ae60">긍정 59%</text>
  <text x="400" y="392" text-anchor="middle" font-size="11" fill="#e74c3c">부정 2%</text>
  <text x="740" y="392" text-anchor="end" font-size="11" fill="#7f8c8d">중립 39%</text>
  <text x="60" y="408" font-size="11" fill="#555">💬 "인도네시아 계약만 확정되면 수출 시대 열리는 거다"</text>

  <text x="400" y="426" text-anchor="middle" font-size="10" fill="#bdc3c7">* 수치는 집계된 공감/반응 신호 기반 추산 | paperWanderer</text>
</svg>