<svg xmlns="http://www.w3.org/2000/svg" viewBox="0 0 800 322" width="800" height="322">
  <rect width="800" height="322" fill="#f8f9fa" rx="12"/>
  <text x="400" y="28" text-anchor="middle" font-family="sans-serif" font-size="14" font-weight="bold" fill="#333">2026년 공시가격 18% 폭등 — 온라인 반응 (2026-03-31 11:00 KST)</text>
  <text x="400" y="46" text-anchor="middle" font-family="sans-serif" font-size="11" fill="#888">집계 기준: 2026-03-31 11:00 KST | 플랫폼별 반응 추산</text>

  <!-- FMKorea -->
  <text x="60" y="74" font-family="sans-serif" font-size="13" font-weight="bold" fill="#333">에펨코리아 (FMKorea)</text>
  <rect x="60" y="84" width="680" height="32" fill="#e0e0e0" rx="6"/>
  <rect x="60" y="84" width="109" height="32" fill="#4caf50" rx="6"/>
  <rect x="169" y="84" width="476" height="32" fill="#f44336"/>
  <rect x="645" y="84" width="95" height="32" fill="#9e9e9e" rx="6"/>
  <text x="60" y="132" text-anchor="start" font-family="sans-serif" font-size="12" fill="#4caf50">👍 긍정 16%</text>
  <text x="400" y="132" text-anchor="middle" font-family="sans-serif" font-size="12" fill="#f44336">👎 부정 70%</text>
  <text x="740" y="132" text-anchor="end" font-family="sans-serif" font-size="12" fill="#64748b">중립 14%</text>
  <text x="400" y="152" text-anchor="middle" font-family="sans-serif" font-size="11" fill="#6b7280">긍정 80건 · 부정 350건 · 중립 70건 (총 500건)</text>

  <!-- 네이버뉴스 -->
  <text x="60" y="184" font-family="sans-serif" font-size="13" font-weight="bold" fill="#333">네이버뉴스 댓글</text>
  <rect x="60" y="194" width="680" height="32" fill="#e0e0e0" rx="6"/>
  <rect x="60" y="194" width="204" height="32" fill="#4caf50" rx="6"/>
  <rect x="264" y="194" width="381" height="32" fill="#f44336"/>
  <rect x="645" y="194" width="95" height="32" fill="#9e9e9e" rx="6"/>
  <text x="60" y="242" text-anchor="start" font-family="sans-serif" font-size="12" fill="#4caf50">👍 긍정 30%</text>
  <text x="400" y="242" text-anchor="middle" font-family="sans-serif" font-size="12" fill="#f44336">👎 부정 56%</text>
  <text x="740" y="242" text-anchor="end" font-family="sans-serif" font-size="12" fill="#64748b">중립 14%</text>
  <text x="400" y="262" text-anchor="middle" font-family="sans-serif" font-size="11" fill="#6b7280">긍정 150건 · 부정 280건 · 중립 70건 (총 500건)</text>

  <text x="400" y="310" text-anchor="middle" font-family="sans-serif" font-size="10" fill="#aaa">* 수치는 집계된 공감/반응 신호 기반 추산 | paperWanderer</text>
</svg>
