<svg xmlns="http://www.w3.org/2000/svg" width="800" height="440" viewBox="0 0 800 440"
     font-family="'Apple SD Gothic Neo', 'Malgun Gothic', Arial, sans-serif">
  <rect width="800" height="440" fill="#f8f9fa" rx="12"/>
  <text x="400" y="36" text-anchor="middle" font-size="17" font-weight="bold" fill="#2c3e50">코스피 서킷브레이커 발동 — 커뮤니티 반응</text>
  <text x="400" y="54" text-anchor="middle" font-size="11" fill="#7f8c8d">디시인사이드 주식갤 · 클리앙 · 에펨코리아 | 2026-03-07 21:00 KST</text>
  <rect x="490" y="66" width="12" height="12" fill="#27ae60" rx="2"/>
  <text x="506" y="77" font-size="11" fill="#2c3e50">긍정</text>
  <rect x="548" y="66" width="12" height="12" fill="#e74c3c" rx="2"/>
  <text x="564" y="77" font-size="11" fill="#2c3e50">부정</text>
  <rect x="606" y="66" width="12" height="12" fill="#95a5a6" rx="2"/>
  <text x="622" y="77" font-size="11" fill="#2c3e50">중립</text>

  <text x="60" y="100" font-size="13" font-weight="bold" fill="#2c3e50">디시인사이드 주식갤 — 긍정 150건 / 부정 480건 / 중립 370건</text>
  <rect x="60" y="110" width="102" height="28" fill="#27ae60" rx="3"/>
  <rect x="162" y="110" width="326" height="28" fill="#e74c3c" rx="3"/>
  <rect x="488" y="110" width="252" height="28" fill="#95a5a6" rx="3"/>
  <text x="60" y="152" text-anchor="start" font-size="11" fill="#27ae60">긍정 15%</text>
  <text x="400" y="152" text-anchor="middle" font-size="11" fill="#e74c3c">부정 48%</text>
  <text x="740" y="152" text-anchor="end" font-size="11" fill="#7f8c8d">중립 37%</text>
  <text x="60" y="168" font-size="11" fill="#555">💬 "서킷브레이커 발동은 과매도 신호. 반등 기회다"</text>

  <text x="60" y="220" font-size="13" font-weight="bold" fill="#2c3e50">클리앙 — 긍정 130건 / 부정 410건 / 중립 460건</text>
  <rect x="60" y="230" width="88" height="28" fill="#27ae60" rx="3"/>
  <rect x="148" y="230" width="279" height="28" fill="#e74c3c" rx="3"/>
  <rect x="427" y="230" width="313" height="28" fill="#95a5a6" rx="3"/>
  <text x="60" y="272" text-anchor="start" font-size="11" fill="#27ae60">긍정 13%</text>
  <text x="400" y="272" text-anchor="middle" font-size="11" fill="#e74c3c">부정 41%</text>
  <text x="740" y="272" text-anchor="end" font-size="11" fill="#7f8c8d">중립 46%</text>
  <text x="60" y="288" font-size="11" fill="#555">💬 "호르무즈 해협 진짜 막히면 우리나라 에너지 어떻게 되는 거냐"</text>

  <text x="60" y="340" font-size="13" font-weight="bold" fill="#2c3e50">에펨코리아 — 긍정 180건 / 부정 480건 / 중립 340건</text>
  <rect x="60" y="350" width="122" height="28" fill="#27ae60" rx="3"/>
  <rect x="182" y="350" width="326" height="28" fill="#e74c3c" rx="3"/>
  <rect x="508" y="350" width="232" height="28" fill="#95a5a6" rx="3"/>
  <text x="60" y="392" text-anchor="start" font-size="11" fill="#27ae60">긍정 18%</text>
  <text x="400" y="392" text-anchor="middle" font-size="11" fill="#e74c3c">부정 48%</text>
  <text x="740" y="392" text-anchor="end" font-size="11" fill="#7f8c8d">중립 34%</text>
  <text x="60" y="408" font-size="11" fill="#555">💬 "이란전쟁이 언제 끝날지 모르는데 반등해봤자"</text>

  <text x="400" y="426" text-anchor="middle" font-size="10" fill="#bdc3c7">* 수치는 집계된 공감/반응 신호 기반 추산 | paperWanderer</text>
</svg>