<svg xmlns="http://www.w3.org/2000/svg" width="800" height="440" viewBox="0 0 800 440"
     font-family="'Apple SD Gothic Neo', 'Malgun Gothic', Arial, sans-serif">
  <rect width="800" height="440" fill="#f8f9fa" rx="12"/>
  <text x="400" y="36" text-anchor="middle" font-size="17" font-weight="bold" fill="#2c3e50">갤럭시 링 건강보험 연계 — 커뮤니티 반응</text>
  <text x="400" y="54" text-anchor="middle" font-size="11" fill="#7f8c8d">네이버 뉴스 댓글 · IT 커뮤니티 · 클리앙 | 2026-03-16 21:00 KST</text>
  <rect x="490" y="66" width="12" height="12" fill="#27ae60" rx="2"/>
  <text x="506" y="77" font-size="11" fill="#2c3e50">긍정</text>
  <rect x="548" y="66" width="12" height="12" fill="#e74c3c" rx="2"/>
  <text x="564" y="77" font-size="11" fill="#2c3e50">부정</text>
  <rect x="606" y="66" width="12" height="12" fill="#95a5a6" rx="2"/>
  <text x="622" y="77" font-size="11" fill="#2c3e50">중립</text>

  <text x="60" y="100" font-size="13" font-weight="bold" fill="#2c3e50">네이버 뉴스 댓글 — 긍정 340건 / 부정 100건 / 중립 160건</text>
  <rect x="60" y="110" width="388" height="28" fill="#27ae60" rx="3"/>
  <rect x="448" y="110" width="114" height="28" fill="#e74c3c" rx="3"/>
  <rect x="562" y="110" width="178" height="28" fill="#95a5a6" rx="3"/>
  <text x="60" y="152" text-anchor="start" font-size="11" fill="#27ae60">긍정 57%</text>
  <text x="400" y="152" text-anchor="middle" font-size="11" fill="#e74c3c">부정 17%</text>
  <text x="740" y="152" text-anchor="end" font-size="11" fill="#7f8c8d">중립 26%</text>
  <text x="60" y="168" font-size="11" fill="#555">💬 "건강 관리하면 포인트 쌓이는 거 진짜 좋은 아이디어다"</text>

  <text x="60" y="220" font-size="13" font-weight="bold" fill="#2c3e50">IT 커뮤니티 — 긍정 140건 / 부정 40건 / 중립 80건</text>
  <rect x="60" y="230" width="363" height="28" fill="#27ae60" rx="3"/>
  <rect x="423" y="230" width="104" height="28" fill="#e74c3c" rx="3"/>
  <rect x="527" y="230" width="213" height="28" fill="#95a5a6" rx="3"/>
  <text x="60" y="272" text-anchor="start" font-size="11" fill="#27ae60">긍정 53%</text>
  <text x="400" y="272" text-anchor="middle" font-size="11" fill="#e74c3c">부정 15%</text>
  <text x="740" y="272" text-anchor="end" font-size="11" fill="#7f8c8d">중립 32%</text>
  <text x="60" y="288" font-size="11" fill="#555">💬 "운동하면 의료비 줄어드는 개념이잖아 이걸 실현한 게 대단하다"</text>

  <text x="60" y="340" font-size="13" font-weight="bold" fill="#2c3e50">클리앙 — 긍정 60건 / 부정 20건 / 중립 60건</text>
  <rect x="60" y="350" width="294" height="28" fill="#27ae60" rx="3"/>
  <rect x="354" y="350" width="98" height="28" fill="#e74c3c" rx="3"/>
  <rect x="452" y="350" width="288" height="28" fill="#95a5a6" rx="3"/>
  <text x="60" y="392" text-anchor="start" font-size="11" fill="#27ae60">긍정 43%</text>
  <text x="400" y="392" text-anchor="middle" font-size="11" fill="#e74c3c">부정 14%</text>
  <text x="740" y="392" text-anchor="end" font-size="11" fill="#7f8c8d">중립 43%</text>
  <text x="60" y="408" font-size="11" fill="#555">💬 "내 심박수와 수면 패턴이 보험사에 넘어가는 거 아닌가 걱정된다"</text>

  <text x="400" y="426" text-anchor="middle" font-size="10" fill="#bdc3c7">* 수치는 집계된 공감/반응 신호 기반 추산 | paperWanderer</text>
</svg>