<svg xmlns="http://www.w3.org/2000/svg" width="800" height="440" viewBox="0 0 800 440"
     font-family="'Apple SD Gothic Neo', 'Malgun Gothic', Arial, sans-serif">
  <rect width="800" height="440" fill="#f8f9fa" rx="12"/>
  <text x="400" y="36" text-anchor="middle" font-size="17" font-weight="bold" fill="#2c3e50">박왕열 마약왕 송환 — 커뮤니티 반응</text>
  <text x="400" y="54" text-anchor="middle" font-size="11" fill="#7f8c8d">디시인사이드 · 에펨코리아 · 네이버뉴스 | 2026-03-26 17:00 KST</text>
  <rect x="490" y="66" width="12" height="12" fill="#27ae60" rx="2"/>
  <text x="506" y="77" font-size="11" fill="#2c3e50">긍정</text>
  <rect x="548" y="66" width="12" height="12" fill="#e74c3c" rx="2"/>
  <text x="564" y="77" font-size="11" fill="#2c3e50">부정</text>
  <rect x="606" y="66" width="12" height="12" fill="#95a5a6" rx="2"/>
  <text x="622" y="77" font-size="11" fill="#2c3e50">중립</text>

  <text x="60" y="100" font-size="13" font-weight="bold" fill="#2c3e50">디시인사이드 실베 — 추천 92건 / 비추천 12건 / 기타댓글 297건</text>
  <rect x="60" y="110" width="156" height="28" fill="#27ae60" rx="3"/>
  <rect x="216" y="110" width="20" height="28" fill="#e74c3c" rx="3"/>
  <rect x="236" y="110" width="504" height="28" fill="#95a5a6" rx="3"/>
  <text x="60" y="152" text-anchor="start" font-size="11" fill="#27ae60">긍정 23%</text>
  <text x="400" y="152" text-anchor="middle" font-size="11" fill="#e74c3c">부정 3%</text>
  <text x="740" y="152" text-anchor="end" font-size="11" fill="#7f8c8d">중립 74%</text>
  <text x="60" y="168" font-size="11" fill="#555">💬 "JTBC PD 목숨 걸고 취재한 거 진짜 대단하다"</text>

  <text x="60" y="220" font-size="13" font-weight="bold" fill="#2c3e50">에펨코리아 — 긍정 200건 / 부정 30건 / 중립 120건</text>
  <rect x="60" y="230" width="389" height="28" fill="#27ae60" rx="3"/>
  <rect x="449" y="230" width="58" height="28" fill="#e74c3c" rx="3"/>
  <rect x="507" y="230" width="233" height="28" fill="#95a5a6" rx="3"/>
  <text x="60" y="272" text-anchor="start" font-size="11" fill="#27ae60">긍정 57%</text>
  <text x="400" y="272" text-anchor="middle" font-size="11" fill="#e74c3c">부정 9%</text>
  <text x="740" y="272" text-anchor="end" font-size="11" fill="#7f8c8d">중립 34%</text>
  <text x="60" y="288" font-size="11" fill="#555">💬 "교도소서 핸드폰 쓰면서 마약 유통한 거 실화냐"</text>

  <text x="60" y="340" font-size="13" font-weight="bold" fill="#2c3e50">네이버뉴스 — 긍정 150건 / 부정 20건 / 중립 80건</text>
  <rect x="60" y="350" width="408" height="28" fill="#27ae60" rx="3"/>
  <rect x="468" y="350" width="54" height="28" fill="#e74c3c" rx="3"/>
  <rect x="522" y="350" width="218" height="28" fill="#95a5a6" rx="3"/>
  <text x="60" y="392" text-anchor="start" font-size="11" fill="#27ae60">긍정 60%</text>
  <text x="400" y="392" text-anchor="middle" font-size="11" fill="#e74c3c">부정 8%</text>
  <text x="740" y="392" text-anchor="end" font-size="11" fill="#7f8c8d">중립 32%</text>
  <text x="60" y="408" font-size="11" fill="#555">💬 "드디어 잡혔다…황하나 명단이 어디까지인지"</text>

  <text x="400" y="426" text-anchor="middle" font-size="10" fill="#bdc3c7">* 수치는 집계된 공감/반응 신호 기반 추산 | paperWanderer</text>
</svg>