<svg xmlns="http://www.w3.org/2000/svg" width="800" height="440" viewBox="0 0 800 440"
     font-family="'Apple SD Gothic Neo', 'Malgun Gothic', Arial, sans-serif">
  <rect width="800" height="440" fill="#f8f9fa" rx="12"/>
  <text x="400" y="36" text-anchor="middle" font-size="17" font-weight="bold" fill="#2c3e50">WBC 한국 vs 체코 — 커뮤니티 반응</text>
  <text x="400" y="54" text-anchor="middle" font-size="11" fill="#7f8c8d">FM코리아 · 네이버뉴스 · 위키트리 | 2026-03-05 23:00 KST</text>
  <rect x="490" y="66" width="12" height="12" fill="#27ae60" rx="2"/>
  <text x="506" y="77" font-size="11" fill="#2c3e50">긍정</text>
  <rect x="548" y="66" width="12" height="12" fill="#e74c3c" rx="2"/>
  <text x="564" y="77" font-size="11" fill="#2c3e50">부정</text>
  <rect x="606" y="66" width="12" height="12" fill="#95a5a6" rx="2"/>
  <text x="622" y="77" font-size="11" fill="#2c3e50">중립</text>

  <text x="60" y="100" font-size="13" font-weight="bold" fill="#2c3e50">FM코리아 — 긍정 다수 / 부정 소수 / 중립</text>
  <rect x="60" y="110" width="530" height="28" fill="#27ae60" rx="3"/>
  <rect x="590" y="110" width="34" height="28" fill="#e74c3c" rx="3"/>
  <rect x="624" y="110" width="116" height="28" fill="#95a5a6" rx="3"/>
  <text x="60" y="152" text-anchor="start" font-size="11" fill="#27ae60">긍정 78%</text>
  <text x="400" y="152" text-anchor="middle" font-size="11" fill="#e74c3c">부정 5%</text>
  <text x="740" y="152" text-anchor="end" font-size="11" fill="#7f8c8d">중립 17%</text>
  <text x="60" y="168" font-size="11" fill="#555">💬 "17년 만이라는 게 믿기지 않는다. 오늘만큼은 진짜 야구 대표팀 기대된다"</text>

  <text x="60" y="220" font-size="13" font-weight="bold" fill="#2c3e50">네이버 뉴스 — 긍정 다수 / 비판 소수 / 중립</text>
  <rect x="60" y="230" width="558" height="28" fill="#27ae60" rx="3"/>
  <rect x="618" y="230" width="27" height="28" fill="#e74c3c" rx="3"/>
  <rect x="645" y="230" width="95" height="28" fill="#95a5a6" rx="3"/>
  <text x="60" y="272" text-anchor="start" font-size="11" fill="#27ae60">긍정 82%</text>
  <text x="400" y="272" text-anchor="middle" font-size="11" fill="#e74c3c">부정 4%</text>
  <text x="740" y="272" text-anchor="end" font-size="11" fill="#7f8c8d">중립 14%</text>
  <text x="60" y="288" font-size="11" fill="#555">💬 "소형준 진짜 믿음직스럽다. 이번엔 다를 것 같다"</text>

  <text x="60" y="340" font-size="13" font-weight="bold" fill="#2c3e50">위키트리 댓글 — 긍정 우세</text>
  <rect x="60" y="350" width="476" height="28" fill="#27ae60" rx="3"/>
  <rect x="536" y="350" width="54" height="28" fill="#e74c3c" rx="3"/>
  <rect x="590" y="350" width="150" height="28" fill="#95a5a6" rx="3"/>
  <text x="60" y="392" text-anchor="start" font-size="11" fill="#27ae60">긍정 70%</text>
  <text x="400" y="392" text-anchor="middle" font-size="11" fill="#e74c3c">부정 8%</text>
  <text x="740" y="392" text-anchor="end" font-size="11" fill="#7f8c8d">중립 22%</text>
  <text x="60" y="408" font-size="11" fill="#555">💬 "체코 상대지만 17년 만의 1차전 승리, 기분 좋다"</text>

  <text x="400" y="426" text-anchor="middle" font-size="10" fill="#bdc3c7">* 수치는 집계된 공감/반응 신호 기반 추산 | paperWanderer</text>
</svg>