<svg xmlns="http://www.w3.org/2000/svg" width="800" height="440" viewBox="0 0 800 440"
     font-family="'Apple SD Gothic Neo', 'Malgun Gothic', Arial, sans-serif">
  <rect width="800" height="440" fill="#f8f9fa" rx="12"/>
  <text x="400" y="36" text-anchor="middle" font-size="17" font-weight="bold" fill="#2c3e50">검찰 수사권 분리 개혁 — 커뮤니티 반응</text>
  <text x="400" y="54" text-anchor="middle" font-size="11" fill="#7f8c8d">네이버 뉴스 댓글 · 클리앙 · 전체 합산 | 2026-03-16 22:00 KST</text>
  <rect x="490" y="66" width="12" height="12" fill="#27ae60" rx="2"/>
  <text x="506" y="77" font-size="11" fill="#2c3e50">긍정</text>
  <rect x="548" y="66" width="12" height="12" fill="#e74c3c" rx="2"/>
  <text x="564" y="77" font-size="11" fill="#2c3e50">부정</text>
  <rect x="606" y="66" width="12" height="12" fill="#95a5a6" rx="2"/>
  <text x="622" y="77" font-size="11" fill="#2c3e50">중립</text>

  <text x="60" y="100" font-size="13" font-weight="bold" fill="#2c3e50">네이버 뉴스 댓글 — 긍정 390건 / 부정 280건 / 중립 160건</text>
  <rect x="60" y="110" width="320" height="28" fill="#27ae60" rx="3"/>
  <rect x="380" y="110" width="229" height="28" fill="#e74c3c" rx="3"/>
  <rect x="609" y="110" width="131" height="28" fill="#95a5a6" rx="3"/>
  <text x="60" y="152" text-anchor="start" font-size="11" fill="#27ae60">긍정 47%</text>
  <text x="400" y="152" text-anchor="middle" font-size="11" fill="#e74c3c">부정 34%</text>
  <text x="740" y="152" text-anchor="end" font-size="11" fill="#7f8c8d">중립 19%</text>
  <text x="60" y="168" font-size="11" fill="#555">💬 "정치 검찰 구조 끊으려면 수사권 분리가 맞다" (공감 172)</text>

  <text x="60" y="220" font-size="13" font-weight="bold" fill="#2c3e50">클리앙 — 긍정 240건 / 부정 200건 / 중립 250건</text>
  <rect x="60" y="230" width="238" height="28" fill="#27ae60" rx="3"/>
  <rect x="298" y="230" width="198" height="28" fill="#e74c3c" rx="3"/>
  <rect x="496" y="230" width="244" height="28" fill="#95a5a6" rx="3"/>
  <text x="60" y="272" text-anchor="start" font-size="11" fill="#27ae60">긍정 35%</text>
  <text x="400" y="272" text-anchor="middle" font-size="11" fill="#e74c3c">부정 29%</text>
  <text x="740" y="272" text-anchor="end" font-size="11" fill="#7f8c8d">중립 36%</text>
  <text x="60" y="288" font-size="11" fill="#555">💬 "중수청 설치하면 결국 또 다른 권력 기관 탄생하는 거 아닌가" (비공감 98)</text>

  <text x="60" y="340" font-size="13" font-weight="bold" fill="#2c3e50">전체 합산 — 긍정 630건 / 부정 480건 / 중립 410건</text>
  <rect x="60" y="350" width="282" height="28" fill="#27ae60" rx="3"/>
  <rect x="342" y="350" width="215" height="28" fill="#e74c3c" rx="3"/>
  <rect x="557" y="350" width="183" height="28" fill="#95a5a6" rx="3"/>
  <text x="60" y="392" text-anchor="start" font-size="11" fill="#27ae60">긍정 41%</text>
  <text x="400" y="392" text-anchor="middle" font-size="11" fill="#e74c3c">부정 32%</text>
  <text x="740" y="392" text-anchor="end" font-size="11" fill="#7f8c8d">중립 27%</text>
  <text x="60" y="408" font-size="11" fill="#555">💬 "이번 개혁이 성공하면 다시는 검찰이 정치에 개입 못 한다" (공감 126)</text>

  <text x="400" y="426" text-anchor="middle" font-size="10" fill="#bdc3c7">* 수치는 집계된 공감/반응 신호 기반 추산 | paperWanderer</text>
</svg>