<svg xmlns="http://www.w3.org/2000/svg" width="800" height="440" viewBox="0 0 800 440"
     font-family="'Apple SD Gothic Neo', 'Malgun Gothic', Arial, sans-serif">
  <rect width="800" height="440" fill="#f8f9fa" rx="12"/>
  <text x="400" y="36" text-anchor="middle" font-size="17" font-weight="bold" fill="#2c3e50">부동산 범죄 특별단속 — 커뮤니티 반응</text>
  <text x="400" y="54" text-anchor="middle" font-size="11" fill="#7f8c8d">네이버 뉴스 · MBC 댓글 | 2026-03-25 20:00 KST</text>
  <rect x="490" y="66" width="12" height="12" fill="#27ae60" rx="2"/>
  <text x="506" y="77" font-size="11" fill="#2c3e50">긍정</text>
  <rect x="548" y="66" width="12" height="12" fill="#e74c3c" rx="2"/>
  <text x="564" y="77" font-size="11" fill="#2c3e50">부정</text>
  <rect x="606" y="66" width="12" height="12" fill="#95a5a6" rx="2"/>
  <text x="622" y="77" font-size="11" fill="#2c3e50">중립</text>

  <text x="60" y="100" font-size="13" font-weight="bold" fill="#2c3e50">네이버 뉴스 댓글 — 긍정 320건 / 부정 85건 / 중립 115건</text>
  <rect x="60" y="110" width="418" height="28" fill="#27ae60" rx="3"/>
  <rect x="478" y="110" width="111" height="28" fill="#e74c3c" rx="3"/>
  <rect x="589" y="110" width="151" height="28" fill="#95a5a6" rx="3"/>
  <text x="60" y="152" text-anchor="start" font-size="11" fill="#27ae60">긍정 61%</text>
  <text x="400" y="152" text-anchor="middle" font-size="11" fill="#e74c3c">부정 16%</text>
  <text x="740" y="152" text-anchor="end" font-size="11" fill="#7f8c8d">중립 23%</text>
  <text x="60" y="168" font-size="11" fill="#555">💬 "공무원 43명 포함이 충격, 내부 정보 투기 아닌가"</text>

  <text x="60" y="220" font-size="13" font-weight="bold" fill="#2c3e50">MBC 뉴스 댓글 — 실효성 의문 목소리</text>
  <rect x="60" y="230" width="340" height="28" fill="#27ae60" rx="3"/>
  <rect x="400" y="230" width="136" height="28" fill="#e74c3c" rx="3"/>
  <rect x="536" y="230" width="204" height="28" fill="#95a5a6" rx="3"/>
  <text x="60" y="272" text-anchor="start" font-size="11" fill="#27ae60">긍정 50%</text>
  <text x="400" y="272" text-anchor="middle" font-size="11" fill="#e74c3c">부정 20%</text>
  <text x="740" y="272" text-anchor="end" font-size="11" fill="#7f8c8d">중립 30%</text>
  <text x="60" y="288" font-size="11" fill="#555">💬 "7명 구속은 너무 적다, 솜방망이 처벌"</text>

  <text x="60" y="340" font-size="13" font-weight="bold" fill="#2c3e50">부동산 커뮤니티 — 정책 방향 지지 우세</text>
  <rect x="60" y="350" width="459" height="28" fill="#27ae60" rx="3"/>
  <rect x="519" y="350" width="82" height="28" fill="#e74c3c" rx="3"/>
  <rect x="601" y="350" width="139" height="28" fill="#95a5a6" rx="3"/>
  <text x="60" y="392" text-anchor="start" font-size="11" fill="#27ae60">긍정 68%</text>
  <text x="400" y="392" text-anchor="middle" font-size="11" fill="#e74c3c">부정 12%</text>
  <text x="740" y="392" text-anchor="end" font-size="11" fill="#7f8c8d">중립 20%</text>
  <text x="60" y="408" font-size="11" fill="#555">💬 "방향은 맞는데 구속까지 가는 비율이 너무 낮다"</text>

  <text x="400" y="426" text-anchor="middle" font-size="10" fill="#bdc3c7">* 수치는 집계된 공감/반응 신호 기반 추산 | paperWanderer</text>
</svg>