<svg xmlns="http://www.w3.org/2000/svg" width="800" height="440" viewBox="0 0 800 440"
     font-family="'Apple SD Gothic Neo', 'Malgun Gothic', Arial, sans-serif">
  <rect width="800" height="440" fill="#f8f9fa" rx="12"/>
  <text x="400" y="36" text-anchor="middle" font-size="17" font-weight="bold" fill="#2c3e50">노인 무임승차 제한 논란 — 커뮤니티 반응</text>
  <text x="400" y="54" text-anchor="middle" font-size="11" fill="#7f8c8d">디시인사이드 · 에펨코리아 · 루리웹 | 2026-03-26 18:00 KST</text>
  <rect x="490" y="66" width="12" height="12" fill="#27ae60" rx="2"/>
  <text x="506" y="77" font-size="11" fill="#2c3e50">긍정</text>
  <rect x="548" y="66" width="12" height="12" fill="#e74c3c" rx="2"/>
  <text x="564" y="77" font-size="11" fill="#2c3e50">부정</text>
  <rect x="606" y="66" width="12" height="12" fill="#95a5a6" rx="2"/>
  <text x="622" y="77" font-size="11" fill="#2c3e50">중립</text>

  <text x="60" y="100" font-size="13" font-weight="bold" fill="#2c3e50">디시인사이드 실베 — 추천 92건 / 비추천 12건 / 기타 285건</text>
  <rect x="60" y="110" width="161" height="28" fill="#27ae60" rx="3"/>
  <rect x="221" y="110" width="21" height="28" fill="#e74c3c" rx="3"/>
  <rect x="242" y="110" width="498" height="28" fill="#95a5a6" rx="3"/>
  <text x="60" y="152" text-anchor="start" font-size="11" fill="#27ae60">긍정 24%</text>
  <text x="400" y="152" text-anchor="middle" font-size="11" fill="#e74c3c">부정 3%</text>
  <text x="740" y="152" text-anchor="end" font-size="11" fill="#7f8c8d">중립 73%</text>
  <text x="60" y="168" font-size="11" fill="#555">💬 "노인 차별이 아니라 노인 외에 모두 차별이지"</text>

  <text x="60" y="220" font-size="13" font-weight="bold" fill="#2c3e50">에펨코리아 — 긍정 180건 / 부정 40건 / 중립 120건</text>
  <rect x="60" y="230" width="360" height="28" fill="#27ae60" rx="3"/>
  <rect x="420" y="230" width="80" height="28" fill="#e74c3c" rx="3"/>
  <rect x="500" y="230" width="240" height="28" fill="#95a5a6" rx="3"/>
  <text x="60" y="272" text-anchor="start" font-size="11" fill="#27ae60">긍정 53%</text>
  <text x="400" y="272" text-anchor="middle" font-size="11" fill="#e74c3c">부정 12%</text>
  <text x="740" y="272" text-anchor="end" font-size="11" fill="#7f8c8d">중립 35%</text>
  <text x="60" y="288" font-size="11" fill="#555">💬 "이준석 때는 노인 차별이라 하더니…이재명이 하니까 사회적 논의?"</text>

  <text x="60" y="340" font-size="13" font-weight="bold" fill="#2c3e50">루리웹 — 긍정 30건 / 부정 50건 / 중립 40건</text>
  <rect x="60" y="350" width="170" height="28" fill="#27ae60" rx="3"/>
  <rect x="230" y="350" width="283" height="28" fill="#e74c3c" rx="3"/>
  <rect x="513" y="350" width="227" height="28" fill="#95a5a6" rx="3"/>
  <text x="60" y="392" text-anchor="start" font-size="11" fill="#27ae60">긍정 25%</text>
  <text x="400" y="392" text-anchor="middle" font-size="11" fill="#e74c3c">부정 42%</text>
  <text x="740" y="392" text-anchor="end" font-size="11" fill="#7f8c8d">중립 33%</text>
  <text x="60" y="408" font-size="11" fill="#555">💬 "지하철에서 진상 짓하는 노친네들 탑승권 박탈"</text>

  <text x="400" y="426" text-anchor="middle" font-size="10" fill="#bdc3c7">* 수치는 집계된 공감/반응 신호 기반 추산 | paperWanderer</text>
</svg>