<svg xmlns="http://www.w3.org/2000/svg" width="800" height="440" viewBox="0 0 800 440"
     font-family="'Apple SD Gothic Neo', 'Malgun Gothic', Arial, sans-serif">
  <rect width="800" height="440" fill="#f8f9fa" rx="12"/>
  <text x="400" y="36" text-anchor="middle" font-size="17" font-weight="bold" fill="#2c3e50">K드라마 극단적 다이어트 논란 — 커뮤니티 반응</text>
  <text x="400" y="54" text-anchor="middle" font-size="11" fill="#7f8c8d">트위터/X · 더쿠 · 에펨코리아 | 2026-03-07 20:00 KST</text>
  <rect x="490" y="66" width="12" height="12" fill="#27ae60" rx="2"/>
  <text x="506" y="77" font-size="11" fill="#2c3e50">긍정</text>
  <rect x="548" y="66" width="12" height="12" fill="#e74c3c" rx="2"/>
  <text x="564" y="77" font-size="11" fill="#2c3e50">부정</text>
  <rect x="606" y="66" width="12" height="12" fill="#95a5a6" rx="2"/>
  <text x="622" y="77" font-size="11" fill="#2c3e50">중립</text>

  <text x="60" y="100" font-size="13" font-weight="bold" fill="#2c3e50">트위터/X — 긍정 180건 / 부정 820건 / 중립 500건</text>
  <rect x="60" y="110" width="81" height="28" fill="#27ae60" rx="3"/>
  <rect x="141" y="110" width="370" height="28" fill="#e74c3c" rx="3"/>
  <rect x="511" y="110" width="229" height="28" fill="#95a5a6" rx="3"/>
  <text x="60" y="152" text-anchor="start" font-size="11" fill="#27ae60">긍정 12%</text>
  <text x="400" y="152" text-anchor="middle" font-size="11" fill="#e74c3c">부정 54%</text>
  <text x="740" y="152" text-anchor="end" font-size="11" fill="#7f8c8d">중립 34%</text>
  <text x="60" y="168" font-size="11" fill="#555">💬 "배우한테 과도한 다이어트 요구는 착취다. 건강을 먼저 생각해야"</text>

  <text x="60" y="220" font-size="13" font-weight="bold" fill="#2c3e50">더쿠 — 긍정 150건 / 부정 690건 / 중립 160건</text>
  <rect x="60" y="230" width="102" height="28" fill="#27ae60" rx="3"/>
  <rect x="162" y="230" width="469" height="28" fill="#e74c3c" rx="3"/>
  <rect x="631" y="230" width="109" height="28" fill="#95a5a6" rx="3"/>
  <text x="60" y="272" text-anchor="start" font-size="11" fill="#27ae60">긍정 15%</text>
  <text x="400" y="272" text-anchor="middle" font-size="11" fill="#e74c3c">부정 69%</text>
  <text x="740" y="272" text-anchor="end" font-size="11" fill="#7f8c8d">중립 16%</text>
  <text x="60" y="288" font-size="11" fill="#555">💬 "체중이 역할에 맞아야 한다는 논리는 이제 구시대 발상"</text>

  <text x="60" y="340" font-size="13" font-weight="bold" fill="#2c3e50">에펨코리아 — 긍정 260건 / 부정 540건 / 중립 200건</text>
  <rect x="60" y="350" width="177" height="28" fill="#27ae60" rx="3"/>
  <rect x="237" y="350" width="367" height="28" fill="#e74c3c" rx="3"/>
  <rect x="604" y="350" width="136" height="28" fill="#95a5a6" rx="3"/>
  <text x="60" y="392" text-anchor="start" font-size="11" fill="#27ae60">긍정 26%</text>
  <text x="400" y="392" text-anchor="middle" font-size="11" fill="#e74c3c">부정 54%</text>
  <text x="740" y="392" text-anchor="end" font-size="11" fill="#7f8c8d">중립 20%</text>
  <text x="60" y="408" font-size="11" fill="#555">💬 "배우 몸은 배우 것. 제작사가 강요하는 건 문제 있다"</text>

  <text x="400" y="426" text-anchor="middle" font-size="10" fill="#bdc3c7">* 수치는 집계된 공감/반응 신호 기반 추산 | paperWanderer</text>
</svg>