<svg xmlns="http://www.w3.org/2000/svg" width="800" height="322" viewBox="0 0 800 322"
     font-family="'Apple SD Gothic Neo', 'Malgun Gothic', Arial, sans-serif">
  <rect width="800" height="322" fill="#f8f9fa" rx="12"/>
  <text x="400" y="36" text-anchor="middle" font-size="19" font-weight="bold" fill="#2c3e50">이란 AI 보복·데이터센터 공격 — 커뮤니티 반응</text>
  <text x="400" y="54" text-anchor="middle" font-size="13" fill="#7f8c8d">Naver News, FM Korea, DC Inside, Clien | 2026-04-04 KST</text>
  <!-- 범례 -->
  <rect x="490" y="66" width="12" height="12" fill="#2c3e50" rx="2"/>
  <text x="506" y="77" font-size="13" fill="#2c3e50">긍정</text>
  <rect x="548" y="66" width="12" height="12" fill="#2c3e50" rx="2"/>
  <text x="564" y="77" font-size="13" fill="#2c3e50">부정</text>
  <rect x="606" y="66" width="12" height="12" fill="#2c3e50" rx="2"/>
  <text x="622" y="77" font-size="13" fill="#2c3e50">중립</text>
  <!-- Row 1 -->
  <text x="60" y="100" font-size="15" font-weight="bold" fill="#2c3e50">커뮤니티 여론 — 긍정 1,200건 / 부정 4,800건 / 중립 2,000건</text>
  <rect x="60" y="110" width="102" height="28" fill="#27ae60" rx="3"/>
  <rect x="162" y="110" width="408" height="28" fill="#e74c3c" rx="3"/>
  <rect x="570" y="110" width="170" height="28" fill="#95a5a6" rx="3"/>
  <text x="60" y="152" text-anchor="start" font-size="13" fill="#27ae60">긍정 15%</text>
  <text x="400" y="152" text-anchor="middle" font-size="13" fill="#e74c3c">부정 60%</text>
  <text x="740" y="152" text-anchor="end" font-size="13" fill="#7f8c8d">중립 25%</text>
  <text x="60" y="168" font-size="13" fill="#555">💬 "전쟁 확전 우려" 및 "한국 경제 영향" 관련 댓글이 공감을 받음</text>
  <!-- Row 2 -->
  <text x="60" y="220" font-size="15" font-weight="bold" fill="#2c3e50">IT업계 반응 (Clien) — 기술 관점 중심</text>
  <rect x="60" y="230" width="102" height="28" fill="#27ae60" rx="3"/>
  <rect x="162" y="230" width="408" height="28" fill="#e74c3c" rx="3"/>
  <rect x="570" y="230" width="170" height="28" fill="#95a5a6" rx="3"/>
  <text x="60" y="272" text-anchor="start" font-size="13" fill="#27ae60">긍정 15%</text>
  <text x="400" y="272" text-anchor="middle" font-size="13" fill="#e74c3c">부정 60%</text>
  <text x="740" y="272" text-anchor="end" font-size="13" fill="#7f8c8d">중립 25%</text>
  <text x="60" y="288" font-size="13" fill="#555">💬 "AWS/Azure 인프라 위험성", "클라우드 이중화 재인식" 기술 논의</text>
  <text x="400" y="310" text-anchor="middle" font-size="12" fill="#bdc3c7">* 수치는 집계된 공감/반응 신호 기반 추산 | paperWanderer</text>
</svg>