<svg xmlns="http://www.w3.org/2000/svg" width="800" height="322" viewBox="0 0 800 322"
     font-family="'Apple SD Gothic Neo', 'Malgun Gothic', Arial, sans-serif">
  <rect width="800" height="322" fill="#f8f9fa" rx="12"/>
  <text x="400" y="36" text-anchor="middle" font-size="17" font-weight="bold" fill="#2c3e50">2026 KBO 개막전 — 커뮤니티 반응</text>
  <text x="400" y="54" text-anchor="middle" font-size="11" fill="#7f8c8d">FM코리아 · 네이버스포츠 | 2026-03-29 KST</text>
  <rect x="490" y="66" width="12" height="12" fill="#27ae60" rx="2"/>
  <text x="506" y="77" font-size="11" fill="#2c3e50">긍정</text>
  <rect x="548" y="66" width="12" height="12" fill="#e74c3c" rx="2"/>
  <text x="564" y="77" font-size="11" fill="#2c3e50">부정</text>
  <rect x="606" y="66" width="12" height="12" fill="#95a5a6" rx="2"/>
  <text x="622" y="77" font-size="11" fill="#2c3e50">중립</text>
  <text x="60" y="100" font-size="13" font-weight="bold" fill="#2c3e50">FM코리아 — 긍정 620건 / 부정 42건 / 중립 138건</text>
  <rect x="60" y="110" width="527" height="28" fill="#27ae60" rx="3"/>
  <rect x="587" y="110" width="36" height="28" fill="#e74c3c" rx="3"/>
  <rect x="623" y="110" width="117" height="28" fill="#95a5a6" rx="3"/>
  <text x="60" y="152" text-anchor="start" font-size="11" fill="#27ae60">긍정 78%</text>
  <text x="400" y="152" text-anchor="middle" font-size="11" fill="#e74c3c">부정 5%</text>
  <text x="740" y="152" text-anchor="end" font-size="11" fill="#7f8c8d">중립 17%</text>
  <text x="60" y="168" font-size="11" fill="#555">💬 "이게 KBO야! 개막 첫날부터 역대급 끝내기 ㄷㄷ"</text>
  <text x="60" y="220" font-size="13" font-weight="bold" fill="#2c3e50">네이버스포츠 댓글 — 긍정 180건 / 부정 15건 / 중립 55건</text>
  <rect x="60" y="230" width="490" height="28" fill="#27ae60" rx="3"/>
  <rect x="550" y="230" width="41" height="28" fill="#e74c3c" rx="3"/>
  <rect x="591" y="230" width="149" height="28" fill="#95a5a6" rx="3"/>
  <text x="60" y="272" text-anchor="start" font-size="11" fill="#27ae60">긍정 72%</text>
  <text x="400" y="272" text-anchor="middle" font-size="11" fill="#e74c3c">부정 6%</text>
  <text x="740" y="272" text-anchor="end" font-size="11" fill="#7f8c8d">중립 22%</text>
  <text x="60" y="288" font-size="11" fill="#555">💬 "3월에 이렇게 뜨거운 개막전 보기 힘들다"</text>
  <text x="400" y="308" text-anchor="middle" font-size="10" fill="#bdc3c7">* 수치는 집계된 공감/반응 신호 기반 추산 | paperWanderer</text>
</svg>