<svg xmlns="http://www.w3.org/2000/svg" width="800" height="440" viewBox="0 0 800 440"
     font-family="'Apple SD Gothic Neo', 'Malgun Gothic', Arial, sans-serif">
  <rect width="800" height="440" fill="#f8f9fa" rx="12"/>
  <text x="400" y="36" text-anchor="middle" font-size="17" font-weight="bold" fill="#2c3e50">AI기본법 시행령 논의 — 커뮤니티 반응</text>
  <text x="400" y="54" text-anchor="middle" font-size="11" fill="#7f8c8d">네이버 뉴스 · 클리앙 · 에펨코리아 | 2026-03-07 21:00 KST</text>
  <rect x="490" y="66" width="12" height="12" fill="#27ae60" rx="2"/>
  <text x="506" y="77" font-size="11" fill="#2c3e50">긍정</text>
  <rect x="548" y="66" width="12" height="12" fill="#e74c3c" rx="2"/>
  <text x="564" y="77" font-size="11" fill="#2c3e50">부정</text>
  <rect x="606" y="66" width="12" height="12" fill="#95a5a6" rx="2"/>
  <text x="622" y="77" font-size="11" fill="#2c3e50">중립</text>

  <text x="60" y="100" font-size="13" font-weight="bold" fill="#2c3e50">네이버 뉴스 댓글 — 긍정 270건 / 부정 180건 / 중립 170건</text>
  <rect x="60" y="110" width="296" height="28" fill="#27ae60" rx="3"/>
  <rect x="356" y="110" width="197" height="28" fill="#e74c3c" rx="3"/>
  <rect x="553" y="110" width="187" height="28" fill="#95a5a6" rx="3"/>
  <text x="60" y="152" text-anchor="start" font-size="11" fill="#27ae60">긍정 44%</text>
  <text x="400" y="152" text-anchor="middle" font-size="11" fill="#e74c3c">부정 29%</text>
  <text x="740" y="152" text-anchor="end" font-size="11" fill="#7f8c8d">중립 27%</text>
  <text x="60" y="168" font-size="11" fill="#555">💬 "딥페이크 범죄 막으려면 강한 AI 규제가 필요하다"</text>

  <text x="60" y="220" font-size="13" font-weight="bold" fill="#2c3e50">클리앙 — 긍정 140건 / 부정 110건 / 중립 110건</text>
  <rect x="60" y="230" width="264" height="28" fill="#27ae60" rx="3"/>
  <rect x="324" y="230" width="208" height="28" fill="#e74c3c" rx="3"/>
  <rect x="532" y="230" width="208" height="28" fill="#95a5a6" rx="3"/>
  <text x="60" y="272" text-anchor="start" font-size="11" fill="#27ae60">긍정 39%</text>
  <text x="400" y="272" text-anchor="middle" font-size="11" fill="#e74c3c">부정 31%</text>
  <text x="740" y="272" text-anchor="end" font-size="11" fill="#7f8c8d">중립 30%</text>
  <text x="60" y="288" font-size="11" fill="#555">💬 "EU처럼 제대로 된 규제 틀을 만들어야 한다"</text>

  <text x="60" y="340" font-size="13" font-weight="bold" fill="#2c3e50">에펨코리아 — 긍정 130건 / 부정 100건 / 중립 170건</text>
  <rect x="60" y="350" width="221" height="28" fill="#27ae60" rx="3"/>
  <rect x="281" y="350" width="170" height="28" fill="#e74c3c" rx="3"/>
  <rect x="451" y="350" width="289" height="28" fill="#95a5a6" rx="3"/>
  <text x="60" y="392" text-anchor="start" font-size="11" fill="#27ae60">긍정 32%</text>
  <text x="400" y="392" text-anchor="middle" font-size="11" fill="#e74c3c">부정 25%</text>
  <text x="740" y="392" text-anchor="end" font-size="11" fill="#7f8c8d">중립 43%</text>
  <text x="60" y="408" font-size="11" fill="#555">💬 "규제만 강화하면 한국 AI 기업만 죽는다. 글로벌 경쟁력 생각해야"</text>

  <text x="400" y="426" text-anchor="middle" font-size="10" fill="#bdc3c7">* 수치는 집계된 공감/반응 신호 기반 추산 | paperWanderer</text>
</svg>