<svg xmlns="http://www.w3.org/2000/svg" width="800" height="440" viewBox="0 0 800 440"
     font-family="'Apple SD Gothic Neo', 'Malgun Gothic', Arial, sans-serif">
  <rect width="800" height="440" fill="#f8f9fa" rx="12"/>
  <text x="400" y="36" text-anchor="middle" font-size="17" font-weight="bold" fill="#2c3e50">WBC B조 한국 8강 레이스 — 커뮤니티 반응</text>
  <text x="400" y="54" text-anchor="middle" font-size="11" fill="#7f8c8d">네이버 뉴스 · 에펨코리아 · 유튜브 | 2026-03-07 21:00 KST</text>
  <rect x="490" y="66" width="12" height="12" fill="#27ae60" rx="2"/>
  <text x="506" y="77" font-size="11" fill="#2c3e50">긍정</text>
  <rect x="548" y="66" width="12" height="12" fill="#e74c3c" rx="2"/>
  <text x="564" y="77" font-size="11" fill="#2c3e50">부정</text>
  <rect x="606" y="66" width="12" height="12" fill="#95a5a6" rx="2"/>
  <text x="622" y="77" font-size="11" fill="#2c3e50">중립</text>

  <text x="60" y="100" font-size="13" font-weight="bold" fill="#2c3e50">네이버 뉴스 댓글 — 긍정 1,200건 / 부정 260건 / 중립 2,040건</text>
  <rect x="60" y="110" width="233" height="28" fill="#27ae60" rx="3"/>
  <rect x="293" y="110" width="51" height="28" fill="#e74c3c" rx="3"/>
  <rect x="344" y="110" width="396" height="28" fill="#95a5a6" rx="3"/>
  <text x="60" y="152" text-anchor="start" font-size="11" fill="#27ae60">긍정 34%</text>
  <text x="400" y="152" text-anchor="middle" font-size="11" fill="#e74c3c">부정 8%</text>
  <text x="740" y="152" text-anchor="end" font-size="11" fill="#7f8c8d">중립 58%</text>
  <text x="60" y="168" font-size="11" fill="#555">💬 "체코전 대승으로 분위기 반전했다. 한일전도 기대된다"</text>

  <text x="60" y="220" font-size="13" font-weight="bold" fill="#2c3e50">에펨코리아 — 긍정 740건 / 부정 160건 / 중립 1,400건</text>
  <rect x="60" y="230" width="219" height="28" fill="#27ae60" rx="3"/>
  <rect x="279" y="230" width="47" height="28" fill="#e74c3c" rx="3"/>
  <rect x="326" y="230" width="414" height="28" fill="#95a5a6" rx="3"/>
  <text x="60" y="272" text-anchor="start" font-size="11" fill="#27ae60">긍정 32%</text>
  <text x="400" y="272" text-anchor="middle" font-size="11" fill="#e74c3c">부정 7%</text>
  <text x="740" y="272" text-anchor="end" font-size="11" fill="#7f8c8d">중립 61%</text>
  <text x="60" y="288" font-size="11" fill="#555">💬 "한일전이 WBC의 꽃이다. 오늘 반드시 이겨야"</text>

  <text x="60" y="340" font-size="13" font-weight="bold" fill="#2c3e50">유튜브 — 긍정 800건 / 부정 120건 / 중립 880건</text>
  <rect x="60" y="350" width="302" height="28" fill="#27ae60" rx="3"/>
  <rect x="362" y="350" width="45" height="28" fill="#e74c3c" rx="3"/>
  <rect x="407" y="350" width="333" height="28" fill="#95a5a6" rx="3"/>
  <text x="60" y="392" text-anchor="start" font-size="11" fill="#27ae60">긍정 44%</text>
  <text x="400" y="392" text-anchor="middle" font-size="11" fill="#e74c3c">부정 7%</text>
  <text x="740" y="392" text-anchor="end" font-size="11" fill="#7f8c8d">중립 49%</text>
  <text x="60" y="408" font-size="11" fill="#555">💬 "타선 살아있는데 한일전도 충분히 해볼 만하다"</text>

  <text x="400" y="426" text-anchor="middle" font-size="10" fill="#bdc3c7">* 수치는 집계된 공감/반응 신호 기반 추산 | paperWanderer</text>
</svg>