<svg xmlns="http://www.w3.org/2000/svg" width="800" height="440" viewBox="0 0 800 440"
     font-family="'Apple SD Gothic Neo', 'Malgun Gothic', Arial, sans-serif">
  <rect width="800" height="440" fill="#f8f9fa" rx="12"/>
  <text x="400" y="36" text-anchor="middle" font-size="17" font-weight="bold" fill="#2c3e50">1월 경상수지 역대 5위 흑자 — 커뮤니티 반응</text>
  <text x="400" y="54" text-anchor="middle" font-size="11" fill="#7f8c8d">에펨코리아 · 클리앙 · 네이버 뉴스 댓글 | 2026-03-07 19:00 KST</text>
  <rect x="490" y="66" width="12" height="12" fill="#27ae60" rx="2"/>
  <text x="506" y="77" font-size="11" fill="#2c3e50">긍정</text>
  <rect x="548" y="66" width="12" height="12" fill="#e74c3c" rx="2"/>
  <text x="564" y="77" font-size="11" fill="#2c3e50">부정</text>
  <rect x="606" y="66" width="12" height="12" fill="#95a5a6" rx="2"/>
  <text x="622" y="77" font-size="11" fill="#2c3e50">중립</text>

  <text x="60" y="100" font-size="13" font-weight="bold" fill="#2c3e50">에펨코리아 — 긍정 380건 / 부정 220건 / 중립 400건</text>
  <rect x="60" y="110" width="258" height="28" fill="#27ae60" rx="3"/>
  <rect x="318" y="110" width="150" height="28" fill="#e74c3c" rx="3"/>
  <rect x="468" y="110" width="272" height="28" fill="#95a5a6" rx="3"/>
  <text x="60" y="152" text-anchor="start" font-size="11" fill="#27ae60">긍정 38%</text>
  <text x="400" y="152" text-anchor="middle" font-size="11" fill="#e74c3c">부정 22%</text>
  <text x="740" y="152" text-anchor="end" font-size="11" fill="#7f8c8d">중립 40%</text>
  <text x="60" y="168" font-size="11" fill="#555">💬 "반도체 수출이 엄청나네. 그러면 내 월급도 올라야 하는 거 아닌가"</text>

  <text x="60" y="220" font-size="13" font-weight="bold" fill="#2c3e50">클리앙 — 긍정 290건 / 부정 310건 / 중립 400건</text>
  <rect x="60" y="230" width="197" height="28" fill="#27ae60" rx="3"/>
  <rect x="257" y="230" width="211" height="28" fill="#e74c3c" rx="3"/>
  <rect x="468" y="230" width="272" height="28" fill="#95a5a6" rx="3"/>
  <text x="60" y="272" text-anchor="start" font-size="11" fill="#27ae60">긍정 29%</text>
  <text x="400" y="272" text-anchor="middle" font-size="11" fill="#e74c3c">부정 31%</text>
  <text x="740" y="272" text-anchor="end" font-size="11" fill="#7f8c8d">중립 40%</text>
  <text x="60" y="288" font-size="11" fill="#555">💬 "중동 사태가 길어지면 3월부터 흑자 폭 줄어들 것. 선제 대응 필요"</text>

  <text x="60" y="340" font-size="13" font-weight="bold" fill="#2c3e50">네이버 뉴스 댓글 — 긍정 420건 / 부정 180건 / 중립 400건</text>
  <rect x="60" y="350" width="285" height="28" fill="#27ae60" rx="3"/>
  <rect x="345" y="350" width="122" height="28" fill="#e74c3c" rx="3"/>
  <rect x="467" y="350" width="273" height="28" fill="#95a5a6" rx="3"/>
  <text x="60" y="392" text-anchor="start" font-size="11" fill="#27ae60">긍정 42%</text>
  <text x="400" y="392" text-anchor="middle" font-size="11" fill="#e74c3c">부정 18%</text>
  <text x="740" y="392" text-anchor="end" font-size="11" fill="#7f8c8d">중립 40%</text>
  <text x="60" y="408" font-size="11" fill="#555">💬 "33개월 연속 흑자 대단하다. 수출 강국 코리아"</text>

  <text x="400" y="426" text-anchor="middle" font-size="10" fill="#bdc3c7">* 수치는 집계된 공감/반응 신호 기반 추산 | paperWanderer</text>
</svg>