<svg xmlns="http://www.w3.org/2000/svg" width="800" height="440" viewBox="0 0 800 440"
     font-family="'Apple SD Gothic Neo', 'Malgun Gothic', Arial, sans-serif">
  <rect width="800" height="440" fill="#f8f9fa" rx="12"/>
  <text x="400" y="36" text-anchor="middle" font-size="17" font-weight="bold" fill="#2c3e50">3월 아파트 가격 동향 — 커뮤니티 반응</text>
  <text x="400" y="54" text-anchor="middle" font-size="11" fill="#7f8c8d">부동산커뮤니티 · 포털댓글 · 무주택자 | 2026-03-02 KST</text>
  <rect x="490" y="66" width="12" height="12" fill="#27ae60" rx="2"/>
  <text x="506" y="77" font-size="11" fill="#2c3e50">긍정</text>
  <rect x="548" y="66" width="12" height="12" fill="#e74c3c" rx="2"/>
  <text x="564" y="77" font-size="11" fill="#2c3e50">부정</text>
  <rect x="606" y="66" width="12" height="12" fill="#95a5a6" rx="2"/>
  <text x="622" y="77" font-size="11" fill="#2c3e50">중립</text>

  <text x="60" y="100" font-size="13" font-weight="bold" fill="#2c3e50">강북권 투자자 — 긍정 75건 / 부정 10건 / 중립 15건</text>
  <rect x="60" y="110" width="510" height="28" fill="#27ae60" rx="3"/>
  <rect x="570" y="110" width="68" height="28" fill="#e74c3c" rx="3"/>
  <rect x="638" y="110" width="102" height="28" fill="#95a5a6" rx="3"/>
  <text x="60" y="152" text-anchor="start" font-size="11" fill="#27ae60">긍정 75%</text>
  <text x="400" y="152" text-anchor="middle" font-size="11" fill="#e74c3c">부정 10%</text>
  <text x="740" y="152" text-anchor="end" font-size="11" fill="#7f8c8d">중립 15%</text>
  <text x="60" y="168" font-size="11" fill="#555">💬 "강북 역세권 샀던 거 신의 한 수, 강남 재건축보다 낫네"</text>

  <text x="60" y="220" font-size="13" font-weight="bold" fill="#2c3e50">포털 뉴스 댓글 — 긍정 42건 / 부정 43건 / 중립 15건</text>
  <rect x="60" y="230" width="286" height="28" fill="#27ae60" rx="3"/>
  <rect x="346" y="230" width="292" height="28" fill="#e74c3c" rx="3"/>
  <rect x="638" y="230" width="102" height="28" fill="#95a5a6" rx="3"/>
  <text x="60" y="272" text-anchor="start" font-size="11" fill="#27ae60">긍정 42%</text>
  <text x="400" y="272" text-anchor="middle" font-size="11" fill="#e74c3c">부정 43%</text>
  <text x="740" y="272" text-anchor="end" font-size="11" fill="#7f8c8d">중립 15%</text>
  <text x="60" y="288" font-size="11" fill="#555">💬 "집 없는 사람만 계속 죽어나간다, 전세도 오르고 매매도 오르고"</text>

  <text x="60" y="340" font-size="13" font-weight="bold" fill="#2c3e50">무주택자 반응 — 긍정 12건 / 부정 73건 / 중립 15건</text>
  <rect x="60" y="350" width="82" height="28" fill="#27ae60" rx="3"/>
  <rect x="142" y="350" width="496" height="28" fill="#e74c3c" rx="3"/>
  <rect x="638" y="350" width="102" height="28" fill="#95a5a6" rx="3"/>
  <text x="60" y="392" text-anchor="start" font-size="11" fill="#27ae60">긍정 12%</text>
  <text x="400" y="392" text-anchor="middle" font-size="11" fill="#e74c3c">부정 73%</text>
  <text x="740" y="392" text-anchor="end" font-size="11" fill="#7f8c8d">중립 15%</text>
  <text x="60" y="408" font-size="11" fill="#555">💬 "경기도가 오르고 있으니 수도권 전반 오를 거 같다"</text>

  <text x="400" y="426" text-anchor="middle" font-size="10" fill="#bdc3c7">* 수치는 집계된 공감/반응 신호 기반 추산 | paperWanderer</text>
</svg>