<svg xmlns="http://www.w3.org/2000/svg" width="800" height="440" viewBox="0 0 800 440"
     font-family="'Apple SD Gothic Neo', 'Malgun Gothic', Arial, sans-serif">
  <rect width="800" height="440" fill="#f8f9fa" rx="12"/>
  <text x="400" y="36" text-anchor="middle" font-size="17" font-weight="bold" fill="#2c3e50">호르무즈 파병 논란 — 커뮤니티 반응</text>
  <text x="400" y="54" text-anchor="middle" font-size="11" fill="#7f8c8d">FM코리아 · 네이버뉴스 · 디씨인사이드 | 2026-03-01 19:00 KST</text>
  <rect x="490" y="66" width="12" height="12" fill="#27ae60" rx="2"/>
  <text x="506" y="77" font-size="11" fill="#2c3e50">긍정</text>
  <rect x="548" y="66" width="12" height="12" fill="#e74c3c" rx="2"/>
  <text x="564" y="77" font-size="11" fill="#2c3e50">부정</text>
  <rect x="606" y="66" width="12" height="12" fill="#95a5a6" rx="2"/>
  <text x="622" y="77" font-size="11" fill="#2c3e50">중립</text>

  <text x="60" y="100" font-size="13" font-weight="bold" fill="#2c3e50">FM코리아 — 긍정 18건 / 부정 72건 / 중립 40건</text>
  <rect x="60" y="110" width="94" height="28" fill="#27ae60" rx="3"/>
  <rect x="154" y="110" width="377" height="28" fill="#e74c3c" rx="3"/>
  <rect x="531" y="110" width="209" height="28" fill="#95a5a6" rx="3"/>
  <text x="60" y="152" text-anchor="start" font-size="11" fill="#27ae60">긍정 14%</text>
  <text x="400" y="152" text-anchor="middle" font-size="11" fill="#e74c3c">부정 55%</text>
  <text x="740" y="152" text-anchor="end" font-size="11" fill="#7f8c8d">중립 31%</text>
  <text x="60" y="168" font-size="11" fill="#555">💬 "원유 70%가 호르무즈 통해 오는데 왜 파병 못 한다는 거임"</text>

  <text x="60" y="220" font-size="13" font-weight="bold" fill="#2c3e50">네이버뉴스 — 긍정 28건 / 부정 85건 / 중립 37건</text>
  <rect x="60" y="230" width="127" height="28" fill="#27ae60" rx="3"/>
  <rect x="187" y="230" width="385" height="28" fill="#e74c3c" rx="3"/>
  <rect x="572" y="230" width="168" height="28" fill="#95a5a6" rx="3"/>
  <text x="60" y="272" text-anchor="start" font-size="11" fill="#27ae60">긍정 19%</text>
  <text x="400" y="272" text-anchor="middle" font-size="11" fill="#e74c3c">부정 57%</text>
  <text x="740" y="272" text-anchor="end" font-size="11" fill="#7f8c8d">중립 24%</text>
  <text x="60" y="288" font-size="11" fill="#555">💬 "월남전 파병처럼 또 미국 전쟁에 끌려들어가는 거 아님"</text>

  <text x="60" y="340" font-size="13" font-weight="bold" fill="#2c3e50">디씨인사이드 — 긍정 22건 / 부정 64건 / 중립 34건</text>
  <rect x="60" y="350" width="125" height="28" fill="#27ae60" rx="3"/>
  <rect x="185" y="350" width="363" height="28" fill="#e74c3c" rx="3"/>
  <rect x="548" y="350" width="192" height="28" fill="#95a5a6" rx="3"/>
  <text x="60" y="392" text-anchor="start" font-size="11" fill="#27ae60">긍정 18%</text>
  <text x="400" y="392" text-anchor="middle" font-size="11" fill="#e74c3c">부정 53%</text>
  <text x="740" y="392" text-anchor="end" font-size="11" fill="#7f8c8d">중립 29%</text>
  <text x="60" y="408" font-size="11" fill="#555">💬 "파병 안 해도 이란이 한국 배 안 막겠다고 했잖아"</text>

  <text x="400" y="426" text-anchor="middle" font-size="10" fill="#bdc3c7">* 수치는 집계된 공감/반응 신호 기반 추산 | paperWanderer</text>
</svg>