<svg xmlns="http://www.w3.org/2000/svg" width="800" height="440" viewBox="0 0 800 440"
     font-family="'Apple SD Gothic Neo', 'Malgun Gothic', Arial, sans-serif">
  <rect width="800" height="440" fill="#f8f9fa" rx="12"/>
  <text x="400" y="36" text-anchor="middle" font-size="17" font-weight="bold" fill="#2c3e50">법왜곡죄 시행·조희대 고발 — 커뮤니티 반응</text>
  <text x="400" y="54" text-anchor="middle" font-size="11" fill="#7f8c8d">MBC 뉴스 · 법률신문 · Blind(경찰청) | 2026-03-13 KST</text>
  <rect x="490" y="66" width="12" height="12" fill="#27ae60" rx="2"/>
  <text x="506" y="77" font-size="11" fill="#2c3e50">긍정</text>
  <rect x="548" y="66" width="12" height="12" fill="#e74c3c" rx="2"/>
  <text x="564" y="77" font-size="11" fill="#2c3e50">부정</text>
  <rect x="606" y="66" width="12" height="12" fill="#95a5a6" rx="2"/>
  <text x="622" y="77" font-size="11" fill="#2c3e50">중립</text>

  <text x="60" y="100" font-size="13" font-weight="bold" fill="#2c3e50">MBC 뉴스 댓글 — 찬성 40건 / 반대 45건 / 중립 15건</text>
  <rect x="60" y="110" width="272" height="28" fill="#27ae60" rx="3"/>
  <rect x="332" y="110" width="306" height="28" fill="#e74c3c" rx="3"/>
  <rect x="638" y="110" width="102" height="28" fill="#95a5a6" rx="3"/>
  <text x="60" y="152" text-anchor="start" font-size="11" fill="#27ae60">긍정 40%</text>
  <text x="400" y="152" text-anchor="middle" font-size="11" fill="#e74c3c">부정 45%</text>
  <text x="740" y="152" text-anchor="end" font-size="11" fill="#7f8c8d">중립 15%</text>
  <text x="60" y="168" font-size="11" fill="#555">💬 "사법부도 법 위에 있어선 안 된다, 당연한 조치"</text>

  <text x="60" y="220" font-size="13" font-weight="bold" fill="#2c3e50">Blind(경찰청) — 찬성 12건 / 반대 68건 / 중립 20건</text>
  <rect x="60" y="230" width="82" height="28" fill="#27ae60" rx="3"/>
  <rect x="142" y="230" width="462" height="28" fill="#e74c3c" rx="3"/>
  <rect x="604" y="230" width="136" height="28" fill="#95a5a6" rx="3"/>
  <text x="60" y="272" text-anchor="start" font-size="11" fill="#27ae60">긍정 12%</text>
  <text x="400" y="272" text-anchor="middle" font-size="11" fill="#e74c3c">부정 68%</text>
  <text x="740" y="272" text-anchor="end" font-size="11" fill="#7f8c8d">중립 20%</text>
  <text x="60" y="288" font-size="11" fill="#555">💬 "수사 회피 분위기 확산, 오히려 치안 공백 우려된다"</text>

  <text x="60" y="340" font-size="13" font-weight="bold" fill="#2c3e50">법률신문 온라인 — 찬성 25건 / 반대 55건 / 중립 20건</text>
  <rect x="60" y="350" width="170" height="28" fill="#27ae60" rx="3"/>
  <rect x="230" y="350" width="374" height="28" fill="#e74c3c" rx="3"/>
  <rect x="604" y="350" width="136" height="28" fill="#95a5a6" rx="3"/>
  <text x="60" y="392" text-anchor="start" font-size="11" fill="#27ae60">긍정 25%</text>
  <text x="400" y="392" text-anchor="middle" font-size="11" fill="#e74c3c">부정 55%</text>
  <text x="740" y="392" text-anchor="end" font-size="11" fill="#7f8c8d">중립 20%</text>
  <text x="60" y="408" font-size="11" fill="#555">💬 "법왜곡죄 개념이 너무 추상적이다, 남용될 가능성이 크다"</text>

  <text x="400" y="426" text-anchor="middle" font-size="10" fill="#bdc3c7">* 수치는 집계된 공감/반응 신호 기반 추산 | paperWanderer</text>
</svg>