<svg xmlns="http://www.w3.org/2000/svg" width="800" height="440" viewBox="0 0 800 440"
     font-family="'Apple SD Gothic Neo', 'Malgun Gothic', Arial, sans-serif">
  <rect width="800" height="440" fill="#f8f9fa" rx="12"/>
  <text x="400" y="36" text-anchor="middle" font-size="17" font-weight="bold" fill="#2c3e50">전세사기 방지 앱 — 커뮤니티 반응</text>
  <text x="400" y="54" text-anchor="middle" font-size="11" fill="#7f8c8d">네이버 뉴스 댓글 · 부동산 커뮤니티 · 더쿠 | 2026-03-16 20:00 KST</text>
  <rect x="490" y="66" width="12" height="12" fill="#27ae60" rx="2"/>
  <text x="506" y="77" font-size="11" fill="#2c3e50">긍정</text>
  <rect x="548" y="66" width="12" height="12" fill="#e74c3c" rx="2"/>
  <text x="564" y="77" font-size="11" fill="#2c3e50">부정</text>
  <rect x="606" y="66" width="12" height="12" fill="#95a5a6" rx="2"/>
  <text x="622" y="77" font-size="11" fill="#2c3e50">중립</text>

  <text x="60" y="100" font-size="13" font-weight="bold" fill="#2c3e50">네이버 뉴스 댓글 — 긍정 360건 / 부정 240건 / 중립 120건</text>
  <rect x="60" y="110" width="298" height="28" fill="#27ae60" rx="3"/>
  <rect x="358" y="110" width="202" height="28" fill="#e74c3c" rx="3"/>
  <rect x="560" y="110" width="180" height="28" fill="#95a5a6" rx="3"/>
  <text x="60" y="152" text-anchor="start" font-size="11" fill="#27ae60">긍정 44%</text>
  <text x="400" y="152" text-anchor="middle" font-size="11" fill="#e74c3c">부정 30%</text>
  <text x="740" y="152" text-anchor="end" font-size="11" fill="#7f8c8d">중립 26%</text>
  <text x="60" y="168" font-size="11" fill="#555">💬 "전입신고 전에 보증 여부 확인되는 앱 정말 필요했다 잘 만들었다"</text>

  <text x="60" y="220" font-size="13" font-weight="bold" fill="#2c3e50">부동산 커뮤니티 — 긍정 140건 / 부정 100건 / 중립 160건</text>
  <rect x="60" y="230" width="238" height="28" fill="#27ae60" rx="3"/>
  <rect x="298" y="230" width="170" height="28" fill="#e74c3c" rx="3"/>
  <rect x="468" y="230" width="272" height="28" fill="#95a5a6" rx="3"/>
  <text x="60" y="272" text-anchor="start" font-size="11" fill="#27ae60">긍정 35%</text>
  <text x="400" y="272" text-anchor="middle" font-size="11" fill="#e74c3c">부정 25%</text>
  <text x="740" y="272" text-anchor="end" font-size="11" fill="#7f8c8d">중립 40%</text>
  <text x="60" y="288" font-size="11" fill="#555">💬 "3만 5천 건 피해가 나고 나서야 앱 만드는 건 너무 늦은 거 아닌가"</text>

  <text x="60" y="340" font-size="13" font-weight="bold" fill="#2c3e50">더쿠 — 긍정 60건 / 부정 40건 / 중립 60건</text>
  <rect x="60" y="350" width="255" height="28" fill="#27ae60" rx="3"/>
  <rect x="315" y="350" width="170" height="28" fill="#e74c3c" rx="3"/>
  <rect x="485" y="350" width="255" height="28" fill="#95a5a6" rx="3"/>
  <text x="60" y="392" text-anchor="start" font-size="11" fill="#27ae60">긍정 38%</text>
  <text x="400" y="392" text-anchor="middle" font-size="11" fill="#e74c3c">부정 25%</text>
  <text x="740" y="392" text-anchor="end" font-size="11" fill="#7f8c8d">중립 37%</text>
  <text x="60" y="408" font-size="11" fill="#555">💬 "LH 매입임대로 계속 살 수 있게 된다니 피해자들한테 실질적 도움이 되길"</text>

  <text x="400" y="426" text-anchor="middle" font-size="10" fill="#bdc3c7">* 수치는 집계된 공감/반응 신호 기반 추산 | paperWanderer</text>
</svg>