<svg xmlns="http://www.w3.org/2000/svg" width="800" height="440" viewBox="0 0 800 440"
     font-family="'Apple SD Gothic Neo', 'Malgun Gothic', Arial, sans-serif">
  <rect width="800" height="440" fill="#f8f9fa" rx="12"/>
  <text x="400" y="36" text-anchor="middle" font-size="17" font-weight="bold" fill="#2c3e50">다음 실시간 트렌드 부활 — 커뮤니티 반응</text>
  <text x="400" y="54" text-anchor="middle" font-size="11" fill="#7f8c8d">네이버뉴스 · 나무위키 · 커뮤니티 | 2026-03-05 17:00 KST</text>
  <rect x="490" y="66" width="12" height="12" fill="#27ae60" rx="2"/>
  <text x="506" y="77" font-size="11" fill="#2c3e50">긍정</text>
  <rect x="548" y="66" width="12" height="12" fill="#e74c3c" rx="2"/>
  <text x="564" y="77" font-size="11" fill="#2c3e50">부정</text>
  <rect x="606" y="66" width="12" height="12" fill="#95a5a6" rx="2"/>
  <text x="622" y="77" font-size="11" fill="#2c3e50">중립</text>

  <text x="60" y="100" font-size="13" font-weight="bold" fill="#2c3e50">네이버 뉴스 댓글 — 찬반 팽팽</text>
  <rect x="60" y="110" width="286" height="28" fill="#27ae60" rx="3"/>
  <rect x="346" y="110" width="272" height="28" fill="#e74c3c" rx="3"/>
  <rect x="618" y="110" width="122" height="28" fill="#95a5a6" rx="3"/>
  <text x="60" y="152" text-anchor="start" font-size="11" fill="#27ae60">긍정 42%</text>
  <text x="400" y="152" text-anchor="middle" font-size="11" fill="#e74c3c">부정 40%</text>
  <text x="740" y="152" text-anchor="end" font-size="11" fill="#7f8c8d">중립 18%</text>
  <text x="60" y="168" font-size="11" fill="#555">💬 "실검 없어지고 나서 뭐가 유행하는지 알기 불편했음. 반갑다"</text>

  <text x="60" y="220" font-size="13" font-weight="bold" fill="#2c3e50">커뮤니티 종합 — 조작 우려 우세</text>
  <rect x="60" y="230" width="238" height="28" fill="#27ae60" rx="3"/>
  <rect x="298" y="230" width="306" height="28" fill="#e74c3c" rx="3"/>
  <rect x="604" y="230" width="136" height="28" fill="#95a5a6" rx="3"/>
  <text x="60" y="272" text-anchor="start" font-size="11" fill="#27ae60">긍정 35%</text>
  <text x="400" y="272" text-anchor="middle" font-size="11" fill="#e74c3c">부정 45%</text>
  <text x="740" y="272" text-anchor="end" font-size="11" fill="#7f8c8d">중립 20%</text>
  <text x="60" y="288" font-size="11" fill="#555">💬 "AI 안전장치가 얼마나 효과 있을지 의문"</text>

  <text x="60" y="340" font-size="13" font-weight="bold" fill="#2c3e50">전체 종합 — 팽팽한 찬반</text>
  <rect x="60" y="350" width="258" height="28" fill="#27ae60" rx="3"/>
  <rect x="318" y="350" width="286" height="28" fill="#e74c3c" rx="3"/>
  <rect x="604" y="350" width="136" height="28" fill="#95a5a6" rx="3"/>
  <text x="60" y="392" text-anchor="start" font-size="11" fill="#27ae60">긍정 38%</text>
  <text x="400" y="392" text-anchor="middle" font-size="11" fill="#e74c3c">부정 42%</text>
  <text x="740" y="392" text-anchor="end" font-size="11" fill="#7f8c8d">중립 20%</text>
  <text x="60" y="408" font-size="11" fill="#555">💬 "다음 점유율 올리기 꼼수라는 냉소도 상당수"</text>

  <text x="400" y="426" text-anchor="middle" font-size="10" fill="#bdc3c7">* 수치는 집계된 공감/반응 신호 기반 추산 | paperWanderer</text>
</svg>