<svg xmlns="http://www.w3.org/2000/svg" width="800" height="440" viewBox="0 0 800 440"
     font-family="'Apple SD Gothic Neo', 'Malgun Gothic', Arial, sans-serif">
  <rect width="800" height="440" fill="#f8f9fa" rx="12"/>
  <text x="400" y="36" text-anchor="middle" font-size="17" font-weight="bold" fill="#2c3e50">학교 스마트폰 사용 금지 시행 — 커뮤니티 반응</text>
  <text x="400" y="54" text-anchor="middle" font-size="11" fill="#7f8c8d">에펨코리아 · 디시인사이드 · 네이버 뉴스 | 2026-03-06 KST</text>
  <rect x="490" y="66" width="12" height="12" fill="#27ae60" rx="2"/>
  <text x="506" y="77" font-size="11" fill="#2c3e50">긍정</text>
  <rect x="548" y="66" width="12" height="12" fill="#e74c3c" rx="2"/>
  <text x="564" y="77" font-size="11" fill="#2c3e50">부정</text>
  <rect x="606" y="66" width="12" height="12" fill="#95a5a6" rx="2"/>
  <text x="622" y="77" font-size="11" fill="#2c3e50">중립</text>

  <text x="60" y="100" font-size="13" font-weight="bold" fill="#2c3e50">에펨코리아 — 긍정 78건 / 부정 34건 / 중립 51건</text>
  <rect x="60" y="110" width="325" height="28" fill="#27ae60" rx="3"/>
  <rect x="385" y="110" width="142" height="28" fill="#e74c3c" rx="3"/>
  <rect x="527" y="110" width="213" height="28" fill="#95a5a6" rx="3"/>
  <text x="60" y="152" text-anchor="start" font-size="11" fill="#27ae60">긍정 48%</text>
  <text x="400" y="152" text-anchor="middle" font-size="11" fill="#e74c3c">부정 21%</text>
  <text x="740" y="152" text-anchor="end" font-size="11" fill="#7f8c8d">중립 31%</text>
  <text x="60" y="168" font-size="11" fill="#555">💬 "진작에 했어야지. 수업 방해 진짜 심각했음"</text>

  <text x="60" y="220" font-size="13" font-weight="bold" fill="#2c3e50">디시인사이드 — 긍정 54건 / 부정 38건 / 중립 45건</text>
  <rect x="60" y="230" width="268" height="28" fill="#27ae60" rx="3"/>
  <rect x="328" y="230" width="188" height="28" fill="#e74c3c" rx="3"/>
  <rect x="516" y="230" width="224" height="28" fill="#95a5a6" rx="3"/>
  <text x="60" y="272" text-anchor="start" font-size="11" fill="#27ae60">긍정 39%</text>
  <text x="400" y="272" text-anchor="middle" font-size="11" fill="#e74c3c">부정 28%</text>
  <text x="740" y="272" text-anchor="end" font-size="11" fill="#7f8c8d">중립 33%</text>
  <text x="60" y="288" font-size="11" fill="#555">💬 "학생 의견도 안 듣고 법 만든 건 좀 아님"</text>

  <text x="60" y="340" font-size="13" font-weight="bold" fill="#2c3e50">네이버 뉴스 — 긍정 121건 / 부정 48건 / 중립 67건</text>
  <rect x="60" y="350" width="349" height="28" fill="#27ae60" rx="3"/>
  <rect x="409" y="350" width="138" height="28" fill="#e74c3c" rx="3"/>
  <rect x="547" y="350" width="193" height="28" fill="#95a5a6" rx="3"/>
  <text x="60" y="392" text-anchor="start" font-size="11" fill="#27ae60">긍정 51%</text>
  <text x="400" y="392" text-anchor="middle" font-size="11" fill="#e74c3c">부정 20%</text>
  <text x="740" y="392" text-anchor="end" font-size="11" fill="#7f8c8d">중립 29%</text>
  <text x="60" y="408" font-size="11" fill="#555">💬 "프랑스·영국도 이미 했는데 한국이 너무 늦었음"</text>

  <text x="400" y="426" text-anchor="middle" font-size="10" fill="#bdc3c7">* 수치는 집계된 공감/반응 신호 기반 추산 | paperWanderer</text>
</svg>