<svg xmlns="http://www.w3.org/2000/svg" width="800" height="440" viewBox="0 0 800 440"
     font-family="'Apple SD Gothic Neo', 'Malgun Gothic', Arial, sans-serif">
  <rect width="800" height="440" fill="#f8f9fa" rx="12"/>
  <text x="400" y="36" text-anchor="middle" font-size="17" font-weight="bold" fill="#2c3e50">서울 공시가 18% 급등 — 커뮤니티 반응</text>
  <text x="400" y="54" text-anchor="middle" font-size="11" fill="#7f8c8d">에펨코리아 · 네이버뉴스 · 더팩트 | 2026-03-22 KST</text>
  <rect x="490" y="66" width="12" height="12" fill="#27ae60" rx="2"/>
  <text x="506" y="77" font-size="11" fill="#2c3e50">긍정</text>
  <rect x="548" y="66" width="12" height="12" fill="#e74c3c" rx="2"/>
  <text x="564" y="77" font-size="11" fill="#2c3e50">부정</text>
  <rect x="606" y="66" width="12" height="12" fill="#95a5a6" rx="2"/>
  <text x="622" y="77" font-size="11" fill="#2c3e50">중립</text>

  <text x="60" y="100" font-size="13" font-weight="bold" fill="#2c3e50">에펨코리아 — 긍정 30건 / 부정 180건 / 중립 90건</text>
  <rect x="60" y="110" width="68" height="28" fill="#27ae60" rx="3"/>
  <rect x="128" y="110" width="408" height="28" fill="#e74c3c" rx="3"/>
  <rect x="536" y="110" width="204" height="28" fill="#95a5a6" rx="3"/>
  <text x="60" y="152" text-anchor="start" font-size="11" fill="#27ae60">긍정 10%</text>
  <text x="400" y="152" text-anchor="middle" font-size="11" fill="#e74c3c">부정 60%</text>
  <text x="740" y="152" text-anchor="end" font-size="11" fill="#7f8c8d">중립 30%</text>
  <text x="60" y="168" font-size="11" fill="#555">💬 "세금 오른 거 월세로 다 전가하면 결국 세입자가 다 내는 구조"</text>

  <text x="60" y="220" font-size="13" font-weight="bold" fill="#2c3e50">네이버뉴스 — 긍정 20건 / 부정 190건 / 중립 80건</text>
  <rect x="60" y="230" width="46" height="28" fill="#27ae60" rx="3"/>
  <rect x="106" y="230" width="436" height="28" fill="#e74c3c" rx="3"/>
  <rect x="542" y="230" width="198" height="28" fill="#95a5a6" rx="3"/>
  <text x="60" y="272" text-anchor="start" font-size="11" fill="#27ae60">긍정 7%</text>
  <text x="400" y="272" text-anchor="middle" font-size="11" fill="#e74c3c">부정 64%</text>
  <text x="740" y="272" text-anchor="end" font-size="11" fill="#7f8c8d">중립 29%</text>
  <text x="60" y="288" font-size="11" fill="#555">💬 "원베일리 보유세 2855만원, 1천만원 더 내야 한다니"</text>

  <text x="60" y="340" font-size="13" font-weight="bold" fill="#2c3e50">커뮤니티 종합 — 긍정 15건 / 부정 140건 / 중립 70건</text>
  <rect x="60" y="350" width="45" height="28" fill="#27ae60" rx="3"/>
  <rect x="105" y="350" width="425" height="28" fill="#e74c3c" rx="3"/>
  <rect x="530" y="350" width="210" height="28" fill="#95a5a6" rx="3"/>
  <text x="60" y="392" text-anchor="start" font-size="11" fill="#27ae60">긍정 7%</text>
  <text x="400" y="392" text-anchor="middle" font-size="11" fill="#e74c3c">부정 62%</text>
  <text x="740" y="392" text-anchor="end" font-size="11" fill="#7f8c8d">중립 31%</text>
  <text x="60" y="408" font-size="11" fill="#555">💬 "강남 집값 오른 거 세금으로 잡겠다는 거, 효과는 의문"</text>

  <text x="400" y="426" text-anchor="middle" font-size="10" fill="#bdc3c7">* 수치는 집계된 공감/반응 신호 기반 추산 | paperWanderer</text>
</svg>