<svg xmlns="http://www.w3.org/2000/svg" width="800" height="440" viewBox="0 0 800 440"
     font-family="'Apple SD Gothic Neo', 'Malgun Gothic', Arial, sans-serif">
  <rect width="800" height="440" fill="#f8f9fa" rx="12"/>
  <text x="400" y="36" text-anchor="middle" font-size="17" font-weight="bold" fill="#2c3e50">봄 인플루엔자 경보 — 커뮤니티 반응</text>
  <text x="400" y="54" text-anchor="middle" font-size="11" fill="#7f8c8d">네이버 뉴스 댓글 · 육아 커뮤니티 · 건강 커뮤니티 | 2026-03-16 21:00 KST</text>
  <rect x="490" y="66" width="12" height="12" fill="#27ae60" rx="2"/>
  <text x="506" y="77" font-size="11" fill="#2c3e50">긍정</text>
  <rect x="548" y="66" width="12" height="12" fill="#e74c3c" rx="2"/>
  <text x="564" y="77" font-size="11" fill="#2c3e50">부정</text>
  <rect x="606" y="66" width="12" height="12" fill="#95a5a6" rx="2"/>
  <text x="622" y="77" font-size="11" fill="#2c3e50">중립</text>

  <text x="60" y="100" font-size="13" font-weight="bold" fill="#2c3e50">네이버 뉴스 댓글 — 긍정 180건 / 부정 340건 / 중립 160건</text>
  <rect x="60" y="110" width="180" height="28" fill="#27ae60" rx="3"/>
  <rect x="240" y="110" width="340" height="28" fill="#e74c3c" rx="3"/>
  <rect x="580" y="110" width="160" height="28" fill="#95a5a6" rx="3"/>
  <text x="60" y="152" text-anchor="start" font-size="11" fill="#27ae60">긍정 26%</text>
  <text x="400" y="152" text-anchor="middle" font-size="11" fill="#e74c3c">부정 50%</text>
  <text x="740" y="152" text-anchor="end" font-size="11" fill="#7f8c8d">중립 24%</text>
  <text x="60" y="168" font-size="11" fill="#555">💬 "아이가 독감이랑 코로나를 동시에 걸려서 학교 못 보내고 있다"</text>

  <text x="60" y="220" font-size="13" font-weight="bold" fill="#2c3e50">육아 커뮤니티 — 긍정 60건 / 부정 140건 / 중립 100건</text>
  <rect x="60" y="230" width="136" height="28" fill="#27ae60" rx="3"/>
  <rect x="196" y="230" width="317" height="28" fill="#e74c3c" rx="3"/>
  <rect x="513" y="230" width="227" height="28" fill="#95a5a6" rx="3"/>
  <text x="60" y="272" text-anchor="start" font-size="11" fill="#27ae60">긍정 20%</text>
  <text x="400" y="272" text-anchor="middle" font-size="11" fill="#e74c3c">부정 47%</text>
  <text x="740" y="272" text-anchor="end" font-size="11" fill="#7f8c8d">중립 33%</text>
  <text x="60" y="288" font-size="11" fill="#555">💬 "환절기마다 이 고생이다 면역이 너무 약해진 것 같다"</text>

  <text x="60" y="340" font-size="13" font-weight="bold" fill="#2c3e50">건강 커뮤니티 — 긍정 40건 / 부정 60건 / 중립 120건</text>
  <rect x="60" y="350" width="124" height="28" fill="#27ae60" rx="3"/>
  <rect x="184" y="350" width="186" height="28" fill="#e74c3c" rx="3"/>
  <rect x="370" y="350" width="370" height="28" fill="#95a5a6" rx="3"/>
  <text x="60" y="392" text-anchor="start" font-size="11" fill="#27ae60">긍정 18%</text>
  <text x="400" y="392" text-anchor="middle" font-size="11" fill="#e74c3c">부정 27%</text>
  <text x="740" y="392" text-anchor="end" font-size="11" fill="#7f8c8d">중립 55%</text>
  <text x="60" y="408" font-size="11" fill="#555">💬 "마스크 쓰고 손씻기만 철저히 해도 많이 예방된다"</text>

  <text x="400" y="426" text-anchor="middle" font-size="10" fill="#bdc3c7">* 수치는 집계된 공감/반응 신호 기반 추산 | paperWanderer</text>
</svg>