<svg xmlns="http://www.w3.org/2000/svg" width="800" height="440" viewBox="0 0 800 440"
     font-family="'Apple SD Gothic Neo', 'Malgun Gothic', Arial, sans-serif">
  <rect width="800" height="440" fill="#f8f9fa" rx="12"/>
  <text x="400" y="36" text-anchor="middle" font-size="17" font-weight="bold" fill="#2c3e50">봄 연휴 여행 — 커뮤니티 반응</text>
  <text x="400" y="54" text-anchor="middle" font-size="11" fill="#7f8c8d">여행커뮤니티 · SNS · 포털댓글 | 2026-03-02 KST</text>
  <rect x="490" y="66" width="12" height="12" fill="#27ae60" rx="2"/>
  <text x="506" y="77" font-size="11" fill="#2c3e50">긍정</text>
  <rect x="548" y="66" width="12" height="12" fill="#e74c3c" rx="2"/>
  <text x="564" y="77" font-size="11" fill="#2c3e50">부정</text>
  <rect x="606" y="66" width="12" height="12" fill="#95a5a6" rx="2"/>
  <text x="622" y="77" font-size="11" fill="#2c3e50">중립</text>

  <text x="60" y="100" font-size="13" font-weight="bold" fill="#2c3e50">여행 커뮤니티 — 긍정 78건 / 부정 10건 / 중립 12건</text>
  <rect x="60" y="110" width="530" height="28" fill="#27ae60" rx="3"/>
  <rect x="590" y="110" width="68" height="28" fill="#e74c3c" rx="3"/>
  <rect x="658" y="110" width="82" height="28" fill="#95a5a6" rx="3"/>
  <text x="60" y="152" text-anchor="start" font-size="11" fill="#27ae60">긍정 78%</text>
  <text x="400" y="152" text-anchor="middle" font-size="11" fill="#e74c3c">부정 10%</text>
  <text x="740" y="152" text-anchor="end" font-size="11" fill="#7f8c8d">중립 12%</text>
  <text x="60" y="168" font-size="11" fill="#555">💬 "제주도 사흘이었는데 봄 오기 전 마지막 여행으로 딱이었다"</text>

  <text x="60" y="220" font-size="13" font-weight="bold" fill="#2c3e50">SNS 반응 — 긍정 82건 / 부정 8건 / 중립 10건</text>
  <rect x="60" y="230" width="558" height="28" fill="#27ae60" rx="3"/>
  <rect x="618" y="230" width="54" height="28" fill="#e74c3c" rx="3"/>
  <rect x="672" y="230" width="68" height="28" fill="#95a5a6" rx="3"/>
  <text x="60" y="272" text-anchor="start" font-size="11" fill="#27ae60">긍정 82%</text>
  <text x="400" y="272" text-anchor="middle" font-size="11" fill="#e74c3c">부정 8%</text>
  <text x="740" y="272" text-anchor="end" font-size="11" fill="#7f8c8d">중립 10%</text>
  <text x="60" y="288" font-size="11" fill="#555">💬 "일본 오사카 벚꽃 시즌 전에 다녀왔는데 사람이 적어서 좋았다"</text>

  <text x="60" y="340" font-size="13" font-weight="bold" fill="#2c3e50">포털 뉴스 댓글 — 긍정 62건 / 부정 25건 / 중립 13건</text>
  <rect x="60" y="350" width="422" height="28" fill="#27ae60" rx="3"/>
  <rect x="482" y="350" width="170" height="28" fill="#e74c3c" rx="3"/>
  <rect x="652" y="350" width="88" height="28" fill="#95a5a6" rx="3"/>
  <text x="60" y="392" text-anchor="start" font-size="11" fill="#27ae60">긍정 62%</text>
  <text x="400" y="392" text-anchor="middle" font-size="11" fill="#e74c3c">부정 25%</text>
  <text x="740" y="392" text-anchor="end" font-size="11" fill="#7f8c8d">중립 13%</text>
  <text x="60" y="408" font-size="11" fill="#555">💬 "귀경길 막혀서 4시간 걸렸다, 연휴 끝날 때가 제일 힘들다"</text>

  <text x="400" y="426" text-anchor="middle" font-size="10" fill="#bdc3c7">* 수치는 집계된 공감/반응 신호 기반 추산 | paperWanderer</text>
</svg>