<svg xmlns="http://www.w3.org/2000/svg" width="800" height="322" viewBox="0 0 800 322"
     font-family="'Apple SD Gothic Neo', 'Malgun Gothic', Arial, sans-serif">
  <rect width="800" height="322" fill="#f8f9fa" rx="12"/>
  <text x="400" y="36" text-anchor="middle" font-size="19" font-weight="bold" fill="#2c3e50">GS칼텍스 챔프전 2연승 — 커뮤니티 반응</text>
  <text x="400" y="54" text-anchor="middle" font-size="13" fill="#7f8c8d">루리웹 | 2026-04-04 09:33 KST</text>
  <!-- 범례 -->
  <rect x="490" y="66" width="12" height="12" fill="#2ecc71" rx="2"/>
  <text x="506" y="77" font-size="13" fill="#2c3e50">긍정</text>
  <rect x="548" y="66" width="12" height="12" fill="#e74c3b" rx="2"/>
  <text x="564" y="77" font-size="13" fill="#2c3e50">부정</text>
  <rect x="606" y="66" width="12" height="12" fill="#95a5a7" rx="2"/>
  <text x="622" y="77" font-size="13" fill="#2c3e50">중립</text>
  <!-- Row 1: 챔프전 2연승 -->
  <text x="60" y="100" font-size="15" font-weight="bold" fill="#2c3e50">루리웹 스포츠 — 긍정 27건 / 부정 58건 / 중립 50건</text>
  <rect x="60" y="110" width="136" height="28" fill="#27ae60" rx="3"/>
  <rect x="196" y="110" width="292" height="28" fill="#e74c3c" rx="3"/>
  <rect x="488" y="110" width="252" height="28" fill="#95a5a6" rx="3"/>
  <text x="60" y="152" text-anchor="start" font-size="13" fill="#27ae60">긍정 20%</text>
  <text x="400" y="152" text-anchor="middle" font-size="13" fill="#e74c3c">부정 43%</text>
  <text x="740" y="152" text-anchor="end" font-size="13" fill="#7f8c8d">중립 37%</text>
  <text x="60" y="168" font-size="13" fill="#555">💬 "도공 감독 건으로 분위기도 뒤숭숭할 텐데 과연 불 붙은 기름집을 잡을 수 있을까.."</text>
  <!-- Row 2: 김연경 구단주 반응 -->
  <text x="60" y="220" font-size="15" font-weight="bold" fill="#2c3e50">루리웹 (김연경 LOVB 구단주) — 긍정 27건 / 부정 0건 / 중립 5건</text>
  <rect x="60" y="230" width="573" height="28" fill="#27ae60" rx="3"/>
  <rect x="633" y="230" width="4" height="28" fill="#e74c3c" rx="3"/>
  <rect x="637" y="230" width="103" height="28" fill="#95a5a6" rx="3"/>
  <text x="60" y="272" text-anchor="start" font-size="13" fill="#27ae60">긍정 84%</text>
  <text x="400" y="272" text-anchor="middle" font-size="13" fill="#e74c3c">부정 0%</text>
  <text x="740" y="272" text-anchor="end" font-size="13" fill="#7f8c8d">중립 16%</text>
  <text x="60" y="288" font-size="13" fill="#555">💬 "한국에 있기에는 그릇이 너무 커." (공감 16)</text>
  <text x="400" y="306" text-anchor="middle" font-size="12" fill="#bdc3c7">* 수치는 집계된 공감/반응 신호 기반 추산 | paperWanderer</text>
</svg>
