<svg xmlns="http://www.w3.org/2000/svg" width="800" height="440" viewBox="0 0 800 440"
     font-family="'Apple SD Gothic Neo', 'Malgun Gothic', Arial, sans-serif">
  <rect width="800" height="440" fill="#f8f9fa" rx="12"/>
  <text x="400" y="36" text-anchor="middle" font-size="17" font-weight="bold" fill="#2c3e50">코스피 -6.49% 폭락 — 커뮤니티 반응</text>
  <text x="400" y="54" text-anchor="middle" font-size="11" fill="#7f8c8d">에펨코리아 · 디시인사이드 · 네이버뉴스댓글 | 2026-03-23 KST</text>
  <rect x="490" y="66" width="12" height="12" fill="#27ae60" rx="2"/>
  <text x="506" y="77" font-size="11" fill="#2c3e50">긍정</text>
  <rect x="548" y="66" width="12" height="12" fill="#e74c3c" rx="2"/>
  <text x="564" y="77" font-size="11" fill="#2c3e50">부정</text>
  <rect x="606" y="66" width="12" height="12" fill="#95a5a6" rx="2"/>
  <text x="622" y="77" font-size="11" fill="#2c3e50">중립</text>

  <text x="60" y="100" font-size="13" font-weight="bold" fill="#2c3e50">에펨코리아 — 긍정 20건 / 부정 65건 / 중립 15건</text>
  <rect x="60" y="110" width="136" height="28" fill="#27ae60" rx="3"/>
  <rect x="196" y="110" width="442" height="28" fill="#e74c3c" rx="3"/>
  <rect x="638" y="110" width="102" height="28" fill="#95a5a6" rx="3"/>
  <text x="60" y="152" text-anchor="start" font-size="11" fill="#27ae60">긍정 20%</text>
  <text x="400" y="152" text-anchor="middle" font-size="11" fill="#e74c3c">부정 65%</text>
  <text x="740" y="152" text-anchor="end" font-size="11" fill="#7f8c8d">중립 15%</text>
  <text x="60" y="168" font-size="11" fill="#555">💬 "6%가 넘게 빠졌는데 개인만 7조 순매수... 외국인 셀코리아 무서움"</text>

  <text x="60" y="220" font-size="13" font-weight="bold" fill="#2c3e50">디시인사이드 — 긍정 18건 / 부정 67건 / 중립 15건</text>
  <rect x="60" y="230" width="122" height="28" fill="#27ae60" rx="3"/>
  <rect x="182" y="230" width="456" height="28" fill="#e74c3c" rx="3"/>
  <rect x="638" y="230" width="102" height="28" fill="#95a5a6" rx="3"/>
  <text x="60" y="272" text-anchor="start" font-size="11" fill="#27ae60">긍정 18%</text>
  <text x="400" y="272" text-anchor="middle" font-size="11" fill="#e74c3c">부정 67%</text>
  <text x="740" y="272" text-anchor="end" font-size="11" fill="#7f8c8d">중립 15%</text>
  <text x="60" y="288" font-size="11" fill="#555">💬 "사이드카 올해만 6번... 이게 정상적인 시장이냐"</text>

  <text x="60" y="340" font-size="13" font-weight="bold" fill="#2c3e50">네이버뉴스댓글 — 긍정 22건 / 부정 63건 / 중립 15건</text>
  <rect x="60" y="350" width="150" height="28" fill="#27ae60" rx="3"/>
  <rect x="210" y="350" width="428" height="28" fill="#e74c3c" rx="3"/>
  <rect x="638" y="350" width="102" height="28" fill="#95a5a6" rx="3"/>
  <text x="60" y="392" text-anchor="start" font-size="11" fill="#27ae60">긍정 22%</text>
  <text x="400" y="392" text-anchor="middle" font-size="11" fill="#e74c3c">부정 63%</text>
  <text x="740" y="392" text-anchor="end" font-size="11" fill="#7f8c8d">중립 15%</text>
  <text x="60" y="408" font-size="11" fill="#555">💬 "중동 전쟁 끝나야 코스피 회복 가능할 것... 언제 끝나냐"</text>

  <text x="400" y="426" text-anchor="middle" font-size="10" fill="#bdc3c7">* 수치는 집계된 공감/반응 신호 기반 추산 | paperWanderer</text>
</svg>