<svg xmlns="http://www.w3.org/2000/svg" width="800" height="440" viewBox="0 0 800 440"
     font-family="'Apple SD Gothic Neo', 'Malgun Gothic', Arial, sans-serif">
  <rect width="800" height="440" fill="#f8f9fa" rx="12"/>
  <text x="400" y="36" text-anchor="middle" font-size="17" font-weight="bold" fill="#2c3e50">AI 기본법 시행 — 커뮤니티 반응</text>
  <text x="400" y="54" text-anchor="middle" font-size="11" fill="#7f8c8d">IT커뮤니티 · 스타트업 · 포털댓글 | 2026-03-02 KST</text>
  <rect x="490" y="66" width="12" height="12" fill="#27ae60" rx="2"/>
  <text x="506" y="77" font-size="11" fill="#2c3e50">긍정</text>
  <rect x="548" y="66" width="12" height="12" fill="#e74c3c" rx="2"/>
  <text x="564" y="77" font-size="11" fill="#2c3e50">부정</text>
  <rect x="606" y="66" width="12" height="12" fill="#95a5a6" rx="2"/>
  <text x="622" y="77" font-size="11" fill="#2c3e50">중립</text>

  <text x="60" y="100" font-size="13" font-weight="bold" fill="#2c3e50">IT 커뮤니티 — 긍정 48건 / 부정 38건 / 중립 14건</text>
  <rect x="60" y="110" width="326" height="28" fill="#27ae60" rx="3"/>
  <rect x="386" y="110" width="258" height="28" fill="#e74c3c" rx="3"/>
  <rect x="644" y="110" width="96" height="28" fill="#95a5a6" rx="3"/>
  <text x="60" y="152" text-anchor="start" font-size="11" fill="#27ae60">긍정 48%</text>
  <text x="400" y="152" text-anchor="middle" font-size="11" fill="#e74c3c">부정 38%</text>
  <text x="740" y="152" text-anchor="end" font-size="11" fill="#7f8c8d">중립 14%</text>
  <text x="60" y="168" font-size="11" fill="#555">💬 "AI 규제 없이 방치하면 더 큰 문제가 생긴다, 법 자체는 필요하다"</text>

  <text x="60" y="220" font-size="13" font-weight="bold" fill="#2c3e50">스타트업 반응 — 긍정 30건 / 부정 58건 / 중립 12건</text>
  <rect x="60" y="230" width="204" height="28" fill="#27ae60" rx="3"/>
  <rect x="264" y="230" width="394" height="28" fill="#e74c3c" rx="3"/>
  <rect x="658" y="230" width="82" height="28" fill="#95a5a6" rx="3"/>
  <text x="60" y="272" text-anchor="start" font-size="11" fill="#27ae60">긍정 30%</text>
  <text x="400" y="272" text-anchor="middle" font-size="11" fill="#e74c3c">부정 58%</text>
  <text x="740" y="272" text-anchor="end" font-size="11" fill="#7f8c8d">중립 12%</text>
  <text x="60" y="288" font-size="11" fill="#555">💬 "스타트업 입장에서는 규제 준수 비용이 너무 부담이다"</text>

  <text x="60" y="340" font-size="13" font-weight="bold" fill="#2c3e50">포털 뉴스 댓글 — 긍정 45건 / 부정 40건 / 중립 15건</text>
  <rect x="60" y="350" width="306" height="28" fill="#27ae60" rx="3"/>
  <rect x="366" y="350" width="272" height="28" fill="#e74c3c" rx="3"/>
  <rect x="638" y="350" width="102" height="28" fill="#95a5a6" rx="3"/>
  <text x="60" y="392" text-anchor="start" font-size="11" fill="#27ae60">긍정 45%</text>
  <text x="400" y="392" text-anchor="middle" font-size="11" fill="#e74c3c">부정 40%</text>
  <text x="740" y="392" text-anchor="end" font-size="11" fill="#7f8c8d">중립 15%</text>
  <text x="60" y="408" font-size="11" fill="#555">💬 "EU AI Act 베낀 수준이라는 느낌, 한국 실정에 맞는지 모르겠다"</text>

  <text x="400" y="426" text-anchor="middle" font-size="10" fill="#bdc3c7">* 수치는 집계된 공감/반응 신호 기반 추산 | paperWanderer</text>
</svg>