<svg xmlns="http://www.w3.org/2000/svg" width="800" height="440" viewBox="0 0 800 440"
     font-family="'Apple SD Gothic Neo', 'Malgun Gothic', Arial, sans-serif">
  <rect width="800" height="440" fill="#f8f9fa" rx="12"/>
  <text x="400" y="36" text-anchor="middle" font-size="17" font-weight="bold" fill="#2c3e50">엔비디아 GTC 베라루빈 — 커뮤니티 반응</text>
  <text x="400" y="54" text-anchor="middle" font-size="11" fill="#7f8c8d">클리앙 · 에펨코리아 · DC인사이드 | 2026-03-24 20:00 KST</text>
  <rect x="490" y="66" width="12" height="12" fill="#27ae60" rx="2"/>
  <text x="506" y="77" font-size="11" fill="#2c3e50">긍정</text>
  <rect x="548" y="66" width="12" height="12" fill="#e74c3c" rx="2"/>
  <text x="564" y="77" font-size="11" fill="#2c3e50">부정</text>
  <rect x="606" y="66" width="12" height="12" fill="#95a5a6" rx="2"/>
  <text x="622" y="77" font-size="11" fill="#2c3e50">중립</text>

  <text x="60" y="100" font-size="13" font-weight="bold" fill="#2c3e50">클리앙 — 긍정 650건 / 부정 50건 / 중립 100건</text>
  <rect x="60" y="110" width="552" height="28" fill="#27ae60" rx="3"/>
  <rect x="612" y="110" width="42" height="28" fill="#e74c3c" rx="3"/>
  <rect x="654" y="110" width="86" height="28" fill="#95a5a6" rx="3"/>
  <text x="60" y="152" text-anchor="start" font-size="11" fill="#27ae60">긍정 81%</text>
  <text x="400" y="152" text-anchor="middle" font-size="11" fill="#e74c3c">부정 6%</text>
  <text x="740" y="152" text-anchor="end" font-size="11" fill="#7f8c8d">중립 13%</text>
  <text x="60" y="168" font-size="11" fill="#555">💬 "젠슨이 SK 사인 남긴 거 보고 소름 돋았다, 국뽕 주의"</text>

  <text x="60" y="220" font-size="13" font-weight="bold" fill="#2c3e50">에펨코리아 — 긍정 280건 / 부정 20건 / 중립 60건</text>
  <rect x="60" y="230" width="529" height="28" fill="#27ae60" rx="3"/>
  <rect x="589" y="230" width="38" height="28" fill="#e74c3c" rx="3"/>
  <rect x="627" y="230" width="113" height="28" fill="#95a5a6" rx="3"/>
  <text x="60" y="272" text-anchor="start" font-size="11" fill="#27ae60">긍정 78%</text>
  <text x="400" y="272" text-anchor="middle" font-size="11" fill="#e74c3c">부정 6%</text>
  <text x="740" y="272" text-anchor="end" font-size="11" fill="#7f8c8d">중립 16%</text>
  <text x="60" y="288" font-size="11" fill="#555">💬 "HBM4 70% 공급, SK가 엔비디아 없이는 못 살게 만들었다"</text>

  <text x="60" y="340" font-size="13" font-weight="bold" fill="#2c3e50">DC인사이드 — 긍정 200건 / 부정 10건 / 중립 60건</text>
  <rect x="60" y="350" width="504" height="28" fill="#27ae60" rx="3"/>
  <rect x="564" y="350" width="25" height="28" fill="#e74c3c" rx="3"/>
  <rect x="589" y="350" width="151" height="28" fill="#95a5a6" rx="3"/>
  <text x="60" y="392" text-anchor="start" font-size="11" fill="#27ae60">긍정 74%</text>
  <text x="400" y="392" text-anchor="middle" font-size="11" fill="#e74c3c">부정 4%</text>
  <text x="740" y="392" text-anchor="end" font-size="11" fill="#7f8c8d">중립 22%</text>
  <text x="60" y="408" font-size="11" fill="#555">💬 "삼성 30%도 확보했지만 SK에 많이 밀렸네, 따라잡아야"</text>

  <text x="400" y="426" text-anchor="middle" font-size="10" fill="#bdc3c7">* 수치는 집계된 공감/반응 신호 기반 추산 | paperWanderer</text>
</svg>