<svg xmlns="http://www.w3.org/2000/svg" width="800" height="322" viewBox="0 0 800 322"
     font-family="'Apple SD Gothic Neo', 'Malgun Gothic', Arial, sans-serif">
  <rect width="800" height="322" fill="#f8f9fa" rx="12"/>
  <text x="400" y="36" text-anchor="middle" font-size="17" font-weight="bold" fill="#2c3e50">삼성전자 AI 반도체 110조 투자 — 커뮤니티 반응</text>
  <text x="400" y="54" text-anchor="middle" font-size="11" fill="#7f8c8d">네이트 뉴스 · 커뮤니티 | 2026-03-19 19:00 KST</text>
  <rect x="490" y="66" width="12" height="12" fill="#27ae60" rx="2"/>
  <text x="506" y="77" font-size="11" fill="#2c3e50">긍정</text>
  <rect x="548" y="66" width="12" height="12" fill="#e74c3c" rx="2"/>
  <text x="564" y="77" font-size="11" fill="#2c3e50">부정</text>
  <rect x="606" y="66" width="12" height="12" fill="#95a5a6" rx="2"/>
  <text x="622" y="77" font-size="11" fill="#2c3e50">중립</text>

  <text x="60" y="100" font-size="13" font-weight="bold" fill="#2c3e50">네이트 뉴스 — 긍정 1,800건 / 부정 180건 / 중립 380건</text>
  <rect x="60" y="110" width="519" height="28" fill="#27ae60" rx="3"/>
  <rect x="579" y="110" width="52" height="28" fill="#e74c3c" rx="3"/>
  <rect x="631" y="110" width="109" height="28" fill="#95a5a6" rx="3"/>
  <text x="60" y="152" text-anchor="start" font-size="11" fill="#27ae60">긍정 76%</text>
  <text x="400" y="152" text-anchor="middle" font-size="11" fill="#e74c3c">부정 8%</text>
  <text x="740" y="152" text-anchor="end" font-size="11" fill="#7f8c8d">중립 16%</text>
  <text x="60" y="168" font-size="11" fill="#555">💬 "HBM에서 하이닉스한테 밀렸는데 이 투자가 반전 계기가 됐으면" (공감 734)</text>

  <text x="60" y="220" font-size="13" font-weight="bold" fill="#2c3e50">커뮤니티 — 긍정 300건 / 부정 30건 / 중립 100건</text>
  <rect x="60" y="230" width="474" height="28" fill="#27ae60" rx="3"/>
  <rect x="534" y="230" width="47" height="28" fill="#e74c3c" rx="3"/>
  <rect x="581" y="230" width="159" height="28" fill="#95a5a6" rx="3"/>
  <text x="60" y="272" text-anchor="start" font-size="11" fill="#27ae60">긍정 70%</text>
  <text x="400" y="272" text-anchor="middle" font-size="11" fill="#e74c3c">부정 7%</text>
  <text x="740" y="272" text-anchor="end" font-size="11" fill="#7f8c8d">중립 23%</text>
  <text x="60" y="288" font-size="11" fill="#555">💬 "일단 규모는 역대급이니 성과 기대해본다. 주가도 좀 올랐으면" (공감 187)</text>

  <text x="400" y="308" text-anchor="middle" font-size="10" fill="#bdc3c7">* 수치는 집계된 공감/반응 신호 기반 추산 | paperWanderer</text>
</svg>