<svg xmlns="http://www.w3.org/2000/svg" width="800" height="440" viewBox="0 0 800 440"
     font-family="'Apple SD Gothic Neo', 'Malgun Gothic', Arial, sans-serif">
  <rect width="800" height="440" fill="#f8f9fa" rx="12"/>
  <text x="400" y="36" text-anchor="middle" font-size="17" font-weight="bold" fill="#2c3e50">빚투 32조 역대 최대 — 커뮤니티 반응</text>
  <text x="400" y="54" text-anchor="middle" font-size="11" fill="#7f8c8d">에펨코리아 · 디시인사이드 · 네이버 뉴스 | 2026-03-06 KST</text>
  <rect x="490" y="66" width="12" height="12" fill="#27ae60" rx="2"/>
  <text x="506" y="77" font-size="11" fill="#2c3e50">긍정</text>
  <rect x="548" y="66" width="12" height="12" fill="#e74c3c" rx="2"/>
  <text x="564" y="77" font-size="11" fill="#2c3e50">부정</text>
  <rect x="606" y="66" width="12" height="12" fill="#95a5a6" rx="2"/>
  <text x="622" y="77" font-size="11" fill="#2c3e50">중립</text>

  <text x="60" y="100" font-size="13" font-weight="bold" fill="#2c3e50">에펨코리아 — 긍정 29건 / 부정 98건 / 중립 57건</text>
  <rect x="60" y="110" width="107" height="28" fill="#27ae60" rx="3"/>
  <rect x="167" y="110" width="362" height="28" fill="#e74c3c" rx="3"/>
  <rect x="529" y="110" width="211" height="28" fill="#95a5a6" rx="3"/>
  <text x="60" y="152" text-anchor="start" font-size="11" fill="#27ae60">긍정 16%</text>
  <text x="400" y="152" text-anchor="middle" font-size="11" fill="#e74c3c">부정 53%</text>
  <text x="740" y="152" text-anchor="end" font-size="11" fill="#7f8c8d">중립 31%</text>
  <text x="60" y="168" font-size="11" fill="#555">💬 "빚내서 주식 사는 사람들 이번에 진짜 피 봤겠다"</text>

  <text x="60" y="220" font-size="13" font-weight="bold" fill="#2c3e50">디시인사이드 — 긍정 19건 / 부정 76건 / 중립 43건</text>
  <rect x="60" y="230" width="94" height="28" fill="#27ae60" rx="3"/>
  <rect x="154" y="230" width="375" height="28" fill="#e74c3c" rx="3"/>
  <rect x="529" y="230" width="211" height="28" fill="#95a5a6" rx="3"/>
  <text x="60" y="272" text-anchor="start" font-size="11" fill="#27ae60">긍정 14%</text>
  <text x="400" y="272" text-anchor="middle" font-size="11" fill="#e74c3c">부정 55%</text>
  <text x="740" y="272" text-anchor="end" font-size="11" fill="#7f8c8d">중립 31%</text>
  <text x="60" y="288" font-size="11" fill="#555">💬 "신용융자 32조면 언제 터지냐는 게 관건이었는데 터졌네"</text>

  <text x="60" y="340" font-size="13" font-weight="bold" fill="#2c3e50">네이버 뉴스 — 긍정 31건 / 부정 146건 / 중립 72건</text>
  <rect x="60" y="350" width="85" height="28" fill="#27ae60" rx="3"/>
  <rect x="145" y="350" width="399" height="28" fill="#e74c3c" rx="3"/>
  <rect x="544" y="350" width="196" height="28" fill="#95a5a6" rx="3"/>
  <text x="60" y="392" text-anchor="start" font-size="11" fill="#27ae60">긍정 12%</text>
  <text x="400" y="392" text-anchor="middle" font-size="11" fill="#e74c3c">부정 59%</text>
  <text x="740" y="392" text-anchor="end" font-size="11" fill="#7f8c8d">중립 29%</text>
  <text x="60" y="408" font-size="11" fill="#555">💬 "증권사들이 신용 중단하는 게 위기 신호인 줄 알았어야 했는데"</text>

  <text x="400" y="426" text-anchor="middle" font-size="10" fill="#bdc3c7">* 수치는 집계된 공감/반응 신호 기반 추산 | paperWanderer</text>
</svg>