<svg xmlns="http://www.w3.org/2000/svg" width="800" height="440" viewBox="0 0 800 440"
     font-family="'Apple SD Gothic Neo', 'Malgun Gothic', Arial, sans-serif">
  <rect width="800" height="440" fill="#f8f9fa" rx="12"/>
  <text x="400" y="36" text-anchor="middle" font-size="17" font-weight="bold" fill="#2c3e50">2026 벚꽃 개화 예보 — 커뮤니티 반응</text>
  <text x="400" y="54" text-anchor="middle" font-size="11" fill="#7f8c8d">여행 커뮤니티 · 네이버 뉴스 · 일반 커뮤니티 | 2026-03-15 KST</text>
  <rect x="490" y="66" width="12" height="12" fill="#27ae60" rx="2"/>
  <text x="506" y="77" font-size="11" fill="#2c3e50">긍정</text>
  <rect x="548" y="66" width="12" height="12" fill="#e74c3c" rx="2"/>
  <text x="564" y="77" font-size="11" fill="#2c3e50">부정</text>
  <rect x="606" y="66" width="12" height="12" fill="#95a5a6" rx="2"/>
  <text x="622" y="77" font-size="11" fill="#2c3e50">중립</text>

  <text x="60" y="100" font-size="13" font-weight="bold" fill="#2c3e50">여행 커뮤니티 — 긍정 65건 / 부정 15건 / 중립 20건</text>
  <rect x="60" y="110" width="442" height="28" fill="#27ae60" rx="3"/>
  <rect x="502" y="110" width="102" height="28" fill="#e74c3c" rx="3"/>
  <rect x="604" y="110" width="136" height="28" fill="#95a5a6" rx="3"/>
  <text x="60" y="152" text-anchor="start" font-size="11" fill="#27ae60">긍정 65%</text>
  <text x="400" y="152" text-anchor="middle" font-size="11" fill="#e74c3c">부정 15%</text>
  <text x="740" y="152" text-anchor="end" font-size="11" fill="#7f8c8d">중립 20%</text>
  <text x="60" y="168" font-size="11" fill="#555">💬 "여의도 벚꽃 축제 이미 숙소 예약 완료"</text>

  <text x="60" y="220" font-size="13" font-weight="bold" fill="#2c3e50">네이버 뉴스 — 긍정 60건 / 부정 15건 / 중립 25건</text>
  <rect x="60" y="230" width="408" height="28" fill="#27ae60" rx="3"/>
  <rect x="468" y="230" width="102" height="28" fill="#e74c3c" rx="3"/>
  <rect x="570" y="230" width="170" height="28" fill="#95a5a6" rx="3"/>
  <text x="60" y="272" text-anchor="start" font-size="11" fill="#27ae60">긍정 60%</text>
  <text x="400" y="272" text-anchor="middle" font-size="11" fill="#e74c3c">부정 15%</text>
  <text x="740" y="272" text-anchor="end" font-size="11" fill="#7f8c8d">중립 25%</text>
  <text x="60" y="288" font-size="11" fill="#555">💬 "진해 군항제 티켓 구하기 전쟁이네"</text>

  <text x="60" y="340" font-size="13" font-weight="bold" fill="#2c3e50">일반 커뮤니티 — 긍정 55건 / 부정 20건 / 중립 25건</text>
  <rect x="60" y="350" width="374" height="28" fill="#27ae60" rx="3"/>
  <rect x="434" y="350" width="136" height="28" fill="#e74c3c" rx="3"/>
  <rect x="570" y="350" width="170" height="28" fill="#95a5a6" rx="3"/>
  <text x="60" y="392" text-anchor="start" font-size="11" fill="#27ae60">긍정 55%</text>
  <text x="400" y="392" text-anchor="middle" font-size="11" fill="#e74c3c">부정 20%</text>
  <text x="740" y="392" text-anchor="end" font-size="11" fill="#7f8c8d">중립 25%</text>
  <text x="60" y="408" font-size="11" fill="#555">💬 "너무 일찍 피면 꽃구경할 시간도 없이 져버린다"</text>

  <text x="400" y="426" text-anchor="middle" font-size="10" fill="#bdc3c7">* 수치는 집계된 공감/반응 신호 기반 추산 | paperWanderer</text>
</svg>