<svg xmlns="http://www.w3.org/2000/svg" width="800" height="440" viewBox="0 0 800 440"
     font-family="'Apple SD Gothic Neo', 'Malgun Gothic', Arial, sans-serif">
  <rect width="800" height="440" fill="#f8f9fa" rx="12"/>
  <text x="400" y="36" text-anchor="middle" font-size="17" font-weight="bold" fill="#2c3e50">이재명 지지율 69% — 커뮤니티 반응</text>
  <text x="400" y="54" text-anchor="middle" font-size="11" fill="#7f8c8d">에펨코리아 · 더쿠 · 네이버뉴스댓글 | 2026-03-23 KST</text>
  <rect x="490" y="66" width="12" height="12" fill="#27ae60" rx="2"/>
  <text x="506" y="77" font-size="11" fill="#2c3e50">긍정</text>
  <rect x="548" y="66" width="12" height="12" fill="#e74c3c" rx="2"/>
  <text x="564" y="77" font-size="11" fill="#2c3e50">부정</text>
  <rect x="606" y="66" width="12" height="12" fill="#95a5a6" rx="2"/>
  <text x="622" y="77" font-size="11" fill="#2c3e50">중립</text>

  <text x="60" y="100" font-size="13" font-weight="bold" fill="#2c3e50">에펨코리아 — 긍정 65건 / 부정 25건 / 중립 10건</text>
  <rect x="60" y="110" width="442" height="28" fill="#27ae60" rx="3"/>
  <rect x="502" y="110" width="170" height="28" fill="#e74c3c" rx="3"/>
  <rect x="672" y="110" width="68" height="28" fill="#95a5a6" rx="3"/>
  <text x="60" y="152" text-anchor="start" font-size="11" fill="#27ae60">긍정 65%</text>
  <text x="400" y="152" text-anchor="middle" font-size="11" fill="#e74c3c">부정 25%</text>
  <text x="740" y="152" text-anchor="end" font-size="11" fill="#7f8c8d">중립 10%</text>
  <text x="60" y="168" font-size="11" fill="#555">💬 "중동 위기 속에서도 민생 대응 잘한다는 평가인 듯"</text>

  <text x="60" y="220" font-size="13" font-weight="bold" fill="#2c3e50">더쿠 — 긍정 70건 / 부정 20건 / 중립 10건</text>
  <rect x="60" y="230" width="476" height="28" fill="#27ae60" rx="3"/>
  <rect x="536" y="230" width="136" height="28" fill="#e74c3c" rx="3"/>
  <rect x="672" y="230" width="68" height="28" fill="#95a5a6" rx="3"/>
  <text x="60" y="272" text-anchor="start" font-size="11" fill="#27ae60">긍정 70%</text>
  <text x="400" y="272" text-anchor="middle" font-size="11" fill="#e74c3c">부정 20%</text>
  <text x="740" y="272" text-anchor="end" font-size="11" fill="#7f8c8d">중립 10%</text>
  <text x="60" y="288" font-size="11" fill="#555">💬 "69%면 역대 대통령 취임 첫해 최고 수준이라고 하던데"</text>

  <text x="60" y="340" font-size="13" font-weight="bold" fill="#2c3e50">네이버뉴스댓글 — 긍정 60건 / 부정 30건 / 중립 10건</text>
  <rect x="60" y="350" width="408" height="28" fill="#27ae60" rx="3"/>
  <rect x="468" y="350" width="204" height="28" fill="#e74c3c" rx="3"/>
  <rect x="672" y="350" width="68" height="28" fill="#95a5a6" rx="3"/>
  <text x="60" y="392" text-anchor="start" font-size="11" fill="#27ae60">긍정 60%</text>
  <text x="400" y="392" text-anchor="middle" font-size="11" fill="#e74c3c">부정 30%</text>
  <text x="740" y="392" text-anchor="end" font-size="11" fill="#7f8c8d">중립 10%</text>
  <text x="60" y="408" font-size="11" fill="#555">💬 "국민의힘 18% 이 숫자면 회복 불가능 수준"</text>

  <text x="400" y="426" text-anchor="middle" font-size="10" fill="#bdc3c7">* 수치는 집계된 공감/반응 신호 기반 추산 | paperWanderer</text>
</svg>