<svg xmlns="http://www.w3.org/2000/svg" width="800" height="440" viewBox="0 0 800 440"
     font-family="'Apple SD Gothic Neo', 'Malgun Gothic', Arial, sans-serif">
  <rect width="800" height="440" fill="#f8f9fa" rx="12"/>
  <text x="400" y="36" text-anchor="middle" font-size="17" font-weight="bold" fill="#2c3e50">이준석 경기도지사 출마 시사 — 커뮤니티 반응</text>
  <text x="400" y="54" text-anchor="middle" font-size="11" fill="#7f8c8d">에펨코리아 · 디시인사이드 · 네이버 뉴스 | 2026-03-06 KST</text>
  <rect x="490" y="66" width="12" height="12" fill="#27ae60" rx="2"/>
  <text x="506" y="77" font-size="11" fill="#2c3e50">긍정</text>
  <rect x="548" y="66" width="12" height="12" fill="#e74c3c" rx="2"/>
  <text x="564" y="77" font-size="11" fill="#2c3e50">부정</text>
  <rect x="606" y="66" width="12" height="12" fill="#95a5a6" rx="2"/>
  <text x="622" y="77" font-size="11" fill="#2c3e50">중립</text>

  <text x="60" y="100" font-size="13" font-weight="bold" fill="#2c3e50">에펨코리아 — 긍정 78건 / 부정 56건 / 중립 43건</text>
  <rect x="60" y="110" width="300" height="28" fill="#27ae60" rx="3"/>
  <rect x="360" y="110" width="215" height="28" fill="#e74c3c" rx="3"/>
  <rect x="575" y="110" width="165" height="28" fill="#95a5a6" rx="3"/>
  <text x="60" y="152" text-anchor="start" font-size="11" fill="#27ae60">긍정 44%</text>
  <text x="400" y="152" text-anchor="middle" font-size="11" fill="#e74c3c">부정 32%</text>
  <text x="740" y="152" text-anchor="end" font-size="11" fill="#7f8c8d">중립 24%</text>
  <text x="60" y="168" font-size="11" fill="#555">💬 "이준석이 경기도지사로 역할 하면 재미있겠는데"</text>

  <text x="60" y="220" font-size="13" font-weight="bold" fill="#2c3e50">디시인사이드 — 긍정 52건 / 부정 38건 / 중립 31건</text>
  <rect x="60" y="230" width="292" height="28" fill="#27ae60" rx="3"/>
  <rect x="352" y="230" width="214" height="28" fill="#e74c3c" rx="3"/>
  <rect x="566" y="230" width="174" height="28" fill="#95a5a6" rx="3"/>
  <text x="60" y="272" text-anchor="start" font-size="11" fill="#27ae60">긍정 43%</text>
  <text x="400" y="272" text-anchor="middle" font-size="11" fill="#e74c3c">부정 31%</text>
  <text x="740" y="272" text-anchor="end" font-size="11" fill="#7f8c8d">중립 26%</text>
  <text x="60" y="288" font-size="11" fill="#555">💬 "개혁신당이 경기도 지방선거에서 어떤 역할 할 수 있을지"</text>

  <text x="60" y="340" font-size="13" font-weight="bold" fill="#2c3e50">네이버 뉴스 — 긍정 112건 / 부정 79건 / 중립 62건</text>
  <rect x="60" y="350" width="301" height="28" fill="#27ae60" rx="3"/>
  <rect x="361" y="350" width="212" height="28" fill="#e74c3c" rx="3"/>
  <rect x="573" y="350" width="167" height="28" fill="#95a5a6" rx="3"/>
  <text x="60" y="392" text-anchor="start" font-size="11" fill="#27ae60">긍정 44%</text>
  <text x="400" y="392" text-anchor="middle" font-size="11" fill="#e74c3c">부정 31%</text>
  <text x="740" y="392" text-anchor="end" font-size="11" fill="#7f8c8d">중립 25%</text>
  <text x="60" y="408" font-size="11" fill="#555">💬 "동탄 민심이 나가면 경기도지사 해볼 만하다고 하는 것 같음"</text>

  <text x="400" y="426" text-anchor="middle" font-size="10" fill="#bdc3c7">* 수치는 집계된 공감/반응 신호 기반 추산 | paperWanderer</text>
</svg>