<svg xmlns="http://www.w3.org/2000/svg" width="800" height="440" viewBox="0 0 800 440"
     font-family="'Apple SD Gothic Neo', 'Malgun Gothic', Arial, sans-serif">
  <rect width="800" height="440" fill="#f8f9fa" rx="12"/>
  <text x="400" y="36" text-anchor="middle" font-size="17" font-weight="bold" fill="#2c3e50">이재명 지지율 65% — 커뮤니티 반응</text>
  <text x="400" y="54" text-anchor="middle" font-size="11" fill="#7f8c8d">에펨코리아 · 디시인사이드 · 네이버 뉴스 | 2026-03-06 KST</text>
  <rect x="490" y="66" width="12" height="12" fill="#27ae60" rx="2"/>
  <text x="506" y="77" font-size="11" fill="#2c3e50">긍정</text>
  <rect x="548" y="66" width="12" height="12" fill="#e74c3c" rx="2"/>
  <text x="564" y="77" font-size="11" fill="#2c3e50">부정</text>
  <rect x="606" y="66" width="12" height="12" fill="#95a5a6" rx="2"/>
  <text x="622" y="77" font-size="11" fill="#2c3e50">중립</text>

  <text x="60" y="100" font-size="13" font-weight="bold" fill="#2c3e50">에펨코리아 — 긍정 83건 / 부정 91건 / 중립 44건</text>
  <rect x="60" y="110" width="259" height="28" fill="#27ae60" rx="3"/>
  <rect x="319" y="110" width="284" height="28" fill="#e74c3c" rx="3"/>
  <rect x="603" y="110" width="137" height="28" fill="#95a5a6" rx="3"/>
  <text x="60" y="152" text-anchor="start" font-size="11" fill="#27ae60">긍정 38%</text>
  <text x="400" y="152" text-anchor="middle" font-size="11" fill="#e74c3c">부정 42%</text>
  <text x="740" y="152" text-anchor="end" font-size="11" fill="#7f8c8d">중립 20%</text>
  <text x="60" y="168" font-size="11" fill="#555">💬 "지방선거 앞두고 65% 나온 거 유의미하긴 함"</text>

  <text x="60" y="220" font-size="13" font-weight="bold" fill="#2c3e50">디시인사이드 — 긍정 57건 / 부정 78건 / 중립 31건</text>
  <rect x="60" y="230" width="234" height="28" fill="#27ae60" rx="3"/>
  <rect x="294" y="230" width="319" height="28" fill="#e74c3c" rx="3"/>
  <rect x="613" y="230" width="127" height="28" fill="#95a5a6" rx="3"/>
  <text x="60" y="272" text-anchor="start" font-size="11" fill="#27ae60">긍정 34%</text>
  <text x="400" y="272" text-anchor="middle" font-size="11" fill="#e74c3c">부정 47%</text>
  <text x="740" y="272" text-anchor="end" font-size="11" fill="#7f8c8d">중립 19%</text>
  <text x="60" y="288" font-size="11" fill="#555">💬 "중동 위기에도 65% 유지라는 게 더 놀라움"</text>

  <text x="60" y="340" font-size="13" font-weight="bold" fill="#2c3e50">네이버 뉴스 — 긍정 142건 / 부정 137건 / 중립 64건</text>
  <rect x="60" y="350" width="282" height="28" fill="#27ae60" rx="3"/>
  <rect x="342" y="350" width="272" height="28" fill="#e74c3c" rx="3"/>
  <rect x="614" y="350" width="126" height="28" fill="#95a5a6" rx="3"/>
  <text x="60" y="392" text-anchor="start" font-size="11" fill="#27ae60">긍정 41%</text>
  <text x="400" y="392" text-anchor="middle" font-size="11" fill="#e74c3c">부정 40%</text>
  <text x="740" y="392" text-anchor="end" font-size="11" fill="#7f8c8d">중립 19%</text>
  <text x="60" y="408" font-size="11" fill="#555">💬 "부동산 정책 호평받는다니 강남 세금 폭탄 뉴스랑 정반대"</text>

  <text x="400" y="426" text-anchor="middle" font-size="10" fill="#bdc3c7">* 수치는 집계된 공감/반응 신호 기반 추산 | paperWanderer</text>
</svg>