<svg xmlns="http://www.w3.org/2000/svg" width="800" height="440" viewBox="0 0 800 440"
     font-family="'Apple SD Gothic Neo', 'Malgun Gothic', Arial, sans-serif">
  <rect width="800" height="440" fill="#f8f9fa" rx="12"/>
  <text x="400" y="36" text-anchor="middle" font-size="17" font-weight="bold" fill="#2c3e50">삼일절 연휴 여행 — 커뮤니티 반응</text>
  <text x="400" y="54" text-anchor="middle" font-size="11" fill="#7f8c8d">네이버뉴스 · FM코리아 · X(인스타) | 2026-03-01 21:00 KST</text>
  <rect x="490" y="66" width="12" height="12" fill="#27ae60" rx="2"/>
  <text x="506" y="77" font-size="11" fill="#2c3e50">긍정</text>
  <rect x="548" y="66" width="12" height="12" fill="#e74c3c" rx="2"/>
  <text x="564" y="77" font-size="11" fill="#2c3e50">부정</text>
  <rect x="606" y="66" width="12" height="12" fill="#95a5a6" rx="2"/>
  <text x="622" y="77" font-size="11" fill="#2c3e50">중립</text>

  <text x="60" y="100" font-size="13" font-weight="bold" fill="#2c3e50">네이버뉴스 — 긍정 88건 / 부정 5건 / 중립 27건</text>
  <rect x="60" y="110" width="499" height="28" fill="#27ae60" rx="3"/>
  <rect x="559" y="110" width="28" height="28" fill="#e74c3c" rx="3"/>
  <rect x="587" y="110" width="153" height="28" fill="#95a5a6" rx="3"/>
  <text x="60" y="152" text-anchor="start" font-size="11" fill="#27ae60">긍정 73%</text>
  <text x="400" y="152" text-anchor="middle" font-size="11" fill="#e74c3c">부정 4%</text>
  <text x="740" y="152" text-anchor="end" font-size="11" fill="#7f8c8d">중립 23%</text>
  <text x="60" y="168" font-size="11" fill="#555">💬 "삼일절에 제주 갔는데 오히려 한산하고 좋았음, 대체공휴일 덕분에 이틀 쉬었다"</text>

  <text x="60" y="220" font-size="13" font-weight="bold" fill="#2c3e50">FM코리아 — 긍정 65건 / 부정 4건 / 중립 31건</text>
  <rect x="60" y="230" width="442" height="28" fill="#27ae60" rx="3"/>
  <rect x="502" y="230" width="27" height="28" fill="#e74c3c" rx="3"/>
  <rect x="529" y="230" width="211" height="28" fill="#95a5a6" rx="3"/>
  <text x="60" y="272" text-anchor="start" font-size="11" fill="#27ae60">긍정 65%</text>
  <text x="400" y="272" text-anchor="middle" font-size="11" fill="#e74c3c">부정 4%</text>
  <text x="740" y="272" text-anchor="end" font-size="11" fill="#7f8c8d">중립 31%</text>
  <text x="60" y="288" font-size="11" fill="#555">💬 "연휴에 서울 탑골공원 가보니까 외국인들이 진짜 많더라"</text>

  <text x="60" y="340" font-size="13" font-weight="bold" fill="#2c3e50">X(인스타그램) — 긍정 320건 / 부정 12건 / 중립 68건</text>
  <rect x="60" y="350" width="544" height="28" fill="#27ae60" rx="3"/>
  <rect x="604" y="350" width="20" height="28" fill="#e74c3c" rx="3"/>
  <rect x="624" y="350" width="116" height="28" fill="#95a5a6" rx="3"/>
  <text x="60" y="392" text-anchor="start" font-size="11" fill="#27ae60">긍정 80%</text>
  <text x="400" y="392" text-anchor="middle" font-size="11" fill="#e74c3c">부정 3%</text>
  <text x="740" y="392" text-anchor="end" font-size="11" fill="#7f8c8d">중립 17%</text>
  <text x="60" y="408" font-size="11" fill="#555">💬 "#삼일절여행 #bosingak 외국인 친구 데려갔는데 감동받았다고 함"</text>

  <text x="400" y="426" text-anchor="middle" font-size="10" fill="#bdc3c7">* 수치는 집계된 공감/반응 신호 기반 추산 | paperWanderer</text>
</svg>