<svg xmlns="http://www.w3.org/2000/svg" width="800" height="440" viewBox="0 0 800 440"
     font-family="'Apple SD Gothic Neo', 'Malgun Gothic', Arial, sans-serif">
  <rect width="800" height="440" fill="#f8f9fa" rx="12"/>
  <text x="400" y="36" text-anchor="middle" font-size="17" font-weight="bold" fill="#2c3e50">호르무즈 군함 파견 논쟁 — 커뮤니티 반응</text>
  <text x="400" y="54" text-anchor="middle" font-size="11" fill="#7f8c8d">네이버 뉴스 · 오마이뉴스 · 전체 합산 | 2026-03-16 21:00 KST</text>
  <rect x="490" y="66" width="12" height="12" fill="#27ae60" rx="2"/>
  <text x="506" y="77" font-size="11" fill="#2c3e50">긍정</text>
  <rect x="548" y="66" width="12" height="12" fill="#e74c3c" rx="2"/>
  <text x="564" y="77" font-size="11" fill="#2c3e50">부정</text>
  <rect x="606" y="66" width="12" height="12" fill="#95a5a6" rx="2"/>
  <text x="622" y="77" font-size="11" fill="#2c3e50">중립</text>

  <text x="60" y="100" font-size="13" font-weight="bold" fill="#2c3e50">네이버 뉴스 댓글 — 긍정 210건 / 부정 420건 / 중립 260건</text>
  <rect x="60" y="110" width="162" height="28" fill="#27ae60" rx="3"/>
  <rect x="222" y="110" width="324" height="28" fill="#e74c3c" rx="3"/>
  <rect x="546" y="110" width="194" height="28" fill="#95a5a6" rx="3"/>
  <text x="60" y="152" text-anchor="start" font-size="11" fill="#27ae60">긍정 24%</text>
  <text x="400" y="152" text-anchor="middle" font-size="11" fill="#e74c3c">부정 48%</text>
  <text x="740" y="152" text-anchor="end" font-size="11" fill="#7f8c8d">중립 28%</text>
  <text x="60" y="168" font-size="11" fill="#555">💬 "전쟁에 끼어들어 우리 군인들 목숨 걸게 할 이유가 없다" (비공감 196)</text>

  <text x="60" y="220" font-size="13" font-weight="bold" fill="#2c3e50">오마이뉴스 커뮤니티 — 긍정 130건 / 부정 260건 / 중립 260건</text>
  <rect x="60" y="230" width="136" height="28" fill="#27ae60" rx="3"/>
  <rect x="196" y="230" width="272" height="28" fill="#e74c3c" rx="3"/>
  <rect x="468" y="230" width="272" height="28" fill="#95a5a6" rx="3"/>
  <text x="60" y="272" text-anchor="start" font-size="11" fill="#27ae60">긍정 20%</text>
  <text x="400" y="272" text-anchor="middle" font-size="11" fill="#e74c3c">부정 40%</text>
  <text x="740" y="272" text-anchor="end" font-size="11" fill="#7f8c8d">중립 40%</text>
  <text x="60" y="288" font-size="11" fill="#555">💬 "영국도 독일도 거부했는데 왜 한국이 나서야 하나" (공감 89)</text>

  <text x="60" y="340" font-size="13" font-weight="bold" fill="#2c3e50">전체 합산 — 긍정 340건 / 부정 680건 / 중립 520건</text>
  <rect x="60" y="350" width="150" height="28" fill="#27ae60" rx="3"/>
  <rect x="210" y="350" width="300" height="28" fill="#e74c3c" rx="3"/>
  <rect x="510" y="350" width="230" height="28" fill="#95a5a6" rx="3"/>
  <text x="60" y="392" text-anchor="start" font-size="11" fill="#27ae60">긍정 22%</text>
  <text x="400" y="392" text-anchor="middle" font-size="11" fill="#e74c3c">부정 44%</text>
  <text x="740" y="392" text-anchor="end" font-size="11" fill="#7f8c8d">중립 34%</text>
  <text x="60" y="408" font-size="11" fill="#555">💬 "국민 55% 반대면 국회가 당연히 비준 안 해야 한다" (공감 77)</text>

  <text x="400" y="426" text-anchor="middle" font-size="10" fill="#bdc3c7">* 수치는 집계된 공감/반응 신호 기반 추산 | paperWanderer</text>
</svg>