<svg xmlns="http://www.w3.org/2000/svg" width="800" height="440" viewBox="0 0 800 440"
     font-family="'Apple SD Gothic Neo', 'Malgun Gothic', Arial, sans-serif">
  <rect width="800" height="440" fill="#f8f9fa" rx="12"/>
  <text x="400" y="36" text-anchor="middle" font-size="17" font-weight="bold" fill="#2c3e50">중동전쟁 GDP 영향 — 커뮤니티 반응</text>
  <text x="400" y="54" text-anchor="middle" font-size="11" fill="#7f8c8d">에펨코리아 · 더쿠 · 네이버뉴스 | 2026-03-17 KST</text>
  <rect x="490" y="66" width="12" height="12" fill="#27ae60" rx="2"/>
  <text x="506" y="77" font-size="11" fill="#2c3e50">긍정</text>
  <rect x="548" y="66" width="12" height="12" fill="#e74c3c" rx="2"/>
  <text x="564" y="77" font-size="11" fill="#2c3e50">부정</text>
  <rect x="606" y="66" width="12" height="12" fill="#95a5a6" rx="2"/>
  <text x="622" y="77" font-size="11" fill="#2c3e50">중립</text>

  <text x="60" y="100" font-size="13" font-weight="bold" fill="#2c3e50">에펨코리아 — 낙관 68건 / 우려 476건 / 중립 136건</text>
  <rect x="60" y="110" width="68" height="28" fill="#27ae60" rx="3"/>
  <rect x="128" y="110" width="476" height="28" fill="#e74c3c" rx="3"/>
  <rect x="604" y="110" width="136" height="28" fill="#95a5a6" rx="3"/>
  <text x="60" y="152" text-anchor="start" font-size="11" fill="#27ae60">긍정 10%</text>
  <text x="400" y="152" text-anchor="middle" font-size="11" fill="#e74c3c">부정 70%</text>
  <text x="740" y="152" text-anchor="end" font-size="11" fill="#7f8c8d">중립 20%</text>
  <text x="60" y="168" font-size="11" fill="#555">💬 "에너지 가격이랑 환율이랑 동시에 오르면 경제가 버틸 수 있나"</text>

  <text x="60" y="220" font-size="13" font-weight="bold" fill="#2c3e50">더쿠 — 낙관 68건 / 우려 544건 / 중립 68건</text>
  <rect x="60" y="230" width="68" height="28" fill="#27ae60" rx="3"/>
  <rect x="128" y="230" width="544" height="28" fill="#e74c3c" rx="3"/>
  <rect x="672" y="230" width="68" height="28" fill="#95a5a6" rx="3"/>
  <text x="60" y="272" text-anchor="start" font-size="11" fill="#27ae60">긍정 10%</text>
  <text x="400" y="272" text-anchor="middle" font-size="11" fill="#e74c3c">부정 80%</text>
  <text x="740" y="272" text-anchor="end" font-size="11" fill="#7f8c8d">중립 10%</text>
  <text x="60" y="288" font-size="11" fill="#555">💬 "GDP 0.5%p면 작아 보이지만 실제 체감은 엄청 클 것이다"</text>

  <text x="60" y="340" font-size="13" font-weight="bold" fill="#2c3e50">네이버뉴스 댓글 — 낙관 136건 / 우려 408건 / 중립 136건</text>
  <rect x="60" y="350" width="136" height="28" fill="#27ae60" rx="3"/>
  <rect x="196" y="350" width="408" height="28" fill="#e74c3c" rx="3"/>
  <rect x="604" y="350" width="136" height="28" fill="#95a5a6" rx="3"/>
  <text x="60" y="392" text-anchor="start" font-size="11" fill="#27ae60">긍정 20%</text>
  <text x="400" y="392" text-anchor="middle" font-size="11" fill="#e74c3c">부정 60%</text>
  <text x="740" y="392" text-anchor="end" font-size="11" fill="#7f8c8d">중립 20%</text>
  <text x="60" y="408" font-size="11" fill="#555">💬 "방산 수출이 늘어나는 기회가 될 수도 있지 않나"</text>

  <text x="400" y="426" text-anchor="middle" font-size="10" fill="#bdc3c7">* 수치는 집계된 공감/반응 신호 기반 추산 | paperWanderer</text>
</svg>