<svg xmlns="http://www.w3.org/2000/svg" width="800" height="440" viewBox="0 0 800 440"
     font-family="'Apple SD Gothic Neo', 'Malgun Gothic', Arial, sans-serif">
  <rect width="800" height="440" fill="#f8f9fa" rx="12"/>
  <text x="400" y="36" text-anchor="middle" font-size="17" font-weight="bold" fill="#2c3e50">WOODZ Archive.1 — 커뮤니티 반응</text>
  <text x="400" y="54" text-anchor="middle" font-size="11" fill="#7f8c8d">멜론 차트 반응 · 네이버 뮤직 댓글 · DC 음악갤러리 | 2026-03-04 KST</text>
  <rect x="490" y="66" width="12" height="12" fill="#27ae60" rx="2"/>
  <text x="506" y="77" font-size="11" fill="#2c3e50">긍정</text>
  <rect x="548" y="66" width="12" height="12" fill="#e74c3c" rx="2"/>
  <text x="564" y="77" font-size="11" fill="#2c3e50">부정</text>
  <rect x="606" y="66" width="12" height="12" fill="#95a5a6" rx="2"/>
  <text x="622" y="77" font-size="11" fill="#2c3e50">중립</text>

  <text x="60" y="100" font-size="13" font-weight="bold" fill="#2c3e50">멜론 차트 반응 — 긍정 350건 / 부정 30건 / 중립 120건</text>
  <rect x="60" y="110" width="476" height="28" fill="#27ae60" rx="3"/>
  <rect x="536" y="110" width="41" height="28" fill="#e74c3c" rx="3"/>
  <rect x="577" y="110" width="163" height="28" fill="#95a5a6" rx="3"/>
  <text x="60" y="152" text-anchor="start" font-size="11" fill="#27ae60">긍정 70%</text>
  <text x="400" y="152" text-anchor="middle" font-size="11" fill="#e74c3c">부정 6%</text>
  <text x="740" y="152" text-anchor="end" font-size="11" fill="#7f8c8d">중립 24%</text>
  <text x="60" y="168" font-size="11" fill="#555">💬 "데뷔 13년... 이게 진짜 WOODZ의 정수다"</text>

  <text x="60" y="220" font-size="13" font-weight="bold" fill="#2c3e50">네이버 뮤직 댓글 — 긍정 180건 / 부정 20건 / 중립 60건</text>
  <rect x="60" y="230" width="471" height="28" fill="#27ae60" rx="3"/>
  <rect x="531" y="230" width="52" height="28" fill="#e74c3c" rx="3"/>
  <rect x="583" y="230" width="157" height="28" fill="#95a5a6" rx="3"/>
  <text x="60" y="272" text-anchor="start" font-size="11" fill="#27ae60">긍정 69%</text>
  <text x="400" y="272" text-anchor="middle" font-size="11" fill="#e74c3c">부정 8%</text>
  <text x="740" y="272" text-anchor="end" font-size="11" fill="#7f8c8d">중립 23%</text>
  <text x="60" y="288" font-size="11" fill="#555">💬 "Human Extinction 첫 소절부터 소름... 앨범 전곡 들었다"</text>

  <text x="60" y="340" font-size="13" font-weight="bold" fill="#2c3e50">DC 음악갤러리 — 긍정 120건 / 부정 15건 / 중립 45건</text>
  <rect x="60" y="350" width="453" height="28" fill="#27ae60" rx="3"/>
  <rect x="513" y="350" width="57" height="28" fill="#e74c3c" rx="3"/>
  <rect x="570" y="350" width="170" height="28" fill="#95a5a6" rx="3"/>
  <text x="60" y="392" text-anchor="start" font-size="11" fill="#27ae60">긍정 67%</text>
  <text x="400" y="392" text-anchor="middle" font-size="11" fill="#e74c3c">부정 8%</text>
  <text x="740" y="392" text-anchor="end" font-size="11" fill="#7f8c8d">중립 25%</text>
  <text x="60" y="408" font-size="11" fill="#555">💬 "록 발라드, 팝 펑크, R&amp;B... 장르 스펙트럼 놀랍다"</text>

  <text x="400" y="426" text-anchor="middle" font-size="10" fill="#bdc3c7">* 수치는 집계된 공감/반응 신호 기반 추산 | paperWanderer</text>
</svg>