<svg xmlns="http://www.w3.org/2000/svg" width="800" height="440" viewBox="0 0 800 440"
     font-family="'Apple SD Gothic Neo', 'Malgun Gothic', Arial, sans-serif">
  <rect width="800" height="440" fill="#f8f9fa" rx="12"/>
  <text x="400" y="36" text-anchor="middle" font-size="17" font-weight="bold" fill="#2c3e50">카카오 구조조정 — 커뮤니티 반응</text>
  <text x="400" y="54" text-anchor="middle" font-size="11" fill="#7f8c8d">네이버 뉴스 · 에펨코리아 · 클리앙 | 2026-03-07 21:00 KST</text>
  <rect x="490" y="66" width="12" height="12" fill="#27ae60" rx="2"/>
  <text x="506" y="77" font-size="11" fill="#2c3e50">긍정</text>
  <rect x="548" y="66" width="12" height="12" fill="#e74c3c" rx="2"/>
  <text x="564" y="77" font-size="11" fill="#2c3e50">부정</text>
  <rect x="606" y="66" width="12" height="12" fill="#95a5a6" rx="2"/>
  <text x="622" y="77" font-size="11" fill="#2c3e50">중립</text>

  <text x="60" y="100" font-size="13" font-weight="bold" fill="#2c3e50">네이버 뉴스 댓글 — 긍정 160건 / 부정 380건 / 중립 280건</text>
  <rect x="60" y="110" width="133" height="28" fill="#27ae60" rx="3"/>
  <rect x="193" y="110" width="315" height="28" fill="#e74c3c" rx="3"/>
  <rect x="508" y="110" width="232" height="28" fill="#95a5a6" rx="3"/>
  <text x="60" y="152" text-anchor="start" font-size="11" fill="#27ae60">긍정 20%</text>
  <text x="400" y="152" text-anchor="middle" font-size="11" fill="#e74c3c">부정 46%</text>
  <text x="740" y="152" text-anchor="end" font-size="11" fill="#7f8c8d">중립 34%</text>
  <text x="60" y="168" font-size="11" fill="#555">💬 "SM 인수할 때 경고 안 했나. 이제 직원들이 피해 보는 거다"</text>

  <text x="60" y="220" font-size="13" font-weight="bold" fill="#2c3e50">에펨코리아 — 긍정 80건 / 부정 200건 / 중립 200건</text>
  <rect x="60" y="230" width="113" height="28" fill="#27ae60" rx="3"/>
  <rect x="173" y="230" width="283" height="28" fill="#e74c3c" rx="3"/>
  <rect x="456" y="230" width="284" height="28" fill="#95a5a6" rx="3"/>
  <text x="60" y="272" text-anchor="start" font-size="11" fill="#27ae60">긍정 17%</text>
  <text x="400" y="272" text-anchor="middle" font-size="11" fill="#e74c3c">부정 42%</text>
  <text x="740" y="272" text-anchor="end" font-size="11" fill="#7f8c8d">중립 41%</text>
  <text x="60" y="288" font-size="11" fill="#555">💬 "IT 대기업도 이러면 취업 시장이 더 어려워지겠네"</text>

  <text x="60" y="340" font-size="13" font-weight="bold" fill="#2c3e50">클리앙 — 긍정 120건 / 부정 180건 / 중립 220건</text>
  <rect x="60" y="350" width="157" height="28" fill="#27ae60" rx="3"/>
  <rect x="217" y="350" width="235" height="28" fill="#e74c3c" rx="3"/>
  <rect x="452" y="350" width="288" height="28" fill="#95a5a6" rx="3"/>
  <text x="60" y="392" text-anchor="start" font-size="11" fill="#27ae60">긍정 23%</text>
  <text x="400" y="392" text-anchor="middle" font-size="11" fill="#e74c3c">부정 35%</text>
  <text x="740" y="392" text-anchor="end" font-size="11" fill="#7f8c8d">중립 42%</text>
  <text x="60" y="408" font-size="11" fill="#555">💬 "카카오가 문어발 확장만 하다가 이렇게 됐다"</text>

  <text x="400" y="426" text-anchor="middle" font-size="10" fill="#bdc3c7">* 수치는 집계된 공감/반응 신호 기반 추산 | paperWanderer</text>
</svg>