<svg xmlns="http://www.w3.org/2000/svg" width="800" height="440" viewBox="0 0 800 440"
     font-family="'Apple SD Gothic Neo', 'Malgun Gothic', Arial, sans-serif">
  <rect width="800" height="440" fill="#f8f9fa" rx="12"/>
  <text x="400" y="36" text-anchor="middle" font-size="17" font-weight="bold" fill="#2c3e50">북한 최현함 순항미사일 — 커뮤니티 반응</text>
  <text x="400" y="54" text-anchor="middle" font-size="11" fill="#7f8c8d">네이버뉴스 · 커뮤니티 | 2026-03-05 20:00 KST</text>
  <rect x="490" y="66" width="12" height="12" fill="#27ae60" rx="2"/>
  <text x="506" y="77" font-size="11" fill="#2c3e50">긍정</text>
  <rect x="548" y="66" width="12" height="12" fill="#e74c3c" rx="2"/>
  <text x="564" y="77" font-size="11" fill="#2c3e50">부정</text>
  <rect x="606" y="66" width="12" height="12" fill="#95a5a6" rx="2"/>
  <text x="622" y="77" font-size="11" fill="#2c3e50">중립</text>

  <text x="60" y="100" font-size="13" font-weight="bold" fill="#2c3e50">네이버 뉴스 — 우려 압도</text>
  <rect x="60" y="110" width="34" height="28" fill="#27ae60" rx="3"/>
  <rect x="94" y="110" width="442" height="28" fill="#e74c3c" rx="3"/>
  <rect x="536" y="110" width="204" height="28" fill="#95a5a6" rx="3"/>
  <text x="60" y="152" text-anchor="start" font-size="11" fill="#27ae60">긍정 5%</text>
  <text x="400" y="152" text-anchor="middle" font-size="11" fill="#e74c3c">부정 65%</text>
  <text x="740" y="152" text-anchor="end" font-size="11" fill="#7f8c8d">중립 30%</text>
  <text x="60" y="168" font-size="11" fill="#555">💬 "이란 전쟁 틈타서 또 도발이다. 패턴이 너무 예측 가능하다"</text>

  <text x="60" y="220" font-size="13" font-weight="bold" fill="#2c3e50">안보 커뮤니티 — 경각심 높음</text>
  <rect x="60" y="230" width="34" height="28" fill="#27ae60" rx="3"/>
  <rect x="94" y="230" width="476" height="28" fill="#e74c3c" rx="3"/>
  <rect x="570" y="230" width="170" height="28" fill="#95a5a6" rx="3"/>
  <text x="60" y="272" text-anchor="start" font-size="11" fill="#27ae60">긍정 5%</text>
  <text x="400" y="272" text-anchor="middle" font-size="11" fill="#e74c3c">부정 70%</text>
  <text x="740" y="272" text-anchor="end" font-size="11" fill="#7f8c8d">중립 25%</text>
  <text x="60" y="288" font-size="11" fill="#555">💬 "5000t 구축함이면 북한 해군이 많이 성장했다"</text>

  <text x="60" y="340" font-size="13" font-weight="bold" fill="#2c3e50">전체 종합 — 부정·우려 압도</text>
  <rect x="60" y="350" width="34" height="28" fill="#27ae60" rx="3"/>
  <rect x="94" y="350" width="456" height="28" fill="#e74c3c" rx="3"/>
  <rect x="550" y="350" width="190" height="28" fill="#95a5a6" rx="3"/>
  <text x="60" y="392" text-anchor="start" font-size="11" fill="#27ae60">긍정 5%</text>
  <text x="400" y="392" text-anchor="middle" font-size="11" fill="#e74c3c">부정 67%</text>
  <text x="740" y="392" text-anchor="end" font-size="11" fill="#7f8c8d">중립 28%</text>
  <text x="60" y="408" font-size="11" fill="#555">💬 "미국 시선이 중동에 쏠린 상황에서 북한이 움직이는 건 계산된 것"</text>

  <text x="400" y="426" text-anchor="middle" font-size="10" fill="#bdc3c7">* 수치는 집계된 공감/반응 신호 기반 추산 | paperWanderer</text>
</svg>