<svg xmlns="http://www.w3.org/2000/svg" width="800" height="440" viewBox="0 0 800 440"
     font-family="'Apple SD Gothic Neo', 'Malgun Gothic', Arial, sans-serif">
  <rect width="800" height="440" fill="#f8f9fa" rx="12"/>
  <text x="400" y="36" text-anchor="middle" font-size="17" font-weight="bold" fill="#2c3e50">삼성·SK하이닉스 반도체 슈퍼사이클 — 커뮤니티 반응</text>
  <text x="400" y="54" text-anchor="middle" font-size="11" fill="#7f8c8d">주식 커뮤니티 · FM코리아 · 네이트뉴스 | 2026-03-10 KST</text>
  <rect x="490" y="66" width="12" height="12" fill="#27ae60" rx="2"/>
  <text x="506" y="77" font-size="11" fill="#2c3e50">긍정</text>
  <rect x="548" y="66" width="12" height="12" fill="#e74c3c" rx="2"/>
  <text x="564" y="77" font-size="11" fill="#2c3e50">부정</text>
  <rect x="606" y="66" width="12" height="12" fill="#95a5a6" rx="2"/>
  <text x="622" y="77" font-size="11" fill="#2c3e50">중립</text>

  <text x="60" y="100" font-size="13" font-weight="bold" fill="#2c3e50">주식 커뮤니티 — 긍정 약 80% / 부정 약 12% / 중립 약 8%</text>
  <rect x="60" y="110" width="544" height="28" fill="#27ae60" rx="3"/>
  <rect x="604" y="110" width="82" height="28" fill="#e74c3c" rx="3"/>
  <rect x="686" y="110" width="54" height="28" fill="#95a5a6" rx="3"/>
  <text x="60" y="152" text-anchor="start" font-size="11" fill="#27ae60">긍정 80%</text>
  <text x="400" y="152" text-anchor="middle" font-size="11" fill="#e74c3c">부정 12%</text>
  <text x="740" y="152" text-anchor="end" font-size="11" fill="#7f8c8d">중립 8%</text>
  <text x="60" y="168" font-size="11" fill="#555">💬 "삼전 SK하닉 들고 있는 거 맞다, 200조가 현실이 되네"</text>

  <text x="60" y="220" font-size="13" font-weight="bold" fill="#2c3e50">FM코리아 — 긍정 약 75% / 부정 약 18% / 중립 약 7%</text>
  <rect x="60" y="230" width="510" height="28" fill="#27ae60" rx="3"/>
  <rect x="570" y="230" width="122" height="28" fill="#e74c3c" rx="3"/>
  <rect x="692" y="230" width="48" height="28" fill="#95a5a6" rx="3"/>
  <text x="60" y="272" text-anchor="start" font-size="11" fill="#27ae60">긍정 75%</text>
  <text x="400" y="272" text-anchor="middle" font-size="11" fill="#e74c3c">부정 18%</text>
  <text x="740" y="272" text-anchor="end" font-size="11" fill="#7f8c8d">중립 7%</text>
  <text x="60" y="288" font-size="11" fill="#555">💬 "전쟁에도 반도체 수요는 계속 오르네, HBM 진짜 무서운 성장"</text>

  <text x="60" y="340" font-size="13" font-weight="bold" fill="#2c3e50">네이트뉴스 댓글 — 긍정 약 78% / 부정 약 15% / 중립 약 7%</text>
  <rect x="60" y="350" width="530" height="28" fill="#27ae60" rx="3"/>
  <rect x="590" y="350" width="102" height="28" fill="#e74c3c" rx="3"/>
  <rect x="692" y="350" width="48" height="28" fill="#95a5a6" rx="3"/>
  <text x="60" y="392" text-anchor="start" font-size="11" fill="#27ae60">긍정 78%</text>
  <text x="400" y="392" text-anchor="middle" font-size="11" fill="#e74c3c">부정 15%</text>
  <text x="740" y="392" text-anchor="end" font-size="11" fill="#7f8c8d">중립 7%</text>
  <text x="60" y="408" font-size="11" fill="#555">💬 "삼성전자 주주로서 기쁘지만 배당은 언제 오르냐"</text>

  <text x="400" y="426" text-anchor="middle" font-size="10" fill="#bdc3c7">* 수치는 집계된 공감/반응 신호 기반 추산 | paperWanderer</text>
</svg>