<svg xmlns="http://www.w3.org/2000/svg" width="800" height="440" viewBox="0 0 800 440"
     font-family="'Apple SD Gothic Neo', 'Malgun Gothic', Arial, sans-serif">
  <rect width="800" height="440" fill="#f8f9fa" rx="12"/>
  <text x="400" y="36" text-anchor="middle" font-size="17" font-weight="bold" fill="#2c3e50">에너지 안보 위기 — 커뮤니티 반응</text>
  <text x="400" y="54" text-anchor="middle" font-size="11" fill="#7f8c8d">에펨코리아 · 디시인사이드 · 네이버 뉴스 | 2026-03-06 KST</text>
  <rect x="490" y="66" width="12" height="12" fill="#27ae60" rx="2"/>
  <text x="506" y="77" font-size="11" fill="#2c3e50">긍정</text>
  <rect x="548" y="66" width="12" height="12" fill="#e74c3c" rx="2"/>
  <text x="564" y="77" font-size="11" fill="#2c3e50">부정</text>
  <rect x="606" y="66" width="12" height="12" fill="#95a5a6" rx="2"/>
  <text x="622" y="77" font-size="11" fill="#2c3e50">중립</text>

  <text x="60" y="100" font-size="13" font-weight="bold" fill="#2c3e50">에펨코리아 — 긍정 74건 / 부정 28건 / 중립 41건</text>
  <rect x="60" y="110" width="352" height="28" fill="#27ae60" rx="3"/>
  <rect x="412" y="110" width="133" height="28" fill="#e74c3c" rx="3"/>
  <rect x="545" y="110" width="195" height="28" fill="#95a5a6" rx="3"/>
  <text x="60" y="152" text-anchor="start" font-size="11" fill="#27ae60">긍정 52%</text>
  <text x="400" y="152" text-anchor="middle" font-size="11" fill="#e74c3c">부정 20%</text>
  <text x="740" y="152" text-anchor="end" font-size="11" fill="#7f8c8d">중립 28%</text>
  <text x="60" y="168" font-size="11" fill="#555">💬 "UAE에서 원유 미리 확보한 거 잘한 거 맞음"</text>

  <text x="60" y="220" font-size="13" font-weight="bold" fill="#2c3e50">디시인사이드 — 긍정 52건 / 부정 19건 / 중립 31건</text>
  <rect x="60" y="230" width="346" height="28" fill="#27ae60" rx="3"/>
  <rect x="406" y="230" width="127" height="28" fill="#e74c3c" rx="3"/>
  <rect x="533" y="230" width="207" height="28" fill="#95a5a6" rx="3"/>
  <text x="60" y="272" text-anchor="start" font-size="11" fill="#27ae60">긍정 51%</text>
  <text x="400" y="272" text-anchor="middle" font-size="11" fill="#e74c3c">부정 19%</text>
  <text x="740" y="272" text-anchor="end" font-size="11" fill="#7f8c8d">중립 30%</text>
  <text x="60" y="288" font-size="11" fill="#555">💬 "에너지 수입 97% 의존이면 진짜 취약한 구조임"</text>

  <text x="60" y="340" font-size="13" font-weight="bold" fill="#2c3e50">네이버 뉴스 — 긍정 119건 / 부정 43건 / 중립 68건</text>
  <rect x="60" y="350" width="352" height="28" fill="#27ae60" rx="3"/>
  <rect x="412" y="350" width="127" height="28" fill="#e74c3c" rx="3"/>
  <rect x="539" y="350" width="201" height="28" fill="#95a5a6" rx="3"/>
  <text x="60" y="392" text-anchor="start" font-size="11" fill="#27ae60">긍정 52%</text>
  <text x="400" y="392" text-anchor="middle" font-size="11" fill="#e74c3c">부정 19%</text>
  <text x="740" y="392" text-anchor="end" font-size="11" fill="#7f8c8d">중립 29%</text>
  <text x="60" y="408" font-size="11" fill="#555">💬 "재생에너지 전환 못 하면 이런 위기 계속 반복됨"</text>

  <text x="400" y="426" text-anchor="middle" font-size="10" fill="#bdc3c7">* 수치는 집계된 공감/반응 신호 기반 추산 | paperWanderer</text>
</svg>