<svg xmlns="http://www.w3.org/2000/svg" width="800" height="440" viewBox="0 0 800 440"
     font-family="'Apple SD Gothic Neo', 'Malgun Gothic', Arial, sans-serif">
  <rect width="800" height="440" fill="#f8f9fa" rx="12"/>
  <text x="400" y="36" text-anchor="middle" font-size="17" font-weight="bold" fill="#2c3e50">KBO 스프링캠프 귀국 — 팬 반응</text>
  <text x="400" y="54" text-anchor="middle" font-size="11" fill="#7f8c8d">FM코리아 · 네이버스포츠 · 인벤 | 2026-03-01 18:00 KST</text>
  <rect x="490" y="66" width="12" height="12" fill="#27ae60" rx="2"/>
  <text x="506" y="77" font-size="11" fill="#2c3e50">긍정</text>
  <rect x="548" y="66" width="12" height="12" fill="#e74c3c" rx="2"/>
  <text x="564" y="77" font-size="11" fill="#2c3e50">부정</text>
  <rect x="606" y="66" width="12" height="12" fill="#95a5a6" rx="2"/>
  <text x="622" y="77" font-size="11" fill="#2c3e50">중립</text>

  <text x="60" y="100" font-size="13" font-weight="bold" fill="#2c3e50">FM코리아 — 긍정 85건 / 부정 8건 / 중립 27건</text>
  <rect x="60" y="110" width="482" height="28" fill="#27ae60" rx="3"/>
  <rect x="542" y="110" width="45" height="28" fill="#e74c3c" rx="3"/>
  <rect x="587" y="110" width="153" height="28" fill="#95a5a6" rx="3"/>
  <text x="60" y="152" text-anchor="start" font-size="11" fill="#27ae60">긍정 71%</text>
  <text x="400" y="152" text-anchor="middle" font-size="11" fill="#e74c3c">부정 7%</text>
  <text x="740" y="152" text-anchor="end" font-size="11" fill="#7f8c8d">중립 22%</text>
  <text x="60" y="168" font-size="11" fill="#555">💬 "오키나와 캠프 끝나고 귀국했다니 이제 곧 시범경기다 기대됨"</text>

  <text x="60" y="220" font-size="13" font-weight="bold" fill="#2c3e50">네이버스포츠 — 긍정 105건 / 부정 6건 / 중립 39건</text>
  <rect x="60" y="230" width="476" height="28" fill="#27ae60" rx="3"/>
  <rect x="536" y="230" width="27" height="28" fill="#e74c3c" rx="3"/>
  <rect x="563" y="230" width="177" height="28" fill="#95a5a6" rx="3"/>
  <text x="60" y="272" text-anchor="start" font-size="11" fill="#27ae60">긍정 70%</text>
  <text x="400" y="272" text-anchor="middle" font-size="11" fill="#e74c3c">부정 4%</text>
  <text x="740" y="272" text-anchor="end" font-size="11" fill="#7f8c8d">중립 26%</text>
  <text x="60" y="288" font-size="11" fill="#555">💬 "KT 신인 강민석 스프링캠프 MVP 받았다는 거 진짜냐 기대되는데"</text>

  <text x="60" y="340" font-size="13" font-weight="bold" fill="#2c3e50">인벤 — 긍정 72건 / 부정 5건 / 중립 23건</text>
  <rect x="60" y="350" width="490" height="28" fill="#27ae60" rx="3"/>
  <rect x="550" y="350" width="34" height="28" fill="#e74c3c" rx="3"/>
  <rect x="584" y="350" width="156" height="28" fill="#95a5a6" rx="3"/>
  <text x="60" y="392" text-anchor="start" font-size="11" fill="#27ae60">긍정 72%</text>
  <text x="400" y="392" text-anchor="middle" font-size="11" fill="#e74c3c">부정 5%</text>
  <text x="740" y="392" text-anchor="end" font-size="11" fill="#7f8c8d">중립 23%</text>
  <text x="60" y="408" font-size="11" fill="#555">💬 "3월 12일 시범경기 개막 기다리고 있었는데 설렘 최고조"</text>

  <text x="400" y="426" text-anchor="middle" font-size="10" fill="#bdc3c7">* 수치는 집계된 공감/반응 신호 기반 추산 | paperWanderer</text>
</svg>