<svg xmlns="http://www.w3.org/2000/svg" width="800" height="440" viewBox="0 0 800 440"
     font-family="'Apple SD Gothic Neo', 'Malgun Gothic', Arial, sans-serif">
  <rect width="800" height="440" fill="#f8f9fa" rx="12"/>
  <text x="400" y="36" text-anchor="middle" font-size="17" font-weight="bold" fill="#2c3e50">비상경제점검회의 — 커뮤니티 반응</text>
  <text x="400" y="54" text-anchor="middle" font-size="11" fill="#7f8c8d">네이버 뉴스 · 정치 커뮤니티 | 2026-03-25 20:00 KST</text>
  <rect x="490" y="66" width="12" height="12" fill="#27ae60" rx="2"/>
  <text x="506" y="77" font-size="11" fill="#2c3e50">긍정</text>
  <rect x="548" y="66" width="12" height="12" fill="#e74c3c" rx="2"/>
  <text x="564" y="77" font-size="11" fill="#2c3e50">부정</text>
  <rect x="606" y="66" width="12" height="12" fill="#95a5a6" rx="2"/>
  <text x="622" y="77" font-size="11" fill="#2c3e50">중립</text>

  <text x="60" y="100" font-size="13" font-weight="bold" fill="#2c3e50">네이버 뉴스 댓글 — 긍정 145건 / 부정 95건 / 중립 40건</text>
  <rect x="60" y="110" width="352" height="28" fill="#27ae60" rx="3"/>
  <rect x="412" y="110" width="231" height="28" fill="#e74c3c" rx="3"/>
  <rect x="643" y="110" width="97" height="28" fill="#95a5a6" rx="3"/>
  <text x="60" y="152" text-anchor="start" font-size="11" fill="#27ae60">긍정 52%</text>
  <text x="400" y="152" text-anchor="middle" font-size="11" fill="#e74c3c">부정 34%</text>
  <text x="740" y="152" text-anchor="end" font-size="11" fill="#7f8c8d">중립 14%</text>
  <text x="60" y="168" font-size="11" fill="#555">💬 "러시아 원유 제재 면제 확인한 건 잘 한 것"</text>

  <text x="60" y="220" font-size="13" font-weight="bold" fill="#2c3e50">정치 커뮤니티 — 실효성 논쟁</text>
  <rect x="60" y="230" width="306" height="28" fill="#27ae60" rx="3"/>
  <rect x="366" y="230" width="272" height="28" fill="#e74c3c" rx="3"/>
  <rect x="638" y="230" width="102" height="28" fill="#95a5a6" rx="3"/>
  <text x="60" y="272" text-anchor="start" font-size="11" fill="#27ae60">긍정 45%</text>
  <text x="400" y="272" text-anchor="middle" font-size="11" fill="#e74c3c">부정 40%</text>
  <text x="740" y="272" text-anchor="end" font-size="11" fill="#7f8c8d">중립 15%</text>
  <text x="60" y="288" font-size="11" fill="#555">💬 "위기마다 회의만 열고 실질 효과가 있는 건지 모르겠다"</text>

  <text x="60" y="340" font-size="13" font-weight="bold" fill="#2c3e50">경제 커뮤니티 — 구조적 대책 요구</text>
  <rect x="60" y="350" width="272" height="28" fill="#27ae60" rx="3"/>
  <rect x="332" y="350" width="306" height="28" fill="#e74c3c" rx="3"/>
  <rect x="638" y="350" width="102" height="28" fill="#95a5a6" rx="3"/>
  <text x="60" y="392" text-anchor="start" font-size="11" fill="#27ae60">긍정 40%</text>
  <text x="400" y="392" text-anchor="middle" font-size="11" fill="#e74c3c">부정 45%</text>
  <text x="740" y="392" text-anchor="end" font-size="11" fill="#7f8c8d">중립 15%</text>
  <text x="60" y="408" font-size="11" fill="#555">💬 "5부제 같은 소극적 조치 말고 근본 대책이 필요하다"</text>

  <text x="400" y="426" text-anchor="middle" font-size="10" fill="#bdc3c7">* 수치는 집계된 공감/반응 신호 기반 추산 | paperWanderer</text>
</svg>