<svg xmlns="http://www.w3.org/2000/svg" width="800" height="440" viewBox="0 0 800 440"
     font-family="'Apple SD Gothic Neo', 'Malgun Gothic', Arial, sans-serif">
  <rect width="800" height="440" fill="#f8f9fa" rx="12"/>
  <text x="400" y="36" text-anchor="middle" font-size="17" font-weight="bold" fill="#2c3e50">세이렌 온라인 버즈 — 커뮤니티 반응</text>
  <text x="400" y="54" text-anchor="middle" font-size="11" fill="#7f8c8d">더쿠 · 에펨코리아 · 드라마갤러리 | 2026-03-02 KST</text>
  <rect x="490" y="66" width="12" height="12" fill="#27ae60" rx="2"/>
  <text x="506" y="77" font-size="11" fill="#2c3e50">긍정</text>
  <rect x="548" y="66" width="12" height="12" fill="#e74c3c" rx="2"/>
  <text x="564" y="77" font-size="11" fill="#2c3e50">부정</text>
  <rect x="606" y="66" width="12" height="12" fill="#95a5a6" rx="2"/>
  <text x="622" y="77" font-size="11" fill="#2c3e50">중립</text>

  <text x="60" y="100" font-size="13" font-weight="bold" fill="#2c3e50">더쿠 — 긍정 55건 / 부정 32건 / 중립 13건</text>
  <rect x="60" y="110" width="374" height="28" fill="#27ae60" rx="3"/>
  <rect x="434" y="110" width="218" height="28" fill="#e74c3c" rx="3"/>
  <rect x="652" y="110" width="88" height="28" fill="#95a5a6" rx="3"/>
  <text x="60" y="152" text-anchor="start" font-size="11" fill="#27ae60">긍정 55%</text>
  <text x="400" y="152" text-anchor="middle" font-size="11" fill="#e74c3c">부정 32%</text>
  <text x="740" y="152" text-anchor="end" font-size="11" fill="#7f8c8d">중립 13%</text>
  <text x="60" y="168" font-size="11" fill="#555">💬 "스릴러 분위기 자체는 잘 잡힌 것 같다, 2화 기대된다"</text>

  <text x="60" y="220" font-size="13" font-weight="bold" fill="#2c3e50">에펨코리아 — 긍정 48건 / 부정 38건 / 중립 14건</text>
  <rect x="60" y="230" width="326" height="28" fill="#27ae60" rx="3"/>
  <rect x="386" y="230" width="258" height="28" fill="#e74c3c" rx="3"/>
  <rect x="644" y="230" width="96" height="28" fill="#95a5a6" rx="3"/>
  <text x="60" y="272" text-anchor="start" font-size="11" fill="#27ae60">긍정 48%</text>
  <text x="400" y="272" text-anchor="middle" font-size="11" fill="#e74c3c">부정 38%</text>
  <text x="740" y="272" text-anchor="end" font-size="11" fill="#7f8c8d">중립 14%</text>
  <text x="60" y="288" font-size="11" fill="#555">💬 "전현무가 형사 연기를 하는 게 아직은 어색하다"</text>

  <text x="60" y="340" font-size="13" font-weight="bold" fill="#2c3e50">드라마 갤러리 — 긍정 52건 / 부정 35건 / 중립 13건</text>
  <rect x="60" y="350" width="354" height="28" fill="#27ae60" rx="3"/>
  <rect x="414" y="350" width="238" height="28" fill="#e74c3c" rx="3"/>
  <rect x="652" y="350" width="88" height="28" fill="#95a5a6" rx="3"/>
  <text x="60" y="392" text-anchor="start" font-size="11" fill="#27ae60">긍정 52%</text>
  <text x="400" y="392" text-anchor="middle" font-size="11" fill="#e74c3c">부정 35%</text>
  <text x="740" y="392" text-anchor="end" font-size="11" fill="#7f8c8d">중립 13%</text>
  <text x="60" y="408" font-size="11" fill="#555">💬 "박민영이 이 캐릭터 잘 살리는 것 같다"</text>

  <text x="400" y="426" text-anchor="middle" font-size="10" fill="#bdc3c7">* 수치는 집계된 공감/반응 신호 기반 추산 | paperWanderer</text>
</svg>