<svg xmlns="http://www.w3.org/2000/svg" width="800" height="440" viewBox="0 0 800 440"
     font-family="'Apple SD Gothic Neo', 'Malgun Gothic', Arial, sans-serif">
  <rect width="800" height="440" fill="#f8f9fa" rx="12"/>
  <text x="400" y="36" text-anchor="middle" font-size="17" font-weight="bold" fill="#2c3e50">3월 수출 역대 최고 — 커뮤니티 반응</text>
  <text x="400" y="54" text-anchor="middle" font-size="11" fill="#7f8c8d">네이버뉴스 · 클리앙 · 에펨코리아 | 2026-03-24 20:00 KST</text>
  <rect x="490" y="66" width="12" height="12" fill="#27ae60" rx="2"/>
  <text x="506" y="77" font-size="11" fill="#2c3e50">긍정</text>
  <rect x="548" y="66" width="12" height="12" fill="#e74c3c" rx="2"/>
  <text x="564" y="77" font-size="11" fill="#2c3e50">부정</text>
  <rect x="606" y="66" width="12" height="12" fill="#95a5a6" rx="2"/>
  <text x="622" y="77" font-size="11" fill="#2c3e50">중립</text>

  <text x="60" y="100" font-size="13" font-weight="bold" fill="#2c3e50">네이버뉴스 댓글 — 긍정 600건 / 부정 50건 / 중립 150건</text>
  <rect x="60" y="110" width="510" height="28" fill="#27ae60" rx="3"/>
  <rect x="570" y="110" width="42" height="28" fill="#e74c3c" rx="3"/>
  <rect x="612" y="110" width="128" height="28" fill="#95a5a6" rx="3"/>
  <text x="60" y="152" text-anchor="start" font-size="11" fill="#27ae60">긍정 75%</text>
  <text x="400" y="152" text-anchor="middle" font-size="11" fill="#e74c3c">부정 6%</text>
  <text x="740" y="152" text-anchor="end" font-size="11" fill="#7f8c8d">중립 19%</text>
  <text x="60" y="168" font-size="11" fill="#555">💬 "반도체 164% 증가, 삼성 SK 장하다. 한국 먹여 살린다"</text>

  <text x="60" y="220" font-size="13" font-weight="bold" fill="#2c3e50">클리앙 — 긍정 300건 / 부정 30건 / 중립 90건</text>
  <rect x="60" y="230" width="486" height="28" fill="#27ae60" rx="3"/>
  <rect x="546" y="230" width="49" height="28" fill="#e74c3c" rx="3"/>
  <rect x="595" y="230" width="145" height="28" fill="#95a5a6" rx="3"/>
  <text x="60" y="272" text-anchor="start" font-size="11" fill="#27ae60">긍정 71%</text>
  <text x="400" y="272" text-anchor="middle" font-size="11" fill="#e74c3c">부정 7%</text>
  <text x="740" y="272" text-anchor="end" font-size="11" fill="#7f8c8d">중립 22%</text>
  <text x="60" y="288" font-size="11" fill="#555">💬 "수출은 역대급인데 체감 경기는 왜 이렇게 힘드냐"</text>

  <text x="60" y="340" font-size="13" font-weight="bold" fill="#2c3e50">에펨코리아 — 긍정 250건 / 부정 20건 / 중립 60건</text>
  <rect x="60" y="350" width="515" height="28" fill="#27ae60" rx="3"/>
  <rect x="575" y="350" width="41" height="28" fill="#e74c3c" rx="3"/>
  <rect x="616" y="350" width="124" height="28" fill="#95a5a6" rx="3"/>
  <text x="60" y="392" text-anchor="start" font-size="11" fill="#27ae60">긍정 76%</text>
  <text x="400" y="392" text-anchor="middle" font-size="11" fill="#e74c3c">부정 6%</text>
  <text x="740" y="392" text-anchor="end" font-size="11" fill="#7f8c8d">중립 18%</text>
  <text x="60" y="408" font-size="11" fill="#555">💬 "AI 반도체 사이클 오래 가길, 이게 한국 먹여 살리는 거"</text>

  <text x="400" y="426" text-anchor="middle" font-size="10" fill="#bdc3c7">* 수치는 집계된 공감/반응 신호 기반 추산 | paperWanderer</text>
</svg>