<svg xmlns="http://www.w3.org/2000/svg" width="800" height="322" viewBox="0 0 800 322"
     font-family="'Apple SD Gothic Neo', 'Malgun Gothic', Arial, sans-serif">
  <rect width="800" height="322" fill="#f8f9fa" rx="12"/>
  <text x="400" y="36" text-anchor="middle" font-size="17" font-weight="bold" fill="#2c3e50">국채 5조원 긴급 바이백 / WGBI 편입 — 반응 분석</text>
  <text x="400" y="54" text-anchor="middle" font-size="11" fill="#7f8c8d">글로벌 운용사 · 국내 채권 시장 | 2026-03-27 KST</text>
  <rect x="490" y="66" width="12" height="12" fill="#27ae60" rx="2"/>
  <text x="506" y="77" font-size="11" fill="#2c3e50">긍정</text>
  <rect x="548" y="66" width="12" height="12" fill="#e74c3c" rx="2"/>
  <text x="564" y="77" font-size="11" fill="#2c3e50">부정</text>
  <rect x="606" y="66" width="12" height="12" fill="#95a5a6" rx="2"/>
  <text x="622" y="77" font-size="11" fill="#2c3e50">중립</text>

  <text x="60" y="100" font-size="13" font-weight="bold" fill="#2c3e50">글로벌 운용사 — 긍정 65% / 부정 14% / 중립 21%</text>
  <rect x="60" y="110" width="442" height="28" fill="#27ae60" rx="3"/>
  <rect x="502" y="110" width="95" height="28" fill="#e74c3c" rx="3"/>
  <rect x="597" y="110" width="143" height="28" fill="#95a5a6" rx="3"/>
  <text x="60" y="152" text-anchor="start" font-size="11" fill="#27ae60">긍정 65%</text>
  <text x="400" y="152" text-anchor="middle" font-size="11" fill="#e74c3c">부정 14%</text>
  <text x="740" y="152" text-anchor="end" font-size="11" fill="#7f8c8d">중립 21%</text>
  <text x="60" y="168" font-size="11" fill="#555">💬 "한국 GDP 대비 국가부채 50% 수준 — 미국·일본·유럽보다 낮아 매력적"</text>

  <text x="60" y="220" font-size="13" font-weight="bold" fill="#2c3e50">국내 채권 시장 / 금융 미디어 — 긍정 65% / 부정 14% / 중립 21%</text>
  <rect x="60" y="230" width="442" height="28" fill="#27ae60" rx="3"/>
  <rect x="502" y="230" width="95" height="28" fill="#e74c3c" rx="3"/>
  <rect x="597" y="230" width="143" height="28" fill="#95a5a6" rx="3"/>
  <text x="60" y="272" text-anchor="start" font-size="11" fill="#27ae60">긍정 65%</text>
  <text x="400" y="272" text-anchor="middle" font-size="11" fill="#e74c3c">부정 14%</text>
  <text x="740" y="272" text-anchor="end" font-size="11" fill="#7f8c8d">중립 21%</text>
  <text x="60" y="288" font-size="11" fill="#555">💬 "5조원 규모 예상보다 크고 즉각 시행 — 당국의 강한 의지 신호로 시장 수용"</text>

  <text x="400" y="308" text-anchor="middle" font-size="10" fill="#bdc3c7">* 수치는 집계된 공감/반응 신호 기반 추산 | paperWanderer</text>
</svg>