<svg xmlns="http://www.w3.org/2000/svg" width="800" height="440" viewBox="0 0 800 440"
     font-family="'Apple SD Gothic Neo', 'Malgun Gothic', Arial, sans-serif">
  <rect width="800" height="440" fill="#f8f9fa" rx="12"/>
  <text x="400" y="36" text-anchor="middle" font-size="17" font-weight="bold" fill="#2c3e50">3·1혁명 기념사 — 커뮤니티 반응</text>
  <text x="400" y="54" text-anchor="middle" font-size="11" fill="#7f8c8d">FM코리아 · 네이버뉴스 · 온라인커뮤니티 | 2026-03-01 18:00 KST</text>
  <rect x="490" y="66" width="12" height="12" fill="#27ae60" rx="2"/>
  <text x="506" y="77" font-size="11" fill="#2c3e50">긍정</text>
  <rect x="548" y="66" width="12" height="12" fill="#e74c3c" rx="2"/>
  <text x="564" y="77" font-size="11" fill="#2c3e50">부정</text>
  <rect x="606" y="66" width="12" height="12" fill="#95a5a6" rx="2"/>
  <text x="622" y="77" font-size="11" fill="#2c3e50">중립</text>

  <text x="60" y="100" font-size="13" font-weight="bold" fill="#2c3e50">FM코리아 — 긍정 45건 / 부정 38건 / 중립 22건</text>
  <rect x="60" y="110" width="291" height="28" fill="#27ae60" rx="3"/>
  <rect x="351" y="110" width="246" height="28" fill="#e74c3c" rx="3"/>
  <rect x="597" y="110" width="143" height="28" fill="#95a5a6" rx="3"/>
  <text x="60" y="152" text-anchor="start" font-size="11" fill="#27ae60">긍정 43%</text>
  <text x="400" y="152" text-anchor="middle" font-size="11" fill="#e74c3c">부정 36%</text>
  <text x="740" y="152" text-anchor="end" font-size="11" fill="#7f8c8d">중립 21%</text>
  <text x="60" y="168" font-size="11" fill="#555">💬 "헌법에 3·1운동이라 명시됐는데 대통령이 마음대로 바꿔?"</text>

  <text x="60" y="220" font-size="13" font-weight="bold" fill="#2c3e50">네이버뉴스 — 긍정 62건 / 부정 71건 / 중립 15건</text>
  <rect x="60" y="230" width="285" height="28" fill="#27ae60" rx="3"/>
  <rect x="345" y="230" width="326" height="28" fill="#e74c3c" rx="3"/>
  <rect x="671" y="230" width="69" height="28" fill="#95a5a6" rx="3"/>
  <text x="60" y="272" text-anchor="start" font-size="11" fill="#27ae60">긍정 42%</text>
  <text x="400" y="272" text-anchor="middle" font-size="11" fill="#e74c3c">부정 48%</text>
  <text x="740" y="272" text-anchor="end" font-size="11" fill="#7f8c8d">중립 10%</text>
  <text x="60" y="288" font-size="11" fill="#555">💬 "북한 체제 존중은 삼일절 기념사에서 할 말이 아님"</text>

  <text x="60" y="340" font-size="13" font-weight="bold" fill="#2c3e50">온라인커뮤니티 — 긍정 28건 / 부정 52건 / 중립 20건</text>
  <rect x="60" y="350" width="190" height="28" fill="#27ae60" rx="3"/>
  <rect x="250" y="350" width="354" height="28" fill="#e74c3c" rx="3"/>
  <rect x="604" y="350" width="136" height="28" fill="#95a5a6" rx="3"/>
  <text x="60" y="392" text-anchor="start" font-size="11" fill="#27ae60">긍정 28%</text>
  <text x="400" y="392" text-anchor="middle" font-size="11" fill="#e74c3c">부정 52%</text>
  <text x="740" y="392" text-anchor="end" font-size="11" fill="#7f8c8d">중립 20%</text>
  <text x="60" y="408" font-size="11" fill="#555">💬 "결국 역사를 어떻게 부르느냐의 문제, 혁명이 맞다고 본다"</text>

  <text x="400" y="426" text-anchor="middle" font-size="10" fill="#bdc3c7">* 수치는 집계된 공감/반응 신호 기반 추산 | paperWanderer</text>
</svg>