<svg xmlns="http://www.w3.org/2000/svg" width="800" height="440" viewBox="0 0 800 440"
     font-family="'Apple SD Gothic Neo', 'Malgun Gothic', Arial, sans-serif">
  <rect width="800" height="440" fill="#f8f9fa" rx="12"/>
  <text x="400" y="36" text-anchor="middle" font-size="17" font-weight="bold" fill="#2c3e50">봄 다이어트·영양 — 커뮤니티 반응</text>
  <text x="400" y="54" text-anchor="middle" font-size="11" fill="#7f8c8d">네이버 뉴스 댓글 · 피트니스 커뮤니티 · 뷰티 커뮤니티 | 2026-03-16 21:00 KST</text>
  <rect x="490" y="66" width="12" height="12" fill="#27ae60" rx="2"/>
  <text x="506" y="77" font-size="11" fill="#2c3e50">긍정</text>
  <rect x="548" y="66" width="12" height="12" fill="#e74c3c" rx="2"/>
  <text x="564" y="77" font-size="11" fill="#2c3e50">부정</text>
  <rect x="606" y="66" width="12" height="12" fill="#95a5a6" rx="2"/>
  <text x="622" y="77" font-size="11" fill="#2c3e50">중립</text>

  <text x="60" y="100" font-size="13" font-weight="bold" fill="#2c3e50">네이버 뉴스 댓글 — 긍정 280건 / 부정 110건 / 중립 100건</text>
  <rect x="60" y="110" width="390" height="28" fill="#27ae60" rx="3"/>
  <rect x="450" y="110" width="153" height="28" fill="#e74c3c" rx="3"/>
  <rect x="603" y="110" width="137" height="28" fill="#95a5a6" rx="3"/>
  <text x="60" y="152" text-anchor="start" font-size="11" fill="#27ae60">긍정 57%</text>
  <text x="400" y="152" text-anchor="middle" font-size="11" fill="#e74c3c">부정 22%</text>
  <text x="740" y="152" text-anchor="end" font-size="11" fill="#7f8c8d">중립 21%</text>
  <text x="60" y="168" font-size="11" fill="#555">💬 "봄이 되니 다시 헬스장 끊었다 이번엔 진짜 꾸준히 해보자"</text>

  <text x="60" y="220" font-size="13" font-weight="bold" fill="#2c3e50">피트니스 커뮤니티 — 긍정 120건 / 부정 50건 / 중립 80건</text>
  <rect x="60" y="230" width="327" height="28" fill="#27ae60" rx="3"/>
  <rect x="387" y="230" width="136" height="28" fill="#e74c3c" rx="3"/>
  <rect x="523" y="230" width="217" height="28" fill="#95a5a6" rx="3"/>
  <text x="60" y="272" text-anchor="start" font-size="11" fill="#27ae60">긍정 48%</text>
  <text x="400" y="272" text-anchor="middle" font-size="11" fill="#e74c3c">부정 20%</text>
  <text x="740" y="272" text-anchor="end" font-size="11" fill="#7f8c8d">중립 32%</text>
  <text x="60" y="288" font-size="11" fill="#555">💬 "GLP-1 주사 덕에 6개월에 15kg 감량했다 물론 부작용도 있었지만"</text>

  <text x="60" y="340" font-size="13" font-weight="bold" fill="#2c3e50">뷰티 커뮤니티 — 긍정 40건 / 부정 20건 / 중립 80건</text>
  <rect x="60" y="350" width="194" height="28" fill="#27ae60" rx="3"/>
  <rect x="254" y="350" width="97" height="28" fill="#e74c3c" rx="3"/>
  <rect x="351" y="350" width="389" height="28" fill="#95a5a6" rx="3"/>
  <text x="60" y="392" text-anchor="start" font-size="11" fill="#27ae60">긍정 29%</text>
  <text x="400" y="392" text-anchor="middle" font-size="11" fill="#e74c3c">부정 14%</text>
  <text x="740" y="392" text-anchor="end" font-size="11" fill="#7f8c8d">중립 57%</text>
  <text x="60" y="408" font-size="11" fill="#555">💬 "근손실 없이 살만 빠지는 게 어딨나 운동이 답이다"</text>

  <text x="400" y="426" text-anchor="middle" font-size="10" fill="#bdc3c7">* 수치는 집계된 공감/반응 신호 기반 추산 | paperWanderer</text>
</svg>