<svg xmlns="http://www.w3.org/2000/svg" width="800" height="440" viewBox="0 0 800 440"
     font-family="'Apple SD Gothic Neo', 'Malgun Gothic', Arial, sans-serif">
  <rect width="800" height="440" fill="#f8f9fa" rx="12"/>
  <text x="400" y="36" text-anchor="middle" font-size="17" font-weight="bold" fill="#2c3e50">반도체 수출 역대 최대 — 커뮤니티 반응</text>
  <text x="400" y="54" text-anchor="middle" font-size="11" fill="#7f8c8d">네이버 뉴스 · 디시인사이드 주식갤 · 클리앙 | 2026-03-07 21:00 KST</text>
  <rect x="490" y="66" width="12" height="12" fill="#27ae60" rx="2"/>
  <text x="506" y="77" font-size="11" fill="#2c3e50">긍정</text>
  <rect x="548" y="66" width="12" height="12" fill="#e74c3c" rx="2"/>
  <text x="564" y="77" font-size="11" fill="#2c3e50">부정</text>
  <rect x="606" y="66" width="12" height="12" fill="#95a5a6" rx="2"/>
  <text x="622" y="77" font-size="11" fill="#2c3e50">중립</text>

  <text x="60" y="100" font-size="13" font-weight="bold" fill="#2c3e50">네이버 뉴스 댓글 — 긍정 520건 / 부정 120건 / 중립 360건</text>
  <rect x="60" y="110" width="354" height="28" fill="#27ae60" rx="3"/>
  <rect x="414" y="110" width="82" height="28" fill="#e74c3c" rx="3"/>
  <rect x="496" y="110" width="244" height="28" fill="#95a5a6" rx="3"/>
  <text x="60" y="152" text-anchor="start" font-size="11" fill="#27ae60">긍정 52%</text>
  <text x="400" y="152" text-anchor="middle" font-size="11" fill="#e74c3c">부정 12%</text>
  <text x="740" y="152" text-anchor="end" font-size="11" fill="#7f8c8d">중립 36%</text>
  <text x="60" y="168" font-size="11" fill="#555">💬 "이란 전쟁으로 증시 폭락인데 반도체는 살아있다. 그나마 다행"</text>

  <text x="60" y="220" font-size="13" font-weight="bold" fill="#2c3e50">디시인사이드 주식갤 — 긍정 240건 / 부정 60건 / 중립 300건</text>
  <rect x="60" y="230" width="272" height="28" fill="#27ae60" rx="3"/>
  <rect x="332" y="230" width="68" height="28" fill="#e74c3c" rx="3"/>
  <rect x="400" y="230" width="340" height="28" fill="#95a5a6" rx="3"/>
  <text x="60" y="272" text-anchor="start" font-size="11" fill="#27ae60">긍정 40%</text>
  <text x="400" y="272" text-anchor="middle" font-size="11" fill="#e74c3c">부정 10%</text>
  <text x="740" y="272" text-anchor="end" font-size="11" fill="#7f8c8d">중립 50%</text>
  <text x="60" y="288" font-size="11" fill="#555">💬 "삼전·하이닉스 지금 저점에서 담아야 하는 거 아닌가"</text>

  <text x="60" y="340" font-size="13" font-weight="bold" fill="#2c3e50">클리앙 — 긍정 180건 / 부정 80건 / 중립 240건</text>
  <rect x="60" y="350" width="245" height="28" fill="#27ae60" rx="3"/>
  <rect x="305" y="350" width="109" height="28" fill="#e74c3c" rx="3"/>
  <rect x="414" y="350" width="326" height="28" fill="#95a5a6" rx="3"/>
  <text x="60" y="392" text-anchor="start" font-size="11" fill="#27ae60">긍정 36%</text>
  <text x="400" y="392" text-anchor="middle" font-size="11" fill="#e74c3c">부정 16%</text>
  <text x="740" y="392" text-anchor="end" font-size="11" fill="#7f8c8d">중립 48%</text>
  <text x="60" y="408" font-size="11" fill="#555">💬 "반도체 하나에 의존하는 구조 자체가 리스크다"</text>

  <text x="400" y="426" text-anchor="middle" font-size="10" fill="#bdc3c7">* 수치는 집계된 공감/반응 신호 기반 추산 | paperWanderer</text>
</svg>