<svg xmlns="http://www.w3.org/2000/svg" width="800" height="440" viewBox="0 0 800 440"
     font-family="'Apple SD Gothic Neo', 'Malgun Gothic', Arial, sans-serif">
  <rect width="800" height="440" fill="#f8f9fa" rx="12"/>
  <text x="400" y="36" text-anchor="middle" font-size="17" font-weight="bold" fill="#2c3e50">촉법소년 연령 13세 하향 논쟁 — 커뮤니티 반응</text>
  <text x="400" y="54" text-anchor="middle" font-size="11" fill="#7f8c8d">네이버 뉴스 · DC인사이드/클리앙 · 전체 합산 | 2026-03-16 21:30 KST</text>
  <rect x="490" y="66" width="12" height="12" fill="#27ae60" rx="2"/>
  <text x="506" y="77" font-size="11" fill="#2c3e50">긍정</text>
  <rect x="548" y="66" width="12" height="12" fill="#e74c3c" rx="2"/>
  <text x="564" y="77" font-size="11" fill="#2c3e50">부정</text>
  <rect x="606" y="66" width="12" height="12" fill="#95a5a6" rx="2"/>
  <text x="622" y="77" font-size="11" fill="#2c3e50">중립</text>

  <text x="60" y="100" font-size="13" font-weight="bold" fill="#2c3e50">네이버 뉴스 댓글 — 긍정 360건 / 부정 260건 / 중립 160건</text>
  <rect x="60" y="110" width="315" height="28" fill="#27ae60" rx="3"/>
  <rect x="375" y="110" width="227" height="28" fill="#e74c3c" rx="3"/>
  <rect x="602" y="110" width="138" height="28" fill="#95a5a6" rx="3"/>
  <text x="60" y="152" text-anchor="start" font-size="11" fill="#27ae60">긍정 46%</text>
  <text x="400" y="152" text-anchor="middle" font-size="11" fill="#e74c3c">부정 33%</text>
  <text x="740" y="152" text-anchor="end" font-size="11" fill="#7f8c8d">중립 21%</text>
  <text x="60" y="168" font-size="11" fill="#555">💬 "14세 기준은 너무 낡은 기준 지금 13세들이 저지르는 범죄 수준 알고나 있나" (공감 178)</text>

  <text x="60" y="220" font-size="13" font-weight="bold" fill="#2c3e50">DC인사이드/클리앙 — 긍정 200건 / 부정 160건 / 중립 220건</text>
  <rect x="60" y="230" width="235" height="28" fill="#27ae60" rx="3"/>
  <rect x="295" y="230" width="188" height="28" fill="#e74c3c" rx="3"/>
  <rect x="483" y="230" width="257" height="28" fill="#95a5a6" rx="3"/>
  <text x="60" y="272" text-anchor="start" font-size="11" fill="#27ae60">긍정 35%</text>
  <text x="400" y="272" text-anchor="middle" font-size="11" fill="#e74c3c">부정 28%</text>
  <text x="740" y="272" text-anchor="end" font-size="11" fill="#7f8c8d">중립 37%</text>
  <text x="60" y="288" font-size="11" fill="#555">💬 "선진국들이 오히려 연령 상향 추세인데 우리만 역행하는 거 아닌가" (공감 78)</text>

  <text x="60" y="340" font-size="13" font-weight="bold" fill="#2c3e50">전체 합산 — 긍정 560건 / 부정 420건 / 중립 380건</text>
  <rect x="60" y="350" width="280" height="28" fill="#27ae60" rx="3"/>
  <rect x="340" y="350" width="210" height="28" fill="#e74c3c" rx="3"/>
  <rect x="550" y="350" width="190" height="28" fill="#95a5a6" rx="3"/>
  <text x="60" y="392" text-anchor="start" font-size="11" fill="#27ae60">긍정 41%</text>
  <text x="400" y="392" text-anchor="middle" font-size="11" fill="#e74c3c">부정 31%</text>
  <text x="740" y="392" text-anchor="end" font-size="11" fill="#7f8c8d">중립 28%</text>
  <text x="60" y="408" font-size="11" fill="#555">💬 "처벌로 재범 예방 된다는 근거가 없다 교화 시스템을 강화하는 게 맞다"</text>

  <text x="400" y="426" text-anchor="middle" font-size="10" fill="#bdc3c7">* 수치는 집계된 공감/반응 신호 기반 추산 | paperWanderer</text>
</svg>