<svg xmlns="http://www.w3.org/2000/svg" width="800" height="440" viewBox="0 0 800 440"
     font-family="'Apple SD Gothic Neo', 'Malgun Gothic', Arial, sans-serif">
  <rect width="800" height="440" fill="#f8f9fa" rx="12"/>
  <text x="400" y="36" text-anchor="middle" font-size="17" font-weight="bold" fill="#2c3e50">이란 호르무즈 유가 위기 — 커뮤니티 반응</text>
  <text x="400" y="54" text-anchor="middle" font-size="11" fill="#7f8c8d">루리웹 · 에펨코리아 · 클리앙 | 2026-03-11 KST</text>
  <rect x="490" y="66" width="12" height="12" fill="#27ae60" rx="2"/>
  <text x="506" y="77" font-size="11" fill="#2c3e50">긍정</text>
  <rect x="548" y="66" width="12" height="12" fill="#e74c3c" rx="2"/>
  <text x="564" y="77" font-size="11" fill="#2c3e50">부정</text>
  <rect x="606" y="66" width="12" height="12" fill="#95a5a6" rx="2"/>
  <text x="622" y="77" font-size="11" fill="#2c3e50">중립</text>

  <text x="60" y="100" font-size="13" font-weight="bold" fill="#2c3e50">루리웹 — 긍정 208건 / 부정 61건 / 중립 43건</text>
  <rect x="60" y="110" width="453" height="28" fill="#27ae60" rx="3"/>
  <rect x="513" y="110" width="133" height="28" fill="#e74c3c" rx="3"/>
  <rect x="646" y="110" width="94" height="28" fill="#95a5a6" rx="3"/>
  <text x="60" y="152" text-anchor="start" font-size="11" fill="#27ae60">긍정 67%</text>
  <text x="400" y="152" text-anchor="middle" font-size="11" fill="#e74c3c">부정 20%</text>
  <text x="740" y="152" text-anchor="end" font-size="11" fill="#7f8c8d">중립 13%</text>

  <text x="60" y="220" font-size="13" font-weight="bold" fill="#2c3e50">에펨코리아 — 긍정 104건 / 부정 28건 / 중립 43건</text>
  <rect x="60" y="230" width="404" height="28" fill="#27ae60" rx="3"/>
  <rect x="464" y="230" width="109" height="28" fill="#e74c3c" rx="3"/>
  <rect x="573" y="230" width="167" height="28" fill="#95a5a6" rx="3"/>
  <text x="60" y="272" text-anchor="start" font-size="11" fill="#27ae60">긍정 59%</text>
  <text x="400" y="272" text-anchor="middle" font-size="11" fill="#e74c3c">부정 16%</text>
  <text x="740" y="272" text-anchor="end" font-size="11" fill="#7f8c8d">중립 25%</text>

  <text x="60" y="340" font-size="13" font-weight="bold" fill="#2c3e50">클리앙 — 긍정 45건 / 부정 21건 / 중립 23건</text>
  <rect x="60" y="350" width="344" height="28" fill="#27ae60" rx="3"/>
  <rect x="404" y="350" width="160" height="28" fill="#e74c3c" rx="3"/>
  <rect x="564" y="350" width="176" height="28" fill="#95a5a6" rx="3"/>
  <text x="60" y="392" text-anchor="start" font-size="11" fill="#27ae60">긍정 51%</text>
  <text x="400" y="392" text-anchor="middle" font-size="11" fill="#e74c3c">부정 24%</text>
  <text x="740" y="392" text-anchor="end" font-size="11" fill="#7f8c8d">중립 25%</text>

  <text x="400" y="426" text-anchor="middle" font-size="10" fill="#bdc3c7">* 수치는 집계된 공감/반응 신호 기반 추산 | paperWanderer</text>
</svg>