<svg xmlns="http://www.w3.org/2000/svg" width="800" height="440" viewBox="0 0 800 440"
     font-family="'Apple SD Gothic Neo', 'Malgun Gothic', Arial, sans-serif">
  <rect width="800" height="440" fill="#f8f9fa" rx="12"/>
  <text x="400" y="36" text-anchor="middle" font-size="17" font-weight="bold" fill="#2c3e50">봄 매화 여행 절정 — 커뮤니티 반응</text>
  <text x="400" y="54" text-anchor="middle" font-size="11" fill="#7f8c8d">네이버 뉴스/블로그 · 클리앙/여행커뮤니티 · 전체 합산 | 2026-03-16 20:00 KST</text>
  <rect x="490" y="66" width="12" height="12" fill="#27ae60" rx="2"/>
  <text x="506" y="77" font-size="11" fill="#2c3e50">긍정</text>
  <rect x="548" y="66" width="12" height="12" fill="#e74c3c" rx="2"/>
  <text x="564" y="77" font-size="11" fill="#2c3e50">부정</text>
  <rect x="606" y="66" width="12" height="12" fill="#95a5a6" rx="2"/>
  <text x="622" y="77" font-size="11" fill="#2c3e50">중립</text>

  <text x="60" y="100" font-size="13" font-weight="bold" fill="#2c3e50">네이버 뉴스/블로그 — 긍정 580건 / 부정 110건 / 중립 130건</text>
  <rect x="60" y="110" width="481" height="28" fill="#27ae60" rx="3"/>
  <rect x="541" y="110" width="91" height="28" fill="#e74c3c" rx="3"/>
  <rect x="632" y="110" width="108" height="28" fill="#95a5a6" rx="3"/>
  <text x="60" y="152" text-anchor="start" font-size="11" fill="#27ae60">긍정 71%</text>
  <text x="400" y="152" text-anchor="middle" font-size="11" fill="#e74c3c">부정 13%</text>
  <text x="740" y="152" text-anchor="end" font-size="11" fill="#7f8c8d">중립 16%</text>
  <text x="60" y="168" font-size="11" fill="#555">💬 "원동 매화축제 다녀왔는데 진짜 너무 예뻤다 내년에도 꼭 가야겠다" (공감 246)</text>

  <text x="60" y="220" font-size="13" font-weight="bold" fill="#2c3e50">클리앙/여행커뮤니티 — 긍정 340건 / 부정 70건 / 중립 210건</text>
  <rect x="60" y="230" width="378" height="28" fill="#27ae60" rx="3"/>
  <rect x="438" y="230" width="78" height="28" fill="#e74c3c" rx="3"/>
  <rect x="516" y="230" width="224" height="28" fill="#95a5a6" rx="3"/>
  <text x="60" y="272" text-anchor="start" font-size="11" fill="#27ae60">긍정 56%</text>
  <text x="400" y="272" text-anchor="middle" font-size="11" fill="#e74c3c">부정 11%</text>
  <text x="740" y="272" text-anchor="end" font-size="11" fill="#7f8c8d">중립 33%</text>
  <text x="60" y="288" font-size="11" fill="#555">💬 "고환율이라 제주 국내 여행이 오히려 경제적이다 이번 주 제주 갈 예정" (공감 156)</text>

  <text x="60" y="340" font-size="13" font-weight="bold" fill="#2c3e50">전체 합산 — 긍정 920건 / 부정 180건 / 중립 340건</text>
  <rect x="60" y="350" width="434" height="28" fill="#27ae60" rx="3"/>
  <rect x="494" y="350" width="85" height="28" fill="#e74c3c" rx="3"/>
  <rect x="579" y="350" width="161" height="28" fill="#95a5a6" rx="3"/>
  <text x="60" y="392" text-anchor="start" font-size="11" fill="#27ae60">긍정 64%</text>
  <text x="400" y="392" text-anchor="middle" font-size="11" fill="#e74c3c">부정 12%</text>
  <text x="740" y="392" text-anchor="end" font-size="11" fill="#7f8c8d">중립 24%</text>
  <text x="60" y="408" font-size="11" fill="#555">💬 "3월 봄 여행이 4월보다 훨씬 한가해서 좋다 올해도 창경궁 다녀왔음" (공감 198)</text>

  <text x="400" y="426" text-anchor="middle" font-size="10" fill="#bdc3c7">* 수치는 집계된 공감/반응 신호 기반 추산 | paperWanderer</text>
</svg>