<svg xmlns="http://www.w3.org/2000/svg" width="800" height="440" viewBox="0 0 800 440"
     font-family="'Apple SD Gothic Neo', 'Malgun Gothic', Arial, sans-serif">
  <rect width="800" height="440" fill="#f8f9fa" rx="12"/>
  <text x="400" y="36" text-anchor="middle" font-size="17" font-weight="bold" fill="#2c3e50">2026 KBO 시범경기 — 커뮤니티 반응</text>
  <text x="400" y="54" text-anchor="middle" font-size="11" fill="#7f8c8d">에펨코리아 · 더쿠 · 네이버뉴스 | 2026-03-23 KST</text>
  <rect x="490" y="66" width="12" height="12" fill="#27ae60" rx="2"/>
  <text x="506" y="77" font-size="11" fill="#2c3e50">긍정</text>
  <rect x="548" y="66" width="12" height="12" fill="#e74c3c" rx="2"/>
  <text x="564" y="77" font-size="11" fill="#2c3e50">부정</text>
  <rect x="606" y="66" width="12" height="12" fill="#95a5a6" rx="2"/>
  <text x="622" y="77" font-size="11" fill="#2c3e50">중립</text>

  <text x="60" y="100" font-size="13" font-weight="bold" fill="#2c3e50">에펨코리아 — 긍정 240건 / 부정 80건 / 중립 130건</text>
  <rect x="60" y="110" width="362" height="28" fill="#27ae60" rx="3"/>
  <rect x="422" y="110" width="121" height="28" fill="#e74c3c" rx="3"/>
  <rect x="543" y="110" width="197" height="28" fill="#95a5a6" rx="3"/>
  <text x="60" y="152" text-anchor="start" font-size="11" fill="#27ae60">긍정 53%</text>
  <text x="400" y="152" text-anchor="middle" font-size="11" fill="#e74c3c">부정 18%</text>
  <text x="740" y="152" text-anchor="end" font-size="11" fill="#7f8c8d">중립 29%</text>
  <text x="60" y="168" font-size="11" fill="#555">💬 "롯데 시범경기 1위 진짜임? 개막전도 기대된다"</text>

  <text x="60" y="220" font-size="13" font-weight="bold" fill="#2c3e50">더쿠 — 긍정 200건 / 부정 110건 / 중립 135건</text>
  <rect x="60" y="230" width="305" height="28" fill="#27ae60" rx="3"/>
  <rect x="365" y="230" width="170" height="28" fill="#e74c3c" rx="3"/>
  <rect x="535" y="230" width="205" height="28" fill="#95a5a6" rx="3"/>
  <text x="60" y="272" text-anchor="start" font-size="11" fill="#27ae60">긍정 45%</text>
  <text x="400" y="272" text-anchor="middle" font-size="11" fill="#e74c3c">부정 25%</text>
  <text x="740" y="272" text-anchor="end" font-size="11" fill="#7f8c8d">중립 30%</text>
  <text x="60" y="288" font-size="11" fill="#555">💬 "한화 11점 폭발! 개막전이 더 기대되는데"</text>

  <text x="60" y="340" font-size="13" font-weight="bold" fill="#2c3e50">네이버뉴스 — 긍정 220건 / 부정 88건 / 중립 132건</text>
  <rect x="60" y="350" width="340" height="28" fill="#27ae60" rx="3"/>
  <rect x="400" y="350" width="136" height="28" fill="#e74c3c" rx="3"/>
  <rect x="536" y="350" width="204" height="28" fill="#95a5a6" rx="3"/>
  <text x="60" y="392" text-anchor="start" font-size="11" fill="#27ae60">긍정 50%</text>
  <text x="400" y="392" text-anchor="middle" font-size="11" fill="#e74c3c">부정 20%</text>
  <text x="740" y="392" text-anchor="end" font-size="11" fill="#7f8c8d">중립 30%</text>
  <text x="60" y="408" font-size="11" fill="#555">💬 "개막 닷새 전 시범경기 결과라 그냥 참고만 합니다"</text>

  <text x="400" y="426" text-anchor="middle" font-size="10" fill="#bdc3c7">* 수치는 집계된 공감/반응 신호 기반 추산 | paperWanderer</text>
</svg>