<svg xmlns="http://www.w3.org/2000/svg" width="800" height="440" viewBox="0 0 800 440"
     font-family="'Apple SD Gothic Neo', 'Malgun Gothic', Arial, sans-serif">
  <rect width="800" height="440" fill="#f8f9fa" rx="12"/>
  <text x="400" y="36" text-anchor="middle" font-size="17" font-weight="bold" fill="#2c3e50">BTS 아리랑 컴백 — 커뮤니티 반응</text>
  <text x="400" y="54" text-anchor="middle" font-size="11" fill="#7f8c8d">DC인사이드 · 에펨코리아 · 트위터/X | 2026-03-21~22 KST</text>
  <rect x="490" y="66" width="12" height="12" fill="#27ae60" rx="2"/>
  <text x="506" y="77" font-size="11" fill="#2c3e50">긍정</text>
  <rect x="548" y="66" width="12" height="12" fill="#e74c3c" rx="2"/>
  <text x="564" y="77" font-size="11" fill="#2c3e50">부정</text>
  <rect x="606" y="66" width="12" height="12" fill="#95a5a6" rx="2"/>
  <text x="622" y="77" font-size="11" fill="#2c3e50">중립</text>

  <text x="60" y="100" font-size="13" font-weight="bold" fill="#2c3e50">DC인사이드 베스트 — 추천 581건 / 댓글 761건</text>
  <rect x="60" y="110" width="398" height="28" fill="#27ae60" rx="3"/>
  <rect x="458" y="110" width="94" height="28" fill="#e74c3c" rx="3"/>
  <rect x="552" y="110" width="188" height="28" fill="#95a5a6" rx="3"/>
  <text x="60" y="152" text-anchor="start" font-size="11" fill="#27ae60">긍정 59%</text>
  <text x="400" y="152" text-anchor="middle" font-size="11" fill="#e74c3c">부정 14%</text>
  <text x="740" y="152" text-anchor="end" font-size="11" fill="#7f8c8d">중립 27%</text>
  <text x="60" y="168" font-size="11" fill="#555">💬 "군대 다녀와서 이렇게 멋있게 돌아오다니... 눈물"</text>

  <text x="60" y="220" font-size="13" font-weight="bold" fill="#2c3e50">에펨코리아 — 공연 논란 포텐 게시물 반응</text>
  <rect x="60" y="230" width="210" height="28" fill="#27ae60" rx="3"/>
  <rect x="270" y="230" width="310" height="28" fill="#e74c3c" rx="3"/>
  <rect x="580" y="230" width="160" height="28" fill="#95a5a6" rx="3"/>
  <text x="60" y="272" text-anchor="start" font-size="11" fill="#27ae60">긍정 31%</text>
  <text x="400" y="272" text-anchor="middle" font-size="11" fill="#e74c3c">부정 46%</text>
  <text x="740" y="272" text-anchor="end" font-size="11" fill="#7f8c8d">중립 23%</text>
  <text x="60" y="288" font-size="11" fill="#555">💬 "공연 자체는 좋은데 공무원 1만명 동원은 진짜..."</text>

  <text x="60" y="340" font-size="13" font-weight="bold" fill="#2c3e50">트위터/X — 글로벌 팬 반응</text>
  <rect x="60" y="350" width="450" height="28" fill="#27ae60" rx="3"/>
  <rect x="510" y="350" width="120" height="28" fill="#e74c3c" rx="3"/>
  <rect x="630" y="350" width="110" height="28" fill="#95a5a6" rx="3"/>
  <text x="60" y="392" text-anchor="start" font-size="11" fill="#27ae60">긍정 66%</text>
  <text x="400" y="392" text-anchor="middle" font-size="11" fill="#e74c3c">부정 18%</text>
  <text x="740" y="392" text-anchor="end" font-size="11" fill="#7f8c8d">중립 16%</text>
  <text x="60" y="408" font-size="11" fill="#555">💬 "4만명이든 10만명이든 ARMY는 세계 어디서나 하나"</text>

  <text x="400" y="426" text-anchor="middle" font-size="10" fill="#bdc3c7">* 수치는 집계된 공감/반응 신호 기반 추산 | paperWanderer</text>
</svg>