<svg xmlns="http://www.w3.org/2000/svg" width="800" height="440" viewBox="0 0 800 440"
     font-family="'Apple SD Gothic Neo', 'Malgun Gothic', Arial, sans-serif">
  <rect width="800" height="440" fill="#f8f9fa" rx="12"/>
  <text x="400" y="36" text-anchor="middle" font-size="17" font-weight="bold" fill="#2c3e50">차바이오텍 자산매각 — 커뮤니티 반응</text>
  <text x="400" y="54" text-anchor="middle" font-size="11" fill="#7f8c8d">네이버 금융 · 증권 커뮤니티 · 클리앙 | 2026-03-24 21:00 KST</text>
  <rect x="490" y="66" width="12" height="12" fill="#27ae60" rx="2"/>
  <text x="506" y="77" font-size="11" fill="#2c3e50">긍정</text>
  <rect x="548" y="66" width="12" height="12" fill="#e74c3c" rx="2"/>
  <text x="564" y="77" font-size="11" fill="#2c3e50">부정</text>
  <rect x="606" y="66" width="12" height="12" fill="#95a5a6" rx="2"/>
  <text x="622" y="77" font-size="11" fill="#2c3e50">중립</text>

  <text x="60" y="100" font-size="13" font-weight="bold" fill="#2c3e50">네이버 금융 — 긍정 110건 / 부정 80건 / 중립 60건</text>
  <rect x="60" y="110" width="299" height="28" fill="#27ae60" rx="3"/>
  <rect x="359" y="110" width="218" height="28" fill="#e74c3c" rx="3"/>
  <rect x="577" y="110" width="163" height="28" fill="#95a5a6" rx="3"/>
  <text x="60" y="152" text-anchor="start" font-size="11" fill="#27ae60">긍정 44%</text>
  <text x="400" y="152" text-anchor="middle" font-size="11" fill="#e74c3c">부정 32%</text>
  <text x="740" y="152" text-anchor="end" font-size="11" fill="#7f8c8d">중립 24%</text>
  <text x="60" y="168" font-size="11" fill="#555">💬 "비핵심 정리하고 핵심에 집중하는 건 맞는 방향, 실적으로 보여주면 된다"</text>

  <text x="60" y="220" font-size="13" font-weight="bold" fill="#2c3e50">증권 커뮤니티 — 긍정 70건 / 부정 40건 / 중립 50건</text>
  <rect x="60" y="230" width="298" height="28" fill="#27ae60" rx="3"/>
  <rect x="358" y="230" width="170" height="28" fill="#e74c3c" rx="3"/>
  <rect x="528" y="230" width="212" height="28" fill="#95a5a6" rx="3"/>
  <text x="60" y="272" text-anchor="start" font-size="11" fill="#27ae60">긍정 44%</text>
  <text x="400" y="272" text-anchor="middle" font-size="11" fill="#e74c3c">부정 25%</text>
  <text x="740" y="272" text-anchor="end" font-size="11" fill="#7f8c8d">중립 31%</text>
  <text x="60" y="288" font-size="11" fill="#555">💬 "4년 연속 적자에 자산 팔아 버티는 건데, CGT 수익화가 언제?"</text>

  <text x="60" y="340" font-size="13" font-weight="bold" fill="#2c3e50">클리앙 — 긍정 50건 / 부정 30건 / 중립 30건</text>
  <rect x="60" y="350" width="309" height="28" fill="#27ae60" rx="3"/>
  <rect x="369" y="350" width="185" height="28" fill="#e74c3c" rx="3"/>
  <rect x="554" y="350" width="186" height="28" fill="#95a5a6" rx="3"/>
  <text x="60" y="392" text-anchor="start" font-size="11" fill="#27ae60">긍정 45%</text>
  <text x="400" y="392" text-anchor="middle" font-size="11" fill="#e74c3c">부정 27%</text>
  <text x="740" y="392" text-anchor="end" font-size="11" fill="#7f8c8d">중립 28%</text>
  <text x="60" y="408" font-size="11" fill="#555">💬 "오너 3세가 MIT까지 나왔으니 뭔가 달라지길 기대"</text>

  <text x="400" y="426" text-anchor="middle" font-size="10" fill="#bdc3c7">* 수치는 집계된 공감/반응 신호 기반 추산 | paperWanderer</text>
</svg>