<svg xmlns="http://www.w3.org/2000/svg" width="800" height="440" viewBox="0 0 800 440"
     font-family="'Apple SD Gothic Neo', 'Malgun Gothic', Arial, sans-serif">
  <rect width="800" height="440" fill="#f8f9fa" rx="12"/>
  <text x="400" y="36" text-anchor="middle" font-size="17" font-weight="bold" fill="#2c3e50">붉은사막 — 커뮤니티 반응</text>
  <text x="400" y="54" text-anchor="middle" font-size="11" fill="#7f8c8d">루리웹 · 에펨코리아 · 스팀(영미권) | 2026-03-24 22:00 KST</text>
  <rect x="490" y="66" width="12" height="12" fill="#27ae60" rx="2"/>
  <text x="506" y="77" font-size="11" fill="#2c3e50">긍정</text>
  <rect x="548" y="66" width="12" height="12" fill="#e74c3c" rx="2"/>
  <text x="564" y="77" font-size="11" fill="#2c3e50">부정</text>
  <rect x="606" y="66" width="12" height="12" fill="#95a5a6" rx="2"/>
  <text x="622" y="77" font-size="11" fill="#2c3e50">중립</text>

  <text x="60" y="100" font-size="13" font-weight="bold" fill="#2c3e50">루리웹 — 긍정 300건 / 부정 400건 / 중립 200건</text>
  <rect x="60" y="110" width="227" height="28" fill="#27ae60" rx="3"/>
  <rect x="287" y="110" width="302" height="28" fill="#e74c3c" rx="3"/>
  <rect x="589" y="110" width="151" height="28" fill="#95a5a6" rx="3"/>
  <text x="60" y="152" text-anchor="start" font-size="11" fill="#27ae60">긍정 33%</text>
  <text x="400" y="152" text-anchor="middle" font-size="11" fill="#e74c3c">부정 44%</text>
  <text x="740" y="152" text-anchor="end" font-size="11" fill="#7f8c8d">중립 23%</text>
  <text x="60" y="168" font-size="11" fill="#555">💬 "그래픽 최고, 하지만 불친절한 UI는 개선 필요"</text>

  <text x="60" y="220" font-size="13" font-weight="bold" fill="#2c3e50">에펨코리아 — 긍정 500건 / 부정 200건 / 중립 100건</text>
  <rect x="60" y="230" width="425" height="28" fill="#27ae60" rx="3"/>
  <rect x="485" y="230" width="170" height="28" fill="#e74c3c" rx="3"/>
  <rect x="655" y="230" width="85" height="28" fill="#95a5a6" rx="3"/>
  <text x="60" y="272" text-anchor="start" font-size="11" fill="#27ae60">긍정 62%</text>
  <text x="400" y="272" text-anchor="middle" font-size="11" fill="#e74c3c">부정 25%</text>
  <text x="740" y="272" text-anchor="end" font-size="11" fill="#7f8c8d">중립 13%</text>
  <text x="60" y="288" font-size="11" fill="#555">💬 "패치 이후 조작감 확실히 나아졌다, 붉며든다"</text>

  <text x="60" y="340" font-size="13" font-weight="bold" fill="#2c3e50">스팀 이용자 평가(영미권) — 긍정 140건 / 부정 60건 / 중립 40건</text>
  <rect x="60" y="350" width="397" height="28" fill="#27ae60" rx="3"/>
  <rect x="457" y="350" width="170" height="28" fill="#e74c3c" rx="3"/>
  <rect x="627" y="350" width="113" height="28" fill="#95a5a6" rx="3"/>
  <text x="60" y="392" text-anchor="start" font-size="11" fill="#27ae60">긍정 58%</text>
  <text x="400" y="392" text-anchor="middle" font-size="11" fill="#e74c3c">부정 25%</text>
  <text x="740" y="392" text-anchor="end" font-size="11" fill="#7f8c8d">중립 17%</text>
  <text x="60" y="408" font-size="11" fill="#555">💬 "Rough around the edges but genuinely fun once it clicks"</text>

  <text x="400" y="426" text-anchor="middle" font-size="10" fill="#bdc3c7">* 수치는 집계된 공감/반응 신호 기반 추산 | paperWanderer</text>
</svg>