<svg xmlns="http://www.w3.org/2000/svg" width="800" height="440" viewBox="0 0 800 440"
     font-family="'Apple SD Gothic Neo', 'Malgun Gothic', Arial, sans-serif">
  <rect width="800" height="440" fill="#f8f9fa" rx="12"/>
  <text x="400" y="36" text-anchor="middle" font-size="17" font-weight="bold" fill="#2c3e50">로또 1214회 당첨 — 커뮤니티 반응</text>
  <text x="400" y="54" text-anchor="middle" font-size="11" fill="#7f8c8d">에펨코리아 · 클리앙 · 더쿠 | 2026-03-07 22:30 KST</text>
  <rect x="490" y="66" width="12" height="12" fill="#27ae60" rx="2"/>
  <text x="506" y="77" font-size="11" fill="#2c3e50">긍정</text>
  <rect x="548" y="66" width="12" height="12" fill="#e74c3c" rx="2"/>
  <text x="564" y="77" font-size="11" fill="#2c3e50">부정</text>
  <rect x="606" y="66" width="12" height="12" fill="#95a5a6" rx="2"/>
  <text x="622" y="77" font-size="11" fill="#2c3e50">중립</text>

  <text x="60" y="100" font-size="13" font-weight="bold" fill="#2c3e50">에펨코리아 — 긍정 520건 / 부정 150건 / 중립 830건</text>
  <rect x="60" y="110" width="235" height="28" fill="#27ae60" rx="3"/>
  <rect x="295" y="110" width="68" height="28" fill="#e74c3c" rx="3"/>
  <rect x="363" y="110" width="377" height="28" fill="#95a5a6" rx="3"/>
  <text x="60" y="152" text-anchor="start" font-size="11" fill="#27ae60">긍정 35%</text>
  <text x="400" y="152" text-anchor="middle" font-size="11" fill="#e74c3c">부정 10%</text>
  <text x="740" y="152" text-anchor="end" font-size="11" fill="#7f8c8d">중립 55%</text>
  <text x="60" y="168" font-size="11" fill="#555">💬 "1등이 12명이나 나왔네. 자동 7명인데 역시 자동이 답이다"</text>

  <text x="60" y="220" font-size="13" font-weight="bold" fill="#2c3e50">클리앙 — 긍정 310건 / 부정 120건 / 중립 570건</text>
  <rect x="60" y="230" width="211" height="28" fill="#27ae60" rx="3"/>
  <rect x="271" y="230" width="82" height="28" fill="#e74c3c" rx="3"/>
  <rect x="353" y="230" width="387" height="28" fill="#95a5a6" rx="3"/>
  <text x="60" y="272" text-anchor="start" font-size="11" fill="#27ae60">긍정 31%</text>
  <text x="400" y="272" text-anchor="middle" font-size="11" fill="#e74c3c">부정 12%</text>
  <text x="740" y="272" text-anchor="end" font-size="11" fill="#7f8c8d">중립 57%</text>
  <text x="60" y="288" font-size="11" fill="#555">💬 "24억이면 세금 떼도 엄청나네. 어느 명당에서 나왔을지 궁금"</text>

  <text x="60" y="340" font-size="13" font-weight="bold" fill="#2c3e50">더쿠 — 긍정 280건 / 부정 140건 / 중립 580건</text>
  <rect x="60" y="350" width="190" height="28" fill="#27ae60" rx="3"/>
  <rect x="250" y="350" width="95" height="28" fill="#e74c3c" rx="3"/>
  <rect x="345" y="350" width="395" height="28" fill="#95a5a6" rx="3"/>
  <text x="60" y="392" text-anchor="start" font-size="11" fill="#27ae60">긍정 28%</text>
  <text x="400" y="392" text-anchor="middle" font-size="11" fill="#e74c3c">부정 14%</text>
  <text x="740" y="392" text-anchor="end" font-size="11" fill="#7f8c8d">중립 58%</text>
  <text x="60" y="408" font-size="11" fill="#555">💬 "나도 이번에 처음 샀는데 꽝ㅠ 그래도 다음주도 도전"</text>

  <text x="400" y="426" text-anchor="middle" font-size="10" fill="#bdc3c7">* 수치는 집계된 공감/반응 신호 기반 추산 | paperWanderer</text>
</svg>