<svg xmlns="http://www.w3.org/2000/svg" width="800" height="440" viewBox="0 0 800 440"
     font-family="'Apple SD Gothic Neo', 'Malgun Gothic', Arial, sans-serif">
  <rect width="800" height="440" fill="#f8f9fa" rx="12"/>
  <text x="400" y="36" text-anchor="middle" font-size="17" font-weight="bold" fill="#2c3e50">나프타 대란·석화업계 비상 — 커뮤니티 반응</text>
  <text x="400" y="54" text-anchor="middle" font-size="11" fill="#7f8c8d">에펨코리아 · 클리앙 · 트위터/X | 2026-03-26 22:00 KST</text>
  <rect x="490" y="66" width="12" height="12" fill="#27ae60" rx="2"/>
  <text x="506" y="77" font-size="11" fill="#2c3e50">긍정</text>
  <rect x="548" y="66" width="12" height="12" fill="#e74c3c" rx="2"/>
  <text x="564" y="77" font-size="11" fill="#2c3e50">부정</text>
  <rect x="606" y="66" width="12" height="12" fill="#95a5a6" rx="2"/>
  <text x="622" y="77" font-size="11" fill="#2c3e50">중립</text>

  <text x="60" y="100" font-size="13" font-weight="bold" fill="#2c3e50">에펨코리아 — 긍정 15건 / 부정 210건 / 중립 175건</text>
  <rect x="60" y="110" width="26" height="28" fill="#27ae60" rx="3"/>
  <rect x="86" y="110" width="357" height="28" fill="#e74c3c" rx="3"/>
  <rect x="443" y="110" width="297" height="28" fill="#95a5a6" rx="3"/>
  <text x="60" y="152" text-anchor="start" font-size="11" fill="#27ae60">긍정 4%</text>
  <text x="400" y="152" text-anchor="middle" font-size="11" fill="#e74c3c">부정 52%</text>
  <text x="740" y="152" text-anchor="end" font-size="11" fill="#7f8c8d">중립 44%</text>
  <text x="60" y="168" font-size="11" fill="#555">💬 "나프타 2주치 남았다는 게 진짜냐. 슈퍼마켓 포장재부터 없어진다는 거 아니냐"</text>

  <text x="60" y="220" font-size="13" font-weight="bold" fill="#2c3e50">클리앙 — 긍정 15건 / 부정 160건 / 중립 225건</text>
  <rect x="60" y="230" width="26" height="28" fill="#27ae60" rx="3"/>
  <rect x="86" y="230" width="272" height="28" fill="#e74c3c" rx="3"/>
  <rect x="358" y="230" width="382" height="28" fill="#95a5a6" rx="3"/>
  <text x="60" y="272" text-anchor="start" font-size="11" fill="#27ae60">긍정 4%</text>
  <text x="400" y="272" text-anchor="middle" font-size="11" fill="#e74c3c">부정 40%</text>
  <text x="740" y="272" text-anchor="end" font-size="11" fill="#7f8c8d">중립 56%</text>
  <text x="60" y="288" font-size="11" fill="#555">💬 "NCC 멈추면 반도체 소재 쪽도 영향 받는다. 보통 일이 아니다"</text>

  <text x="60" y="340" font-size="13" font-weight="bold" fill="#2c3e50">트위터/X — 긍정 10건 / 부정 110건 / 중립 280건</text>
  <rect x="60" y="350" width="17" height="28" fill="#27ae60" rx="3"/>
  <rect x="77" y="350" width="187" height="28" fill="#e74c3c" rx="3"/>
  <rect x="264" y="350" width="476" height="28" fill="#95a5a6" rx="3"/>
  <text x="60" y="392" text-anchor="start" font-size="11" fill="#27ae60">긍정 2%</text>
  <text x="400" y="392" text-anchor="middle" font-size="11" fill="#e74c3c">부정 28%</text>
  <text x="740" y="392" text-anchor="end" font-size="11" fill="#7f8c8d">중립 70%</text>
  <text x="60" y="408" font-size="11" fill="#555">💬 "이란전쟁이 이렇게 파급력이 클 줄 몰랐다"</text>

  <text x="400" y="426" text-anchor="middle" font-size="10" fill="#bdc3c7">* 수치는 집계된 공감/반응 신호 기반 추산 | paperWanderer</text>
</svg>