<svg xmlns="http://www.w3.org/2000/svg" width="800" height="440" viewBox="0 0 800 440"
     font-family="'Apple SD Gothic Neo', 'Malgun Gothic', Arial, sans-serif">
  <rect width="800" height="440" fill="#f8f9fa" rx="12"/>
  <text x="400" y="36" text-anchor="middle" font-size="17" font-weight="bold" fill="#2c3e50">조희대 대법원장 법왜곡죄 고발 — 커뮤니티 반응</text>
  <text x="400" y="54" text-anchor="middle" font-size="11" fill="#7f8c8d">오마이뉴스 댓글 · 경향신문 댓글 · 디시인사이드 | 2026-03-13 KST</text>
  <rect x="490" y="66" width="12" height="12" fill="#27ae60" rx="2"/>
  <text x="506" y="77" font-size="11" fill="#2c3e50">긍정</text>
  <rect x="548" y="66" width="12" height="12" fill="#e74c3c" rx="2"/>
  <text x="564" y="77" font-size="11" fill="#2c3e50">부정</text>
  <rect x="606" y="66" width="12" height="12" fill="#95a5a6" rx="2"/>
  <text x="622" y="77" font-size="11" fill="#2c3e50">중립</text>

  <text x="60" y="100" font-size="13" font-weight="bold" fill="#2c3e50">오마이뉴스 댓글 — 긍정 310건 / 부정 200건 / 중립 170건</text>
  <rect x="60" y="110" width="310" height="28" fill="#27ae60" rx="3"/>
  <rect x="370" y="110" width="200" height="28" fill="#e74c3c" rx="3"/>
  <rect x="570" y="110" width="170" height="28" fill="#95a5a6" rx="3"/>
  <text x="60" y="152" text-anchor="start" font-size="11" fill="#27ae60">긍정 46%</text>
  <text x="400" y="152" text-anchor="middle" font-size="11" fill="#e74c3c">부정 29%</text>
  <text x="740" y="152" text-anchor="end" font-size="11" fill="#7f8c8d">중립 25%</text>
  <text x="60" y="168" font-size="11" fill="#555">💬 "파기환송에 70,000쪽 한 달 검토는 물리적으로 불가능. 고발 당연"</text>

  <text x="60" y="220" font-size="13" font-weight="bold" fill="#2c3e50">경향신문 댓글 — 긍정 280건 / 부정 220건 / 중립 180건</text>
  <rect x="60" y="230" width="280" height="28" fill="#27ae60" rx="3"/>
  <rect x="340" y="230" width="220" height="28" fill="#e74c3c" rx="3"/>
  <rect x="560" y="230" width="180" height="28" fill="#95a5a6" rx="3"/>
  <text x="60" y="272" text-anchor="start" font-size="11" fill="#27ae60">긍정 41%</text>
  <text x="400" y="272" text-anchor="middle" font-size="11" fill="#e74c3c">부정 32%</text>
  <text x="740" y="272" text-anchor="end" font-size="11" fill="#7f8c8d">중립 27%</text>
  <text x="60" y="288" font-size="11" fill="#555">💬 "사법 독립을 침해하는 법이 사법 독립을 지킨다는 아이러니"</text>

  <text x="60" y="340" font-size="13" font-weight="bold" fill="#2c3e50">디시인사이드 — 긍정 200건 / 부정 300건 / 중립 180건</text>
  <rect x="60" y="350" width="200" height="28" fill="#27ae60" rx="3"/>
  <rect x="260" y="350" width="300" height="28" fill="#e74c3c" rx="3"/>
  <rect x="560" y="350" width="180" height="28" fill="#95a5a6" rx="3"/>
  <text x="60" y="392" text-anchor="start" font-size="11" fill="#27ae60">긍정 29%</text>
  <text x="400" y="392" text-anchor="middle" font-size="11" fill="#e74c3c">부정 44%</text>
  <text x="740" y="392" text-anchor="end" font-size="11" fill="#7f8c8d">중립 27%</text>
  <text x="60" y="408" font-size="11" fill="#555">💬 "판사 처벌하면 위축효과로 오히려 공정 재판 줄어들 듯"</text>

  <text x="400" y="426" text-anchor="middle" font-size="10" fill="#bdc3c7">* 수치는 집계된 공감/반응 신호 기반 추산 | paperWanderer</text>
</svg>