<svg xmlns="http://www.w3.org/2000/svg" width="800" height="440" viewBox="0 0 800 440"
     font-family="'Apple SD Gothic Neo', 'Malgun Gothic', Arial, sans-serif">
  <rect width="800" height="440" fill="#f8f9fa" rx="12"/>
  <text x="400" y="36" text-anchor="middle" font-size="17" font-weight="bold" fill="#2c3e50">더불어민주연합 출범 — 커뮤니티 반응</text>
  <text x="400" y="54" text-anchor="middle" font-size="11" fill="#7f8c8d">에펨코리아 · 클리앙 · 네이버 뉴스 댓글 | 2026-03-07 20:00 KST</text>
  <rect x="490" y="66" width="12" height="12" fill="#27ae60" rx="2"/>
  <text x="506" y="77" font-size="11" fill="#2c3e50">긍정</text>
  <rect x="548" y="66" width="12" height="12" fill="#e74c3c" rx="2"/>
  <text x="564" y="77" font-size="11" fill="#2c3e50">부정</text>
  <rect x="606" y="66" width="12" height="12" fill="#95a5a6" rx="2"/>
  <text x="622" y="77" font-size="11" fill="#2c3e50">중립</text>

  <text x="60" y="100" font-size="13" font-weight="bold" fill="#2c3e50">에펨코리아 — 긍정 310건 / 부정 420건 / 중립 270건</text>
  <rect x="60" y="110" width="211" height="28" fill="#27ae60" rx="3"/>
  <rect x="271" y="110" width="285" height="28" fill="#e74c3c" rx="3"/>
  <rect x="556" y="110" width="184" height="28" fill="#95a5a6" rx="3"/>
  <text x="60" y="152" text-anchor="start" font-size="11" fill="#27ae60">긍정 31%</text>
  <text x="400" y="152" text-anchor="middle" font-size="11" fill="#e74c3c">부정 42%</text>
  <text x="740" y="152" text-anchor="end" font-size="11" fill="#7f8c8d">중립 27%</text>
  <text x="60" y="168" font-size="11" fill="#555">💬 "위성정당 또 만드는 거 진짜 지겹다. 선거법을 고쳐야"</text>

  <text x="60" y="220" font-size="13" font-weight="bold" fill="#2c3e50">클리앙 — 긍정 240건 / 부정 380건 / 중립 380건</text>
  <rect x="60" y="230" width="163" height="28" fill="#27ae60" rx="3"/>
  <rect x="223" y="230" width="258" height="28" fill="#e74c3c" rx="3"/>
  <rect x="481" y="230" width="259" height="28" fill="#95a5a6" rx="3"/>
  <text x="60" y="272" text-anchor="start" font-size="11" fill="#27ae60">긍정 24%</text>
  <text x="400" y="272" text-anchor="middle" font-size="11" fill="#e74c3c">부정 38%</text>
  <text x="740" y="272" text-anchor="end" font-size="11" fill="#7f8c8d">중립 38%</text>
  <text x="60" y="288" font-size="11" fill="#555">💬 "위성정당 제도 자체를 없애야지. 양당이 번갈아가며 악용하고 있어"</text>

  <text x="60" y="340" font-size="13" font-weight="bold" fill="#2c3e50">네이버 뉴스 댓글 — 긍정 280건 / 부정 490건 / 중립 230건</text>
  <rect x="60" y="350" width="190" height="28" fill="#27ae60" rx="3"/>
  <rect x="250" y="350" width="334" height="28" fill="#e74c3c" rx="3"/>
  <rect x="584" y="350" width="156" height="28" fill="#95a5a6" rx="3"/>
  <text x="60" y="392" text-anchor="start" font-size="11" fill="#27ae60">긍정 28%</text>
  <text x="400" y="392" text-anchor="middle" font-size="11" fill="#e74c3c">부정 49%</text>
  <text x="740" y="392" text-anchor="end" font-size="11" fill="#7f8c8d">중립 23%</text>
  <text x="60" y="408" font-size="11" fill="#555">💬 "임종석 컷오프 수용. 그래도 위성정당엔 비판적"</text>

  <text x="400" y="426" text-anchor="middle" font-size="10" fill="#bdc3c7">* 수치는 집계된 공감/반응 신호 기반 추산 | paperWanderer</text>
</svg>