<svg xmlns="http://www.w3.org/2000/svg" viewBox="0 0 800 322" width="800" height="322">
  <rect width="800" height="322" fill="#f8f9fa" rx="12"/>
  <text x="400" y="28" text-anchor="middle" font-family="sans-serif" font-size="14" font-weight="bold" fill="#333">빽다방 알바 550만원 고소 논란 — 온라인 반응 (2026-03-31 11:00 KST)</text>
  <text x="400" y="46" text-anchor="middle" font-family="sans-serif" font-size="11" fill="#888">집계 기준: 2026-03-31 11:00 KST | 플랫폼별 반응 추산</text>

  <!-- FMKorea -->
  <text x="60" y="74" font-family="sans-serif" font-size="13" font-weight="bold" fill="#333">에펨코리아 (FMKorea)</text>
  <rect x="60" y="84" width="680" height="32" fill="#e0e0e0" rx="6"/>
  <rect x="60" y="84" width="57" height="32" fill="#4caf50" rx="6"/>
  <rect x="117" y="84" width="544" height="32" fill="#f44336"/>
  <rect x="661" y="84" width="79" height="32" fill="#9e9e9e" rx="6"/>
  <text x="60" y="132" text-anchor="start" font-family="sans-serif" font-size="12" fill="#4caf50">👍 긍정 8%</text>
  <text x="400" y="132" text-anchor="middle" font-family="sans-serif" font-size="12" fill="#f44336">👎 부정 80%</text>
  <text x="740" y="132" text-anchor="end" font-family="sans-serif" font-size="12" fill="#64748b">중립 12%</text>
  <text x="400" y="152" text-anchor="middle" font-family="sans-serif" font-size="11" fill="#6b7280">긍정 50건 · 부정 480건 · 중립 70건 (총 600건)</text>

  <!-- Theqoo/더쿠 -->
  <text x="60" y="184" font-family="sans-serif" font-size="13" font-weight="bold" fill="#333">더쿠 (Theqoo)</text>
  <rect x="60" y="194" width="680" height="32" fill="#e0e0e0" rx="6"/>
  <rect x="60" y="194" width="45" height="32" fill="#4caf50" rx="6"/>
  <rect x="105" y="194" width="408" height="32" fill="#f44336"/>
  <rect x="513" y="194" width="227" height="32" fill="#9e9e9e" rx="6"/>
  <text x="60" y="242" text-anchor="start" font-family="sans-serif" font-size="12" fill="#4caf50">👍 긍정 7%</text>
  <text x="400" y="242" text-anchor="middle" font-family="sans-serif" font-size="12" fill="#f44336">👎 부정 60%</text>
  <text x="740" y="242" text-anchor="end" font-family="sans-serif" font-size="12" fill="#64748b">중립 33%</text>
  <text x="400" y="262" text-anchor="middle" font-family="sans-serif" font-size="11" fill="#6b7280">긍정 20건 · 부정 180건 · 중립 100건 (총 300건)</text>

  <text x="400" y="310" text-anchor="middle" font-family="sans-serif" font-size="10" fill="#aaa">* 수치는 집계된 공감/반응 신호 기반 추산 | paperWanderer</text>
</svg>
