<svg xmlns="http://www.w3.org/2000/svg" width="800" height="440" viewBox="0 0 800 440"
     font-family="'Apple SD Gothic Neo', 'Malgun Gothic', Arial, sans-serif">
  <rect width="800" height="440" fill="#f8f9fa" rx="12"/>
  <text x="400" y="36" text-anchor="middle" font-size="17" font-weight="bold" fill="#2c3e50">봄철 황사·미세먼지 — 커뮤니티 반응</text>
  <text x="400" y="54" text-anchor="middle" font-size="11" fill="#7f8c8d">SNS · 생활 커뮤니티 | 2026-03-25 20:00 KST</text>
  <rect x="490" y="66" width="12" height="12" fill="#27ae60" rx="2"/>
  <text x="506" y="77" font-size="11" fill="#2c3e50">긍정</text>
  <rect x="548" y="66" width="12" height="12" fill="#e74c3c" rx="2"/>
  <text x="564" y="77" font-size="11" fill="#2c3e50">부정</text>
  <rect x="606" y="66" width="12" height="12" fill="#95a5a6" rx="2"/>
  <text x="622" y="77" font-size="11" fill="#2c3e50">중립</text>

  <text x="60" y="100" font-size="13" font-weight="bold" fill="#2c3e50">SNS — 긍정 95건 / 부정 145건 / 중립 40건</text>
  <rect x="60" y="110" width="231" height="28" fill="#27ae60" rx="3"/>
  <rect x="291" y="110" width="352" height="28" fill="#e74c3c" rx="3"/>
  <rect x="643" y="110" width="97" height="28" fill="#95a5a6" rx="3"/>
  <text x="60" y="152" text-anchor="start" font-size="11" fill="#27ae60">긍정 34%</text>
  <text x="400" y="152" text-anchor="middle" font-size="11" fill="#e74c3c">부정 52%</text>
  <text x="740" y="152" text-anchor="end" font-size="11" fill="#7f8c8d">중립 14%</text>
  <text x="60" y="168" font-size="11" fill="#555">💬 "매년 봄만 되면 이 황사 때문에 외출하기 싫다"</text>

  <text x="60" y="220" font-size="13" font-weight="bold" fill="#2c3e50">생활 커뮤니티 — 황사 피로감 표현</text>
  <rect x="60" y="230" width="204" height="28" fill="#27ae60" rx="3"/>
  <rect x="264" y="230" width="374" height="28" fill="#e74c3c" rx="3"/>
  <rect x="638" y="230" width="102" height="28" fill="#95a5a6" rx="3"/>
  <text x="60" y="272" text-anchor="start" font-size="11" fill="#27ae60">긍정 30%</text>
  <text x="400" y="272" text-anchor="middle" font-size="11" fill="#e74c3c">부정 55%</text>
  <text x="740" y="272" text-anchor="end" font-size="11" fill="#7f8c8d">중립 15%</text>
  <text x="60" y="288" font-size="11" fill="#555">💬 "봄 느끼러 나갔다가 황사에 눈 따갑고 난감"</text>

  <text x="60" y="340" font-size="13" font-weight="bold" fill="#2c3e50">건강 정보 공유 — 실용적 반응</text>
  <rect x="60" y="350" width="306" height="28" fill="#27ae60" rx="3"/>
  <rect x="366" y="350" width="272" height="28" fill="#e74c3c" rx="3"/>
  <rect x="638" y="350" width="102" height="28" fill="#95a5a6" rx="3"/>
  <text x="60" y="392" text-anchor="start" font-size="11" fill="#27ae60">긍정 45%</text>
  <text x="400" y="392" text-anchor="middle" font-size="11" fill="#e74c3c">부정 40%</text>
  <text x="740" y="392" text-anchor="end" font-size="11" fill="#7f8c8d">중립 15%</text>
  <text x="60" y="408" font-size="11" fill="#555">💬 "마스크 쓰고 나갔더니 목 안 아프네"</text>

  <text x="400" y="426" text-anchor="middle" font-size="10" fill="#bdc3c7">* 수치는 집계된 공감/반응 신호 기반 추산 | paperWanderer</text>
</svg>