<svg xmlns="http://www.w3.org/2000/svg" width="800" height="440" viewBox="0 0 800 440"
     font-family="'Apple SD Gothic Neo', 'Malgun Gothic', Arial, sans-serif">
  <rect width="800" height="440" fill="#f8f9fa" rx="12"/>
  <text x="400" y="36" text-anchor="middle" font-size="17" font-weight="bold" fill="#2c3e50">엔비디아·한국 AI 파트너십 — 커뮤니티 반응</text>
  <text x="400" y="54" text-anchor="middle" font-size="11" fill="#7f8c8d">네이버 뉴스 댓글 · 클리앙 · IT 커뮤니티 | 2026-03-16 21:00 KST</text>
  <rect x="490" y="66" width="12" height="12" fill="#27ae60" rx="2"/>
  <text x="506" y="77" font-size="11" fill="#2c3e50">긍정</text>
  <rect x="548" y="66" width="12" height="12" fill="#e74c3c" rx="2"/>
  <text x="564" y="77" font-size="11" fill="#2c3e50">부정</text>
  <rect x="606" y="66" width="12" height="12" fill="#95a5a6" rx="2"/>
  <text x="622" y="77" font-size="11" fill="#2c3e50">중립</text>

  <text x="60" y="100" font-size="13" font-weight="bold" fill="#2c3e50">네이버 뉴스 댓글 — 긍정 450건 / 부정 110건 / 중립 120건</text>
  <rect x="60" y="110" width="447" height="28" fill="#27ae60" rx="3"/>
  <rect x="507" y="110" width="109" height="28" fill="#e74c3c" rx="3"/>
  <rect x="616" y="110" width="124" height="28" fill="#95a5a6" rx="3"/>
  <text x="60" y="152" text-anchor="start" font-size="11" fill="#27ae60">긍정 66%</text>
  <text x="400" y="152" text-anchor="middle" font-size="11" fill="#e74c3c">부정 16%</text>
  <text x="740" y="152" text-anchor="end" font-size="11" fill="#7f8c8d">중립 18%</text>
  <text x="60" y="168" font-size="11" fill="#555">💬 "현대차가 로봇 사업에서도 엔비디아랑 엮이는 거 진짜 미래다"</text>

  <text x="60" y="220" font-size="13" font-weight="bold" fill="#2c3e50">클리앙 — 긍정 180건 / 부정 50건 / 중립 110건</text>
  <rect x="60" y="230" width="358" height="28" fill="#27ae60" rx="3"/>
  <rect x="418" y="230" width="99" height="28" fill="#e74c3c" rx="3"/>
  <rect x="517" y="230" width="223" height="28" fill="#95a5a6" rx="3"/>
  <text x="60" y="272" text-anchor="start" font-size="11" fill="#27ae60">긍정 53%</text>
  <text x="400" y="272" text-anchor="middle" font-size="11" fill="#e74c3c">부정 15%</text>
  <text x="740" y="272" text-anchor="end" font-size="11" fill="#7f8c8d">중립 32%</text>
  <text x="60" y="288" font-size="11" fill="#555">💬 "한국 기업들이 GTC 주인공이 된 날이다"</text>

  <text x="60" y="340" font-size="13" font-weight="bold" fill="#2c3e50">IT 커뮤니티 — 긍정 90건 / 부정 20건 / 중립 110건</text>
  <rect x="60" y="350" width="275" height="28" fill="#27ae60" rx="3"/>
  <rect x="335" y="350" width="61" height="28" fill="#e74c3c" rx="3"/>
  <rect x="396" y="350" width="344" height="28" fill="#95a5a6" rx="3"/>
  <text x="60" y="392" text-anchor="start" font-size="11" fill="#27ae60">긍정 40%</text>
  <text x="400" y="392" text-anchor="middle" font-size="11" fill="#e74c3c">부정 9%</text>
  <text x="740" y="392" text-anchor="end" font-size="11" fill="#7f8c8d">중립 51%</text>
  <text x="60" y="408" font-size="11" fill="#555">💬 "실제 매출로 이어지기까지 시간이 걸릴 텐데 과장된 기대는 금물"</text>

  <text x="400" y="426" text-anchor="middle" font-size="10" fill="#bdc3c7">* 수치는 집계된 공감/반응 신호 기반 추산 | paperWanderer</text>
</svg>