<svg xmlns="http://www.w3.org/2000/svg" width="800" height="440" viewBox="0 0 800 440"
     font-family="'Apple SD Gothic Neo', 'Malgun Gothic', Arial, sans-serif">
  <rect width="800" height="440" fill="#f8f9fa" rx="12"/>
  <text x="400" y="36" text-anchor="middle" font-size="17" font-weight="bold" fill="#2c3e50">학교 스마트폰 금지 논쟁 — 커뮤니티 반응</text>
  <text x="400" y="54" text-anchor="middle" font-size="11" fill="#7f8c8d">네이버 뉴스 · 에펨코리아 · 클리앙 | 2026-03-07 21:00 KST</text>
  <rect x="490" y="66" width="12" height="12" fill="#27ae60" rx="2"/>
  <text x="506" y="77" font-size="11" fill="#2c3e50">긍정</text>
  <rect x="548" y="66" width="12" height="12" fill="#e74c3c" rx="2"/>
  <text x="564" y="77" font-size="11" fill="#2c3e50">부정</text>
  <rect x="606" y="66" width="12" height="12" fill="#95a5a6" rx="2"/>
  <text x="622" y="77" font-size="11" fill="#2c3e50">중립</text>

  <text x="60" y="100" font-size="13" font-weight="bold" fill="#2c3e50">네이버 뉴스 댓글 — 긍정 610건 / 부정 210건 / 중립 280건</text>
  <rect x="60" y="110" width="377" height="28" fill="#27ae60" rx="3"/>
  <rect x="437" y="110" width="130" height="28" fill="#e74c3c" rx="3"/>
  <rect x="567" y="110" width="173" height="28" fill="#95a5a6" rx="3"/>
  <text x="60" y="152" text-anchor="start" font-size="11" fill="#27ae60">긍정 55%</text>
  <text x="400" y="152" text-anchor="middle" font-size="11" fill="#e74c3c">부정 19%</text>
  <text x="740" y="152" text-anchor="end" font-size="11" fill="#7f8c8d">중립 26%</text>
  <text x="60" y="168" font-size="11" fill="#555">💬 "수업 중 스마트폰 제한은 당연하다. 선생님들 힘드셨을 것"</text>

  <text x="60" y="220" font-size="13" font-weight="bold" fill="#2c3e50">에펨코리아 — 긍정 280건 / 부정 130건 / 중립 190건</text>
  <rect x="60" y="230" width="317" height="28" fill="#27ae60" rx="3"/>
  <rect x="377" y="230" width="147" height="28" fill="#e74c3c" rx="3"/>
  <rect x="524" y="230" width="216" height="28" fill="#95a5a6" rx="3"/>
  <text x="60" y="272" text-anchor="start" font-size="11" fill="#27ae60">긍정 47%</text>
  <text x="400" y="272" text-anchor="middle" font-size="11" fill="#e74c3c">부정 22%</text>
  <text x="740" y="272" text-anchor="end" font-size="11" fill="#7f8c8d">중립 31%</text>
  <text x="60" y="288" font-size="11" fill="#555">💬 "수업 집중 안 되는 애들 다 스마트폰 때문이다. 진작 했어야"</text>

  <text x="60" y="340" font-size="13" font-weight="bold" fill="#2c3e50">클리앙 — 긍정 200건 / 부정 100건 / 중립 200건</text>
  <rect x="60" y="350" width="272" height="28" fill="#27ae60" rx="3"/>
  <rect x="332" y="350" width="136" height="28" fill="#e74c3c" rx="3"/>
  <rect x="468" y="350" width="272" height="28" fill="#95a5a6" rx="3"/>
  <text x="60" y="392" text-anchor="start" font-size="11" fill="#27ae60">긍정 40%</text>
  <text x="400" y="392" text-anchor="middle" font-size="11" fill="#e74c3c">부정 20%</text>
  <text x="740" y="392" text-anchor="end" font-size="11" fill="#7f8c8d">중립 40%</text>
  <text x="60" y="408" font-size="11" fill="#555">💬 "학생도 긴급연락이 필요하다. 아예 금지는 과하다"</text>

  <text x="400" y="426" text-anchor="middle" font-size="10" fill="#bdc3c7">* 수치는 집계된 공감/반응 신호 기반 추산 | paperWanderer</text>
</svg>