<svg xmlns="http://www.w3.org/2000/svg" width="800" height="440" viewBox="0 0 800 440"
     font-family="'Apple SD Gothic Neo', 'Malgun Gothic', Arial, sans-serif">
  <rect width="800" height="440" fill="#f8f9fa" rx="12"/>
  <text x="400" y="36" text-anchor="middle" font-size="17" font-weight="bold" fill="#2c3e50">늘봄학교 전국 전학년 확대 — 커뮤니티 반응</text>
  <text x="400" y="54" text-anchor="middle" font-size="11" fill="#7f8c8d">네이버 카페 · 에펨코리아 · 클리앙 | 2026-03-07 20:00 KST</text>
  <rect x="490" y="66" width="12" height="12" fill="#27ae60" rx="2"/>
  <text x="506" y="77" font-size="11" fill="#2c3e50">긍정</text>
  <rect x="548" y="66" width="12" height="12" fill="#e74c3c" rx="2"/>
  <text x="564" y="77" font-size="11" fill="#2c3e50">부정</text>
  <rect x="606" y="66" width="12" height="12" fill="#95a5a6" rx="2"/>
  <text x="622" y="77" font-size="11" fill="#2c3e50">중립</text>

  <text x="60" y="100" font-size="13" font-weight="bold" fill="#2c3e50">네이버 카페(학부모) — 긍정 480건 / 부정 320건 / 중립 200건</text>
  <rect x="60" y="110" width="326" height="28" fill="#27ae60" rx="3"/>
  <rect x="386" y="110" width="218" height="28" fill="#e74c3c" rx="3"/>
  <rect x="604" y="110" width="136" height="28" fill="#95a5a6" rx="3"/>
  <text x="60" y="152" text-anchor="start" font-size="11" fill="#27ae60">긍정 48%</text>
  <text x="400" y="152" text-anchor="middle" font-size="11" fill="#e74c3c">부정 32%</text>
  <text x="740" y="152" text-anchor="end" font-size="11" fill="#7f8c8d">중립 20%</text>
  <text x="60" y="168" font-size="11" fill="#555">💬 "아이가 방과후 집에 혼자 있지 않아도 되니 너무 좋다"</text>

  <text x="60" y="220" font-size="13" font-weight="bold" fill="#2c3e50">에펨코리아 — 긍정 290건 / 부정 380건 / 중립 330건</text>
  <rect x="60" y="230" width="197" height="28" fill="#27ae60" rx="3"/>
  <rect x="257" y="230" width="258" height="28" fill="#e74c3c" rx="3"/>
  <rect x="515" y="230" width="225" height="28" fill="#95a5a6" rx="3"/>
  <text x="60" y="272" text-anchor="start" font-size="11" fill="#27ae60">긍정 29%</text>
  <text x="400" y="272" text-anchor="middle" font-size="11" fill="#e74c3c">부정 38%</text>
  <text x="740" y="272" text-anchor="end" font-size="11" fill="#7f8c8d">중립 33%</text>
  <text x="60" y="288" font-size="11" fill="#555">💬 "교사들 업무 부담은 어떻게 해결할 건지가 핵심 문제"</text>

  <text x="60" y="340" font-size="13" font-weight="bold" fill="#2c3e50">클리앙 — 긍정 350건 / 부정 290건 / 중립 360건</text>
  <rect x="60" y="350" width="238" height="28" fill="#27ae60" rx="3"/>
  <rect x="298" y="350" width="197" height="28" fill="#e74c3c" rx="3"/>
  <rect x="495" y="350" width="245" height="28" fill="#95a5a6" rx="3"/>
  <text x="60" y="392" text-anchor="start" font-size="11" fill="#27ae60">긍정 35%</text>
  <text x="400" y="392" text-anchor="middle" font-size="11" fill="#e74c3c">부정 29%</text>
  <text x="740" y="392" text-anchor="end" font-size="11" fill="#7f8c8d">중립 36%</text>
  <text x="60" y="408" font-size="11" fill="#555">💬 "돌봄 공공화의 첫걸음이라는 점에서 의미가 있다"</text>

  <text x="400" y="426" text-anchor="middle" font-size="10" fill="#bdc3c7">* 수치는 집계된 공감/반응 신호 기반 추산 | paperWanderer</text>
</svg>