<svg xmlns="http://www.w3.org/2000/svg" width="800" height="440" viewBox="0 0 800 440"
     font-family="'Apple SD Gothic Neo', 'Malgun Gothic', Arial, sans-serif">
  <rect width="800" height="440" fill="#f8f9fa" rx="12"/>
  <text x="400" y="36" text-anchor="middle" font-size="17" font-weight="bold" fill="#2c3e50">국민의힘 비상계엄 사과·절윤 결의 — 커뮤니티 반응</text>
  <text x="400" y="54" text-anchor="middle" font-size="11" fill="#7f8c8d">오마이뉴스 댓글 · 에펨코리아 · 머니투데이 댓글 | 2026-03-10 KST</text>
  <rect x="490" y="66" width="12" height="12" fill="#27ae60" rx="2"/>
  <text x="506" y="77" font-size="11" fill="#2c3e50">긍정</text>
  <rect x="548" y="66" width="12" height="12" fill="#e74c3c" rx="2"/>
  <text x="564" y="77" font-size="11" fill="#2c3e50">부정</text>
  <rect x="606" y="66" width="12" height="12" fill="#95a5a6" rx="2"/>
  <text x="622" y="77" font-size="11" fill="#2c3e50">중립</text>

  <text x="60" y="100" font-size="13" font-weight="bold" fill="#2c3e50">오마이뉴스 댓글 — 긍정 30건 / 부정 110건 / 중립 60건</text>
  <rect x="60" y="110" width="102" height="28" fill="#27ae60" rx="3"/>
  <rect x="162" y="110" width="374" height="28" fill="#e74c3c" rx="3"/>
  <rect x="536" y="110" width="204" height="28" fill="#95a5a6" rx="3"/>
  <text x="60" y="152" text-anchor="start" font-size="11" fill="#27ae60">긍정 15%</text>
  <text x="400" y="152" text-anchor="middle" font-size="11" fill="#e74c3c">부정 55%</text>
  <text x="740" y="152" text-anchor="end" font-size="11" fill="#7f8c8d">중립 30%</text>
  <text x="60" y="168" font-size="11" fill="#555">💬 "461일 지나서야 사과? 형식적인 쇼 아닌가" (공감 213)</text>

  <text x="60" y="220" font-size="13" font-weight="bold" fill="#2c3e50">에펨코리아 — 긍정 45건 / 부정 120건 / 중립 35건</text>
  <rect x="60" y="230" width="153" height="28" fill="#27ae60" rx="3"/>
  <rect x="213" y="230" width="408" height="28" fill="#e74c3c" rx="3"/>
  <rect x="621" y="230" width="119" height="28" fill="#95a5a6" rx="3"/>
  <text x="60" y="272" text-anchor="start" font-size="11" fill="#27ae60">긍정 22%</text>
  <text x="400" y="272" text-anchor="middle" font-size="11" fill="#e74c3c">부정 60%</text>
  <text x="740" y="272" text-anchor="end" font-size="11" fill="#7f8c8d">중립 18%</text>
  <text x="60" y="288" font-size="11" fill="#555">💬 "다시 태어나겠다더니 ㅋㅋ 진작에 했어야지 이게 무슨 쇼냐" (공감 189)</text>

  <text x="60" y="340" font-size="13" font-weight="bold" fill="#2c3e50">머니투데이 댓글 — 긍정 55건 / 부정 80건 / 중립 65건</text>
  <rect x="60" y="350" width="187" height="28" fill="#27ae60" rx="3"/>
  <rect x="247" y="350" width="272" height="28" fill="#e74c3c" rx="3"/>
  <rect x="519" y="350" width="221" height="28" fill="#95a5a6" rx="3"/>
  <text x="60" y="392" text-anchor="start" font-size="11" fill="#27ae60">긍정 28%</text>
  <text x="400" y="392" text-anchor="middle" font-size="11" fill="#e74c3c">부정 40%</text>
  <text x="740" y="392" text-anchor="end" font-size="11" fill="#7f8c8d">중립 32%</text>
  <text x="60" y="408" font-size="11" fill="#555">💬 "지선 앞에 꺼낸 카드, 진정성 있게 보이냐" (공감 134)</text>

  <text x="400" y="426" text-anchor="middle" font-size="10" fill="#bdc3c7">* 수치는 집계된 공감/반응 신호 기반 추산 | paperWanderer</text>
</svg>