<svg xmlns="http://www.w3.org/2000/svg" width="800" height="440" viewBox="0 0 800 440"
     font-family="'Apple SD Gothic Neo', 'Malgun Gothic', Arial, sans-serif">
  <rect width="800" height="440" fill="#f8f9fa" rx="12"/>
  <text x="400" y="36" text-anchor="middle" font-size="17" font-weight="bold" fill="#2c3e50">북한 미사일 도발 — 커뮤니티 반응</text>
  <text x="400" y="54" text-anchor="middle" font-size="11" fill="#7f8c8d">네이버 뉴스 댓글 · DC인사이드 · 보배드림 | 2026-03-16 14:00 KST</text>
  <rect x="490" y="66" width="12" height="12" fill="#27ae60" rx="2"/>
  <text x="506" y="77" font-size="11" fill="#2c3e50">긍정</text>
  <rect x="548" y="66" width="12" height="12" fill="#e74c3c" rx="2"/>
  <text x="564" y="77" font-size="11" fill="#2c3e50">부정</text>
  <rect x="606" y="66" width="12" height="12" fill="#95a5a6" rx="2"/>
  <text x="622" y="77" font-size="11" fill="#2c3e50">중립</text>

  <text x="60" y="100" font-size="13" font-weight="bold" fill="#2c3e50">네이버 뉴스 댓글 — 긍정 90건 / 부정 420건 / 중립 80건</text>
  <rect x="60" y="110" width="103" height="28" fill="#27ae60" rx="3"/>
  <rect x="163" y="110" width="481" height="28" fill="#e74c3c" rx="3"/>
  <rect x="644" y="110" width="96" height="28" fill="#95a5a6" rx="3"/>
  <text x="60" y="152" text-anchor="start" font-size="11" fill="#27ae60">긍정 15%</text>
  <text x="400" y="152" text-anchor="middle" font-size="11" fill="#e74c3c">부정 71%</text>
  <text x="740" y="152" text-anchor="end" font-size="11" fill="#7f8c8d">중립 14%</text>
  <text x="60" y="168" font-size="11" fill="#555">💬 "총선 때마다 미사일 쏘는 거 이제 패턴이 다 보인다"</text>

  <text x="60" y="220" font-size="13" font-weight="bold" fill="#2c3e50">DC인사이드 — 긍정 30건 / 부정 180건 / 중립 90건</text>
  <rect x="60" y="230" width="68" height="28" fill="#27ae60" rx="3"/>
  <rect x="128" y="230" width="408" height="28" fill="#e74c3c" rx="3"/>
  <rect x="536" y="230" width="204" height="28" fill="#95a5a6" rx="3"/>
  <text x="60" y="272" text-anchor="start" font-size="11" fill="#27ae60">긍정 10%</text>
  <text x="400" y="272" text-anchor="middle" font-size="11" fill="#e74c3c">부정 60%</text>
  <text x="740" y="272" text-anchor="end" font-size="11" fill="#7f8c8d">중립 30%</text>
  <text x="60" y="288" font-size="11" fill="#555">💬 "이러니 대화가 안 되는 거다 강경 대응이 맞다"</text>

  <text x="60" y="340" font-size="13" font-weight="bold" fill="#2c3e50">보배드림 — 긍정 20건 / 부정 80건 / 중립 110건</text>
  <rect x="60" y="350" width="65" height="28" fill="#27ae60" rx="3"/>
  <rect x="125" y="350" width="256" height="28" fill="#e74c3c" rx="3"/>
  <rect x="381" y="350" width="359" height="28" fill="#95a5a6" rx="3"/>
  <text x="60" y="392" text-anchor="start" font-size="11" fill="#27ae60">긍정 10%</text>
  <text x="400" y="392" text-anchor="middle" font-size="11" fill="#e74c3c">부정 38%</text>
  <text x="740" y="392" text-anchor="end" font-size="11" fill="#7f8c8d">중립 52%</text>
  <text x="60" y="408" font-size="11" fill="#555">💬 "한미동맹 강화가 답이다"</text>

  <text x="400" y="426" text-anchor="middle" font-size="10" fill="#bdc3c7">* 수치는 집계된 공감/반응 신호 기반 추산 | paperWanderer</text>
</svg>