<svg xmlns="http://www.w3.org/2000/svg" width="800" height="440" viewBox="0 0 800 440"
     font-family="'Apple SD Gothic Neo', 'Malgun Gothic', Arial, sans-serif">
  <rect width="800" height="440" fill="#f8f9fa" rx="12"/>
  <text x="400" y="36" text-anchor="middle" font-size="17" font-weight="bold" fill="#2c3e50">넷플릭스 독주 vs 티빙·쿠팡 추격 — 커뮤니티 반응</text>
  <text x="400" y="54" text-anchor="middle" font-size="11" fill="#7f8c8d">에펨코리아 · 디시인사이드 · 네이버 뉴스 | 2026-03-06 KST</text>
  <rect x="490" y="66" width="12" height="12" fill="#27ae60" rx="2"/>
  <text x="506" y="77" font-size="11" fill="#2c3e50">긍정</text>
  <rect x="548" y="66" width="12" height="12" fill="#e74c3c" rx="2"/>
  <text x="564" y="77" font-size="11" fill="#2c3e50">부정</text>
  <rect x="606" y="66" width="12" height="12" fill="#95a5a6" rx="2"/>
  <text x="622" y="77" font-size="11" fill="#2c3e50">중립</text>

  <text x="60" y="100" font-size="13" font-weight="bold" fill="#2c3e50">에펨코리아 — 긍정 88건 / 부정 34건 / 중립 52건</text>
  <rect x="60" y="110" width="344" height="28" fill="#27ae60" rx="3"/>
  <rect x="404" y="110" width="133" height="28" fill="#e74c3c" rx="3"/>
  <rect x="537" y="110" width="203" height="28" fill="#95a5a6" rx="3"/>
  <text x="60" y="152" text-anchor="start" font-size="11" fill="#27ae60">긍정 51%</text>
  <text x="400" y="152" text-anchor="middle" font-size="11" fill="#e74c3c">부정 20%</text>
  <text x="740" y="152" text-anchor="end" font-size="11" fill="#7f8c8d">중립 29%</text>
  <text x="60" y="168" font-size="11" fill="#555">💬 "월간남친 흥행이 넷플 한국 투자 이유 그 자체임"</text>

  <text x="60" y="220" font-size="13" font-weight="bold" fill="#2c3e50">디시인사이드 — 긍정 61건 / 부정 28건 / 중립 47건</text>
  <rect x="60" y="230" width="305" height="28" fill="#27ae60" rx="3"/>
  <rect x="365" y="230" width="140" height="28" fill="#e74c3c" rx="3"/>
  <rect x="505" y="230" width="235" height="28" fill="#95a5a6" rx="3"/>
  <text x="60" y="272" text-anchor="start" font-size="11" fill="#27ae60">긍정 45%</text>
  <text x="400" y="272" text-anchor="middle" font-size="11" fill="#e74c3c">부정 21%</text>
  <text x="740" y="272" text-anchor="end" font-size="11" fill="#7f8c8d">중립 34%</text>
  <text x="60" y="288" font-size="11" fill="#555">💬 "티빙 쿠팡이 2위 싸움하는 사이 넷플 격차 더 벌어짐"</text>

  <text x="60" y="340" font-size="13" font-weight="bold" fill="#2c3e50">네이버 뉴스 — 긍정 114건 / 부정 52건 / 중립 73건</text>
  <rect x="60" y="350" width="324" height="28" fill="#27ae60" rx="3"/>
  <rect x="384" y="350" width="148" height="28" fill="#e74c3c" rx="3"/>
  <rect x="532" y="350" width="208" height="28" fill="#95a5a6" rx="3"/>
  <text x="60" y="392" text-anchor="start" font-size="11" fill="#27ae60">긍정 48%</text>
  <text x="400" y="392" text-anchor="middle" font-size="11" fill="#e74c3c">부정 22%</text>
  <text x="740" y="392" text-anchor="end" font-size="11" fill="#7f8c8d">중립 30%</text>
  <text x="60" y="408" font-size="11" fill="#555">💬 "한국 콘텐츠 덕에 넷플릭스가 먹고 산다는 게 맞는 말"</text>

  <text x="400" y="426" text-anchor="middle" font-size="10" fill="#bdc3c7">* 수치는 집계된 공감/반응 신호 기반 추산 | paperWanderer</text>
</svg>