<svg xmlns="http://www.w3.org/2000/svg" width="800" height="322" viewBox="0 0 800 322"
     font-family="'Apple SD Gothic Neo', 'Malgun Gothic', Arial, sans-serif">
  <rect width="800" height="322" fill="#f8f9fa" rx="12"/>
  <text x="400" y="36" text-anchor="middle" font-size="17" font-weight="bold" fill="#2c3e50">커뮤니티 반응 분석 — SK하이닉스 HBM4 AI 슈퍼사이클</text>
  <text x="400" y="54" text-anchor="middle" font-size="11" fill="#7f8c8d">디시인사이드 · 에펨코리아 | 2026-03-27 KST</text>
  <rect x="490" y="66" width="12" height="12" fill="#27ae60" rx="2"/>
  <text x="506" y="77" font-size="11" fill="#2c3e50">긍정</text>
  <rect x="548" y="66" width="12" height="12" fill="#e74c3c" rx="2"/>
  <text x="564" y="77" font-size="11" fill="#2c3e50">부정</text>
  <rect x="606" y="66" width="12" height="12" fill="#95a5a6" rx="2"/>
  <text x="622" y="77" font-size="11" fill="#2c3e50">중립</text>

  <text x="60" y="100" font-size="13" font-weight="bold" fill="#2c3e50">디시인사이드 실베 — 긍정 76건 / 부정 10건 / 중립 10건</text>
  <rect x="60" y="110" width="544" height="28" fill="#27ae60" rx="3"/>
  <rect x="604" y="110" width="68" height="28" fill="#e74c3c" rx="3"/>
  <rect x="672" y="110" width="68" height="28" fill="#95a5a6" rx="3"/>
  <text x="60" y="152" text-anchor="start" font-size="11" fill="#27ae60">긍정 80%</text>
  <text x="400" y="152" text-anchor="middle" font-size="11" fill="#e74c3c">부정 10%</text>
  <text x="740" y="152" text-anchor="end" font-size="11" fill="#7f8c8d">중립 10%</text>
  <text x="60" y="168" font-size="11" fill="#555">💬 "마이크론 탈락으로 삼성·하이닉스 독점 구도 확실해짐 — 주가 더 오를 듯"</text>

  <text x="60" y="220" font-size="13" font-weight="bold" fill="#2c3e50">에펨코리아 포텐 — 긍정 80% / 부정 10% / 중립 10%</text>
  <rect x="60" y="230" width="544" height="28" fill="#27ae60" rx="3"/>
  <rect x="604" y="230" width="68" height="28" fill="#e74c3c" rx="3"/>
  <rect x="672" y="230" width="68" height="28" fill="#95a5a6" rx="3"/>
  <text x="60" y="272" text-anchor="start" font-size="11" fill="#27ae60">긍정 80%</text>
  <text x="400" y="272" text-anchor="middle" font-size="11" fill="#e74c3c">부정 10%</text>
  <text x="740" y="272" text-anchor="end" font-size="11" fill="#7f8c8d">중립 10%</text>
  <text x="60" y="288" font-size="11" fill="#555">💬 "야구로 치면 9회 중 2회, 아직 초반이다 — 지금 담아야 한다"</text>

  <text x="400" y="308" text-anchor="middle" font-size="10" fill="#bdc3c7">* 수치는 집계된 공감/반응 신호 기반 추산 | paperWanderer</text>
</svg>