<svg xmlns="http://www.w3.org/2000/svg" width="800" height="440" viewBox="0 0 800 440"
     font-family="'Apple SD Gothic Neo', 'Malgun Gothic', Arial, sans-serif">
  <rect width="800" height="440" fill="#f8f9fa" rx="12"/>
  <text x="400" y="36" text-anchor="middle" font-size="17" font-weight="bold" fill="#2c3e50">SBS 이재명 조폭설 사과 — 커뮤니티 반응</text>
  <text x="400" y="54" text-anchor="middle" font-size="11" fill="#7f8c8d">에펨코리아 · 네이버뉴스 · 트위터/X | 2026-03-26 22:00 KST</text>
  <rect x="490" y="66" width="12" height="12" fill="#27ae60" rx="2"/>
  <text x="506" y="77" font-size="11" fill="#2c3e50">긍정</text>
  <rect x="548" y="66" width="12" height="12" fill="#e74c3c" rx="2"/>
  <text x="564" y="77" font-size="11" fill="#2c3e50">부정</text>
  <rect x="606" y="66" width="12" height="12" fill="#95a5a6" rx="2"/>
  <text x="622" y="77" font-size="11" fill="#2c3e50">중립</text>

  <text x="60" y="100" font-size="13" font-weight="bold" fill="#2c3e50">에펨코리아 — 긍정 240건 / 부정 40건 / 중립 220건</text>
  <rect x="60" y="110" width="326" height="28" fill="#27ae60" rx="3"/>
  <rect x="386" y="110" width="54" height="28" fill="#e74c3c" rx="3"/>
  <rect x="440" y="110" width="300" height="28" fill="#95a5a6" rx="3"/>
  <text x="60" y="152" text-anchor="start" font-size="11" fill="#27ae60">긍정 48%</text>
  <text x="400" y="152" text-anchor="middle" font-size="11" fill="#e74c3c">부정 8%</text>
  <text x="740" y="152" text-anchor="end" font-size="11" fill="#7f8c8d">중립 44%</text>
  <text x="60" y="168" font-size="11" fill="#555">💬 "8년이 걸렸지만 사과는 사과다. 언론이 이렇게 해야 한다"</text>

  <text x="60" y="220" font-size="13" font-weight="bold" fill="#2c3e50">네이버뉴스 — 긍정 220건 / 부정 35건 / 중립 245건</text>
  <rect x="60" y="230" width="299" height="28" fill="#27ae60" rx="3"/>
  <rect x="359" y="230" width="48" height="28" fill="#e74c3c" rx="3"/>
  <rect x="407" y="230" width="333" height="28" fill="#95a5a6" rx="3"/>
  <text x="60" y="272" text-anchor="start" font-size="11" fill="#27ae60">긍정 44%</text>
  <text x="400" y="272" text-anchor="middle" font-size="11" fill="#e74c3c">부정 7%</text>
  <text x="740" y="272" text-anchor="end" font-size="11" fill="#7f8c8d">중립 49%</text>
  <text x="60" y="288" font-size="11" fill="#555">💬 "이재명이 대통령 된 이후에 사과하는 건 좀 타이밍이 의심스럽다"</text>

  <text x="60" y="340" font-size="13" font-weight="bold" fill="#2c3e50">트위터/X — 긍정 120건 / 부정 15건 / 중립 165건</text>
  <rect x="60" y="350" width="272" height="28" fill="#27ae60" rx="3"/>
  <rect x="332" y="350" width="34" height="28" fill="#e74c3c" rx="3"/>
  <rect x="366" y="350" width="374" height="28" fill="#95a5a6" rx="3"/>
  <text x="60" y="392" text-anchor="start" font-size="11" fill="#27ae60">긍정 40%</text>
  <text x="400" y="392" text-anchor="middle" font-size="11" fill="#e74c3c">부정 5%</text>
  <text x="740" y="392" text-anchor="end" font-size="11" fill="#7f8c8d">중립 55%</text>
  <text x="60" y="408" font-size="11" fill="#555">💬 "근거 없는 의혹 방송이 얼마나 많은 피해를 줬는지 반성해야"</text>

  <text x="400" y="426" text-anchor="middle" font-size="10" fill="#bdc3c7">* 수치는 집계된 공감/반응 신호 기반 추산 | paperWanderer</text>
</svg>