<svg xmlns="http://www.w3.org/2000/svg" width="800" height="440" viewBox="0 0 800 440"
     font-family="'Apple SD Gothic Neo', 'Malgun Gothic', Arial, sans-serif">
  <rect width="800" height="440" fill="#f8f9fa" rx="12"/>
  <text x="400" y="36" text-anchor="middle" font-size="17" font-weight="bold" fill="#2c3e50">정월대보름 개기월식 블러드문 — 커뮤니티 반응</text>
  <text x="400" y="54" text-anchor="middle" font-size="11" fill="#7f8c8d">DC인사이드 · FM코리아 · 트위터/X | 2026-03-03 KST</text>
  <rect x="490" y="66" width="12" height="12" fill="#27ae60" rx="2"/>
  <text x="506" y="77" font-size="11" fill="#2c3e50">긍정</text>
  <rect x="548" y="66" width="12" height="12" fill="#e74c3c" rx="2"/>
  <text x="564" y="77" font-size="11" fill="#2c3e50">부정</text>
  <rect x="606" y="66" width="12" height="12" fill="#95a5a6" rx="2"/>
  <text x="622" y="77" font-size="11" fill="#2c3e50">중립</text>

  <text x="60" y="100" font-size="13" font-weight="bold" fill="#2c3e50">DC인사이드 — 긍정 180건 / 부정 20건 / 중립 60건</text>
  <rect x="60" y="110" width="471" height="28" fill="#27ae60" rx="3"/>
  <rect x="531" y="110" width="52" height="28" fill="#e74c3c" rx="3"/>
  <rect x="583" y="110" width="157" height="28" fill="#95a5a6" rx="3"/>
  <text x="60" y="152" text-anchor="start" font-size="11" fill="#27ae60">긍정 69%</text>
  <text x="400" y="152" text-anchor="middle" font-size="11" fill="#e74c3c">부정 8%</text>
  <text x="740" y="152" text-anchor="end" font-size="11" fill="#7f8c8d">중립 23%</text>
  <text x="60" y="168" font-size="11" fill="#555">💬 "36년 만에 정월대보름+개기월식 겹치다니 진짜 신기"</text>

  <text x="60" y="220" font-size="13" font-weight="bold" fill="#2c3e50">FM코리아 — 긍정 140건 / 부정 10건 / 중립 50건</text>
  <rect x="60" y="230" width="476" height="28" fill="#27ae60" rx="3"/>
  <rect x="536" y="230" width="34" height="28" fill="#e74c3c" rx="3"/>
  <rect x="570" y="230" width="170" height="28" fill="#95a5a6" rx="3"/>
  <text x="60" y="272" text-anchor="start" font-size="11" fill="#27ae60">긍정 70%</text>
  <text x="400" y="272" text-anchor="middle" font-size="11" fill="#e74c3c">부정 5%</text>
  <text x="740" y="272" text-anchor="end" font-size="11" fill="#7f8c8d">중립 25%</text>
  <text x="60" y="288" font-size="11" fill="#555">💬 "가족이랑 옥상에서 봤는데 진짜 붉었음 ㄹㅇ"</text>

  <text x="60" y="340" font-size="13" font-weight="bold" fill="#2c3e50">트위터/X — 긍정 800건 / 부정 50건 / 중립 300건</text>
  <rect x="60" y="350" width="473" height="28" fill="#27ae60" rx="3"/>
  <rect x="533" y="350" width="29" height="28" fill="#e74c3c" rx="3"/>
  <rect x="562" y="350" width="178" height="28" fill="#95a5a6" rx="3"/>
  <text x="60" y="392" text-anchor="start" font-size="11" fill="#27ae60">긍정 70%</text>
  <text x="400" y="392" text-anchor="middle" font-size="11" fill="#e74c3c">부정 4%</text>
  <text x="740" y="392" text-anchor="end" font-size="11" fill="#7f8c8d">중립 26%</text>
  <text x="60" y="408" font-size="11" fill="#555">💬 "블러드문 인증샷 올리는 중 달이 너무 예쁘다"</text>

  <text x="400" y="426" text-anchor="middle" font-size="10" fill="#bdc3c7">* 수치는 집계된 공감/반응 신호 기반 추산 | paperWanderer</text>
</svg>