<svg xmlns="http://www.w3.org/2000/svg" width="800" height="440" viewBox="0 0 800 440"
     font-family="'Apple SD Gothic Neo', 'Malgun Gothic', Arial, sans-serif">
  <rect width="800" height="440" fill="#f8f9fa" rx="12"/>
  <text x="400" y="36" text-anchor="middle" font-size="17" font-weight="bold" fill="#2c3e50">부산 항공사 기장 살인 사건 — 커뮤니티 반응</text>
  <text x="400" y="54" text-anchor="middle" font-size="11" fill="#7f8c8d">포털 뉴스 · 온라인 커뮤니티 · 전문가 | 2026-03-19 KST</text>
  <rect x="490" y="66" width="12" height="12" fill="#27ae60" rx="2"/>
  <text x="506" y="77" font-size="11" fill="#2c3e50">긍정</text>
  <rect x="548" y="66" width="12" height="12" fill="#e74c3c" rx="2"/>
  <text x="564" y="77" font-size="11" fill="#2c3e50">부정</text>
  <rect x="606" y="66" width="12" height="12" fill="#95a5a6" rx="2"/>
  <text x="622" y="77" font-size="11" fill="#2c3e50">중립</text>

  <text x="60" y="100" font-size="13" font-weight="bold" fill="#2c3e50">포털 뉴스 댓글 — 애도 10건 / 공분 85건 / 중립 5건</text>
  <rect x="60" y="110" width="68" height="28" fill="#27ae60" rx="3"/>
  <rect x="128" y="110" width="578" height="28" fill="#e74c3c" rx="3"/>
  <rect x="706" y="110" width="34" height="28" fill="#95a5a6" rx="3"/>
  <text x="60" y="152" text-anchor="start" font-size="11" fill="#27ae60">긍정 10%</text>
  <text x="400" y="152" text-anchor="middle" font-size="11" fill="#e74c3c">부정 85%</text>
  <text x="740" y="152" text-anchor="end" font-size="11" fill="#7f8c8d">중립 5%</text>
  <text x="60" y="168" font-size="11" fill="#555">💬 "3년을 준비한 살인, 이미 정상이 아니다"</text>

  <text x="60" y="220" font-size="13" font-weight="bold" fill="#2c3e50">온라인 커뮤니티 — 애도 15건 / 공분 80건 / 중립 5건</text>
  <rect x="60" y="230" width="102" height="28" fill="#27ae60" rx="3"/>
  <rect x="162" y="230" width="544" height="28" fill="#e74c3c" rx="3"/>
  <rect x="706" y="230" width="34" height="28" fill="#95a5a6" rx="3"/>
  <text x="60" y="272" text-anchor="start" font-size="11" fill="#27ae60">긍정 15%</text>
  <text x="400" y="272" text-anchor="middle" font-size="11" fill="#e74c3c">부정 80%</text>
  <text x="740" y="272" text-anchor="end" font-size="11" fill="#7f8c8d">중립 5%</text>
  <text x="60" y="288" font-size="11" fill="#555">💬 "직장 갈등이 이렇게까지 갈 수 있다니 충격적"</text>

  <text x="60" y="340" font-size="13" font-weight="bold" fill="#2c3e50">전문가·제도 논의 — 제도개선 60건 / 비판 30건 / 중립 10건</text>
  <rect x="60" y="350" width="408" height="28" fill="#27ae60" rx="3"/>
  <rect x="468" y="350" width="204" height="28" fill="#e74c3c" rx="3"/>
  <rect x="672" y="350" width="68" height="28" fill="#95a5a6" rx="3"/>
  <text x="60" y="392" text-anchor="start" font-size="11" fill="#27ae60">긍정 60%</text>
  <text x="400" y="392" text-anchor="middle" font-size="11" fill="#e74c3c">부정 30%</text>
  <text x="740" y="392" text-anchor="end" font-size="11" fill="#7f8c8d">중립 10%</text>
  <text x="60" y="408" font-size="11" fill="#555">💬 "조종사 정신건강 관리 의무화해야 한다"</text>

  <text x="400" y="426" text-anchor="middle" font-size="10" fill="#bdc3c7">* 수치는 집계된 공감/반응 신호 기반 추산 | paperWanderer</text>
</svg>