<svg xmlns="http://www.w3.org/2000/svg" width="800" height="440" viewBox="0 0 800 440"
     font-family="'Apple SD Gothic Neo', 'Malgun Gothic', Arial, sans-serif">
  <rect width="800" height="440" fill="#f8f9fa" rx="12"/>
  <text x="400" y="36" text-anchor="middle" font-size="17" font-weight="bold" fill="#2c3e50">SK하이닉스 HBM4 엔비디아 공급 — 커뮤니티 반응</text>
  <text x="400" y="54" text-anchor="middle" font-size="11" fill="#7f8c8d">에펨코리아 · 클리앙 · 트위터/X | 2026-03-26 22:00 KST</text>
  <rect x="490" y="66" width="12" height="12" fill="#27ae60" rx="2"/>
  <text x="506" y="77" font-size="11" fill="#2c3e50">긍정</text>
  <rect x="548" y="66" width="12" height="12" fill="#e74c3c" rx="2"/>
  <text x="564" y="77" font-size="11" fill="#2c3e50">부정</text>
  <rect x="606" y="66" width="12" height="12" fill="#95a5a6" rx="2"/>
  <text x="622" y="77" font-size="11" fill="#2c3e50">중립</text>

  <text x="60" y="100" font-size="13" font-weight="bold" fill="#2c3e50">에펨코리아 — 긍정 180건 / 부정 18건 / 중립 152건</text>
  <rect x="60" y="110" width="350" height="28" fill="#27ae60" rx="3"/>
  <rect x="410" y="110" width="35" height="28" fill="#e74c3c" rx="3"/>
  <rect x="445" y="110" width="295" height="28" fill="#95a5a6" rx="3"/>
  <text x="60" y="152" text-anchor="start" font-size="11" fill="#27ae60">긍정 51%</text>
  <text x="400" y="152" text-anchor="middle" font-size="11" fill="#e74c3c">부정 5%</text>
  <text x="740" y="152" text-anchor="end" font-size="11" fill="#7f8c8d">중립 44%</text>
  <text x="60" y="168" font-size="11" fill="#555">💬 "SK하이닉스 HBM 70% 점유율이면 진짜 독보적이다. 이란전쟁 와중에 유일한 희망"</text>

  <text x="60" y="220" font-size="13" font-weight="bold" fill="#2c3e50">클리앙 — 긍정 140건 / 부정 14건 / 중립 146건</text>
  <rect x="60" y="230" width="317" height="28" fill="#27ae60" rx="3"/>
  <rect x="377" y="230" width="32" height="28" fill="#e74c3c" rx="3"/>
  <rect x="409" y="230" width="331" height="28" fill="#95a5a6" rx="3"/>
  <text x="60" y="272" text-anchor="start" font-size="11" fill="#27ae60">긍정 47%</text>
  <text x="400" y="272" text-anchor="middle" font-size="11" fill="#e74c3c">부정 5%</text>
  <text x="740" y="272" text-anchor="end" font-size="11" fill="#7f8c8d">중립 48%</text>
  <text x="60" y="288" font-size="11" fill="#555">💬 "엔비디아 젠슨 황이랑 최태원이 같이 사진 찍는 게 좀 상징적이었다"</text>

  <text x="60" y="340" font-size="13" font-weight="bold" fill="#2c3e50">트위터/X — 긍정 100건 / 부정 8건 / 중립 142건</text>
  <rect x="60" y="350" width="272" height="28" fill="#27ae60" rx="3"/>
  <rect x="332" y="350" width="22" height="28" fill="#e74c3c" rx="3"/>
  <rect x="354" y="350" width="386" height="28" fill="#95a5a6" rx="3"/>
  <text x="60" y="392" text-anchor="start" font-size="11" fill="#27ae60">긍정 40%</text>
  <text x="400" y="392" text-anchor="middle" font-size="11" fill="#e74c3c">부정 3%</text>
  <text x="740" y="392" text-anchor="end" font-size="11" fill="#7f8c8d">중립 57%</text>
  <text x="60" y="408" font-size="11" fill="#555">💬 "AI 슈퍼사이클 수혜는 진짜다. 코스피가 빠져도 SK하이닉스 HBM 스토리는 유효"</text>

  <text x="400" y="426" text-anchor="middle" font-size="10" fill="#bdc3c7">* 수치는 집계된 공감/반응 신호 기반 추산 | paperWanderer</text>
</svg>