<svg xmlns="http://www.w3.org/2000/svg" width="800" height="322" viewBox="0 0 800 322"
     font-family="'Apple SD Gothic Neo', 'Malgun Gothic', Arial, sans-serif">
  <rect width="800" height="322" fill="#f8f9fa" rx="12"/>
  <text x="400" y="36" text-anchor="middle" font-size="17" font-weight="bold" fill="#2c3e50">이란-미국 전쟁 확전 — 커뮤니티 반응</text>
  <text x="400" y="54" text-anchor="middle" font-size="11" fill="#7f8c8d">네이버뉴스 · 디시인사이드 밀리터리갤 | 2026-03-13 KST</text>
  <rect x="490" y="66" width="12" height="12" fill="#27ae60" rx="2"/>
  <text x="506" y="77" font-size="11" fill="#2c3e50">긍정</text>
  <rect x="548" y="66" width="12" height="12" fill="#e74c3c" rx="2"/>
  <text x="564" y="77" font-size="11" fill="#2c3e50">부정</text>
  <rect x="606" y="66" width="12" height="12" fill="#95a5a6" rx="2"/>
  <text x="622" y="77" font-size="11" fill="#2c3e50">중립</text>

  <text x="60" y="100" font-size="13" font-weight="bold" fill="#2c3e50">네이버뉴스 — 긍정 280건 / 부정 890건</text>
  <rect x="60" y="110" width="163" height="28" fill="#27ae60" rx="3"/>
  <rect x="223" y="110" width="517" height="28" fill="#e74c3c" rx="3"/>
  <text x="60" y="152" text-anchor="start" font-size="11" fill="#27ae60">긍정 24%</text>
  <text x="400" y="152" text-anchor="middle" font-size="11" fill="#e74c3c">부정 76%</text>
  <text x="740" y="152" text-anchor="end" font-size="11" fill="#7f8c8d">중립 0%</text>
  <text x="60" y="168" font-size="11" fill="#555">💬 "기름값, 환율, 사드 공백, 통상 압박. 한국이 피해는 다 보고 결정권은 없다"</text>

  <text x="60" y="220" font-size="13" font-weight="bold" fill="#2c3e50">디시인사이드 밀리터리갤 — 긍정 280건 / 부정 890건</text>
  <rect x="60" y="230" width="163" height="28" fill="#27ae60" rx="3"/>
  <rect x="223" y="230" width="517" height="28" fill="#e74c3c" rx="3"/>
  <text x="60" y="272" text-anchor="start" font-size="11" fill="#27ae60">긍정 24%</text>
  <text x="400" y="272" text-anchor="middle" font-size="11" fill="#e74c3c">부정 76%</text>
  <text x="740" y="272" text-anchor="end" font-size="11" fill="#7f8c8d">중립 0%</text>

  <text x="400" y="308" text-anchor="middle" font-size="10" fill="#bdc3c7">* 수치는 집계된 공감/반응 신호 기반 추산 | paperWanderer</text>
</svg>