<svg xmlns="http://www.w3.org/2000/svg" width="800" height="440" viewBox="0 0 800 440"
     font-family="'Apple SD Gothic Neo', 'Malgun Gothic', Arial, sans-serif">
  <rect width="800" height="440" fill="#f8f9fa" rx="12"/>
  <text x="400" y="36" text-anchor="middle" font-size="17" font-weight="bold" fill="#2c3e50">검찰개혁 공소청·중수청 — 커뮤니티 반응</text>
  <text x="400" y="54" text-anchor="middle" font-size="11" fill="#7f8c8d">네이버 뉴스 · 정치 커뮤니티 · MBC 뉴스 | 2026-03-15 KST</text>
  <rect x="490" y="66" width="12" height="12" fill="#27ae60" rx="2"/>
  <text x="506" y="77" font-size="11" fill="#2c3e50">긍정</text>
  <rect x="548" y="66" width="12" height="12" fill="#e74c3c" rx="2"/>
  <text x="564" y="77" font-size="11" fill="#2c3e50">부정</text>
  <rect x="606" y="66" width="12" height="12" fill="#95a5a6" rx="2"/>
  <text x="622" y="77" font-size="11" fill="#2c3e50">중립</text>

  <text x="60" y="100" font-size="13" font-weight="bold" fill="#2c3e50">네이버 뉴스 — 긍정 48건 / 부정 37건 / 중립 15건</text>
  <rect x="60" y="110" width="326" height="28" fill="#27ae60" rx="3"/>
  <rect x="386" y="110" width="252" height="28" fill="#e74c3c" rx="3"/>
  <rect x="638" y="110" width="102" height="28" fill="#95a5a6" rx="3"/>
  <text x="60" y="152" text-anchor="start" font-size="11" fill="#27ae60">긍정 48%</text>
  <text x="400" y="152" text-anchor="middle" font-size="11" fill="#e74c3c">부정 37%</text>
  <text x="740" y="152" text-anchor="end" font-size="11" fill="#7f8c8d">중립 15%</text>
  <text x="60" y="168" font-size="11" fill="#555">💬 "검찰이 수사와 기소를 다 쥐고 있는 건 권력 집중이었다"</text>

  <text x="60" y="220" font-size="13" font-weight="bold" fill="#2c3e50">정치 커뮤니티 — 긍정 50건 / 부정 35건 / 중립 15건</text>
  <rect x="60" y="230" width="340" height="28" fill="#27ae60" rx="3"/>
  <rect x="400" y="230" width="238" height="28" fill="#e74c3c" rx="3"/>
  <rect x="638" y="230" width="102" height="28" fill="#95a5a6" rx="3"/>
  <text x="60" y="272" text-anchor="start" font-size="11" fill="#27ae60">긍정 50%</text>
  <text x="400" y="272" text-anchor="middle" font-size="11" fill="#e74c3c">부정 35%</text>
  <text x="740" y="272" text-anchor="end" font-size="11" fill="#7f8c8d">중립 15%</text>
  <text x="60" y="288" font-size="11" fill="#555">💬 "공소청이 제대로 독립성 가질 수 있을지가 관건"</text>

  <text x="60" y="340" font-size="13" font-weight="bold" fill="#2c3e50">MBC 뉴스 — 긍정 45건 / 부정 40건 / 중립 15건</text>
  <rect x="60" y="350" width="306" height="28" fill="#27ae60" rx="3"/>
  <rect x="366" y="350" width="272" height="28" fill="#e74c3c" rx="3"/>
  <rect x="638" y="350" width="102" height="28" fill="#95a5a6" rx="3"/>
  <text x="60" y="392" text-anchor="start" font-size="11" fill="#27ae60">긍정 45%</text>
  <text x="400" y="392" text-anchor="middle" font-size="11" fill="#e74c3c">부정 40%</text>
  <text x="740" y="392" text-anchor="end" font-size="11" fill="#7f8c8d">중립 15%</text>
  <text x="60" y="408" font-size="11" fill="#555">💬 "졸속 처리하다 시스템 혼란 생기면 누가 책임지나"</text>

  <text x="400" y="426" text-anchor="middle" font-size="10" fill="#bdc3c7">* 수치는 집계된 공감/반응 신호 기반 추산 | paperWanderer</text>
</svg>