<svg xmlns="http://www.w3.org/2000/svg" width="800" height="440" viewBox="0 0 800 440"
     font-family="'Apple SD Gothic Neo', 'Malgun Gothic', Arial, sans-serif">
  <rect width="800" height="440" fill="#f8f9fa" rx="12"/>
  <text x="400" y="36" text-anchor="middle" font-size="17" font-weight="bold" fill="#2c3e50">넷플릭스 월간남친 — 커뮤니티 반응</text>
  <text x="400" y="54" text-anchor="middle" font-size="11" fill="#7f8c8d">DC인사이드 · FM코리아 · 네이버뉴스 | 2026-03-03 KST</text>
  <rect x="490" y="66" width="12" height="12" fill="#27ae60" rx="2"/>
  <text x="506" y="77" font-size="11" fill="#2c3e50">긍정</text>
  <rect x="548" y="66" width="12" height="12" fill="#e74c3c" rx="2"/>
  <text x="564" y="77" font-size="11" fill="#2c3e50">부정</text>
  <rect x="606" y="66" width="12" height="12" fill="#95a5a6" rx="2"/>
  <text x="622" y="77" font-size="11" fill="#2c3e50">중립</text>

  <text x="60" y="100" font-size="13" font-weight="bold" fill="#2c3e50">DC인사이드 — 긍정 200건 / 부정 150건 / 중립 80건</text>
  <rect x="60" y="110" width="316" height="28" fill="#27ae60" rx="3"/>
  <rect x="376" y="110" width="237" height="28" fill="#e74c3c" rx="3"/>
  <rect x="613" y="110" width="127" height="28" fill="#95a5a6" rx="3"/>
  <text x="60" y="152" text-anchor="start" font-size="11" fill="#27ae60">긍정 46%</text>
  <text x="400" y="152" text-anchor="middle" font-size="11" fill="#e74c3c">부정 35%</text>
  <text x="740" y="152" text-anchor="end" font-size="11" fill="#7f8c8d">중립 19%</text>
  <text x="60" y="168" font-size="11" fill="#555">💬 "얼굴이 다했다, 발연기도 비주얼로 커버"</text>

  <text x="60" y="220" font-size="13" font-weight="bold" fill="#2c3e50">FM코리아 — 긍정 120건 / 부정 80건 / 중립 40건</text>
  <rect x="60" y="230" width="340" height="28" fill="#27ae60" rx="3"/>
  <rect x="400" y="230" width="226" height="28" fill="#e74c3c" rx="3"/>
  <rect x="626" y="230" width="114" height="28" fill="#95a5a6" rx="3"/>
  <text x="60" y="272" text-anchor="start" font-size="11" fill="#27ae60">긍정 50%</text>
  <text x="400" y="272" text-anchor="middle" font-size="11" fill="#e74c3c">부정 33%</text>
  <text x="740" y="272" text-anchor="end" font-size="11" fill="#7f8c8d">중립 17%</text>
  <text x="60" y="288" font-size="11" fill="#555">💬 "글로벌 1위인데 발연기 논란이라니... 얼굴이 다 했지"</text>

  <text x="60" y="340" font-size="13" font-weight="bold" fill="#2c3e50">네이버뉴스 댓글 — 긍정 300건 / 부정 150건 / 중립 100건</text>
  <rect x="60" y="350" width="371" height="28" fill="#27ae60" rx="3"/>
  <rect x="431" y="350" width="186" height="28" fill="#e74c3c" rx="3"/>
  <rect x="617" y="350" width="123" height="28" fill="#95a5a6" rx="3"/>
  <text x="60" y="392" text-anchor="start" font-size="11" fill="#27ae60">긍정 55%</text>
  <text x="400" y="392" text-anchor="middle" font-size="11" fill="#e74c3c">부정 27%</text>
  <text x="740" y="392" text-anchor="end" font-size="11" fill="#7f8c8d">중립 18%</text>
  <text x="60" y="408" font-size="11" fill="#555">💬 "지수가 주연 맡는다니 걱정했는데 케미는 좋다"</text>

  <text x="400" y="426" text-anchor="middle" font-size="10" fill="#bdc3c7">* 수치는 집계된 공감/반응 신호 기반 추산 | paperWanderer</text>
</svg>