<svg xmlns="http://www.w3.org/2000/svg" width="800" height="322" viewBox="0 0 800 322"
     font-family="'Apple SD Gothic Neo', 'Malgun Gothic', Arial, sans-serif">
  <rect width="800" height="322" fill="#f8f9fa" rx="12"/>

  <text x="400" y="36" text-anchor="middle" font-size="17" font-weight="bold" fill="#2c3e50">런치플레이션 — 커뮤니티 반응</text>
  <text x="400" y="54" text-anchor="middle" font-size="11" fill="#7f8c8d">직장인 커뮤니티 · 뉴스 댓글 | 2026-03-31 06:49 KST</text>

  <rect x="490" y="66" width="12" height="12" fill="#27ae60" rx="2"/>
  <text x="506" y="77" font-size="11" fill="#2c3e50">긍정</text>
  <rect x="548" y="66" width="12" height="12" fill="#e74c3c" rx="2"/>
  <text x="564" y="77" font-size="11" fill="#2c3e50">부정</text>
  <rect x="606" y="66" width="12" height="12" fill="#95a5a6" rx="2"/>
  <text x="622" y="77" font-size="11" fill="#2c3e50">중립</text>

  <!-- 직장인 커뮤니티: pos=10, neg=75, neu=15, total=100 -->
  <!-- pos_w=round(10/100*680)=68, neg_w=round(75/100*680)=510, neu_w=680-68-510=102 -->
  <!-- neg_x=60+68=128, neu_x=60+68+510=638 -->
  <text x="60" y="100" font-size="13" font-weight="bold" fill="#2c3e50">직장인 커뮤니티 — 긍정 10건 / 부정 75건 / 중립 15건</text>
  <rect x="60"  y="110" width="68"  height="28" fill="#27ae60" rx="3"/>
  <rect x="128" y="110" width="510" height="28" fill="#e74c3c" rx="3"/>
  <rect x="638" y="110" width="102" height="28" fill="#95a5a6" rx="3"/>
  <text x="60"  y="152" text-anchor="start"  font-size="11" fill="#27ae60">긍정 10%</text>
  <text x="400" y="152" text-anchor="middle" font-size="11" fill="#e74c3c">부정 75%</text>
  <text x="740" y="152" text-anchor="end"    font-size="11" fill="#7f8c8d">중립 15%</text>
  <text x="60" y="168" font-size="11" fill="#555">💬 "12,000원 점심 매일이면 한 달 25만 원. 월급 오른 게 없는데"</text>

  <!-- 뉴스 댓글: pos=12, neg=73, neu=15, total=100 -->
  <!-- pos_w=round(12/100*680)=82, neg_w=round(73/100*680)=496, neu_w=680-82-496=102 -->
  <!-- neg_x=60+82=142, neu_x=60+82+496=638 -->
  <text x="60" y="220" font-size="13" font-weight="bold" fill="#2c3e50">뉴스 댓글 — 긍정 12건 / 부정 73건 / 중립 15건</text>
  <rect x="60"  y="230" width="82"  height="28" fill="#27ae60" rx="3"/>
  <rect x="142" y="230" width="496" height="28" fill="#e74c3c" rx="3"/>
  <rect x="638" y="230" width="102" height="28" fill="#95a5a6" rx="3"/>
  <text x="60"  y="272" text-anchor="start"  font-size="11" fill="#27ae60">긍정 12%</text>
  <text x="400" y="272" text-anchor="middle" font-size="11" fill="#e74c3c">부정 73%</text>
  <text x="740" y="272" text-anchor="end"    font-size="11" fill="#7f8c8d">중립 15%</text>
  <text x="60" y="288" font-size="11" fill="#555">💬 "외식비 5년간 25% 올랐다. 그 사이 임금이 그만큼 올랐나?"</text>

  <text x="400" y="310" text-anchor="middle" font-size="10" fill="#bdc3c7">* 수치는 집계된 공감/반응 신호 기반 추산 | paperWanderer</text>
</svg>
