<svg xmlns="http://www.w3.org/2000/svg" width="800" height="440" viewBox="0 0 800 440"
     font-family="'Apple SD Gothic Neo', 'Malgun Gothic', Arial, sans-serif">
  <rect width="800" height="440" fill="#f8f9fa" rx="12"/>
  <text x="400" y="36" text-anchor="middle" font-size="17" font-weight="bold" fill="#2c3e50">삼성·SK하이닉스 실적 폭발 — 커뮤니티 반응</text>
  <text x="400" y="54" text-anchor="middle" font-size="11" fill="#7f8c8d">에펨코리아 · 디시인사이드 · 네이버 뉴스 | 2026-03-06 KST</text>
  <rect x="490" y="66" width="12" height="12" fill="#27ae60" rx="2"/>
  <text x="506" y="77" font-size="11" fill="#2c3e50">긍정</text>
  <rect x="548" y="66" width="12" height="12" fill="#e74c3c" rx="2"/>
  <text x="564" y="77" font-size="11" fill="#2c3e50">부정</text>
  <rect x="606" y="66" width="12" height="12" fill="#95a5a6" rx="2"/>
  <text x="622" y="77" font-size="11" fill="#2c3e50">중립</text>

  <text x="60" y="100" font-size="13" font-weight="bold" fill="#2c3e50">에펨코리아 — 긍정 138건 / 부정 34건 / 중립 61건</text>
  <rect x="60" y="110" width="403" height="28" fill="#27ae60" rx="3"/>
  <rect x="463" y="110" width="99" height="28" fill="#e74c3c" rx="3"/>
  <rect x="562" y="110" width="178" height="28" fill="#95a5a6" rx="3"/>
  <text x="60" y="152" text-anchor="start" font-size="11" fill="#27ae60">긍정 59%</text>
  <text x="400" y="152" text-anchor="middle" font-size="11" fill="#e74c3c">부정 15%</text>
  <text x="740" y="152" text-anchor="end" font-size="11" fill="#7f8c8d">중립 26%</text>
  <text x="60" y="168" font-size="11" fill="#555">💬 "삼전 1분기 영업이익 38~41조면 역대급이네"</text>

  <text x="60" y="220" font-size="13" font-weight="bold" fill="#2c3e50">디시인사이드 — 긍정 89건 / 부정 22건 / 중립 41건</text>
  <rect x="60" y="230" width="398" height="28" fill="#27ae60" rx="3"/>
  <rect x="458" y="230" width="98" height="28" fill="#e74c3c" rx="3"/>
  <rect x="556" y="230" width="184" height="28" fill="#95a5a6" rx="3"/>
  <text x="60" y="272" text-anchor="start" font-size="11" fill="#27ae60">긍정 59%</text>
  <text x="400" y="272" text-anchor="middle" font-size="11" fill="#e74c3c">부정 14%</text>
  <text x="740" y="272" text-anchor="end" font-size="11" fill="#7f8c8d">중립 27%</text>
  <text x="60" y="288" font-size="11" fill="#555">💬 "SK하이닉스 HBM이 엔비디아 먹여살리는 구조"</text>

  <text x="60" y="340" font-size="13" font-weight="bold" fill="#2c3e50">네이버 뉴스 — 긍정 194건 / 부정 47건 / 중립 83건</text>
  <rect x="60" y="350" width="407" height="28" fill="#27ae60" rx="3"/>
  <rect x="467" y="350" width="99" height="28" fill="#e74c3c" rx="3"/>
  <rect x="566" y="350" width="174" height="28" fill="#95a5a6" rx="3"/>
  <text x="60" y="392" text-anchor="start" font-size="11" fill="#27ae60">긍정 60%</text>
  <text x="400" y="392" text-anchor="middle" font-size="11" fill="#e74c3c">부정 15%</text>
  <text x="740" y="392" text-anchor="end" font-size="11" fill="#7f8c8d">중립 25%</text>
  <text x="60" y="408" font-size="11" fill="#555">💬 "코스피 폭락 속에도 반도체만은 버티는 이유 있음"</text>

  <text x="400" y="426" text-anchor="middle" font-size="10" fill="#bdc3c7">* 수치는 집계된 공감/반응 신호 기반 추산 | paperWanderer</text>
</svg>