<svg xmlns="http://www.w3.org/2000/svg" width="800" height="440" viewBox="0 0 800 440"
     font-family="'Apple SD Gothic Neo', 'Malgun Gothic', Arial, sans-serif">
  <rect width="800" height="440" fill="#f8f9fa" rx="12"/>
  <text x="400" y="36" text-anchor="middle" font-size="17" font-weight="bold" fill="#2c3e50">제11회 서해수호의날 — 커뮤니티 반응 분포</text>
  <text x="400" y="54" text-anchor="middle" font-size="11" fill="#7f8c8d">온라인 커뮤니티 종합 | 2026-03-27 KST</text>
  <rect x="490" y="66" width="12" height="12" fill="#27ae60" rx="2"/>
  <text x="506" y="77" font-size="11" fill="#2c3e50">긍정</text>
  <rect x="548" y="66" width="12" height="12" fill="#e74c3c" rx="2"/>
  <text x="564" y="77" font-size="11" fill="#2c3e50">부정</text>
  <rect x="606" y="66" width="12" height="12" fill="#95a5a6" rx="2"/>
  <text x="622" y="77" font-size="11" fill="#2c3e50">중립</text>

  <text x="60" y="100" font-size="13" font-weight="bold" fill="#2c3e50">추모 반응 — 긍정 81% / 부정 4% / 중립 15%</text>
  <rect x="60" y="110" width="551" height="28" fill="#27ae60" rx="3"/>
  <rect x="611" y="110" width="27" height="28" fill="#e74c3c" rx="3"/>
  <rect x="638" y="110" width="102" height="28" fill="#95a5a6" rx="3"/>
  <text x="60" y="152" text-anchor="start" font-size="11" fill="#27ae60">긍정 81%</text>
  <text x="400" y="152" text-anchor="middle" font-size="11" fill="#e74c3c">부정 4%</text>
  <text x="740" y="152" text-anchor="end" font-size="11" fill="#7f8c8d">중립 15%</text>
  <text x="60" y="168" font-size="11" fill="#555">💬 "서해 수호 전사자 추모·공감" — 압도적 긍정 반응</text>

  <text x="60" y="220" font-size="13" font-weight="bold" fill="#2c3e50">기념사 평가 — 긍정 20% / 부정 38% / 중립 42%</text>
  <rect x="60" y="230" width="136" height="28" fill="#27ae60" rx="3"/>
  <rect x="196" y="230" width="258" height="28" fill="#e74c3c" rx="3"/>
  <rect x="454" y="230" width="286" height="28" fill="#95a5a6" rx="3"/>
  <text x="60" y="272" text-anchor="start" font-size="11" fill="#27ae60">긍정 20%</text>
  <text x="400" y="272" text-anchor="middle" font-size="11" fill="#e74c3c">부정 38%</text>
  <text x="740" y="272" text-anchor="end" font-size="11" fill="#7f8c8d">중립 42%</text>
  <text x="60" y="288" font-size="11" fill="#555">💬 "기념사 방향 불편·비판 38% vs 복합 반응 42%"</text>

  <text x="60" y="340" font-size="13" font-weight="bold" fill="#2c3e50">여야 동석 — 긍정 61% / 부정 8% / 중립 31%</text>
  <rect x="60" y="350" width="415" height="28" fill="#27ae60" rx="3"/>
  <rect x="475" y="350" width="54" height="28" fill="#e74c3c" rx="3"/>
  <rect x="529" y="350" width="211" height="28" fill="#95a5a6" rx="3"/>
  <text x="60" y="392" text-anchor="start" font-size="11" fill="#27ae60">긍정 61%</text>
  <text x="400" y="392" text-anchor="middle" font-size="11" fill="#e74c3c">부정 8%</text>
  <text x="740" y="392" text-anchor="end" font-size="11" fill="#7f8c8d">중립 31%</text>
  <text x="60" y="408" font-size="11" fill="#555">💬 "여야 동석 — 긍정 반응 61%"</text>

  <text x="400" y="426" text-anchor="middle" font-size="10" fill="#bdc3c7">* 수치는 집계된 공감/반응 신호 기반 추산 | paperWanderer</text>
</svg>