<svg xmlns="http://www.w3.org/2000/svg" width="800" height="440" viewBox="0 0 800 440"
     font-family="'Apple SD Gothic Neo', 'Malgun Gothic', Arial, sans-serif">
  <rect width="800" height="440" fill="#f8f9fa" rx="12"/>
  <text x="400" y="36" text-anchor="middle" font-size="17" font-weight="bold" fill="#2c3e50">봄철 황사·미세먼지 — 커뮤니티 반응</text>
  <text x="400" y="54" text-anchor="middle" font-size="11" fill="#7f8c8d">네이버 뉴스 · 보배드림 · 클리앙 | 2026-03-07 21:00 KST</text>
  <rect x="490" y="66" width="12" height="12" fill="#27ae60" rx="2"/>
  <text x="506" y="77" font-size="11" fill="#2c3e50">긍정</text>
  <rect x="548" y="66" width="12" height="12" fill="#e74c3c" rx="2"/>
  <text x="564" y="77" font-size="11" fill="#2c3e50">부정</text>
  <rect x="606" y="66" width="12" height="12" fill="#95a5a6" rx="2"/>
  <text x="622" y="77" font-size="11" fill="#2c3e50">중립</text>

  <text x="60" y="100" font-size="13" font-weight="bold" fill="#2c3e50">네이버 뉴스 댓글 — 긍정 80건 / 부정 450건 / 중립 220건</text>
  <rect x="60" y="110" width="73" height="28" fill="#27ae60" rx="3"/>
  <rect x="133" y="110" width="408" height="28" fill="#e74c3c" rx="3"/>
  <rect x="541" y="110" width="199" height="28" fill="#95a5a6" rx="3"/>
  <text x="60" y="152" text-anchor="start" font-size="11" fill="#27ae60">긍정 11%</text>
  <text x="400" y="152" text-anchor="middle" font-size="11" fill="#e74c3c">부정 60%</text>
  <text x="740" y="152" text-anchor="end" font-size="11" fill="#7f8c8d">중립 29%</text>
  <text x="60" y="168" font-size="11" fill="#555">💬 "봄만 되면 매년 이 난리. 중국이 해결할 생각이 없으니 우리만 피해"</text>

  <text x="60" y="220" font-size="13" font-weight="bold" fill="#2c3e50">보배드림 — 긍정 40건 / 부정 230건 / 중립 180건</text>
  <rect x="60" y="230" width="60" height="28" fill="#27ae60" rx="3"/>
  <rect x="120" y="230" width="348" height="28" fill="#e74c3c" rx="3"/>
  <rect x="468" y="230" width="272" height="28" fill="#95a5a6" rx="3"/>
  <text x="60" y="272" text-anchor="start" font-size="11" fill="#27ae60">긍정 9%</text>
  <text x="400" y="272" text-anchor="middle" font-size="11" fill="#e74c3c">부정 51%</text>
  <text x="740" y="272" text-anchor="end" font-size="11" fill="#7f8c8d">중립 40%</text>
  <text x="60" y="288" font-size="11" fill="#555">💬 "이란전쟁에 황사까지, 봄이 전쟁이다"</text>

  <text x="60" y="340" font-size="13" font-weight="bold" fill="#2c3e50">클리앙 — 긍정 60건 / 부정 180건 / 중립 160건</text>
  <rect x="60" y="350" width="102" height="28" fill="#27ae60" rx="3"/>
  <rect x="162" y="350" width="306" height="28" fill="#e74c3c" rx="3"/>
  <rect x="468" y="350" width="272" height="28" fill="#95a5a6" rx="3"/>
  <text x="60" y="392" text-anchor="start" font-size="11" fill="#27ae60">긍정 15%</text>
  <text x="400" y="392" text-anchor="middle" font-size="11" fill="#e74c3c">부정 45%</text>
  <text x="740" y="392" text-anchor="end" font-size="11" fill="#7f8c8d">중립 40%</text>
  <text x="60" y="408" font-size="11" fill="#555">💬 "마스크 사재기 또 시작될까 걱정된다"</text>

  <text x="400" y="426" text-anchor="middle" font-size="10" fill="#bdc3c7">* 수치는 집계된 공감/반응 신호 기반 추산 | paperWanderer</text>
</svg>