<svg xmlns="http://www.w3.org/2000/svg" width="800" height="322" viewBox="0 0 800 322"
     font-family="'Apple SD Gothic Neo', 'Malgun Gothic', Arial, sans-serif">
  <rect width="800" height="322" fill="#f8f9fa" rx="12"/>
  <text x="400" y="36" text-anchor="middle" font-size="17" font-weight="bold" fill="#2c3e50">미국-이란 전쟁 한국경제 영향 — 커뮤니티 반응</text>
  <text x="400" y="54" text-anchor="middle" font-size="11" fill="#7f8c8d">네이버뉴스 · FM코리아 | 2026-03-29 KST</text>
  <rect x="490" y="66" width="12" height="12" fill="#27ae60" rx="2"/>
  <text x="506" y="77" font-size="11" fill="#2c3e50">긍정</text>
  <rect x="548" y="66" width="12" height="12" fill="#e74c3c" rx="2"/>
  <text x="564" y="77" font-size="11" fill="#2c3e50">부정</text>
  <rect x="606" y="66" width="12" height="12" fill="#95a5a6" rx="2"/>
  <text x="622" y="77" font-size="11" fill="#2c3e50">중립</text>
  <text x="60" y="100" font-size="13" font-weight="bold" fill="#2c3e50">네이버뉴스 댓글 — 긍정 15건 / 부정 285건 / 중립 100건</text>
  <rect x="60" y="110" width="26" height="28" fill="#27ae60" rx="3"/>
  <rect x="86" y="110" width="484" height="28" fill="#e74c3c" rx="3"/>
  <rect x="570" y="110" width="170" height="28" fill="#95a5a6" rx="3"/>
  <text x="60" y="152" text-anchor="start" font-size="11" fill="#27ae60">긍정 4%</text>
  <text x="400" y="152" text-anchor="middle" font-size="11" fill="#e74c3c">부정 71%</text>
  <text x="740" y="152" text-anchor="end" font-size="11" fill="#7f8c8d">중립 25%</text>
  <text x="60" y="168" font-size="11" fill="#555">💬 "유가 100달러에 이자까지 오르면 서민은 어떻게 살라는 거냐"</text>
  <text x="60" y="220" font-size="13" font-weight="bold" fill="#2c3e50">FM코리아 — 긍정 8건 / 부정 100건 / 중립 42건</text>
  <rect x="60" y="230" width="36" height="28" fill="#27ae60" rx="3"/>
  <rect x="96" y="230" width="453" height="28" fill="#e74c3c" rx="3"/>
  <rect x="549" y="230" width="191" height="28" fill="#95a5a6" rx="3"/>
  <text x="60" y="272" text-anchor="start" font-size="11" fill="#27ae60">긍정 5%</text>
  <text x="400" y="272" text-anchor="middle" font-size="11" fill="#e74c3c">부정 67%</text>
  <text x="740" y="272" text-anchor="end" font-size="11" fill="#7f8c8d">중립 28%</text>
  <text x="60" y="288" font-size="11" fill="#555">💬 "3고 동시에 오면 한국은 IMF 때보다 심각할 수 있다"</text>
  <text x="400" y="308" text-anchor="middle" font-size="10" fill="#bdc3c7">* 수치는 집계된 공감/반응 신호 기반 추산 | paperWanderer</text>
</svg>