<svg xmlns="http://www.w3.org/2000/svg" width="800" height="440" viewBox="0 0 800 440"
     font-family="'Apple SD Gothic Neo', 'Malgun Gothic', Arial, sans-serif">
  <rect width="800" height="440" fill="#f8f9fa" rx="12"/>
  <text x="400" y="36" text-anchor="middle" font-size="17" font-weight="bold" fill="#2c3e50">늘봄학교 전국 시행 — 커뮤니티 반응</text>
  <text x="400" y="54" text-anchor="middle" font-size="11" fill="#7f8c8d">디시인사이드 · 에펨코리아 · 블라인드 | 2026-03-06 KST</text>
  <rect x="490" y="66" width="12" height="12" fill="#27ae60" rx="2"/>
  <text x="506" y="77" font-size="11" fill="#2c3e50">긍정</text>
  <rect x="548" y="66" width="12" height="12" fill="#e74c3c" rx="2"/>
  <text x="564" y="77" font-size="11" fill="#2c3e50">부정</text>
  <rect x="606" y="66" width="12" height="12" fill="#95a5a6" rx="2"/>
  <text x="622" y="77" font-size="11" fill="#2c3e50">중립</text>

  <text x="60" y="100" font-size="13" font-weight="bold" fill="#2c3e50">디시인사이드 — 긍정 34건 / 부정 89건 / 중립 44건</text>
  <rect x="60" y="110" width="138" height="28" fill="#27ae60" rx="3"/>
  <rect x="198" y="110" width="362" height="28" fill="#e74c3c" rx="3"/>
  <rect x="560" y="110" width="180" height="28" fill="#95a5a6" rx="3"/>
  <text x="60" y="152" text-anchor="start" font-size="11" fill="#27ae60">긍정 20%</text>
  <text x="400" y="152" text-anchor="middle" font-size="11" fill="#e74c3c">부정 53%</text>
  <text x="740" y="152" text-anchor="end" font-size="11" fill="#7f8c8d">중립 27%</text>
  <text x="60" y="168" font-size="11" fill="#555">💬 "교사가 돌봄까지 담당하는 구조 자체가 말이 안 됨"</text>

  <text x="60" y="220" font-size="13" font-weight="bold" fill="#2c3e50">에펨코리아 — 긍정 28건 / 부정 62건 / 중립 39건</text>
  <rect x="60" y="230" width="147" height="28" fill="#27ae60" rx="3"/>
  <rect x="207" y="230" width="327" height="28" fill="#e74c3c" rx="3"/>
  <rect x="534" y="230" width="206" height="28" fill="#95a5a6" rx="3"/>
  <text x="60" y="272" text-anchor="start" font-size="11" fill="#27ae60">긍정 22%</text>
  <text x="400" y="272" text-anchor="middle" font-size="11" fill="#e74c3c">부정 48%</text>
  <text x="740" y="272" text-anchor="end" font-size="11" fill="#7f8c8d">중립 30%</text>
  <text x="60" y="288" font-size="11" fill="#555">💬 "맞벌이 부부 입장에서는 정말 필요한 제도인데 현장 준비가 안 됐음"</text>

  <text x="60" y="340" font-size="13" font-weight="bold" fill="#2c3e50">블라인드(교원) — 긍정 18건 / 부정 71건 / 중립 29건</text>
  <rect x="60" y="350" width="104" height="28" fill="#27ae60" rx="3"/>
  <rect x="164" y="350" width="409" height="28" fill="#e74c3c" rx="3"/>
  <rect x="573" y="350" width="167" height="28" fill="#95a5a6" rx="3"/>
  <text x="60" y="392" text-anchor="start" font-size="11" fill="#27ae60">긍정 15%</text>
  <text x="400" y="392" text-anchor="middle" font-size="11" fill="#e74c3c">부정 60%</text>
  <text x="740" y="392" text-anchor="end" font-size="11" fill="#7f8c8d">중립 25%</text>
  <text x="60" y="408" font-size="11" fill="#555">💬 "행정 처리할 것이 산더미, 수업 준비 언제 하냐"</text>

  <text x="400" y="426" text-anchor="middle" font-size="10" fill="#bdc3c7">* 수치는 집계된 공감/반응 신호 기반 추산 | paperWanderer</text>
</svg>