<svg xmlns="http://www.w3.org/2000/svg" width="800" height="440" viewBox="0 0 800 440"
     font-family="'Apple SD Gothic Neo', 'Malgun Gothic', Arial, sans-serif">
  <rect width="800" height="440" fill="#f8f9fa" rx="12"/>
  <text x="400" y="36" text-anchor="middle" font-size="17" font-weight="bold" fill="#2c3e50">아너: 그녀들의 법정 — 커뮤니티 반응</text>
  <text x="400" y="54" text-anchor="middle" font-size="11" fill="#7f8c8d">트위터/X · 네이트연예 · 에펨코리아 | 2026-03-26 22:00 KST</text>
  <rect x="490" y="66" width="12" height="12" fill="#27ae60" rx="2"/>
  <text x="506" y="77" font-size="11" fill="#2c3e50">긍정</text>
  <rect x="548" y="66" width="12" height="12" fill="#e74c3c" rx="2"/>
  <text x="564" y="77" font-size="11" fill="#2c3e50">부정</text>
  <rect x="606" y="66" width="12" height="12" fill="#95a5a6" rx="2"/>
  <text x="622" y="77" font-size="11" fill="#2c3e50">중립</text>

  <text x="60" y="100" font-size="13" font-weight="bold" fill="#2c3e50">트위터/X — 긍정 200건 / 부정 15건 / 중립 185건</text>
  <rect x="60" y="110" width="340" height="28" fill="#27ae60" rx="3"/>
  <rect x="400" y="110" width="26" height="28" fill="#e74c3c" rx="3"/>
  <rect x="426" y="110" width="314" height="28" fill="#95a5a6" rx="3"/>
  <text x="60" y="152" text-anchor="start" font-size="11" fill="#27ae60">긍정 50%</text>
  <text x="400" y="152" text-anchor="middle" font-size="11" fill="#e74c3c">부정 4%</text>
  <text x="740" y="152" text-anchor="end" font-size="11" fill="#7f8c8d">중립 46%</text>
  <text x="60" y="168" font-size="11" fill="#555">💬 "법정 드라마인데 이렇게 재밌는 건 오랜만이다"</text>

  <text x="60" y="220" font-size="13" font-weight="bold" fill="#2c3e50">네이트연예 — 긍정 150건 / 부정 10건 / 중립 140건</text>
  <rect x="60" y="230" width="340" height="28" fill="#27ae60" rx="3"/>
  <rect x="400" y="230" width="23" height="28" fill="#e74c3c" rx="3"/>
  <rect x="423" y="230" width="317" height="28" fill="#95a5a6" rx="3"/>
  <text x="60" y="272" text-anchor="start" font-size="11" fill="#27ae60">긍정 50%</text>
  <text x="400" y="272" text-anchor="middle" font-size="11" fill="#e74c3c">부정 3%</text>
  <text x="740" y="272" text-anchor="end" font-size="11" fill="#7f8c8d">중립 47%</text>
  <text x="60" y="288" font-size="11" fill="#555">💬 "쿠팡플레이 오리지널 중 이게 제일 잘 만든 것 같다"</text>

  <text x="60" y="340" font-size="13" font-weight="bold" fill="#2c3e50">에펨코리아 — 긍정 100건 / 부정 8건 / 중립 92건</text>
  <rect x="60" y="350" width="340" height="28" fill="#27ae60" rx="3"/>
  <rect x="400" y="350" width="27" height="28" fill="#e74c3c" rx="3"/>
  <rect x="427" y="350" width="313" height="28" fill="#95a5a6" rx="3"/>
  <text x="60" y="392" text-anchor="start" font-size="11" fill="#27ae60">긍정 50%</text>
  <text x="400" y="392" text-anchor="middle" font-size="11" fill="#e74c3c">부정 4%</text>
  <text x="740" y="392" text-anchor="end" font-size="11" fill="#7f8c8d">중립 46%</text>
  <text x="60" y="408" font-size="11" fill="#555">💬 "KT 스튜디오지니 진짜 잘 만들었다"</text>

  <text x="400" y="426" text-anchor="middle" font-size="10" fill="#bdc3c7">* 수치는 집계된 공감/반응 신호 기반 추산 | paperWanderer</text>
</svg>