<svg xmlns="http://www.w3.org/2000/svg" width="800" height="440" viewBox="0 0 800 440"
     font-family="'Apple SD Gothic Neo', 'Malgun Gothic', Arial, sans-serif">
  <rect width="800" height="440" fill="#f8f9fa" rx="12"/>
  <text x="400" y="36" text-anchor="middle" font-size="17" font-weight="bold" fill="#2c3e50">이정후 발목 부상 — 커뮤니티 반응</text>
  <text x="400" y="54" text-anchor="middle" font-size="11" fill="#7f8c8d">네이버뉴스 · 야구 커뮤니티 | 2026-03-05 20:00 KST</text>
  <rect x="490" y="66" width="12" height="12" fill="#27ae60" rx="2"/>
  <text x="506" y="77" font-size="11" fill="#2c3e50">긍정</text>
  <rect x="548" y="66" width="12" height="12" fill="#e74c3c" rx="2"/>
  <text x="564" y="77" font-size="11" fill="#2c3e50">부정</text>
  <rect x="606" y="66" width="12" height="12" fill="#95a5a6" rx="2"/>
  <text x="622" y="77" font-size="11" fill="#2c3e50">중립</text>

  <text x="60" y="100" font-size="13" font-weight="bold" fill="#2c3e50">네이버 뉴스 — 우려 후 안도 반응</text>
  <rect x="60" y="110" width="238" height="28" fill="#27ae60" rx="3"/>
  <rect x="298" y="110" width="340" height="28" fill="#e74c3c" rx="3"/>
  <rect x="638" y="110" width="102" height="28" fill="#95a5a6" rx="3"/>
  <text x="60" y="152" text-anchor="start" font-size="11" fill="#27ae60">긍정 35%</text>
  <text x="400" y="152" text-anchor="middle" font-size="11" fill="#e74c3c">부정 50%</text>
  <text x="740" y="152" text-anchor="end" font-size="11" fill="#7f8c8d">중립 15%</text>
  <text x="60" y="168" font-size="11" fill="#555">💬 "주저앉는 거 보고 심장 쫄렸다. 일본전까지 있는데 제발 괜찮아야"</text>

  <text x="60" y="220" font-size="13" font-weight="bold" fill="#2c3e50">야구 커뮤니티 — 우려 속 안도</text>
  <rect x="60" y="230" width="272" height="28" fill="#27ae60" rx="3"/>
  <rect x="332" y="230" width="306" height="28" fill="#e74c3c" rx="3"/>
  <rect x="638" y="230" width="102" height="28" fill="#95a5a6" rx="3"/>
  <text x="60" y="272" text-anchor="start" font-size="11" fill="#27ae60">긍정 40%</text>
  <text x="400" y="272" text-anchor="middle" font-size="11" fill="#e74c3c">부정 45%</text>
  <text x="740" y="272" text-anchor="end" font-size="11" fill="#7f8c8d">중립 15%</text>
  <text x="60" y="288" font-size="11" fill="#555">💬 "경기 끝까지 뛴 걸 보면 크게 다친 건 아닌 것 같다. 빨리 회복해라"</text>

  <text x="60" y="340" font-size="13" font-weight="bold" fill="#2c3e50">전체 종합 — 우려 우세, 안도 공존</text>
  <rect x="60" y="350" width="251" height="28" fill="#27ae60" rx="3"/>
  <rect x="311" y="350" width="326" height="28" fill="#e74c3c" rx="3"/>
  <rect x="637" y="350" width="103" height="28" fill="#95a5a6" rx="3"/>
  <text x="60" y="392" text-anchor="start" font-size="11" fill="#27ae60">긍정 37%</text>
  <text x="400" y="392" text-anchor="middle" font-size="11" fill="#e74c3c">부정 48%</text>
  <text x="740" y="392" text-anchor="end" font-size="11" fill="#7f8c8d">중립 15%</text>
  <text x="60" y="408" font-size="11" fill="#555">💬 "WBC 직전 부상 패턴이 반복되는 한국 야구. 발목 관리 좀 해줘"</text>

  <text x="400" y="426" text-anchor="middle" font-size="10" fill="#bdc3c7">* 수치는 집계된 공감/반응 신호 기반 추산 | paperWanderer</text>
</svg>