<svg xmlns="http://www.w3.org/2000/svg" width="800" height="440" viewBox="0 0 800 440"
     font-family="'Apple SD Gothic Neo', 'Malgun Gothic', Arial, sans-serif">
  <rect width="800" height="440" fill="#f8f9fa" rx="12"/>
  <text x="400" y="36" text-anchor="middle" font-size="17" font-weight="bold" fill="#2c3e50">민주당 위성정당 출범 — 커뮤니티 반응</text>
  <text x="400" y="54" text-anchor="middle" font-size="11" fill="#7f8c8d">네이버 뉴스 댓글 · DC/오마이 커뮤니티 · 전체 합산 | 2026-03-16 21:00 KST</text>
  <rect x="490" y="66" width="12" height="12" fill="#27ae60" rx="2"/>
  <text x="506" y="77" font-size="11" fill="#2c3e50">긍정</text>
  <rect x="548" y="66" width="12" height="12" fill="#e74c3c" rx="2"/>
  <text x="564" y="77" font-size="11" fill="#2c3e50">부정</text>
  <rect x="606" y="66" width="12" height="12" fill="#95a5a6" rx="2"/>
  <text x="622" y="77" font-size="11" fill="#2c3e50">중립</text>

  <text x="60" y="100" font-size="13" font-weight="bold" fill="#2c3e50">네이버 뉴스 댓글 — 긍정 260건 / 부정 420건 / 중립 150건</text>
  <rect x="60" y="110" width="210" height="28" fill="#27ae60" rx="3"/>
  <rect x="270" y="110" width="340" height="28" fill="#e74c3c" rx="3"/>
  <rect x="610" y="110" width="130" height="28" fill="#95a5a6" rx="3"/>
  <text x="60" y="152" text-anchor="start" font-size="11" fill="#27ae60">긍정 31%</text>
  <text x="400" y="152" text-anchor="middle" font-size="11" fill="#e74c3c">부정 50%</text>
  <text x="740" y="152" text-anchor="end" font-size="11" fill="#7f8c8d">중립 19%</text>
  <text x="60" y="168" font-size="11" fill="#555">💬 "여야 다 꼼수인 거 알면서 왜 이 짓을 반복하나 선거제도 고쳐야 한다" (비공감 198)</text>

  <text x="60" y="220" font-size="13" font-weight="bold" fill="#2c3e50">DC/오마이 커뮤니티 — 긍정 160건 / 부정 260건 / 중립 290건</text>
  <rect x="60" y="230" width="154" height="28" fill="#27ae60" rx="3"/>
  <rect x="214" y="230" width="251" height="28" fill="#e74c3c" rx="3"/>
  <rect x="465" y="230" width="275" height="28" fill="#95a5a6" rx="3"/>
  <text x="60" y="272" text-anchor="start" font-size="11" fill="#27ae60">긍정 23%</text>
  <text x="400" y="272" text-anchor="middle" font-size="11" fill="#e74c3c">부정 37%</text>
  <text x="740" y="272" text-anchor="end" font-size="11" fill="#7f8c8d">중립 40%</text>
  <text x="60" y="288" font-size="11" fill="#555">💬 "2020년에 문재인 정부 때도 했고 선거제도를 왜 안 바꾸나" (비공감 126)</text>

  <text x="60" y="340" font-size="13" font-weight="bold" fill="#2c3e50">전체 합산 — 긍정 420건 / 부정 680건 / 중립 440건</text>
  <rect x="60" y="350" width="186" height="28" fill="#27ae60" rx="3"/>
  <rect x="246" y="350" width="301" height="28" fill="#e74c3c" rx="3"/>
  <rect x="547" y="350" width="193" height="28" fill="#95a5a6" rx="3"/>
  <text x="60" y="392" text-anchor="start" font-size="11" fill="#27ae60">긍정 27%</text>
  <text x="400" y="392" text-anchor="middle" font-size="11" fill="#e74c3c">부정 44%</text>
  <text x="740" y="392" text-anchor="end" font-size="11" fill="#7f8c8d">중립 29%</text>
  <text x="60" y="408" font-size="11" fill="#555">💬 "국민의힘도 똑같이 했던 거 비판 자격이 있나" (공감 128)</text>

  <text x="400" y="426" text-anchor="middle" font-size="10" fill="#bdc3c7">* 수치는 집계된 공감/반응 신호 기반 추산 | paperWanderer</text>
</svg>