<svg xmlns="http://www.w3.org/2000/svg" width="800" height="440" viewBox="0 0 800 440"
     font-family="'Apple SD Gothic Neo', 'Malgun Gothic', Arial, sans-serif">
  <rect width="800" height="440" fill="#f8f9fa" rx="12"/>
  <text x="400" y="36" text-anchor="middle" font-size="17" font-weight="bold" fill="#2c3e50">왕과 사는 남자 1300만 — 커뮤니티 반응</text>
  <text x="400" y="54" text-anchor="middle" font-size="11" fill="#7f8c8d">더쿠 · 팬 커뮤니티 · 네이버 | 2026-03-16 22:00 KST</text>
  <rect x="490" y="66" width="12" height="12" fill="#27ae60" rx="2"/>
  <text x="506" y="77" font-size="11" fill="#2c3e50">긍정</text>
  <rect x="548" y="66" width="12" height="12" fill="#e74c3c" rx="2"/>
  <text x="564" y="77" font-size="11" fill="#2c3e50">부정</text>
  <rect x="606" y="66" width="12" height="12" fill="#95a5a6" rx="2"/>
  <text x="622" y="77" font-size="11" fill="#2c3e50">중립</text>

  <text x="60" y="100" font-size="13" font-weight="bold" fill="#2c3e50">더쿠·팬 커뮤니티 — 긍정 560건 / 부정 58건 / 중립 22건</text>
  <rect x="60" y="110" width="592" height="28" fill="#27ae60" rx="3"/>
  <rect x="652" y="110" width="61" height="28" fill="#e74c3c" rx="3"/>
  <rect x="713" y="110" width="27" height="28" fill="#95a5a6" rx="3"/>
  <text x="60" y="152" text-anchor="start" font-size="11" fill="#27ae60">긍정 87%</text>
  <text x="400" y="152" text-anchor="middle" font-size="11" fill="#e74c3c">부정 9%</text>
  <text x="740" y="152" text-anchor="end" font-size="11" fill="#7f8c8d">중립 4%</text>
  <text x="60" y="168" font-size="11" fill="#555">💬 "4K로 다시 보니 진짜 달랐다 무대 미술 하나하나가 다 보여"</text>

  <text x="60" y="220" font-size="13" font-weight="bold" fill="#2c3e50">네이버 뉴스 댓글 — 긍정 120건 / 부정 20건 / 중립 60건</text>
  <rect x="60" y="230" width="408" height="28" fill="#27ae60" rx="3"/>
  <rect x="468" y="230" width="68" height="28" fill="#e74c3c" rx="3"/>
  <rect x="536" y="230" width="204" height="28" fill="#95a5a6" rx="3"/>
  <text x="60" y="272" text-anchor="start" font-size="11" fill="#27ae60">긍정 60%</text>
  <text x="400" y="272" text-anchor="middle" font-size="11" fill="#e74c3c">부정 10%</text>
  <text x="740" y="272" text-anchor="end" font-size="11" fill="#7f8c8d">중립 30%</text>
  <text x="60" y="288" font-size="11" fill="#555">💬 "클라이맥스 드라마 보고 원작 영화 찾아봤는데 이게 명작이구나"</text>

  <text x="60" y="340" font-size="13" font-weight="bold" fill="#2c3e50">유튜브 리뷰 — 긍정 40건 / 부정 2건 / 중립 18건</text>
  <rect x="60" y="350" width="452" height="28" fill="#27ae60" rx="3"/>
  <rect x="512" y="350" width="23" height="28" fill="#e74c3c" rx="3"/>
  <rect x="535" y="350" width="205" height="28" fill="#95a5a6" rx="3"/>
  <text x="60" y="392" text-anchor="start" font-size="11" fill="#27ae60">긍정 66%</text>
  <text x="400" y="392" text-anchor="middle" font-size="11" fill="#e74c3c">부정 3%</text>
  <text x="740" y="392" text-anchor="end" font-size="11" fill="#7f8c8d">중립 31%</text>
  <text x="60" y="408" font-size="11" fill="#555">💬 "오래된 영화인데 시대 고증 오류도 몇 개 있다"</text>

  <text x="400" y="426" text-anchor="middle" font-size="10" fill="#bdc3c7">* 수치는 집계된 공감/반응 신호 기반 추산 | paperWanderer</text>
</svg>