<svg xmlns="http://www.w3.org/2000/svg" width="800" height="440" viewBox="0 0 800 440"
     font-family="'Apple SD Gothic Neo', 'Malgun Gothic', Arial, sans-serif">
  <rect width="800" height="440" fill="#f8f9fa" rx="12"/>
  <text x="400" y="36" text-anchor="middle" font-size="17" font-weight="bold" fill="#2c3e50">WBC 한일전 6-8 패배 — 커뮤니티 반응</text>
  <text x="400" y="54" text-anchor="middle" font-size="11" fill="#7f8c8d">에펨코리아 · 네이트스포츠 · 루리웹 | 2026-03-07 23:00 KST</text>
  <rect x="490" y="66" width="12" height="12" fill="#27ae60" rx="2"/>
  <text x="506" y="77" font-size="11" fill="#2c3e50">긍정</text>
  <rect x="548" y="66" width="12" height="12" fill="#e74c3c" rx="2"/>
  <text x="564" y="77" font-size="11" fill="#2c3e50">부정</text>
  <rect x="606" y="66" width="12" height="12" fill="#95a5a6" rx="2"/>
  <text x="622" y="77" font-size="11" fill="#2c3e50">중립</text>

  <text x="60" y="100" font-size="13" font-weight="bold" fill="#2c3e50">에펨코리아 — 긍정 350건 / 부정 120건 / 중립 780건</text>
  <rect x="60" y="110" width="190" height="28" fill="#27ae60" rx="3"/>
  <rect x="250" y="110" width="65" height="28" fill="#e74c3c" rx="3"/>
  <rect x="315" y="110" width="425" height="28" fill="#95a5a6" rx="3"/>
  <text x="60" y="152" text-anchor="start" font-size="11" fill="#27ae60">긍정 28%</text>
  <text x="400" y="152" text-anchor="middle" font-size="11" fill="#e74c3c">부정 10%</text>
  <text x="740" y="152" text-anchor="end" font-size="11" fill="#7f8c8d">중립 62%</text>
  <text x="60" y="168" font-size="11" fill="#555">💬 "졌지만 잘 싸웠다. 일본 메이저리거만 8명인데 이 정도면 선전이지"</text>

  <text x="60" y="220" font-size="13" font-weight="bold" fill="#2c3e50">네이트스포츠 — 긍정 180건 / 부정 250건 / 중립 820건</text>
  <rect x="60" y="230" width="98" height="28" fill="#27ae60" rx="3"/>
  <rect x="158" y="230" width="136" height="28" fill="#e74c3c" rx="3"/>
  <rect x="294" y="230" width="446" height="28" fill="#95a5a6" rx="3"/>
  <text x="60" y="272" text-anchor="start" font-size="11" fill="#27ae60">긍정 14%</text>
  <text x="400" y="272" text-anchor="middle" font-size="11" fill="#e74c3c">부정 20%</text>
  <text x="740" y="272" text-anchor="end" font-size="11" fill="#7f8c8d">중립 66%</text>
  <text x="60" y="288" font-size="11" fill="#555">💬 "7회 불펜 교체 타이밍이 문제였다. 잘 던지던 투수 왜 바꿨냐"</text>

  <text x="60" y="340" font-size="13" font-weight="bold" fill="#2c3e50">루리웹 야구갤 — 긍정 215건 / 부정 100건 / 중립 685건</text>
  <rect x="60" y="350" width="146" height="28" fill="#27ae60" rx="3"/>
  <rect x="206" y="350" width="68" height="28" fill="#e74c3c" rx="3"/>
  <rect x="274" y="350" width="466" height="28" fill="#95a5a6" rx="3"/>
  <text x="60" y="392" text-anchor="start" font-size="11" fill="#27ae60">긍정 21%</text>
  <text x="400" y="392" text-anchor="middle" font-size="11" fill="#e74c3c">부정 10%</text>
  <text x="740" y="392" text-anchor="end" font-size="11" fill="#7f8c8d">중립 69%</text>
  <text x="60" y="408" font-size="11" fill="#555">💬 "오타니한테 잘 붙었다. 대만·호주전 기대"</text>

  <text x="400" y="426" text-anchor="middle" font-size="10" fill="#bdc3c7">* 수치는 집계된 공감/반응 신호 기반 추산 | paperWanderer</text>
</svg>