<svg xmlns="http://www.w3.org/2000/svg" width="800" height="440" viewBox="0 0 800 440"
     font-family="'Apple SD Gothic Neo', 'Malgun Gothic', Arial, sans-serif">
  <rect width="800" height="440" fill="#f8f9fa" rx="12"/>
  <text x="400" y="36" text-anchor="middle" font-size="17" font-weight="bold" fill="#2c3e50">청년 주식 투자 트렌드 — 커뮤니티 반응</text>
  <text x="400" y="54" text-anchor="middle" font-size="11" fill="#7f8c8d">에펨코리아 · 클리앙 | 2026-03-25 20:00 KST</text>
  <rect x="490" y="66" width="12" height="12" fill="#27ae60" rx="2"/>
  <text x="506" y="77" font-size="11" fill="#2c3e50">긍정</text>
  <rect x="548" y="66" width="12" height="12" fill="#e74c3c" rx="2"/>
  <text x="564" y="77" font-size="11" fill="#2c3e50">부정</text>
  <rect x="606" y="66" width="12" height="12" fill="#95a5a6" rx="2"/>
  <text x="622" y="77" font-size="11" fill="#2c3e50">중립</text>

  <text x="60" y="100" font-size="13" font-weight="bold" fill="#2c3e50">에펨코리아 — 긍정 185건 / 부정 65건 / 중립 50건</text>
  <rect x="60" y="110" width="419" height="28" fill="#27ae60" rx="3"/>
  <rect x="479" y="110" width="147" height="28" fill="#e74c3c" rx="3"/>
  <rect x="626" y="110" width="114" height="28" fill="#95a5a6" rx="3"/>
  <text x="60" y="152" text-anchor="start" font-size="11" fill="#27ae60">긍정 62%</text>
  <text x="400" y="152" text-anchor="middle" font-size="11" fill="#e74c3c">부정 22%</text>
  <text x="740" y="152" text-anchor="end" font-size="11" fill="#7f8c8d">중립 16%</text>
  <text x="60" y="168" font-size="11" fill="#555">💬 "저금리 시대에 예금만 넣으면 오히려 손해, 투자가 맞다"</text>

  <text x="60" y="220" font-size="13" font-weight="bold" fill="#2c3e50">클리앙 — 경험 기반 의견 다양</text>
  <rect x="60" y="230" width="374" height="28" fill="#27ae60" rx="3"/>
  <rect x="434" y="230" width="170" height="28" fill="#e74c3c" rx="3"/>
  <rect x="604" y="230" width="136" height="28" fill="#95a5a6" rx="3"/>
  <text x="60" y="272" text-anchor="start" font-size="11" fill="#27ae60">긍정 55%</text>
  <text x="400" y="272" text-anchor="middle" font-size="11" fill="#e74c3c">부정 25%</text>
  <text x="740" y="272" text-anchor="end" font-size="11" fill="#7f8c8d">중립 20%</text>
  <text x="60" y="288" font-size="11" fill="#555">💬 "20대가 레버리지 투자하다 빚만 쌓이는 경우도 많다"</text>

  <text x="60" y="340" font-size="13" font-weight="bold" fill="#2c3e50">SNS 청년 반응 — 투자 긍정 우세</text>
  <rect x="60" y="350" width="476" height="28" fill="#27ae60" rx="3"/>
  <rect x="536" y="350" width="102" height="28" fill="#e74c3c" rx="3"/>
  <rect x="638" y="350" width="102" height="28" fill="#95a5a6" rx="3"/>
  <text x="60" y="392" text-anchor="start" font-size="11" fill="#27ae60">긍정 70%</text>
  <text x="400" y="392" text-anchor="middle" font-size="11" fill="#e74c3c">부정 15%</text>
  <text x="740" y="392" text-anchor="end" font-size="11" fill="#7f8c8d">중립 15%</text>
  <text x="60" y="408" font-size="11" fill="#555">💬 "예금만 믿다가 내 집 마련 포기하는 것보다 낫다"</text>

  <text x="400" y="426" text-anchor="middle" font-size="10" fill="#bdc3c7">* 수치는 집계된 공감/반응 신호 기반 추산 | paperWanderer</text>
</svg>