<svg xmlns="http://www.w3.org/2000/svg" width="800" height="440" viewBox="0 0 800 440"
     font-family="'Apple SD Gothic Neo', 'Malgun Gothic', Arial, sans-serif">
  <rect width="800" height="440" fill="#f8f9fa" rx="12"/>
  <text x="400" y="36" text-anchor="middle" font-size="17" font-weight="bold" fill="#2c3e50">중동 유가쇼크 한국경제 — 커뮤니티 반응</text>
  <text x="400" y="54" text-anchor="middle" font-size="11" fill="#7f8c8d">에펨코리아 · 클리앙 · 디시인사이드 | 2026-03-07 21:00 KST</text>
  <rect x="490" y="66" width="12" height="12" fill="#27ae60" rx="2"/>
  <text x="506" y="77" font-size="11" fill="#2c3e50">긍정</text>
  <rect x="548" y="66" width="12" height="12" fill="#e74c3c" rx="2"/>
  <text x="564" y="77" font-size="11" fill="#2c3e50">부정</text>
  <rect x="606" y="66" width="12" height="12" fill="#95a5a6" rx="2"/>
  <text x="622" y="77" font-size="11" fill="#2c3e50">중립</text>

  <text x="60" y="100" font-size="13" font-weight="bold" fill="#2c3e50">에펨코리아 — 긍정 120건 / 부정 780건 / 중립 600건</text>
  <rect x="60" y="110" width="54" height="28" fill="#27ae60" rx="3"/>
  <rect x="114" y="110" width="355" height="28" fill="#e74c3c" rx="3"/>
  <rect x="469" y="110" width="271" height="28" fill="#95a5a6" rx="3"/>
  <text x="60" y="152" text-anchor="start" font-size="11" fill="#27ae60">긍정 8%</text>
  <text x="400" y="152" text-anchor="middle" font-size="11" fill="#e74c3c">부정 52%</text>
  <text x="740" y="152" text-anchor="end" font-size="11" fill="#7f8c8d">중립 40%</text>
  <text x="60" y="168" font-size="11" fill="#555">💬 "유가 90달러 넘었다. 이러면 기름값이 또 오르겠다"</text>

  <text x="60" y="220" font-size="13" font-weight="bold" fill="#2c3e50">클리앙 — 긍정 90건 / 부정 870건 / 중립 540건</text>
  <rect x="60" y="230" width="41" height="28" fill="#27ae60" rx="3"/>
  <rect x="101" y="230" width="396" height="28" fill="#e74c3c" rx="3"/>
  <rect x="497" y="230" width="243" height="28" fill="#95a5a6" rx="3"/>
  <text x="60" y="272" text-anchor="start" font-size="11" fill="#27ae60">긍정 6%</text>
  <text x="400" y="272" text-anchor="middle" font-size="11" fill="#e74c3c">부정 58%</text>
  <text x="740" y="272" text-anchor="end" font-size="11" fill="#7f8c8d">중립 36%</text>
  <text x="60" y="288" font-size="11" fill="#555">💬 "호르무즈 봉쇄 가능성이 현실화되면 정말 큰일이다"</text>

  <text x="60" y="340" font-size="13" font-weight="bold" fill="#2c3e50">디시인사이드 주식갤 — 긍정 200건 / 부정 640건 / 중립 660건</text>
  <rect x="60" y="350" width="91" height="28" fill="#27ae60" rx="3"/>
  <rect x="151" y="350" width="291" height="28" fill="#e74c3c" rx="3"/>
  <rect x="442" y="350" width="298" height="28" fill="#95a5a6" rx="3"/>
  <text x="60" y="392" text-anchor="start" font-size="11" fill="#27ae60">긍정 13%</text>
  <text x="400" y="392" text-anchor="middle" font-size="11" fill="#e74c3c">부정 43%</text>
  <text x="740" y="392" text-anchor="end" font-size="11" fill="#7f8c8d">중립 44%</text>
  <text x="60" y="408" font-size="11" fill="#555">💬 "코스피 사이드카 발동은 과매도. 반등 기회 노린다"</text>

  <text x="400" y="426" text-anchor="middle" font-size="10" fill="#bdc3c7">* 수치는 집계된 공감/반응 신호 기반 추산 | paperWanderer</text>
</svg>