<svg xmlns="http://www.w3.org/2000/svg" width="800" height="440" viewBox="0 0 800 440"
     font-family="'Apple SD Gothic Neo', 'Malgun Gothic', Arial, sans-serif">
  <rect width="800" height="440" fill="#f8f9fa" rx="12"/>
  <text x="400" y="36" text-anchor="middle" font-size="17" font-weight="bold" fill="#2c3e50">WBC 한국 11-4 체코 대승 — 커뮤니티 반응</text>
  <text x="400" y="54" text-anchor="middle" font-size="11" fill="#7f8c8d">에펨코리아 · MLB파크 · 네이버 스포츠 | 2026-03-06 KST</text>
  <rect x="490" y="66" width="12" height="12" fill="#27ae60" rx="2"/>
  <text x="506" y="77" font-size="11" fill="#2c3e50">긍정</text>
  <rect x="548" y="66" width="12" height="12" fill="#e74c3c" rx="2"/>
  <text x="564" y="77" font-size="11" fill="#2c3e50">부정</text>
  <rect x="606" y="66" width="12" height="12" fill="#95a5a6" rx="2"/>
  <text x="622" y="77" font-size="11" fill="#2c3e50">중립</text>

  <text x="60" y="100" font-size="13" font-weight="bold" fill="#2c3e50">에펨코리아 — 긍정 189건 / 부정 8건 / 중립 24건</text>
  <rect x="60" y="110" width="582" height="28" fill="#27ae60" rx="3"/>
  <rect x="642" y="110" width="25" height="28" fill="#e74c3c" rx="3"/>
  <rect x="667" y="110" width="73" height="28" fill="#95a5a6" rx="3"/>
  <text x="60" y="152" text-anchor="start" font-size="11" fill="#27ae60">긍정 86%</text>
  <text x="400" y="152" text-anchor="middle" font-size="11" fill="#e74c3c">부정 4%</text>
  <text x="740" y="152" text-anchor="end" font-size="11" fill="#7f8c8d">중립 10%</text>
  <text x="60" y="168" font-size="11" fill="#555">💬 "문보경 만루홈런 진짜 미쳤다 ㅋㅋㅋ WBC 분위기 탔네"</text>

  <text x="60" y="220" font-size="13" font-weight="bold" fill="#2c3e50">MLB파크 — 긍정 142건 / 부정 5건 / 중립 18건</text>
  <rect x="60" y="230" width="585" height="28" fill="#27ae60" rx="3"/>
  <rect x="645" y="230" width="21" height="28" fill="#e74c3c" rx="3"/>
  <rect x="666" y="230" width="74" height="28" fill="#95a5a6" rx="3"/>
  <text x="60" y="272" text-anchor="start" font-size="11" fill="#27ae60">긍정 86%</text>
  <text x="400" y="272" text-anchor="middle" font-size="11" fill="#e74c3c">부정 3%</text>
  <text x="740" y="272" text-anchor="end" font-size="11" fill="#7f8c8d">중립 11%</text>
  <text x="60" y="288" font-size="11" fill="#555">💬 "위트컴 연타석 홈런 역대급 선물 ㅠㅠ 한일전 기대된다"</text>

  <text x="60" y="340" font-size="13" font-weight="bold" fill="#2c3e50">네이버 스포츠 — 긍정 312건 / 부정 11건 / 중립 45건</text>
  <rect x="60" y="350" width="577" height="28" fill="#27ae60" rx="3"/>
  <rect x="637" y="350" width="20" height="28" fill="#e74c3c" rx="3"/>
  <rect x="657" y="350" width="83" height="28" fill="#95a5a6" rx="3"/>
  <text x="60" y="392" text-anchor="start" font-size="11" fill="#27ae60">긍정 85%</text>
  <text x="400" y="392" text-anchor="middle" font-size="11" fill="#e74c3c">부정 3%</text>
  <text x="740" y="392" text-anchor="end" font-size="11" fill="#7f8c8d">중립 12%</text>
  <text x="60" y="408" font-size="11" fill="#555">💬 "17년 만에 WBC 첫경기 징크스 깼다! 한일전 이기자"</text>

  <text x="400" y="426" text-anchor="middle" font-size="10" fill="#bdc3c7">* 수치는 집계된 공감/반응 신호 기반 추산 | paperWanderer</text>
</svg>