<svg xmlns="http://www.w3.org/2000/svg" width="800" height="440" viewBox="0 0 800 440"
     font-family="'Apple SD Gothic Neo', 'Malgun Gothic', Arial, sans-serif">
  <rect width="800" height="440" fill="#f8f9fa" rx="12"/>
  <text x="400" y="36" text-anchor="middle" font-size="17" font-weight="bold" fill="#2c3e50">지방선거 국민의힘 공천 혼란 — 커뮤니티 반응</text>
  <text x="400" y="54" text-anchor="middle" font-size="11" fill="#7f8c8d">에펨코리아 · 클리앙 · 네이버 뉴스 댓글 | 2026-03-07 21:00 KST</text>
  <rect x="490" y="66" width="12" height="12" fill="#27ae60" rx="2"/>
  <text x="506" y="77" font-size="11" fill="#2c3e50">긍정</text>
  <rect x="548" y="66" width="12" height="12" fill="#e74c3c" rx="2"/>
  <text x="564" y="77" font-size="11" fill="#2c3e50">부정</text>
  <rect x="606" y="66" width="12" height="12" fill="#95a5a6" rx="2"/>
  <text x="622" y="77" font-size="11" fill="#2c3e50">중립</text>

  <text x="60" y="100" font-size="13" font-weight="bold" fill="#2c3e50">에펨코리아 — 긍정 180건 / 부정 590건 / 중립 230건</text>
  <rect x="60" y="110" width="122" height="28" fill="#27ae60" rx="3"/>
  <rect x="182" y="110" width="401" height="28" fill="#e74c3c" rx="3"/>
  <rect x="583" y="110" width="157" height="28" fill="#95a5a6" rx="3"/>
  <text x="60" y="152" text-anchor="start" font-size="11" fill="#27ae60">긍정 18%</text>
  <text x="400" y="152" text-anchor="middle" font-size="11" fill="#e74c3c">부정 59%</text>
  <text x="740" y="152" text-anchor="end" font-size="11" fill="#7f8c8d">중립 23%</text>
  <text x="60" y="168" font-size="11" fill="#555">💬 "공천 갈등이 해마다 반복. 당 내부 민주주의가 없는 거다"</text>

  <text x="60" y="220" font-size="13" font-weight="bold" fill="#2c3e50">클리앙 — 긍정 120건 / 부정 680건 / 중립 200건</text>
  <rect x="60" y="230" width="82" height="28" fill="#27ae60" rx="3"/>
  <rect x="142" y="230" width="462" height="28" fill="#e74c3c" rx="3"/>
  <rect x="604" y="230" width="136" height="28" fill="#95a5a6" rx="3"/>
  <text x="60" y="272" text-anchor="start" font-size="11" fill="#27ae60">긍정 12%</text>
  <text x="400" y="272" text-anchor="middle" font-size="11" fill="#e74c3c">부정 68%</text>
  <text x="740" y="272" text-anchor="end" font-size="11" fill="#7f8c8d">중립 20%</text>
  <text x="60" y="288" font-size="11" fill="#555">💬 "컷오프 불복 사태가 전국으로 번지면 지방선거 판이 바뀐다"</text>

  <text x="60" y="340" font-size="13" font-weight="bold" fill="#2c3e50">네이버 뉴스 댓글 — 긍정 160건 / 부정 620건 / 중립 220건</text>
  <rect x="60" y="350" width="109" height="28" fill="#27ae60" rx="3"/>
  <rect x="169" y="350" width="421" height="28" fill="#e74c3c" rx="3"/>
  <rect x="590" y="350" width="150" height="28" fill="#95a5a6" rx="3"/>
  <text x="60" y="392" text-anchor="start" font-size="11" fill="#27ae60">긍정 16%</text>
  <text x="400" y="392" text-anchor="middle" font-size="11" fill="#e74c3c">부정 62%</text>
  <text x="740" y="392" text-anchor="end" font-size="11" fill="#7f8c8d">중립 22%</text>
  <text x="60" y="408" font-size="11" fill="#555">💬 "공천 헌금 의혹까지 터지면 진짜 위기다"</text>

  <text x="400" y="426" text-anchor="middle" font-size="10" fill="#bdc3c7">* 수치는 집계된 공감/반응 신호 기반 추산 | paperWanderer</text>
</svg>