<svg xmlns="http://www.w3.org/2000/svg" width="800" height="440" viewBox="0 0 800 440"
     font-family="'Apple SD Gothic Neo', 'Malgun Gothic', Arial, sans-serif">
  <rect width="800" height="440" fill="#f8f9fa" rx="12"/>
  <text x="400" y="36" text-anchor="middle" font-size="17" font-weight="bold" fill="#2c3e50">이준석 개혁신당 대선 행보 — 커뮤니티 반응</text>
  <text x="400" y="54" text-anchor="middle" font-size="11" fill="#7f8c8d">에펨코리아 · 클리앙 · 네이버 뉴스 댓글 | 2026-03-07 21:00 KST</text>
  <rect x="490" y="66" width="12" height="12" fill="#27ae60" rx="2"/>
  <text x="506" y="77" font-size="11" fill="#2c3e50">긍정</text>
  <rect x="548" y="66" width="12" height="12" fill="#e74c3c" rx="2"/>
  <text x="564" y="77" font-size="11" fill="#2c3e50">부정</text>
  <rect x="606" y="66" width="12" height="12" fill="#95a5a6" rx="2"/>
  <text x="622" y="77" font-size="11" fill="#2c3e50">중립</text>

  <text x="60" y="100" font-size="13" font-weight="bold" fill="#2c3e50">에펨코리아 — 긍정 420건 / 부정 390건 / 중립 290건</text>
  <rect x="60" y="110" width="258" height="28" fill="#27ae60" rx="3"/>
  <rect x="318" y="110" width="238" height="28" fill="#e74c3c" rx="3"/>
  <rect x="556" y="110" width="184" height="28" fill="#95a5a6" rx="3"/>
  <text x="60" y="152" text-anchor="start" font-size="11" fill="#27ae60">긍정 38%</text>
  <text x="400" y="152" text-anchor="middle" font-size="11" fill="#e74c3c">부정 35%</text>
  <text x="740" y="152" text-anchor="end" font-size="11" fill="#7f8c8d">중립 27%</text>
  <text x="60" y="168" font-size="11" fill="#555">💬 "제3지대에 이준석이 없으면 누가 있냐. 그래도 기대"</text>

  <text x="60" y="220" font-size="13" font-weight="bold" fill="#2c3e50">클리앙 — 긍정 400건 / 부정 350건 / 중립 250건</text>
  <rect x="60" y="230" width="272" height="28" fill="#27ae60" rx="3"/>
  <rect x="332" y="230" width="238" height="28" fill="#e74c3c" rx="3"/>
  <rect x="570" y="230" width="170" height="28" fill="#95a5a6" rx="3"/>
  <text x="60" y="272" text-anchor="start" font-size="11" fill="#27ae60">긍정 40%</text>
  <text x="400" y="272" text-anchor="middle" font-size="11" fill="#e74c3c">부정 35%</text>
  <text x="740" y="272" text-anchor="end" font-size="11" fill="#7f8c8d">중립 25%</text>
  <text x="60" y="288" font-size="11" fill="#555">💬 "지방선거 불출마하고 대선만 하는 게 승산 있을까"</text>

  <text x="60" y="340" font-size="13" font-weight="bold" fill="#2c3e50">네이버 뉴스 댓글 — 긍정 310건 / 부정 520건 / 중립 170건</text>
  <rect x="60" y="350" width="211" height="28" fill="#27ae60" rx="3"/>
  <rect x="271" y="350" width="353" height="28" fill="#e74c3c" rx="3"/>
  <rect x="624" y="350" width="116" height="28" fill="#95a5a6" rx="3"/>
  <text x="60" y="392" text-anchor="start" font-size="11" fill="#27ae60">긍정 31%</text>
  <text x="400" y="392" text-anchor="middle" font-size="11" fill="#e74c3c">부정 52%</text>
  <text x="740" y="392" text-anchor="end" font-size="11" fill="#7f8c8d">중립 17%</text>
  <text x="60" y="408" font-size="11" fill="#555">💬 "안철수랑 뭐가 다른지 모르겠다"</text>

  <text x="400" y="426" text-anchor="middle" font-size="10" fill="#bdc3c7">* 수치는 집계된 공감/반응 신호 기반 추산 | paperWanderer</text>
</svg>