<svg xmlns="http://www.w3.org/2000/svg" width="800" height="440" viewBox="0 0 800 440"
     font-family="'Apple SD Gothic Neo', 'Malgun Gothic', Arial, sans-serif">
  <rect width="800" height="440" fill="#f8f9fa" rx="12"/>
  <text x="400" y="36" text-anchor="middle" font-size="17" font-weight="bold" fill="#2c3e50">원달러 1,500원 돌파 — 커뮤니티 반응</text>
  <text x="400" y="54" text-anchor="middle" font-size="11" fill="#7f8c8d">네이버 뉴스 · 클리앙 · 전체 합산 | 2026-03-16 22:00 KST</text>
  <rect x="490" y="66" width="12" height="12" fill="#27ae60" rx="2"/>
  <text x="506" y="77" font-size="11" fill="#2c3e50">긍정</text>
  <rect x="548" y="66" width="12" height="12" fill="#e74c3c" rx="2"/>
  <text x="564" y="77" font-size="11" fill="#2c3e50">부정</text>
  <rect x="606" y="66" width="12" height="12" fill="#95a5a6" rx="2"/>
  <text x="622" y="77" font-size="11" fill="#2c3e50">중립</text>

  <text x="60" y="100" font-size="13" font-weight="bold" fill="#2c3e50">네이버 뉴스 댓글 — 긍정 180건 / 부정 560건 / 중립 120건</text>
  <rect x="60" y="110" width="145" height="28" fill="#27ae60" rx="3"/>
  <rect x="205" y="110" width="452" height="28" fill="#e74c3c" rx="3"/>
  <rect x="657" y="110" width="83" height="28" fill="#95a5a6" rx="3"/>
  <text x="60" y="152" text-anchor="start" font-size="11" fill="#27ae60">긍정 21%</text>
  <text x="400" y="152" text-anchor="middle" font-size="11" fill="#e74c3c">부정 66%</text>
  <text x="740" y="152" text-anchor="end" font-size="11" fill="#7f8c8d">중립 13%</text>
  <text x="60" y="168" font-size="11" fill="#555">💬 "수입물가 다 오르면 진짜 장보기가 무서워진다" (비공감 218)</text>

  <text x="60" y="220" font-size="13" font-weight="bold" fill="#2c3e50">클리앙 — 긍정 100건 / 부정 330건 / 중립 440건</text>
  <rect x="60" y="230" width="78" height="28" fill="#27ae60" rx="3"/>
  <rect x="138" y="230" width="258" height="28" fill="#e74c3c" rx="3"/>
  <rect x="396" y="230" width="344" height="28" fill="#95a5a6" rx="3"/>
  <text x="60" y="272" text-anchor="start" font-size="11" fill="#27ae60">긍정 11%</text>
  <text x="400" y="272" text-anchor="middle" font-size="11" fill="#e74c3c">부정 38%</text>
  <text x="740" y="272" text-anchor="end" font-size="11" fill="#7f8c8d">중립 51%</text>
  <text x="60" y="288" font-size="11" fill="#555">💬 "기름값 올라 난방비 폭탄 맞고 환율 올라 식재료 또 오르고 진짜 심각" (공감 89)</text>

  <text x="60" y="340" font-size="13" font-weight="bold" fill="#2c3e50">전체 합산 — 긍정 280건 / 부정 890건 / 중립 560건</text>
  <rect x="60" y="350" width="110" height="28" fill="#27ae60" rx="3"/>
  <rect x="170" y="350" width="350" height="28" fill="#e74c3c" rx="3"/>
  <rect x="520" y="350" width="220" height="28" fill="#95a5a6" rx="3"/>
  <text x="60" y="392" text-anchor="start" font-size="11" fill="#27ae60">긍정 16%</text>
  <text x="400" y="392" text-anchor="middle" font-size="11" fill="#e74c3c">부정 51%</text>
  <text x="740" y="392" text-anchor="end" font-size="11" fill="#7f8c8d">중립 33%</text>
  <text x="60" y="408" font-size="11" fill="#555">💬 "정부는 환율 1500원 대수롭지 않다는 식인데 서민 생활은 이미 한계야"</text>

  <text x="400" y="426" text-anchor="middle" font-size="10" fill="#bdc3c7">* 수치는 집계된 공감/반응 신호 기반 추산 | paperWanderer</text>
</svg>