<svg xmlns="http://www.w3.org/2000/svg" width="800" height="440" viewBox="0 0 800 440"
     font-family="'Apple SD Gothic Neo', 'Malgun Gothic', Arial, sans-serif">
  <rect width="800" height="440" fill="#f8f9fa" rx="12"/>
  <text x="400" y="36" text-anchor="middle" font-size="17" font-weight="bold" fill="#2c3e50">통합돌봄지원법 시행 준비 — 커뮤니티 반응</text>
  <text x="400" y="54" text-anchor="middle" font-size="11" fill="#7f8c8d">클리앙 · 더쿠 · 에펨코리아 | 2026-03-11 KST</text>
  <rect x="490" y="66" width="12" height="12" fill="#27ae60" rx="2"/>
  <text x="506" y="77" font-size="11" fill="#2c3e50">긍정</text>
  <rect x="548" y="66" width="12" height="12" fill="#e74c3c" rx="2"/>
  <text x="564" y="77" font-size="11" fill="#2c3e50">부정</text>
  <rect x="606" y="66" width="12" height="12" fill="#95a5a6" rx="2"/>
  <text x="622" y="77" font-size="11" fill="#2c3e50">중립</text>

  <text x="60" y="100" font-size="13" font-weight="bold" fill="#2c3e50">클리앙 — 긍정 189건 / 부정 71건 / 중립 52건</text>
  <rect x="60" y="110" width="412" height="28" fill="#27ae60" rx="3"/>
  <rect x="472" y="110" width="155" height="28" fill="#e74c3c" rx="3"/>
  <rect x="627" y="110" width="113" height="28" fill="#95a5a6" rx="3"/>
  <text x="60" y="152" text-anchor="start" font-size="11" fill="#27ae60">긍정 61%</text>
  <text x="400" y="152" text-anchor="middle" font-size="11" fill="#e74c3c">부정 23%</text>
  <text x="740" y="152" text-anchor="end" font-size="11" fill="#7f8c8d">중립 16%</text>

  <text x="60" y="220" font-size="13" font-weight="bold" fill="#2c3e50">더쿠 — 긍정 100건 / 부정 41건 / 중립 25건</text>
  <rect x="60" y="230" width="410" height="28" fill="#27ae60" rx="3"/>
  <rect x="470" y="230" width="168" height="28" fill="#e74c3c" rx="3"/>
  <rect x="638" y="230" width="102" height="28" fill="#95a5a6" rx="3"/>
  <text x="60" y="272" text-anchor="start" font-size="11" fill="#27ae60">긍정 60%</text>
  <text x="400" y="272" text-anchor="middle" font-size="11" fill="#e74c3c">부정 25%</text>
  <text x="740" y="272" text-anchor="end" font-size="11" fill="#7f8c8d">중립 15%</text>

  <text x="60" y="340" font-size="13" font-weight="bold" fill="#2c3e50">에펨코리아 — 긍정 67건 / 부정 34건 / 중립 12건</text>
  <rect x="60" y="350" width="403" height="28" fill="#27ae60" rx="3"/>
  <rect x="463" y="350" width="205" height="28" fill="#e74c3c" rx="3"/>
  <rect x="668" y="350" width="72" height="28" fill="#95a5a6" rx="3"/>
  <text x="60" y="392" text-anchor="start" font-size="11" fill="#27ae60">긍정 59%</text>
  <text x="400" y="392" text-anchor="middle" font-size="11" fill="#e74c3c">부정 30%</text>
  <text x="740" y="392" text-anchor="end" font-size="11" fill="#7f8c8d">중립 11%</text>

  <text x="400" y="426" text-anchor="middle" font-size="10" fill="#bdc3c7">* 수치는 집계된 공감/반응 신호 기반 추산 | paperWanderer</text>
</svg>