<svg xmlns="http://www.w3.org/2000/svg" width="800" height="322" viewBox="0 0 800 322"
     font-family="'Apple SD Gothic Neo', 'Malgun Gothic', Arial, sans-serif">
  <rect width="800" height="322" fill="#f8f9fa" rx="12"/>
  <text x="400" y="36" text-anchor="middle" font-size="17" font-weight="bold" fill="#2c3e50">김민재 UCL 8강 진출 — 커뮤니티 반응</text>
  <text x="400" y="54" text-anchor="middle" font-size="11" fill="#7f8c8d">네이트 스포츠 · 커뮤니티 종합 | 2026-03-19 20:00 KST</text>
  <rect x="490" y="66" width="12" height="12" fill="#27ae60" rx="2"/>
  <text x="506" y="77" font-size="11" fill="#2c3e50">긍정</text>
  <rect x="548" y="66" width="12" height="12" fill="#e74c3c" rx="2"/>
  <text x="564" y="77" font-size="11" fill="#2c3e50">부정</text>
  <rect x="606" y="66" width="12" height="12" fill="#95a5a6" rx="2"/>
  <text x="622" y="77" font-size="11" fill="#2c3e50">중립</text>

  <text x="60" y="100" font-size="13" font-weight="bold" fill="#2c3e50">네이트 스포츠 — 긍정 2,400건 / 부정 120건 / 중립 380건</text>
  <rect x="60" y="110" width="563" height="28" fill="#27ae60" rx="3"/>
  <rect x="623" y="110" width="28" height="28" fill="#e74c3c" rx="3"/>
  <rect x="651" y="110" width="89" height="28" fill="#95a5a6" rx="3"/>
  <text x="60" y="152" text-anchor="start" font-size="11" fill="#27ae60">긍정 83%</text>
  <text x="400" y="152" text-anchor="middle" font-size="11" fill="#e74c3c">부정 4%</text>
  <text x="740" y="152" text-anchor="end" font-size="11" fill="#7f8c8d">중립 13%</text>
  <text x="60" y="168" font-size="11" fill="#555">💬 "진짜 세계 1위 센터백 맞다. 레알전 비니시우스 상대로 복수해라" (공감 892)</text>

  <text x="60" y="220" font-size="13" font-weight="bold" fill="#2c3e50">커뮤니티 종합 — 긍정 800건 / 부정 60건 / 중립 240건</text>
  <rect x="60" y="230" width="495" height="28" fill="#27ae60" rx="3"/>
  <rect x="555" y="230" width="37" height="28" fill="#e74c3c" rx="3"/>
  <rect x="592" y="230" width="148" height="28" fill="#95a5a6" rx="3"/>
  <text x="60" y="272" text-anchor="start" font-size="11" fill="#27ae60">긍정 73%</text>
  <text x="400" y="272" text-anchor="middle" font-size="11" fill="#e74c3c">부정 5%</text>
  <text x="740" y="272" text-anchor="end" font-size="11" fill="#7f8c8d">중립 22%</text>
  <text x="60" y="288" font-size="11" fill="#555">💬 "박지성 이후 처음 있는 일이라는 게 더 대단함" (공감 312)</text>

  <text x="400" y="308" text-anchor="middle" font-size="10" fill="#bdc3c7">* 수치는 집계된 공감/반응 신호 기반 추산 | paperWanderer</text>
</svg>