<svg xmlns="http://www.w3.org/2000/svg" width="800" height="440" viewBox="0 0 800 440"
     font-family="'Apple SD Gothic Neo', 'Malgun Gothic', Arial, sans-serif">
  <rect width="800" height="440" fill="#f8f9fa" rx="12"/>
  <text x="400" y="36" text-anchor="middle" font-size="17" font-weight="bold" fill="#2c3e50">초고령사회 진입 — 커뮤니티 반응</text>
  <text x="400" y="54" text-anchor="middle" font-size="11" fill="#7f8c8d">네이버뉴스 · 에펨코리아 · 클리앙 | 2026-03-24 18:00 KST</text>
  <rect x="490" y="66" width="12" height="12" fill="#27ae60" rx="2"/>
  <text x="506" y="77" font-size="11" fill="#2c3e50">긍정</text>
  <rect x="548" y="66" width="12" height="12" fill="#e74c3c" rx="2"/>
  <text x="564" y="77" font-size="11" fill="#2c3e50">부정</text>
  <rect x="606" y="66" width="12" height="12" fill="#95a5a6" rx="2"/>
  <text x="622" y="77" font-size="11" fill="#2c3e50">중립</text>

  <text x="60" y="100" font-size="13" font-weight="bold" fill="#2c3e50">네이버뉴스 댓글 — 긍정 280건 / 부정 620건 / 중립 200건</text>
  <rect x="60" y="110" width="173" height="28" fill="#27ae60" rx="3"/>
  <rect x="233" y="110" width="383" height="28" fill="#e74c3c" rx="3"/>
  <rect x="616" y="110" width="124" height="28" fill="#95a5a6" rx="3"/>
  <text x="60" y="152" text-anchor="start" font-size="11" fill="#27ae60">긍정 25%</text>
  <text x="400" y="152" text-anchor="middle" font-size="11" fill="#e74c3c">부정 56%</text>
  <text x="740" y="152" text-anchor="end" font-size="11" fill="#7f8c8d">중립 19%</text>
  <text x="60" y="168" font-size="11" fill="#555">💬 "초고령사회 되면 복지 비용 폭발한다, 젊은 세대가 다 내야"</text>

  <text x="60" y="220" font-size="13" font-weight="bold" fill="#2c3e50">에펨코리아 — 긍정 120건 / 부정 350건 / 중립 90건</text>
  <rect x="60" y="230" width="146" height="28" fill="#27ae60" rx="3"/>
  <rect x="206" y="230" width="425" height="28" fill="#e74c3c" rx="3"/>
  <rect x="631" y="230" width="109" height="28" fill="#95a5a6" rx="3"/>
  <text x="60" y="272" text-anchor="start" font-size="11" fill="#27ae60">긍정 21%</text>
  <text x="400" y="272" text-anchor="middle" font-size="11" fill="#e74c3c">부정 62%</text>
  <text x="740" y="272" text-anchor="end" font-size="11" fill="#7f8c8d">중립 17%</text>
  <text x="60" y="288" font-size="11" fill="#555">💬 "0.8명이 무슨 반등이냐, 세계 최저 수준인 건 여전하다"</text>

  <text x="60" y="340" font-size="13" font-weight="bold" fill="#2c3e50">클리앙 — 긍정 80건 / 부정 250건 / 중립 70건</text>
  <rect x="60" y="350" width="136" height="28" fill="#27ae60" rx="3"/>
  <rect x="196" y="350" width="425" height="28" fill="#e74c3c" rx="3"/>
  <rect x="621" y="350" width="119" height="28" fill="#95a5a6" rx="3"/>
  <text x="60" y="392" text-anchor="start" font-size="11" fill="#27ae60">긍정 20%</text>
  <text x="400" y="392" text-anchor="middle" font-size="11" fill="#e74c3c">부정 62%</text>
  <text x="740" y="392" text-anchor="end" font-size="11" fill="#7f8c8d">중립 18%</text>
  <text x="60" y="408" font-size="11" fill="#555">💬 "반등 신호가 나온 건 다행, 정부 정책 효과가 조금씩 나오나"</text>

  <text x="400" y="426" text-anchor="middle" font-size="10" fill="#bdc3c7">* 수치는 집계된 공감/반응 신호 기반 추산 | paperWanderer</text>
</svg>