<svg xmlns="http://www.w3.org/2000/svg" width="800" height="440" viewBox="0 0 800 440"
     font-family="'Apple SD Gothic Neo', 'Malgun Gothic', Arial, sans-serif">
  <rect width="800" height="440" fill="#f8f9fa" rx="12"/>
  <text x="400" y="36" text-anchor="middle" font-size="17" font-weight="bold" fill="#2c3e50">원달러 환율 1500원 돌파 — 커뮤니티 반응</text>
  <text x="400" y="54" text-anchor="middle" font-size="11" fill="#7f8c8d">클리앙 · 머니투데이 댓글 · 네이버 뉴스 댓글 | 2026-03-04 KST</text>
  <rect x="490" y="66" width="12" height="12" fill="#27ae60" rx="2"/>
  <text x="506" y="77" font-size="11" fill="#2c3e50">긍정</text>
  <rect x="548" y="66" width="12" height="12" fill="#e74c3c" rx="2"/>
  <text x="564" y="77" font-size="11" fill="#2c3e50">부정</text>
  <rect x="606" y="66" width="12" height="12" fill="#95a5a6" rx="2"/>
  <text x="622" y="77" font-size="11" fill="#2c3e50">중립</text>

  <text x="60" y="100" font-size="13" font-weight="bold" fill="#2c3e50">클리앙 — 긍정 30건 / 부정 200건 / 중립 70건</text>
  <rect x="60" y="110" width="68" height="28" fill="#27ae60" rx="3"/>
  <rect x="128" y="110" width="453" height="28" fill="#e74c3c" rx="3"/>
  <rect x="581" y="110" width="159" height="28" fill="#95a5a6" rx="3"/>
  <text x="60" y="152" text-anchor="start" font-size="11" fill="#27ae60">긍정 10%</text>
  <text x="400" y="152" text-anchor="middle" font-size="11" fill="#e74c3c">부정 67%</text>
  <text x="740" y="152" text-anchor="end" font-size="11" fill="#7f8c8d">중립 23%</text>
  <text x="60" y="168" font-size="11" fill="#555">💬 "2009년 금융위기 이후 처음... 또 그때가 오나"</text>

  <text x="60" y="220" font-size="13" font-weight="bold" fill="#2c3e50">머니투데이 댓글 — 긍정 40건 / 부정 280건 / 중립 80건</text>
  <rect x="60" y="230" width="68" height="28" fill="#27ae60" rx="3"/>
  <rect x="128" y="230" width="476" height="28" fill="#e74c3c" rx="3"/>
  <rect x="604" y="230" width="136" height="28" fill="#95a5a6" rx="3"/>
  <text x="60" y="272" text-anchor="start" font-size="11" fill="#27ae60">긍정 10%</text>
  <text x="400" y="272" text-anchor="middle" font-size="11" fill="#e74c3c">부정 70%</text>
  <text x="740" y="272" text-anchor="end" font-size="11" fill="#7f8c8d">중립 20%</text>
  <text x="60" y="288" font-size="11" fill="#555">💬 "수입물가 올라서 장바구니 물가 또 오르겠네"</text>

  <text x="60" y="340" font-size="13" font-weight="bold" fill="#2c3e50">네이버 뉴스 댓글 — 긍정 60건 / 부정 350건 / 중립 90건</text>
  <rect x="60" y="350" width="82" height="28" fill="#27ae60" rx="3"/>
  <rect x="142" y="350" width="476" height="28" fill="#e74c3c" rx="3"/>
  <rect x="618" y="350" width="122" height="28" fill="#95a5a6" rx="3"/>
  <text x="60" y="392" text-anchor="start" font-size="11" fill="#27ae60">긍정 12%</text>
  <text x="400" y="392" text-anchor="middle" font-size="11" fill="#e74c3c">부정 70%</text>
  <text x="740" y="392" text-anchor="end" font-size="11" fill="#7f8c8d">중립 18%</text>
  <text x="60" y="408" font-size="11" fill="#555">💬 "해외직구, 여행 다 포기해야 할 판이네"</text>

  <text x="400" y="426" text-anchor="middle" font-size="10" fill="#bdc3c7">* 수치는 집계된 공감/반응 신호 기반 추산 | paperWanderer</text>
</svg>