<svg xmlns="http://www.w3.org/2000/svg" width="800" height="322" viewBox="0 0 800 322"
     font-family="'Apple SD Gothic Neo', 'Malgun Gothic', Arial, sans-serif">
  <rect width="800" height="322" fill="#f8f9fa" rx="12"/>

  <text x="400" y="36" text-anchor="middle" font-size="17" font-weight="bold" fill="#2c3e50">아파트 공시가격 폭등 — 커뮤니티 반응</text>
  <text x="400" y="54" text-anchor="middle" font-size="11" fill="#7f8c8d">클린넷·보바드림 · X(트위터) | 2026-03-29 KST</text>

  <rect x="490" y="66" width="12" height="12" fill="#27ae60" rx="2"/>
  <text x="506" y="77" font-size="11" fill="#2c3e50">긍정</text>
  <rect x="548" y="66" width="12" height="12" fill="#e74c3c" rx="2"/>
  <text x="564" y="77" font-size="11" fill="#2c3e50">부정</text>
  <rect x="606" y="66" width="12" height="12" fill="#95a5a6" rx="2"/>
  <text x="622" y="77" font-size="11" fill="#2c3e50">중립</text>

  <!-- [클린넷·보바드림] bar_y=110, label_y=152, comment_y=168 -->
  <text x="60" y="100" font-size="13" font-weight="bold" fill="#2c3e50">클린넷·보바드림 — 긍정 30건 / 부정 210건 / 중립 60건</text>
  <rect x="60"  y="110" width="68"  height="28" fill="#27ae60" rx="3"/>
  <rect x="128" y="110" width="476" height="28" fill="#e74c3c" rx="3"/>
  <rect x="604" y="110" width="136" height="28" fill="#95a5a6" rx="3"/>
  <text x="60"  y="152" text-anchor="start"  font-size="11" fill="#27ae60">긍정 10.0%</text>
  <text x="400" y="152" text-anchor="middle" font-size="11" fill="#e74c3c">부정 70.0%</text>
  <text x="740" y="152" text-anchor="end"    font-size="11" fill="#7f8c8d">중립 20.0%</text>
  <text x="60" y="168" font-size="11" fill="#555">💬 "서울 18% 오른 거 세금으로 다 뜯어가겠다는 거잖아... 집 팔기도 싫고"</text>

  <!-- [X(트위터)·SNS] bar_y=230, label_y=272, comment_y=288 -->
  <text x="60" y="220" font-size="13" font-weight="bold" fill="#2c3e50">X(트위터)·SNS — 긍정 20건 / 부정 150건 / 중립 30건</text>
  <rect x="60"  y="230" width="68"  height="28" fill="#27ae60" rx="3"/>
  <rect x="128" y="230" width="510" height="28" fill="#e74c3c" rx="3"/>
  <rect x="638" y="230" width="102" height="28" fill="#95a5a6" rx="3"/>
  <text x="60"  y="272" text-anchor="start"  font-size="11" fill="#27ae60">긍정 10.0%</text>
  <text x="400" y="272" text-anchor="middle" font-size="11" fill="#e74c3c">부정 75.0%</text>
  <text x="740" y="272" text-anchor="end"    font-size="11" fill="#7f8c8d">중립 15.0%</text>
  <text x="60" y="288" font-size="11" fill="#555">💬 "성동구 29% 올랐다고?? 재산세 진짜 폭탄 예약이네"</text>

  <text x="400" y="308" text-anchor="middle" font-size="10" fill="#bdc3c7">* 수치는 집계된 공감/반응 신호 기반 추산 | paperWanderer</text>
</svg>
