<svg xmlns="http://www.w3.org/2000/svg" width="800" height="440" viewBox="0 0 800 440"
     font-family="'Apple SD Gothic Neo', 'Malgun Gothic', Arial, sans-serif">
  <rect width="800" height="440" fill="#f8f9fa" rx="12"/>
  <text x="400" y="36" text-anchor="middle" font-size="17" font-weight="bold" fill="#2c3e50">봄 미세먼지 특별관리 — 커뮤니티 반응</text>
  <text x="400" y="54" text-anchor="middle" font-size="11" fill="#7f8c8d">네이버뉴스 · 커뮤니티 | 2026-03-05 20:00 KST</text>
  <rect x="490" y="66" width="12" height="12" fill="#27ae60" rx="2"/>
  <text x="506" y="77" font-size="11" fill="#2c3e50">긍정</text>
  <rect x="548" y="66" width="12" height="12" fill="#e74c3c" rx="2"/>
  <text x="564" y="77" font-size="11" fill="#2c3e50">부정</text>
  <rect x="606" y="66" width="12" height="12" fill="#95a5a6" rx="2"/>
  <text x="622" y="77" font-size="11" fill="#2c3e50">중립</text>

  <text x="60" y="100" font-size="13" font-weight="bold" fill="#2c3e50">네이버 뉴스 — 피로감·부정 우세</text>
  <rect x="60" y="110" width="68" height="28" fill="#27ae60" rx="3"/>
  <rect x="128" y="110" width="408" height="28" fill="#e74c3c" rx="3"/>
  <rect x="536" y="110" width="204" height="28" fill="#95a5a6" rx="3"/>
  <text x="60" y="152" text-anchor="start" font-size="11" fill="#27ae60">긍정 10%</text>
  <text x="400" y="152" text-anchor="middle" font-size="11" fill="#e74c3c">부정 60%</text>
  <text x="740" y="152" text-anchor="end" font-size="11" fill="#7f8c8d">중립 30%</text>
  <text x="60" y="168" font-size="11" fill="#555">💬 "매년 3월마다 특별관리 한다고 하는데 달라진 게 없다"</text>

  <text x="60" y="220" font-size="13" font-weight="bold" fill="#2c3e50">온라인 커뮤니티 — 불만·체념</text>
  <rect x="60" y="230" width="54" height="28" fill="#27ae60" rx="3"/>
  <rect x="114" y="230" width="374" height="28" fill="#e74c3c" rx="3"/>
  <rect x="488" y="230" width="252" height="28" fill="#95a5a6" rx="3"/>
  <text x="60" y="272" text-anchor="start" font-size="11" fill="#27ae60">긍정 8%</text>
  <text x="400" y="272" text-anchor="middle" font-size="11" fill="#e74c3c">부정 55%</text>
  <text x="740" y="272" text-anchor="end" font-size="11" fill="#7f8c8d">중립 37%</text>
  <text x="60" y="288" font-size="11" fill="#555">💬 "중국발 황사에 국내 대책만 세워봐야 근본 해결이 안 된다"</text>

  <text x="60" y="340" font-size="13" font-weight="bold" fill="#2c3e50">전체 종합 — 부정·피로감 우세</text>
  <rect x="60" y="350" width="61" height="28" fill="#27ae60" rx="3"/>
  <rect x="121" y="350" width="394" height="28" fill="#e74c3c" rx="3"/>
  <rect x="515" y="350" width="225" height="28" fill="#95a5a6" rx="3"/>
  <text x="60" y="392" text-anchor="start" font-size="11" fill="#27ae60">긍정 9%</text>
  <text x="400" y="392" text-anchor="middle" font-size="11" fill="#e74c3c">부정 58%</text>
  <text x="740" y="392" text-anchor="end" font-size="11" fill="#7f8c8d">중립 33%</text>
  <text x="60" y="408" font-size="11" fill="#555">💬 "이란 전쟁, 주식 폭락에 미세먼지까지. 3월이 너무하다"</text>

  <text x="400" y="426" text-anchor="middle" font-size="10" fill="#bdc3c7">* 수치는 집계된 공감/반응 신호 기반 추산 | paperWanderer</text>
</svg>