<svg xmlns="http://www.w3.org/2000/svg" width="800" height="440" viewBox="0 0 800 440"
     font-family="'Apple SD Gothic Neo', 'Malgun Gothic', Arial, sans-serif">
  <rect width="800" height="440" fill="#f8f9fa" rx="12"/>
  <text x="400" y="36" text-anchor="middle" font-size="17" font-weight="bold" fill="#2c3e50">문보경 WBC 만루홈런 — 커뮤니티 반응</text>
  <text x="400" y="54" text-anchor="middle" font-size="11" fill="#7f8c8d">네이버뉴스 · 커뮤니티 · SNS | 2026-03-05 23:00 KST</text>
  <rect x="490" y="66" width="12" height="12" fill="#27ae60" rx="2"/>
  <text x="506" y="77" font-size="11" fill="#2c3e50">긍정</text>
  <rect x="548" y="66" width="12" height="12" fill="#e74c3c" rx="2"/>
  <text x="564" y="77" font-size="11" fill="#2c3e50">부정</text>
  <rect x="606" y="66" width="12" height="12" fill="#95a5a6" rx="2"/>
  <text x="622" y="77" font-size="11" fill="#2c3e50">중립</text>

  <text x="60" y="100" font-size="13" font-weight="bold" fill="#2c3e50">네이버 뉴스 — 환호 압도</text>
  <rect x="60" y="110" width="612" height="28" fill="#27ae60" rx="3"/>
  <rect x="672" y="110" width="20" height="28" fill="#e74c3c" rx="3"/>
  <rect x="692" y="110" width="48" height="28" fill="#95a5a6" rx="3"/>
  <text x="60" y="152" text-anchor="start" font-size="11" fill="#27ae60">긍정 90%</text>
  <text x="400" y="152" text-anchor="middle" font-size="11" fill="#e74c3c">부정 3%</text>
  <text x="740" y="152" text-anchor="end" font-size="11" fill="#7f8c8d">중립 7%</text>
  <text x="60" y="168" font-size="11" fill="#555">💬 "130m가 말이 되냐. 진짜 소름 돋았다"</text>

  <text x="60" y="220" font-size="13" font-weight="bold" fill="#2c3e50">커뮤니티 — 스타 탄생 극찬</text>
  <rect x="60" y="230" width="598" height="28" fill="#27ae60" rx="3"/>
  <rect x="658" y="230" width="27" height="28" fill="#e74c3c" rx="3"/>
  <rect x="685" y="230" width="55" height="28" fill="#95a5a6" rx="3"/>
  <text x="60" y="272" text-anchor="start" font-size="11" fill="#27ae60">긍정 88%</text>
  <text x="400" y="272" text-anchor="middle" font-size="11" fill="#e74c3c">부정 4%</text>
  <text x="740" y="272" text-anchor="end" font-size="11" fill="#7f8c8d">중립 8%</text>
  <text x="60" y="288" font-size="11" fill="#555">💬 "문보경이 이번 WBC 최고 스타 탄생"</text>

  <text x="60" y="340" font-size="13" font-weight="bold" fill="#2c3e50">전체 종합 — 긍정 압도</text>
  <rect x="60" y="350" width="605" height="28" fill="#27ae60" rx="3"/>
  <rect x="665" y="350" width="20" height="28" fill="#e74c3c" rx="3"/>
  <rect x="685" y="350" width="55" height="28" fill="#95a5a6" rx="3"/>
  <text x="60" y="392" text-anchor="start" font-size="11" fill="#27ae60">긍정 89%</text>
  <text x="400" y="392" text-anchor="middle" font-size="11" fill="#e74c3c">부정 3%</text>
  <text x="740" y="392" text-anchor="end" font-size="11" fill="#7f8c8d">중립 8%</text>
  <text x="60" y="408" font-size="11" fill="#555">💬 "LG 팬으로서 자랑스럽다"</text>

  <text x="400" y="426" text-anchor="middle" font-size="10" fill="#bdc3c7">* 수치는 집계된 공감/반응 신호 기반 추산 | paperWanderer</text>
</svg>