<svg xmlns="http://www.w3.org/2000/svg" width="800" height="440" viewBox="0 0 800 440"
     font-family="'Apple SD Gothic Neo', 'Malgun Gothic', Arial, sans-serif">
  <rect width="800" height="440" fill="#f8f9fa" rx="12"/>
  <text x="400" y="36" text-anchor="middle" font-size="17" font-weight="bold" fill="#2c3e50">노인 지하철 무임승차 제한 논쟁 — 커뮤니티 반응</text>
  <text x="400" y="54" text-anchor="middle" font-size="11" fill="#7f8c8d">네이버 뉴스 댓글 · FM코리아 · 전체 합산 | 2026-03-16 22:00 KST</text>
  <rect x="490" y="66" width="12" height="12" fill="#27ae60" rx="2"/>
  <text x="506" y="77" font-size="11" fill="#2c3e50">긍정</text>
  <rect x="548" y="66" width="12" height="12" fill="#e74c3c" rx="2"/>
  <text x="564" y="77" font-size="11" fill="#2c3e50">부정</text>
  <rect x="606" y="66" width="12" height="12" fill="#95a5a6" rx="2"/>
  <text x="622" y="77" font-size="11" fill="#2c3e50">중립</text>

  <text x="60" y="100" font-size="13" font-weight="bold" fill="#2c3e50">네이버 뉴스 댓글 — 긍정 300건 / 부정 480건 / 중립 160건</text>
  <rect x="60" y="110" width="218" height="28" fill="#27ae60" rx="3"/>
  <rect x="278" y="110" width="348" height="28" fill="#e74c3c" rx="3"/>
  <rect x="626" y="110" width="114" height="28" fill="#95a5a6" rx="3"/>
  <text x="60" y="152" text-anchor="start" font-size="11" fill="#27ae60">긍정 32%</text>
  <text x="400" y="152" text-anchor="middle" font-size="11" fill="#e74c3c">부정 51%</text>
  <text x="740" y="152" text-anchor="end" font-size="11" fill="#7f8c8d">중립 17%</text>
  <text x="60" y="168" font-size="11" fill="#555">💬 "병원 가러 출퇴근 시간에 지하철 타는 노인들도 있는데 너무 가혹하다" (비공감 224)</text>

  <text x="60" y="220" font-size="13" font-weight="bold" fill="#2c3e50">FM코리아 — 긍정 190건 / 부정 300건 / 중립 270건</text>
  <rect x="60" y="230" width="169" height="28" fill="#27ae60" rx="3"/>
  <rect x="229" y="230" width="267" height="28" fill="#e74c3c" rx="3"/>
  <rect x="496" y="230" width="244" height="28" fill="#95a5a6" rx="3"/>
  <text x="60" y="272" text-anchor="start" font-size="11" fill="#27ae60">긍정 25%</text>
  <text x="400" y="272" text-anchor="middle" font-size="11" fill="#e74c3c">부정 39%</text>
  <text x="740" y="272" text-anchor="end" font-size="11" fill="#7f8c8d">중립 36%</text>
  <text x="60" y="288" font-size="11" fill="#555">💬 "65세가 노인 기준 자체가 너무 낮다 연령 상향이 먼저 아닌가" (공감 98)</text>

  <text x="60" y="340" font-size="13" font-weight="bold" fill="#2c3e50">전체 합산 — 긍정 490건 / 부정 780건 / 중립 430건</text>
  <rect x="60" y="350" width="196" height="28" fill="#27ae60" rx="3"/>
  <rect x="256" y="350" width="312" height="28" fill="#e74c3c" rx="3"/>
  <rect x="568" y="350" width="172" height="28" fill="#95a5a6" rx="3"/>
  <text x="60" y="392" text-anchor="start" font-size="11" fill="#27ae60">긍정 29%</text>
  <text x="400" y="392" text-anchor="middle" font-size="11" fill="#e74c3c">부정 46%</text>
  <text x="740" y="392" text-anchor="end" font-size="11" fill="#7f8c8d">중립 25%</text>
  <text x="60" y="408" font-size="11" fill="#555">💬 "그 돈이 어디서 왔는지 생각해봐라 세금 냈던 세대한테 이러면 안 된다" (비공감 198)</text>

  <text x="400" y="426" text-anchor="middle" font-size="10" fill="#bdc3c7">* 수치는 집계된 공감/반응 신호 기반 추산 | paperWanderer</text>
</svg>