<svg xmlns="http://www.w3.org/2000/svg" width="800" height="440" viewBox="0 0 800 440"
     font-family="'Apple SD Gothic Neo', 'Malgun Gothic', Arial, sans-serif">
  <rect width="800" height="440" fill="#f8f9fa" rx="12"/>
  <text x="400" y="36" text-anchor="middle" font-size="17" font-weight="bold" fill="#2c3e50">BTS 광화문 컴백 준비 — 커뮤니티 반응</text>
  <text x="400" y="54" text-anchor="middle" font-size="11" fill="#7f8c8d">더쿠/팬커뮤니티 · 네이버 뉴스 댓글 · 전체 합산 | 2026-03-16 22:00 KST</text>
  <rect x="490" y="66" width="12" height="12" fill="#27ae60" rx="2"/>
  <text x="506" y="77" font-size="11" fill="#2c3e50">긍정</text>
  <rect x="548" y="66" width="12" height="12" fill="#e74c3c" rx="2"/>
  <text x="564" y="77" font-size="11" fill="#2c3e50">부정</text>
  <rect x="606" y="66" width="12" height="12" fill="#95a5a6" rx="2"/>
  <text x="622" y="77" font-size="11" fill="#2c3e50">중립</text>

  <text x="60" y="100" font-size="13" font-weight="bold" fill="#2c3e50">더쿠/팬커뮤니티 — 긍정 1,080건 / 부정 68건 / 중립 92건</text>
  <rect x="60" y="110" width="600" height="28" fill="#27ae60" rx="3"/>
  <rect x="660" y="110" width="38" height="28" fill="#e74c3c" rx="3"/>
  <rect x="698" y="110" width="42" height="28" fill="#95a5a6" rx="3"/>
  <text x="60" y="152" text-anchor="start" font-size="11" fill="#27ae60">긍정 88%</text>
  <text x="400" y="152" text-anchor="middle" font-size="11" fill="#e74c3c">부정 6%</text>
  <text x="740" y="152" text-anchor="end" font-size="11" fill="#7f8c8d">중립 6%</text>
  <text x="60" y="168" font-size="11" fill="#555">💬 "드디어 광화문에 BTS 다시 서네 눈물 나온다" (공감 432)</text>

  <text x="60" y="220" font-size="13" font-weight="bold" fill="#2c3e50">네이버 뉴스 댓글 — 긍정 600건 / 부정 162건 / 중립 488건</text>
  <rect x="60" y="230" width="323" height="28" fill="#27ae60" rx="3"/>
  <rect x="383" y="230" width="87" height="28" fill="#e74c3c" rx="3"/>
  <rect x="470" y="230" width="270" height="28" fill="#95a5a6" rx="3"/>
  <text x="60" y="272" text-anchor="start" font-size="11" fill="#27ae60">긍정 48%</text>
  <text x="400" y="272" text-anchor="middle" font-size="11" fill="#e74c3c">부정 13%</text>
  <text x="740" y="272" text-anchor="end" font-size="11" fill="#7f8c8d">중립 39%</text>
  <text x="60" y="288" font-size="11" fill="#555">💬 "전 세계가 광화문 보러 온다 관광 효과만 해도 어마어마하다" (공감 278)</text>

  <text x="60" y="340" font-size="13" font-weight="bold" fill="#2c3e50">전체 합산 — 긍정 1,680건 / 부정 230건 / 중립 580건</text>
  <rect x="60" y="350" width="459" height="28" fill="#27ae60" rx="3"/>
  <rect x="519" y="350" width="63" height="28" fill="#e74c3c" rx="3"/>
  <rect x="582" y="350" width="158" height="28" fill="#95a5a6" rx="3"/>
  <text x="60" y="392" text-anchor="start" font-size="11" fill="#27ae60">긍정 68%</text>
  <text x="400" y="392" text-anchor="middle" font-size="11" fill="#e74c3c">부정 9%</text>
  <text x="740" y="392" text-anchor="end" font-size="11" fill="#7f8c8d">중립 23%</text>
  <text x="60" y="408" font-size="11" fill="#555">💬 "병역 다 마치고 완전체로 돌아온 게 진짜 감동 그 자체" (공감 378)</text>

  <text x="400" y="426" text-anchor="middle" font-size="10" fill="#bdc3c7">* 수치는 집계된 공감/반응 신호 기반 추산 | paperWanderer</text>
</svg>