<svg xmlns="http://www.w3.org/2000/svg" width="800" height="440" viewBox="0 0 800 440"
     font-family="'Apple SD Gothic Neo', 'Malgun Gothic', Arial, sans-serif">
  <rect width="800" height="440" fill="#f8f9fa" rx="12"/>
  <text x="400" y="36" text-anchor="middle" font-size="17" font-weight="bold" fill="#2c3e50">휘발유 2000원 시대 — 커뮤니티 반응</text>
  <text x="400" y="54" text-anchor="middle" font-size="11" fill="#7f8c8d">에펨코리아 · 네이버뉴스 · 트위터/X | 2026-03-26 22:00 KST</text>
  <rect x="490" y="66" width="12" height="12" fill="#27ae60" rx="2"/>
  <text x="506" y="77" font-size="11" fill="#2c3e50">긍정</text>
  <rect x="548" y="66" width="12" height="12" fill="#e74c3c" rx="2"/>
  <text x="564" y="77" font-size="11" fill="#2c3e50">부정</text>
  <rect x="606" y="66" width="12" height="12" fill="#95a5a6" rx="2"/>
  <text x="622" y="77" font-size="11" fill="#2c3e50">중립</text>

  <text x="60" y="100" font-size="13" font-weight="bold" fill="#2c3e50">에펨코리아 — 긍정 25건 / 부정 270건 / 중립 105건</text>
  <rect x="60" y="110" width="42" height="28" fill="#27ae60" rx="3"/>
  <rect x="102" y="110" width="459" height="28" fill="#e74c3c" rx="3"/>
  <rect x="561" y="110" width="179" height="28" fill="#95a5a6" rx="3"/>
  <text x="60" y="152" text-anchor="start" font-size="11" fill="#27ae60">긍정 6%</text>
  <text x="400" y="152" text-anchor="middle" font-size="11" fill="#e74c3c">부정 68%</text>
  <text x="740" y="152" text-anchor="end" font-size="11" fill="#7f8c8d">중립 26%</text>
  <text x="60" y="168" font-size="11" fill="#555">💬 "최고가격제라는 게 결국 가격 올리는 도구가 됐다"</text>

  <text x="60" y="220" font-size="13" font-weight="bold" fill="#2c3e50">네이버뉴스 — 긍정 22건 / 부정 260건 / 중립 118건</text>
  <rect x="60" y="230" width="37" height="28" fill="#27ae60" rx="3"/>
  <rect x="97" y="230" width="442" height="28" fill="#e74c3c" rx="3"/>
  <rect x="539" y="230" width="201" height="28" fill="#95a5a6" rx="3"/>
  <text x="60" y="272" text-anchor="start" font-size="11" fill="#27ae60">긍정 5%</text>
  <text x="400" y="272" text-anchor="middle" font-size="11" fill="#e74c3c">부정 65%</text>
  <text x="740" y="272" text-anchor="end" font-size="11" fill="#7f8c8d">중립 30%</text>
  <text x="60" y="288" font-size="11" fill="#555">💬 "전쟁이 빨리 끝나지 않으면 3000원 가는 거 아니냐"</text>

  <text x="60" y="340" font-size="13" font-weight="bold" fill="#2c3e50">트위터/X — 긍정 13건 / 부정 90건 / 중립 297건</text>
  <rect x="60" y="350" width="22" height="28" fill="#27ae60" rx="3"/>
  <rect x="82" y="350" width="153" height="28" fill="#e74c3c" rx="3"/>
  <rect x="235" y="350" width="505" height="28" fill="#95a5a6" rx="3"/>
  <text x="60" y="392" text-anchor="start" font-size="11" fill="#27ae60">긍정 3%</text>
  <text x="400" y="392" text-anchor="middle" font-size="11" fill="#e74c3c">부정 22%</text>
  <text x="740" y="392" text-anchor="end" font-size="11" fill="#7f8c8d">중립 75%</text>
  <text x="60" y="408" font-size="11" fill="#555">💬 "2000원 넘으면 차 포기해야 할 것 같다"</text>

  <text x="400" y="426" text-anchor="middle" font-size="10" fill="#bdc3c7">* 수치는 집계된 공감/반응 신호 기반 추산 | paperWanderer</text>
</svg>