<svg xmlns="http://www.w3.org/2000/svg" width="800" height="440" viewBox="0 0 800 440"
     font-family="'Apple SD Gothic Neo', 'Malgun Gothic', Arial, sans-serif">
  <rect width="800" height="440" fill="#f8f9fa" rx="12"/>
  <text x="400" y="36" text-anchor="middle" font-size="17" font-weight="bold" fill="#2c3e50">상조·가전 결합상품 — 커뮤니티 반응</text>
  <text x="400" y="54" text-anchor="middle" font-size="11" fill="#7f8c8d">네이버 뉴스 댓글 | 2026-03-25 20:00 KST</text>
  <rect x="490" y="66" width="12" height="12" fill="#27ae60" rx="2"/>
  <text x="506" y="77" font-size="11" fill="#2c3e50">긍정</text>
  <rect x="548" y="66" width="12" height="12" fill="#e74c3c" rx="2"/>
  <text x="564" y="77" font-size="11" fill="#2c3e50">부정</text>
  <rect x="606" y="66" width="12" height="12" fill="#95a5a6" rx="2"/>
  <text x="622" y="77" font-size="11" fill="#2c3e50">중립</text>

  <text x="60" y="100" font-size="13" font-weight="bold" fill="#2c3e50">네이버 뉴스 댓글 — 긍정(규제 찬성) 185건 / 부정 14건 / 중립 51건</text>
  <rect x="60" y="110" width="503" height="28" fill="#27ae60" rx="3"/>
  <rect x="563" y="110" width="38" height="28" fill="#e74c3c" rx="3"/>
  <rect x="601" y="110" width="139" height="28" fill="#95a5a6" rx="3"/>
  <text x="60" y="152" text-anchor="start" font-size="11" fill="#27ae60">긍정 74%</text>
  <text x="400" y="152" text-anchor="middle" font-size="11" fill="#e74c3c">부정 6%</text>
  <text x="740" y="152" text-anchor="end" font-size="11" fill="#7f8c8d">중립 20%</text>
  <text x="60" y="168" font-size="11" fill="#555">💬 "3.3배? 그냥 일반 가전 사는 게 훨씬 이득이네"</text>

  <text x="60" y="220" font-size="13" font-weight="bold" fill="#2c3e50">소비자 커뮤니티 — 피해 공감 다수</text>
  <rect x="60" y="230" width="462" height="28" fill="#27ae60" rx="3"/>
  <rect x="522" y="230" width="54" height="28" fill="#e74c3c" rx="3"/>
  <rect x="576" y="230" width="164" height="28" fill="#95a5a6" rx="3"/>
  <text x="60" y="272" text-anchor="start" font-size="11" fill="#27ae60">긍정 68%</text>
  <text x="400" y="272" text-anchor="middle" font-size="11" fill="#e74c3c">부정 8%</text>
  <text x="740" y="272" text-anchor="end" font-size="11" fill="#7f8c8d">중립 24%</text>
  <text x="60" y="288" font-size="11" fill="#555">💬 "상조 영업사원이 이 내용 제대로 설명 안 해준게 문제"</text>

  <text x="60" y="340" font-size="13" font-weight="bold" fill="#2c3e50">SNS 반응 — 공유·경각심 높음</text>
  <rect x="60" y="350" width="544" height="28" fill="#27ae60" rx="3"/>
  <rect x="604" y="350" width="27" height="28" fill="#e74c3c" rx="3"/>
  <rect x="631" y="350" width="109" height="28" fill="#95a5a6" rx="3"/>
  <text x="60" y="392" text-anchor="start" font-size="11" fill="#27ae60">긍정 80%</text>
  <text x="400" y="392" text-anchor="middle" font-size="11" fill="#e74c3c">부정 4%</text>
  <text x="740" y="392" text-anchor="end" font-size="11" fill="#7f8c8d">중립 16%</text>
  <text x="60" y="408" font-size="11" fill="#555">💬 "부모님께 가입하지 말라고 해야겠다"</text>

  <text x="400" y="426" text-anchor="middle" font-size="10" fill="#bdc3c7">* 수치는 집계된 공감/반응 신호 기반 추산 | paperWanderer</text>
</svg>