<svg xmlns="http://www.w3.org/2000/svg" width="800" height="440" viewBox="0 0 800 440"
     font-family="'Apple SD Gothic Neo', 'Malgun Gothic', Arial, sans-serif">
  <rect width="800" height="440" fill="#f8f9fa" rx="12"/>
  <text x="400" y="36" text-anchor="middle" font-size="17" font-weight="bold" fill="#2c3e50">한국 웹툰 글로벌 수출 역대 최대 — 커뮤니티 반응</text>
  <text x="400" y="54" text-anchor="middle" font-size="11" fill="#7f8c8d">네이버 뉴스 · 에펨코리아 · 디시인사이드 | 2026-03-07 21:00 KST</text>
  <rect x="490" y="66" width="12" height="12" fill="#27ae60" rx="2"/>
  <text x="506" y="77" font-size="11" fill="#2c3e50">긍정</text>
  <rect x="548" y="66" width="12" height="12" fill="#e74c3c" rx="2"/>
  <text x="564" y="77" font-size="11" fill="#2c3e50">부정</text>
  <rect x="606" y="66" width="12" height="12" fill="#95a5a6" rx="2"/>
  <text x="622" y="77" font-size="11" fill="#2c3e50">중립</text>

  <text x="60" y="100" font-size="13" font-weight="bold" fill="#2c3e50">네이버 뉴스 댓글 — 긍정 600건 / 부정 70건 / 중립 250건</text>
  <rect x="60" y="110" width="443" height="28" fill="#27ae60" rx="3"/>
  <rect x="503" y="110" width="52" height="28" fill="#e74c3c" rx="3"/>
  <rect x="555" y="110" width="185" height="28" fill="#95a5a6" rx="3"/>
  <text x="60" y="152" text-anchor="start" font-size="11" fill="#27ae60">긍정 65%</text>
  <text x="400" y="152" text-anchor="middle" font-size="11" fill="#e74c3c">부정 8%</text>
  <text x="740" y="152" text-anchor="end" font-size="11" fill="#7f8c8d">중립 27%</text>
  <text x="60" y="168" font-size="11" fill="#555">💬 "웹툰도 한국이 세계 1등. 자랑스럽다"</text>

  <text x="60" y="220" font-size="13" font-weight="bold" fill="#2c3e50">에펨코리아 — 긍정 320건 / 부정 40건 / 중립 220건</text>
  <rect x="60" y="230" width="375" height="28" fill="#27ae60" rx="3"/>
  <rect x="435" y="230" width="47" height="28" fill="#e74c3c" rx="3"/>
  <rect x="482" y="230" width="258" height="28" fill="#95a5a6" rx="3"/>
  <text x="60" y="272" text-anchor="start" font-size="11" fill="#27ae60">긍정 55%</text>
  <text x="400" y="272" text-anchor="middle" font-size="11" fill="#e74c3c">부정 7%</text>
  <text x="740" y="272" text-anchor="end" font-size="11" fill="#7f8c8d">중립 38%</text>
  <text x="60" y="288" font-size="11" fill="#555">💬 "네이버웹툰이 글로벌 플랫폼 된 게 진짜 대단하다"</text>

  <text x="60" y="340" font-size="13" font-weight="bold" fill="#2c3e50">디시인사이드 — 긍정 280건 / 부정 40건 / 중립 200건</text>
  <rect x="60" y="350" width="366" height="28" fill="#27ae60" rx="3"/>
  <rect x="426" y="350" width="52" height="28" fill="#e74c3c" rx="3"/>
  <rect x="478" y="350" width="262" height="28" fill="#95a5a6" rx="3"/>
  <text x="60" y="392" text-anchor="start" font-size="11" fill="#27ae60">긍정 54%</text>
  <text x="400" y="392" text-anchor="middle" font-size="11" fill="#e74c3c">부정 8%</text>
  <text x="740" y="392" text-anchor="end" font-size="11" fill="#7f8c8d">중립 38%</text>
  <text x="60" y="408" font-size="11" fill="#555">💬 "일본 만화 좋아하던 애들이 이제 한국 웹툰 본다는 게 신기하다"</text>

  <text x="400" y="426" text-anchor="middle" font-size="10" fill="#bdc3c7">* 수치는 집계된 공감/반응 신호 기반 추산 | paperWanderer</text>
</svg>