<svg xmlns="http://www.w3.org/2000/svg" width="800" height="440" viewBox="0 0 800 440"
     font-family="'Apple SD Gothic Neo', 'Malgun Gothic', Arial, sans-serif">
  <rect width="800" height="440" fill="#f8f9fa" rx="12"/>
  <text x="400" y="36" text-anchor="middle" font-size="17" font-weight="bold" fill="#2c3e50">대전 안전공업 화재 — 커뮤니티 반응</text>
  <text x="400" y="54" text-anchor="middle" font-size="11" fill="#7f8c8d">에펨코리아 · 더쿠 · 네이버뉴스댓글 | 2026-03-20 KST</text>
  <rect x="490" y="66" width="12" height="12" fill="#27ae60" rx="2"/>
  <text x="506" y="77" font-size="11" fill="#2c3e50">긍정</text>
  <rect x="548" y="66" width="12" height="12" fill="#e74c3c" rx="2"/>
  <text x="564" y="77" font-size="11" fill="#2c3e50">부정</text>
  <rect x="606" y="66" width="12" height="12" fill="#95a5a6" rx="2"/>
  <text x="622" y="77" font-size="11" fill="#2c3e50">중립</text>

  <text x="60" y="100" font-size="13" font-weight="bold" fill="#2c3e50">에펨코리아 — 긍정 350건 / 부정 20건 / 중립 30건</text>
  <rect x="60" y="110" width="595" height="28" fill="#27ae60" rx="3"/>
  <rect x="655" y="110" width="34" height="28" fill="#e74c3c" rx="3"/>
  <rect x="689" y="110" width="51" height="28" fill="#95a5a6" rx="3"/>
  <text x="60" y="152" text-anchor="start" font-size="11" fill="#27ae60">긍정 88%</text>
  <text x="400" y="152" text-anchor="middle" font-size="11" fill="#e74c3c">부정 5%</text>
  <text x="740" y="152" text-anchor="end" font-size="11" fill="#7f8c8d">중립 7%</text>
  <text x="60" y="168" font-size="11" fill="#555">💬 "고인의 명복을 빕니다. 이런 사고가 왜 반복되는지 정말 화납니다"</text>

  <text x="60" y="220" font-size="13" font-weight="bold" fill="#2c3e50">더쿠 — 긍정 280건 / 부정 15건 / 중립 30건</text>
  <rect x="60" y="230" width="587" height="28" fill="#27ae60" rx="3"/>
  <rect x="647" y="230" width="31" height="28" fill="#e74c3c" rx="3"/>
  <rect x="678" y="230" width="62" height="28" fill="#95a5a6" rx="3"/>
  <text x="60" y="272" text-anchor="start" font-size="11" fill="#27ae60">긍정 86%</text>
  <text x="400" y="272" text-anchor="middle" font-size="11" fill="#e74c3c">부정 5%</text>
  <text x="740" y="272" text-anchor="end" font-size="11" fill="#7f8c8d">중립 9%</text>
  <text x="60" y="288" font-size="11" fill="#555">💬 "안전 불감증이 부른 인재다. 기업 오너에게 강력한 책임을 물어야"</text>

  <text x="60" y="340" font-size="13" font-weight="bold" fill="#2c3e50">네이버뉴스댓글 — 긍정 420건 / 부정 30건 / 중립 50건</text>
  <rect x="60" y="350" width="571" height="28" fill="#27ae60" rx="3"/>
  <rect x="631" y="350" width="41" height="28" fill="#e74c3c" rx="3"/>
  <rect x="672" y="350" width="68" height="28" fill="#95a5a6" rx="3"/>
  <text x="60" y="392" text-anchor="start" font-size="11" fill="#27ae60">긍정 84%</text>
  <text x="400" y="392" text-anchor="middle" font-size="11" fill="#e74c3c">부정 6%</text>
  <text x="740" y="392" text-anchor="end" font-size="11" fill="#7f8c8d">중립 10%</text>
  <text x="60" y="408" font-size="11" fill="#555">💬 "왜 점심시간에 화재가 났을 때 나트륨 위험 구역 대피 훈련이 없었을까"</text>

  <text x="400" y="426" text-anchor="middle" font-size="10" fill="#bdc3c7">* 수치는 집계된 공감/반응 신호 기반 추산 | paperWanderer</text>
</svg>