<svg xmlns="http://www.w3.org/2000/svg" width="800" height="440" viewBox="0 0 800 440"
     font-family="'Apple SD Gothic Neo', 'Malgun Gothic', Arial, sans-serif">
  <rect width="800" height="440" fill="#f8f9fa" rx="12"/>
  <text x="400" y="36" text-anchor="middle" font-size="17" font-weight="bold" fill="#2c3e50">한국 방산 수출 기회 — 커뮤니티 반응</text>
  <text x="400" y="54" text-anchor="middle" font-size="11" fill="#7f8c8d">에펨코리아 · 더쿠 · 네이버뉴스 | 2026-03-17 KST</text>
  <rect x="490" y="66" width="12" height="12" fill="#27ae60" rx="2"/>
  <text x="506" y="77" font-size="11" fill="#2c3e50">긍정</text>
  <rect x="548" y="66" width="12" height="12" fill="#e74c3c" rx="2"/>
  <text x="564" y="77" font-size="11" fill="#2c3e50">부정</text>
  <rect x="606" y="66" width="12" height="12" fill="#95a5a6" rx="2"/>
  <text x="622" y="77" font-size="11" fill="#2c3e50">중립</text>

  <text x="60" y="100" font-size="13" font-weight="bold" fill="#2c3e50">에펨코리아 — 기대 408건 / 우려 136건 / 중립 136건</text>
  <rect x="60" y="110" width="408" height="28" fill="#27ae60" rx="3"/>
  <rect x="468" y="110" width="136" height="28" fill="#e74c3c" rx="3"/>
  <rect x="604" y="110" width="136" height="28" fill="#95a5a6" rx="3"/>
  <text x="60" y="152" text-anchor="start" font-size="11" fill="#27ae60">긍정 60%</text>
  <text x="400" y="152" text-anchor="middle" font-size="11" fill="#e74c3c">부정 20%</text>
  <text x="740" y="152" text-anchor="end" font-size="11" fill="#7f8c8d">중립 20%</text>
  <text x="60" y="168" font-size="11" fill="#555">💬 "경제 어려운 때 방산 수출이라도 잘 되면 다행이다"</text>

  <text x="60" y="220" font-size="13" font-weight="bold" fill="#2c3e50">더쿠 — 기대 340건 / 우려 204건 / 중립 136건</text>
  <rect x="60" y="230" width="340" height="28" fill="#27ae60" rx="3"/>
  <rect x="400" y="230" width="204" height="28" fill="#e74c3c" rx="3"/>
  <rect x="604" y="230" width="136" height="28" fill="#95a5a6" rx="3"/>
  <text x="60" y="272" text-anchor="start" font-size="11" fill="#27ae60">긍정 50%</text>
  <text x="400" y="272" text-anchor="middle" font-size="11" fill="#e74c3c">부정 30%</text>
  <text x="740" y="272" text-anchor="end" font-size="11" fill="#7f8c8d">중립 20%</text>
  <text x="60" y="288" font-size="11" fill="#555">💬 "전쟁 중인 지역에 무기 수출이 맞냐. 경제적 이익만 보면 안 된다"</text>

  <text x="60" y="340" font-size="13" font-weight="bold" fill="#2c3e50">네이버뉴스 댓글 — 기대 408건 / 우려 204건 / 중립 68건</text>
  <rect x="60" y="350" width="408" height="28" fill="#27ae60" rx="3"/>
  <rect x="468" y="350" width="204" height="28" fill="#e74c3c" rx="3"/>
  <rect x="672" y="350" width="68" height="28" fill="#95a5a6" rx="3"/>
  <text x="60" y="392" text-anchor="start" font-size="11" fill="#27ae60">긍정 60%</text>
  <text x="400" y="392" text-anchor="middle" font-size="11" fill="#e74c3c">부정 30%</text>
  <text x="740" y="392" text-anchor="end" font-size="11" fill="#7f8c8d">중립 10%</text>
  <text x="60" y="408" font-size="11" fill="#555">💬 "청룡2·K9 실전 검증이 되면 오히려 더 잘 팔린다"</text>

  <text x="400" y="426" text-anchor="middle" font-size="10" fill="#bdc3c7">* 수치는 집계된 공감/반응 신호 기반 추산 | paperWanderer</text>
</svg>