<svg xmlns="http://www.w3.org/2000/svg" width="800" height="440" viewBox="0 0 800 440"
     font-family="'Apple SD Gothic Neo', 'Malgun Gothic', Arial, sans-serif">
  <rect width="800" height="440" fill="#f8f9fa" rx="12"/>
  <text x="400" y="36" text-anchor="middle" font-size="17" font-weight="bold" fill="#2c3e50">SOOP KBO 해외 생중계 — 커뮤니티 반응</text>
  <text x="400" y="54" text-anchor="middle" font-size="11" fill="#7f8c8d">루리웹 · 에펨코리아 · 트위터/X | 2026-03-26 22:00 KST</text>
  <rect x="490" y="66" width="12" height="12" fill="#27ae60" rx="2"/>
  <text x="506" y="77" font-size="11" fill="#2c3e50">긍정</text>
  <rect x="548" y="66" width="12" height="12" fill="#e74c3c" rx="2"/>
  <text x="564" y="77" font-size="11" fill="#2c3e50">부정</text>
  <rect x="606" y="66" width="12" height="12" fill="#95a5a6" rx="2"/>
  <text x="622" y="77" font-size="11" fill="#2c3e50">중립</text>

  <text x="60" y="100" font-size="13" font-weight="bold" fill="#2c3e50">루리웹 — 긍정 130건 / 부정 10건 / 중립 110건</text>
  <rect x="60" y="110" width="354" height="28" fill="#27ae60" rx="3"/>
  <rect x="414" y="110" width="27" height="28" fill="#e74c3c" rx="3"/>
  <rect x="441" y="110" width="299" height="28" fill="#95a5a6" rx="3"/>
  <text x="60" y="152" text-anchor="start" font-size="11" fill="#27ae60">긍정 52%</text>
  <text x="400" y="152" text-anchor="middle" font-size="11" fill="#e74c3c">부정 4%</text>
  <text x="740" y="152" text-anchor="end" font-size="11" fill="#7f8c8d">중립 44%</text>
  <text x="60" y="168" font-size="11" fill="#555">💬 "SOOP이 3년째 하고 있구나. 해외 교민들한테 정말 좋은 서비스다"</text>

  <text x="60" y="220" font-size="13" font-weight="bold" fill="#2c3e50">에펨코리아 — 긍정 110건 / 부정 10건 / 중립 130건</text>
  <rect x="60" y="230" width="299" height="28" fill="#27ae60" rx="3"/>
  <rect x="359" y="230" width="27" height="28" fill="#e74c3c" rx="3"/>
  <rect x="386" y="230" width="354" height="28" fill="#95a5a6" rx="3"/>
  <text x="60" y="272" text-anchor="start" font-size="11" fill="#27ae60">긍정 44%</text>
  <text x="400" y="272" text-anchor="middle" font-size="11" fill="#e74c3c">부정 4%</text>
  <text x="740" y="272" text-anchor="end" font-size="11" fill="#7f8c8d">중립 52%</text>
  <text x="60" y="288" font-size="11" fill="#555">💬 "국내 중계도 더 잘해줬으면 좋겠다"</text>

  <text x="60" y="340" font-size="13" font-weight="bold" fill="#2c3e50">트위터/X — 긍정 70건 / 부정 5건 / 중립 125건</text>
  <rect x="60" y="350" width="238" height="28" fill="#27ae60" rx="3"/>
  <rect x="298" y="350" width="17" height="28" fill="#e74c3c" rx="3"/>
  <rect x="315" y="350" width="425" height="28" fill="#95a5a6" rx="3"/>
  <text x="60" y="392" text-anchor="start" font-size="11" fill="#27ae60">긍정 35%</text>
  <text x="400" y="392" text-anchor="middle" font-size="11" fill="#e74c3c">부정 2%</text>
  <text x="740" y="392" text-anchor="end" font-size="11" fill="#7f8c8d">중립 63%</text>
  <text x="60" y="408" font-size="11" fill="#555">💬 "저지연 스트리밍이면 해외에서도 거의 생방 느낌으로 볼 수 있겠다"</text>

  <text x="400" y="426" text-anchor="middle" font-size="10" fill="#bdc3c7">* 수치는 집계된 공감/반응 신호 기반 추산 | paperWanderer</text>
</svg>