<svg xmlns="http://www.w3.org/2000/svg" width="800" height="440" viewBox="0 0 800 440"
     font-family="'Apple SD Gothic Neo', 'Malgun Gothic', Arial, sans-serif">
  <rect width="800" height="440" fill="#f8f9fa" rx="12"/>
  <text x="400" y="36" text-anchor="middle" font-size="17" font-weight="bold" fill="#2c3e50">방탄소년단 '아리랑' 컴백 — 커뮤니티 반응</text>
  <text x="400" y="54" text-anchor="middle" font-size="11" fill="#7f8c8d">트위터/X · 에펨코리아 · 네이트연예 | 2026-03-26 22:00 KST</text>
  <rect x="490" y="66" width="12" height="12" fill="#27ae60" rx="2"/>
  <text x="506" y="77" font-size="11" fill="#2c3e50">긍정</text>
  <rect x="548" y="66" width="12" height="12" fill="#e74c3c" rx="2"/>
  <text x="564" y="77" font-size="11" fill="#2c3e50">부정</text>
  <rect x="606" y="66" width="12" height="12" fill="#95a5a6" rx="2"/>
  <text x="622" y="77" font-size="11" fill="#2c3e50">중립</text>

  <text x="60" y="100" font-size="13" font-weight="bold" fill="#2c3e50">트위터/X — 긍정 500건 / 부정 13건 / 중립 337건</text>
  <rect x="60" y="110" width="400" height="28" fill="#27ae60" rx="3"/>
  <rect x="460" y="110" width="10" height="28" fill="#e74c3c" rx="3"/>
  <rect x="470" y="110" width="270" height="28" fill="#95a5a6" rx="3"/>
  <text x="60" y="152" text-anchor="start" font-size="11" fill="#27ae60">긍정 59%</text>
  <text x="400" y="152" text-anchor="middle" font-size="11" fill="#e74c3c">부정 1%</text>
  <text x="740" y="152" text-anchor="end" font-size="11" fill="#7f8c8d">중립 40%</text>
  <text x="60" y="168" font-size="11" fill="#555">💬 "방탄이 돌아왔다. 이란전쟁 뉴스만 보다가 오늘 처음 행복했다"</text>

  <text x="60" y="220" font-size="13" font-weight="bold" fill="#2c3e50">에펨코리아 — 긍정 400건 / 부정 12건 / 중립 288건</text>
  <rect x="60" y="230" width="389" height="28" fill="#27ae60" rx="3"/>
  <rect x="449" y="230" width="12" height="28" fill="#e74c3c" rx="3"/>
  <rect x="461" y="230" width="279" height="28" fill="#95a5a6" rx="3"/>
  <text x="60" y="272" text-anchor="start" font-size="11" fill="#27ae60">긍정 57%</text>
  <text x="400" y="272" text-anchor="middle" font-size="11" fill="#e74c3c">부정 2%</text>
  <text x="740" y="272" text-anchor="end" font-size="11" fill="#7f8c8d">중립 41%</text>
  <text x="60" y="288" font-size="11" fill="#555">💬 "지민 무대는 진짜 압도적이었다. 광화문 컴백 공연 전설"</text>

  <text x="60" y="340" font-size="13" font-weight="bold" fill="#2c3e50">네이트연예 — 긍정 300건 / 부정 5건 / 중립 225건</text>
  <rect x="60" y="350" width="385" height="28" fill="#27ae60" rx="3"/>
  <rect x="445" y="350" width="6" height="28" fill="#e74c3c" rx="3"/>
  <rect x="451" y="350" width="289" height="28" fill="#95a5a6" rx="3"/>
  <text x="60" y="392" text-anchor="start" font-size="11" fill="#27ae60">긍정 57%</text>
  <text x="400" y="392" text-anchor="middle" font-size="11" fill="#e74c3c">부정 1%</text>
  <text x="740" y="392" text-anchor="end" font-size="11" fill="#7f8c8d">중립 42%</text>
  <text x="60" y="408" font-size="11" fill="#555">💬 "아리랑 타이틀곡이 이 시국에 왜 이렇게 울리냐"</text>

  <text x="400" y="426" text-anchor="middle" font-size="10" fill="#bdc3c7">* 수치는 집계된 공감/반응 신호 기반 추산 | paperWanderer</text>
</svg>