<svg xmlns="http://www.w3.org/2000/svg" width="800" height="440" viewBox="0 0 800 440"
     font-family="'Apple SD Gothic Neo', 'Malgun Gothic', Arial, sans-serif">
  <rect width="800" height="440" fill="#f8f9fa" rx="12"/>
  <text x="400" y="36" text-anchor="middle" font-size="17" font-weight="bold" fill="#2c3e50">이재명 지지율 하락 — 커뮤니티 반응</text>
  <text x="400" y="54" text-anchor="middle" font-size="11" fill="#7f8c8d">리얼미터 · 네이버뉴스 · 온라인커뮤니티 | 2026-03-02 KST</text>
  <rect x="490" y="66" width="12" height="12" fill="#27ae60" rx="2"/>
  <text x="506" y="77" font-size="11" fill="#2c3e50">긍정</text>
  <rect x="548" y="66" width="12" height="12" fill="#e74c3c" rx="2"/>
  <text x="564" y="77" font-size="11" fill="#2c3e50">부정</text>
  <rect x="606" y="66" width="12" height="12" fill="#95a5a6" rx="2"/>
  <text x="622" y="77" font-size="11" fill="#2c3e50">중립</text>

  <text x="60" y="100" font-size="13" font-weight="bold" fill="#2c3e50">리얼미터 조사 — 긍정 57.1% / 부정 38.2% / 중립 4.7%</text>
  <rect x="60" y="110" width="388" height="28" fill="#27ae60" rx="3"/>
  <rect x="448" y="110" width="260" height="28" fill="#e74c3c" rx="3"/>
  <rect x="708" y="110" width="32" height="28" fill="#95a5a6" rx="3"/>
  <text x="60" y="152" text-anchor="start" font-size="11" fill="#27ae60">긍정 57%</text>
  <text x="400" y="152" text-anchor="middle" font-size="11" fill="#e74c3c">부정 38%</text>
  <text x="740" y="152" text-anchor="end" font-size="11" fill="#7f8c8d">중립 5%</text>
  <text x="60" y="168" font-size="11" fill="#555">💬 "행정통합 지역 차별이 문제다, 왜 광주만 챙기나"</text>

  <text x="60" y="220" font-size="13" font-weight="bold" fill="#2c3e50">네이버 뉴스 댓글 — 긍정 40건 / 부정 45건 / 중립 15건</text>
  <rect x="60" y="230" width="272" height="28" fill="#27ae60" rx="3"/>
  <rect x="332" y="230" width="306" height="28" fill="#e74c3c" rx="3"/>
  <rect x="638" y="230" width="102" height="28" fill="#95a5a6" rx="3"/>
  <text x="60" y="272" text-anchor="start" font-size="11" fill="#27ae60">긍정 40%</text>
  <text x="400" y="272" text-anchor="middle" font-size="11" fill="#e74c3c">부정 45%</text>
  <text x="740" y="272" text-anchor="end" font-size="11" fill="#7f8c8d">중립 15%</text>
  <text x="60" y="288" font-size="11" fill="#555">💬 "서울 집값 떨어지면서 민심 이탈 시작된 거 아닌가"</text>

  <text x="60" y="340" font-size="13" font-weight="bold" fill="#2c3e50">온라인커뮤니티 종합 — 긍정 38건 / 부정 48건 / 중립 14건</text>
  <rect x="60" y="350" width="258" height="28" fill="#27ae60" rx="3"/>
  <rect x="318" y="350" width="326" height="28" fill="#e74c3c" rx="3"/>
  <rect x="644" y="350" width="96" height="28" fill="#95a5a6" rx="3"/>
  <text x="60" y="392" text-anchor="start" font-size="11" fill="#27ae60">긍정 38%</text>
  <text x="400" y="392" text-anchor="middle" font-size="11" fill="#e74c3c">부정 48%</text>
  <text x="740" y="392" text-anchor="end" font-size="11" fill="#7f8c8d">중립 14%</text>
  <text x="60" y="408" font-size="11" fill="#555">💬 "6주만에 꺾인 게 중요, 서울 과반 이탈이 핵심"</text>

  <text x="400" y="426" text-anchor="middle" font-size="10" fill="#bdc3c7">* 수치는 집계된 공감/반응 신호 기반 추산 | paperWanderer</text>
</svg>