<svg xmlns="http://www.w3.org/2000/svg" width="800" height="440" viewBox="0 0 800 440"
     font-family="'Apple SD Gothic Neo', 'Malgun Gothic', Arial, sans-serif">
  <rect width="800" height="440" fill="#f8f9fa" rx="12"/>
  <text x="400" y="36" text-anchor="middle" font-size="17" font-weight="bold" fill="#2c3e50">BTS 아리랑 차트석권 — 커뮤니티 반응</text>
  <text x="400" y="54" text-anchor="middle" font-size="11" fill="#7f8c8d">더쿠 · 머니투데이 댓글 · 네이버 뉴스 | 2026-03-22 KST</text>
  <rect x="490" y="66" width="12" height="12" fill="#27ae60" rx="2"/>
  <text x="506" y="77" font-size="11" fill="#2c3e50">긍정</text>
  <rect x="548" y="66" width="12" height="12" fill="#e74c3c" rx="2"/>
  <text x="564" y="77" font-size="11" fill="#2c3e50">부정</text>
  <rect x="606" y="66" width="12" height="12" fill="#95a5a6" rx="2"/>
  <text x="622" y="77" font-size="11" fill="#2c3e50">중립</text>

  <text x="60" y="100" font-size="13" font-weight="bold" fill="#2c3e50">더쿠(theqoo) — 긍정 850건 / 부정 60건 / 중립 81건</text>
  <rect x="60" y="110" width="583" height="28" fill="#27ae60" rx="3"/>
  <rect x="643" y="110" width="41" height="28" fill="#e74c3c" rx="3"/>
  <rect x="684" y="110" width="56" height="28" fill="#95a5a6" rx="3"/>
  <text x="60" y="152" text-anchor="start" font-size="11" fill="#27ae60">긍정 86%</text>
  <text x="400" y="152" text-anchor="middle" font-size="11" fill="#e74c3c">부정 6%</text>
  <text x="740" y="152" text-anchor="end" font-size="11" fill="#7f8c8d">중립 8%</text>
  <text x="60" y="168" font-size="11" fill="#555">💬 "전곡 1~14위가 말이 됨? 진짜 레전드" (공감 991)</text>

  <text x="60" y="220" font-size="13" font-weight="bold" fill="#2c3e50">네이버 뉴스 댓글 — 긍정 780건 / 부정 45건 / 중립 55건</text>
  <rect x="60" y="230" width="602" height="28" fill="#27ae60" rx="3"/>
  <rect x="662" y="230" width="35" height="28" fill="#e74c3c" rx="3"/>
  <rect x="697" y="230" width="43" height="28" fill="#95a5a6" rx="3"/>
  <text x="60" y="272" text-anchor="start" font-size="11" fill="#27ae60">긍정 89%</text>
  <text x="400" y="272" text-anchor="middle" font-size="11" fill="#e74c3c">부정 5%</text>
  <text x="740" y="272" text-anchor="end" font-size="11" fill="#7f8c8d">중립 6%</text>
  <text x="60" y="288" font-size="11" fill="#555">💬 "K팝 역사를 다시 썼다, 이게 BTS 급이지" (공감 340)</text>

  <text x="60" y="340" font-size="13" font-weight="bold" fill="#2c3e50">머니투데이 댓글 — 긍정 520건 / 부정 30건 / 중립 50건</text>
  <rect x="60" y="350" width="589" height="28" fill="#27ae60" rx="3"/>
  <rect x="649" y="350" width="34" height="28" fill="#e74c3c" rx="3"/>
  <rect x="683" y="350" width="57" height="28" fill="#95a5a6" rx="3"/>
  <text x="60" y="392" text-anchor="start" font-size="11" fill="#27ae60">긍정 87%</text>
  <text x="400" y="392" text-anchor="middle" font-size="11" fill="#e74c3c">부정 5%</text>
  <text x="740" y="392" text-anchor="end" font-size="11" fill="#7f8c8d">중립 8%</text>
  <text x="60" y="408" font-size="11" fill="#555">💬 "스포티파이 1위도 아니고 1~14위 싹쓸이, 이게 나라 망신?" (공감 89)</text>

  <text x="400" y="426" text-anchor="middle" font-size="10" fill="#bdc3c7">* 수치는 집계된 공감/반응 신호 기반 추산 | paperWanderer</text>
</svg>